%TF.GenerationSoftware,KiCad,Pcbnew,5.1.10-88a1d61d58~88~ubuntu20.04.1*%
%TF.CreationDate,2021-06-08T11:44:55+07:00*%
%TF.ProjectId,Analog_decoupling,416e616c-6f67-45f6-9465-636f75706c69,rev?*%
%TF.SameCoordinates,Original*%
%TF.FileFunction,Soldermask,Top*%
%TF.FilePolarity,Negative*%
%FSLAX46Y46*%
G04 Gerber Fmt 4.6, Leading zero omitted, Abs format (unit mm)*
G04 Created by KiCad (PCBNEW 5.1.10-88a1d61d58~88~ubuntu20.04.1) date 2021-06-08 11:44:55*
%MOMM*%
%LPD*%
G01*
G04 APERTURE LIST*
%ADD10C,1.952000*%
%ADD11O,20.102000X2.102000*%
%ADD12C,3.902000*%
%ADD13C,2.702000*%
%ADD14C,1.602000*%
%ADD15O,1.702000X1.702000*%
%ADD16C,1.702000*%
%ADD17C,2.602000*%
%ADD18C,2.302000*%
%ADD19C,2.122000*%
%ADD20O,2.302000X2.302000*%
%ADD21C,3.802000*%
%ADD22C,0.100000*%
G04 APERTURE END LIST*
%TO.C,U9*%
G36*
G01*
X204724000Y-113723559D02*
X204724000Y-113723559D01*
G75*
G02*
X205086066Y-114085625I0J-362066D01*
G01*
X205086066Y-115717421D01*
G75*
G02*
X204724000Y-116079487I-362066J0D01*
G01*
X204724000Y-116079487D01*
G75*
G02*
X204361934Y-115717421I0J362066D01*
G01*
X204361934Y-114085625D01*
G75*
G02*
X204724000Y-113723559I362066J0D01*
G01*
G37*
G36*
G01*
X203454000Y-113723559D02*
X203454000Y-113723559D01*
G75*
G02*
X203816066Y-114085625I0J-362066D01*
G01*
X203816066Y-115717421D01*
G75*
G02*
X203454000Y-116079487I-362066J0D01*
G01*
X203454000Y-116079487D01*
G75*
G02*
X203091934Y-115717421I0J362066D01*
G01*
X203091934Y-114085625D01*
G75*
G02*
X203454000Y-113723559I362066J0D01*
G01*
G37*
G36*
G01*
X202184000Y-113723559D02*
X202184000Y-113723559D01*
G75*
G02*
X202546066Y-114085625I0J-362066D01*
G01*
X202546066Y-115717421D01*
G75*
G02*
X202184000Y-116079487I-362066J0D01*
G01*
X202184000Y-116079487D01*
G75*
G02*
X201821934Y-115717421I0J362066D01*
G01*
X201821934Y-114085625D01*
G75*
G02*
X202184000Y-113723559I362066J0D01*
G01*
G37*
G36*
G01*
X200914000Y-113723559D02*
X200914000Y-113723559D01*
G75*
G02*
X201276066Y-114085625I0J-362066D01*
G01*
X201276066Y-115717421D01*
G75*
G02*
X200914000Y-116079487I-362066J0D01*
G01*
X200914000Y-116079487D01*
G75*
G02*
X200551934Y-115717421I0J362066D01*
G01*
X200551934Y-114085625D01*
G75*
G02*
X200914000Y-113723559I362066J0D01*
G01*
G37*
G36*
G01*
X200914000Y-103122513D02*
X200914000Y-103122513D01*
G75*
G02*
X201276066Y-103484579I0J-362066D01*
G01*
X201276066Y-105116375D01*
G75*
G02*
X200914000Y-105478441I-362066J0D01*
G01*
X200914000Y-105478441D01*
G75*
G02*
X200551934Y-105116375I0J362066D01*
G01*
X200551934Y-103484579D01*
G75*
G02*
X200914000Y-103122513I362066J0D01*
G01*
G37*
G36*
G01*
X202184000Y-103122513D02*
X202184000Y-103122513D01*
G75*
G02*
X202546066Y-103484579I0J-362066D01*
G01*
X202546066Y-105116375D01*
G75*
G02*
X202184000Y-105478441I-362066J0D01*
G01*
X202184000Y-105478441D01*
G75*
G02*
X201821934Y-105116375I0J362066D01*
G01*
X201821934Y-103484579D01*
G75*
G02*
X202184000Y-103122513I362066J0D01*
G01*
G37*
G36*
G01*
X203454000Y-103122513D02*
X203454000Y-103122513D01*
G75*
G02*
X203816066Y-103484579I0J-362066D01*
G01*
X203816066Y-105116375D01*
G75*
G02*
X203454000Y-105478441I-362066J0D01*
G01*
X203454000Y-105478441D01*
G75*
G02*
X203091934Y-105116375I0J362066D01*
G01*
X203091934Y-103484579D01*
G75*
G02*
X203454000Y-103122513I362066J0D01*
G01*
G37*
G36*
G01*
X204412934Y-103122513D02*
X205035066Y-103122513D01*
G75*
G02*
X205086066Y-103173513I0J-51000D01*
G01*
X205086066Y-105427441D01*
G75*
G02*
X205035066Y-105478441I-51000J0D01*
G01*
X204412934Y-105478441D01*
G75*
G02*
X204361934Y-105427441I0J51000D01*
G01*
X204361934Y-103173513D01*
G75*
G02*
X204412934Y-103122513I51000J0D01*
G01*
G37*
%TD*%
D10*
%TO.C,PS3*%
X191770000Y-104013000D03*
X191770000Y-106553000D03*
X191770000Y-109093000D03*
X191770000Y-114173000D03*
G36*
G01*
X192746000Y-115788000D02*
X192746000Y-117638000D01*
G75*
G02*
X192695000Y-117689000I-51000J0D01*
G01*
X190845000Y-117689000D01*
G75*
G02*
X190794000Y-117638000I0J51000D01*
G01*
X190794000Y-115788000D01*
G75*
G02*
X190845000Y-115737000I51000J0D01*
G01*
X192695000Y-115737000D01*
G75*
G02*
X192746000Y-115788000I0J-51000D01*
G01*
G37*
%TD*%
%TO.C,U5*%
G36*
G01*
X153035000Y-113596559D02*
X153035000Y-113596559D01*
G75*
G02*
X153397066Y-113958625I0J-362066D01*
G01*
X153397066Y-115590421D01*
G75*
G02*
X153035000Y-115952487I-362066J0D01*
G01*
X153035000Y-115952487D01*
G75*
G02*
X152672934Y-115590421I0J362066D01*
G01*
X152672934Y-113958625D01*
G75*
G02*
X153035000Y-113596559I362066J0D01*
G01*
G37*
G36*
G01*
X151765000Y-113596559D02*
X151765000Y-113596559D01*
G75*
G02*
X152127066Y-113958625I0J-362066D01*
G01*
X152127066Y-115590421D01*
G75*
G02*
X151765000Y-115952487I-362066J0D01*
G01*
X151765000Y-115952487D01*
G75*
G02*
X151402934Y-115590421I0J362066D01*
G01*
X151402934Y-113958625D01*
G75*
G02*
X151765000Y-113596559I362066J0D01*
G01*
G37*
G36*
G01*
X150495000Y-113596559D02*
X150495000Y-113596559D01*
G75*
G02*
X150857066Y-113958625I0J-362066D01*
G01*
X150857066Y-115590421D01*
G75*
G02*
X150495000Y-115952487I-362066J0D01*
G01*
X150495000Y-115952487D01*
G75*
G02*
X150132934Y-115590421I0J362066D01*
G01*
X150132934Y-113958625D01*
G75*
G02*
X150495000Y-113596559I362066J0D01*
G01*
G37*
G36*
G01*
X149225000Y-113596559D02*
X149225000Y-113596559D01*
G75*
G02*
X149587066Y-113958625I0J-362066D01*
G01*
X149587066Y-115590421D01*
G75*
G02*
X149225000Y-115952487I-362066J0D01*
G01*
X149225000Y-115952487D01*
G75*
G02*
X148862934Y-115590421I0J362066D01*
G01*
X148862934Y-113958625D01*
G75*
G02*
X149225000Y-113596559I362066J0D01*
G01*
G37*
G36*
G01*
X149225000Y-102995513D02*
X149225000Y-102995513D01*
G75*
G02*
X149587066Y-103357579I0J-362066D01*
G01*
X149587066Y-104989375D01*
G75*
G02*
X149225000Y-105351441I-362066J0D01*
G01*
X149225000Y-105351441D01*
G75*
G02*
X148862934Y-104989375I0J362066D01*
G01*
X148862934Y-103357579D01*
G75*
G02*
X149225000Y-102995513I362066J0D01*
G01*
G37*
G36*
G01*
X150495000Y-102995513D02*
X150495000Y-102995513D01*
G75*
G02*
X150857066Y-103357579I0J-362066D01*
G01*
X150857066Y-104989375D01*
G75*
G02*
X150495000Y-105351441I-362066J0D01*
G01*
X150495000Y-105351441D01*
G75*
G02*
X150132934Y-104989375I0J362066D01*
G01*
X150132934Y-103357579D01*
G75*
G02*
X150495000Y-102995513I362066J0D01*
G01*
G37*
G36*
G01*
X151765000Y-102995513D02*
X151765000Y-102995513D01*
G75*
G02*
X152127066Y-103357579I0J-362066D01*
G01*
X152127066Y-104989375D01*
G75*
G02*
X151765000Y-105351441I-362066J0D01*
G01*
X151765000Y-105351441D01*
G75*
G02*
X151402934Y-104989375I0J362066D01*
G01*
X151402934Y-103357579D01*
G75*
G02*
X151765000Y-102995513I362066J0D01*
G01*
G37*
G36*
G01*
X152723934Y-102995513D02*
X153346066Y-102995513D01*
G75*
G02*
X153397066Y-103046513I0J-51000D01*
G01*
X153397066Y-105300441D01*
G75*
G02*
X153346066Y-105351441I-51000J0D01*
G01*
X152723934Y-105351441D01*
G75*
G02*
X152672934Y-105300441I0J51000D01*
G01*
X152672934Y-103046513D01*
G75*
G02*
X152723934Y-102995513I51000J0D01*
G01*
G37*
%TD*%
%TO.C,PS2*%
X140208000Y-103886000D03*
X140208000Y-106426000D03*
X140208000Y-108966000D03*
X140208000Y-114046000D03*
G36*
G01*
X141184000Y-115661000D02*
X141184000Y-117511000D01*
G75*
G02*
X141133000Y-117562000I-51000J0D01*
G01*
X139283000Y-117562000D01*
G75*
G02*
X139232000Y-117511000I0J51000D01*
G01*
X139232000Y-115661000D01*
G75*
G02*
X139283000Y-115610000I51000J0D01*
G01*
X141133000Y-115610000D01*
G75*
G02*
X141184000Y-115661000I0J-51000D01*
G01*
G37*
%TD*%
D11*
%TO.C,REF\u002A\u002A*%
X198882000Y-111633000D03*
%TD*%
%TO.C,REF\u002A\u002A*%
X147320000Y-111506000D03*
%TD*%
%TO.C,U2*%
G36*
G01*
X101854000Y-114104559D02*
X101854000Y-114104559D01*
G75*
G02*
X102216066Y-114466625I0J-362066D01*
G01*
X102216066Y-116098421D01*
G75*
G02*
X101854000Y-116460487I-362066J0D01*
G01*
X101854000Y-116460487D01*
G75*
G02*
X101491934Y-116098421I0J362066D01*
G01*
X101491934Y-114466625D01*
G75*
G02*
X101854000Y-114104559I362066J0D01*
G01*
G37*
G36*
G01*
X100584000Y-114104559D02*
X100584000Y-114104559D01*
G75*
G02*
X100946066Y-114466625I0J-362066D01*
G01*
X100946066Y-116098421D01*
G75*
G02*
X100584000Y-116460487I-362066J0D01*
G01*
X100584000Y-116460487D01*
G75*
G02*
X100221934Y-116098421I0J362066D01*
G01*
X100221934Y-114466625D01*
G75*
G02*
X100584000Y-114104559I362066J0D01*
G01*
G37*
G36*
G01*
X99314000Y-114104559D02*
X99314000Y-114104559D01*
G75*
G02*
X99676066Y-114466625I0J-362066D01*
G01*
X99676066Y-116098421D01*
G75*
G02*
X99314000Y-116460487I-362066J0D01*
G01*
X99314000Y-116460487D01*
G75*
G02*
X98951934Y-116098421I0J362066D01*
G01*
X98951934Y-114466625D01*
G75*
G02*
X99314000Y-114104559I362066J0D01*
G01*
G37*
G36*
G01*
X98044000Y-114104559D02*
X98044000Y-114104559D01*
G75*
G02*
X98406066Y-114466625I0J-362066D01*
G01*
X98406066Y-116098421D01*
G75*
G02*
X98044000Y-116460487I-362066J0D01*
G01*
X98044000Y-116460487D01*
G75*
G02*
X97681934Y-116098421I0J362066D01*
G01*
X97681934Y-114466625D01*
G75*
G02*
X98044000Y-114104559I362066J0D01*
G01*
G37*
G36*
G01*
X98044000Y-103503513D02*
X98044000Y-103503513D01*
G75*
G02*
X98406066Y-103865579I0J-362066D01*
G01*
X98406066Y-105497375D01*
G75*
G02*
X98044000Y-105859441I-362066J0D01*
G01*
X98044000Y-105859441D01*
G75*
G02*
X97681934Y-105497375I0J362066D01*
G01*
X97681934Y-103865579D01*
G75*
G02*
X98044000Y-103503513I362066J0D01*
G01*
G37*
G36*
G01*
X99314000Y-103503513D02*
X99314000Y-103503513D01*
G75*
G02*
X99676066Y-103865579I0J-362066D01*
G01*
X99676066Y-105497375D01*
G75*
G02*
X99314000Y-105859441I-362066J0D01*
G01*
X99314000Y-105859441D01*
G75*
G02*
X98951934Y-105497375I0J362066D01*
G01*
X98951934Y-103865579D01*
G75*
G02*
X99314000Y-103503513I362066J0D01*
G01*
G37*
G36*
G01*
X100584000Y-103503513D02*
X100584000Y-103503513D01*
G75*
G02*
X100946066Y-103865579I0J-362066D01*
G01*
X100946066Y-105497375D01*
G75*
G02*
X100584000Y-105859441I-362066J0D01*
G01*
X100584000Y-105859441D01*
G75*
G02*
X100221934Y-105497375I0J362066D01*
G01*
X100221934Y-103865579D01*
G75*
G02*
X100584000Y-103503513I362066J0D01*
G01*
G37*
G36*
G01*
X101542934Y-103503513D02*
X102165066Y-103503513D01*
G75*
G02*
X102216066Y-103554513I0J-51000D01*
G01*
X102216066Y-105808441D01*
G75*
G02*
X102165066Y-105859441I-51000J0D01*
G01*
X101542934Y-105859441D01*
G75*
G02*
X101491934Y-105808441I0J51000D01*
G01*
X101491934Y-103554513D01*
G75*
G02*
X101542934Y-103503513I51000J0D01*
G01*
G37*
%TD*%
D10*
%TO.C,PS1*%
X89281000Y-103886000D03*
X89281000Y-106426000D03*
X89281000Y-108966000D03*
X89281000Y-114046000D03*
G36*
G01*
X90257000Y-115661000D02*
X90257000Y-117511000D01*
G75*
G02*
X90206000Y-117562000I-51000J0D01*
G01*
X88356000Y-117562000D01*
G75*
G02*
X88305000Y-117511000I0J51000D01*
G01*
X88305000Y-115661000D01*
G75*
G02*
X88356000Y-115610000I51000J0D01*
G01*
X90206000Y-115610000D01*
G75*
G02*
X90257000Y-115661000I0J-51000D01*
G01*
G37*
%TD*%
D11*
%TO.C,REF\u002A\u002A*%
X96393000Y-111506000D03*
%TD*%
D12*
%TO.C,REF\u002A\u002A*%
X247015000Y-166116000D03*
D13*
X247015000Y-166116000D03*
%TD*%
D12*
%TO.C,REF\u002A\u002A*%
X247015000Y-179070000D03*
D13*
X247015000Y-179070000D03*
%TD*%
%TO.C,U11*%
G36*
G01*
X189727000Y-129783999D02*
X189727000Y-130434001D01*
G75*
G02*
X189676001Y-130485000I-50999J0D01*
G01*
X188115999Y-130485000D01*
G75*
G02*
X188065000Y-130434001I0J50999D01*
G01*
X188065000Y-129783999D01*
G75*
G02*
X188115999Y-129733000I50999J0D01*
G01*
X189676001Y-129733000D01*
G75*
G02*
X189727000Y-129783999I0J-50999D01*
G01*
G37*
G36*
G01*
X189727000Y-127883999D02*
X189727000Y-128534001D01*
G75*
G02*
X189676001Y-128585000I-50999J0D01*
G01*
X188115999Y-128585000D01*
G75*
G02*
X188065000Y-128534001I0J50999D01*
G01*
X188065000Y-127883999D01*
G75*
G02*
X188115999Y-127833000I50999J0D01*
G01*
X189676001Y-127833000D01*
G75*
G02*
X189727000Y-127883999I0J-50999D01*
G01*
G37*
G36*
G01*
X192427000Y-127883999D02*
X192427000Y-128534001D01*
G75*
G02*
X192376001Y-128585000I-50999J0D01*
G01*
X190815999Y-128585000D01*
G75*
G02*
X190765000Y-128534001I0J50999D01*
G01*
X190765000Y-127883999D01*
G75*
G02*
X190815999Y-127833000I50999J0D01*
G01*
X192376001Y-127833000D01*
G75*
G02*
X192427000Y-127883999I0J-50999D01*
G01*
G37*
G36*
G01*
X192427000Y-128833999D02*
X192427000Y-129484001D01*
G75*
G02*
X192376001Y-129535000I-50999J0D01*
G01*
X190815999Y-129535000D01*
G75*
G02*
X190765000Y-129484001I0J50999D01*
G01*
X190765000Y-128833999D01*
G75*
G02*
X190815999Y-128783000I50999J0D01*
G01*
X192376001Y-128783000D01*
G75*
G02*
X192427000Y-128833999I0J-50999D01*
G01*
G37*
G36*
G01*
X192427000Y-129783999D02*
X192427000Y-130434001D01*
G75*
G02*
X192376001Y-130485000I-50999J0D01*
G01*
X190815999Y-130485000D01*
G75*
G02*
X190765000Y-130434001I0J50999D01*
G01*
X190765000Y-129783999D01*
G75*
G02*
X190815999Y-129733000I50999J0D01*
G01*
X192376001Y-129733000D01*
G75*
G02*
X192427000Y-129783999I0J-50999D01*
G01*
G37*
%TD*%
%TO.C,U10*%
G36*
G01*
X203443999Y-132472000D02*
X204094001Y-132472000D01*
G75*
G02*
X204145000Y-132522999I0J-50999D01*
G01*
X204145000Y-134083001D01*
G75*
G02*
X204094001Y-134134000I-50999J0D01*
G01*
X203443999Y-134134000D01*
G75*
G02*
X203393000Y-134083001I0J50999D01*
G01*
X203393000Y-132522999D01*
G75*
G02*
X203443999Y-132472000I50999J0D01*
G01*
G37*
G36*
G01*
X201543999Y-132472000D02*
X202194001Y-132472000D01*
G75*
G02*
X202245000Y-132522999I0J-50999D01*
G01*
X202245000Y-134083001D01*
G75*
G02*
X202194001Y-134134000I-50999J0D01*
G01*
X201543999Y-134134000D01*
G75*
G02*
X201493000Y-134083001I0J50999D01*
G01*
X201493000Y-132522999D01*
G75*
G02*
X201543999Y-132472000I50999J0D01*
G01*
G37*
G36*
G01*
X201543999Y-129772000D02*
X202194001Y-129772000D01*
G75*
G02*
X202245000Y-129822999I0J-50999D01*
G01*
X202245000Y-131383001D01*
G75*
G02*
X202194001Y-131434000I-50999J0D01*
G01*
X201543999Y-131434000D01*
G75*
G02*
X201493000Y-131383001I0J50999D01*
G01*
X201493000Y-129822999D01*
G75*
G02*
X201543999Y-129772000I50999J0D01*
G01*
G37*
G36*
G01*
X202493999Y-129772000D02*
X203144001Y-129772000D01*
G75*
G02*
X203195000Y-129822999I0J-50999D01*
G01*
X203195000Y-131383001D01*
G75*
G02*
X203144001Y-131434000I-50999J0D01*
G01*
X202493999Y-131434000D01*
G75*
G02*
X202443000Y-131383001I0J50999D01*
G01*
X202443000Y-129822999D01*
G75*
G02*
X202493999Y-129772000I50999J0D01*
G01*
G37*
G36*
G01*
X203443999Y-129772000D02*
X204094001Y-129772000D01*
G75*
G02*
X204145000Y-129822999I0J-50999D01*
G01*
X204145000Y-131383001D01*
G75*
G02*
X204094001Y-131434000I-50999J0D01*
G01*
X203443999Y-131434000D01*
G75*
G02*
X203393000Y-131383001I0J50999D01*
G01*
X203393000Y-129822999D01*
G75*
G02*
X203443999Y-129772000I50999J0D01*
G01*
G37*
%TD*%
%TO.C,U8*%
G36*
G01*
X160665001Y-132704000D02*
X160014999Y-132704000D01*
G75*
G02*
X159964000Y-132653001I0J50999D01*
G01*
X159964000Y-131092999D01*
G75*
G02*
X160014999Y-131042000I50999J0D01*
G01*
X160665001Y-131042000D01*
G75*
G02*
X160716000Y-131092999I0J-50999D01*
G01*
X160716000Y-132653001D01*
G75*
G02*
X160665001Y-132704000I-50999J0D01*
G01*
G37*
G36*
G01*
X162565001Y-132704000D02*
X161914999Y-132704000D01*
G75*
G02*
X161864000Y-132653001I0J50999D01*
G01*
X161864000Y-131092999D01*
G75*
G02*
X161914999Y-131042000I50999J0D01*
G01*
X162565001Y-131042000D01*
G75*
G02*
X162616000Y-131092999I0J-50999D01*
G01*
X162616000Y-132653001D01*
G75*
G02*
X162565001Y-132704000I-50999J0D01*
G01*
G37*
G36*
G01*
X162565001Y-135404000D02*
X161914999Y-135404000D01*
G75*
G02*
X161864000Y-135353001I0J50999D01*
G01*
X161864000Y-133792999D01*
G75*
G02*
X161914999Y-133742000I50999J0D01*
G01*
X162565001Y-133742000D01*
G75*
G02*
X162616000Y-133792999I0J-50999D01*
G01*
X162616000Y-135353001D01*
G75*
G02*
X162565001Y-135404000I-50999J0D01*
G01*
G37*
G36*
G01*
X161615001Y-135404000D02*
X160964999Y-135404000D01*
G75*
G02*
X160914000Y-135353001I0J50999D01*
G01*
X160914000Y-133792999D01*
G75*
G02*
X160964999Y-133742000I50999J0D01*
G01*
X161615001Y-133742000D01*
G75*
G02*
X161666000Y-133792999I0J-50999D01*
G01*
X161666000Y-135353001D01*
G75*
G02*
X161615001Y-135404000I-50999J0D01*
G01*
G37*
G36*
G01*
X160665001Y-135404000D02*
X160014999Y-135404000D01*
G75*
G02*
X159964000Y-135353001I0J50999D01*
G01*
X159964000Y-133792999D01*
G75*
G02*
X160014999Y-133742000I50999J0D01*
G01*
X160665001Y-133742000D01*
G75*
G02*
X160716000Y-133792999I0J-50999D01*
G01*
X160716000Y-135353001D01*
G75*
G02*
X160665001Y-135404000I-50999J0D01*
G01*
G37*
%TD*%
%TO.C,U7*%
G36*
G01*
X138165000Y-129656999D02*
X138165000Y-130307001D01*
G75*
G02*
X138114001Y-130358000I-50999J0D01*
G01*
X136553999Y-130358000D01*
G75*
G02*
X136503000Y-130307001I0J50999D01*
G01*
X136503000Y-129656999D01*
G75*
G02*
X136553999Y-129606000I50999J0D01*
G01*
X138114001Y-129606000D01*
G75*
G02*
X138165000Y-129656999I0J-50999D01*
G01*
G37*
G36*
G01*
X138165000Y-127756999D02*
X138165000Y-128407001D01*
G75*
G02*
X138114001Y-128458000I-50999J0D01*
G01*
X136553999Y-128458000D01*
G75*
G02*
X136503000Y-128407001I0J50999D01*
G01*
X136503000Y-127756999D01*
G75*
G02*
X136553999Y-127706000I50999J0D01*
G01*
X138114001Y-127706000D01*
G75*
G02*
X138165000Y-127756999I0J-50999D01*
G01*
G37*
G36*
G01*
X140865000Y-127756999D02*
X140865000Y-128407001D01*
G75*
G02*
X140814001Y-128458000I-50999J0D01*
G01*
X139253999Y-128458000D01*
G75*
G02*
X139203000Y-128407001I0J50999D01*
G01*
X139203000Y-127756999D01*
G75*
G02*
X139253999Y-127706000I50999J0D01*
G01*
X140814001Y-127706000D01*
G75*
G02*
X140865000Y-127756999I0J-50999D01*
G01*
G37*
G36*
G01*
X140865000Y-128706999D02*
X140865000Y-129357001D01*
G75*
G02*
X140814001Y-129408000I-50999J0D01*
G01*
X139253999Y-129408000D01*
G75*
G02*
X139203000Y-129357001I0J50999D01*
G01*
X139203000Y-128706999D01*
G75*
G02*
X139253999Y-128656000I50999J0D01*
G01*
X140814001Y-128656000D01*
G75*
G02*
X140865000Y-128706999I0J-50999D01*
G01*
G37*
G36*
G01*
X140865000Y-129656999D02*
X140865000Y-130307001D01*
G75*
G02*
X140814001Y-130358000I-50999J0D01*
G01*
X139253999Y-130358000D01*
G75*
G02*
X139203000Y-130307001I0J50999D01*
G01*
X139203000Y-129656999D01*
G75*
G02*
X139253999Y-129606000I50999J0D01*
G01*
X140814001Y-129606000D01*
G75*
G02*
X140865000Y-129656999I0J-50999D01*
G01*
G37*
%TD*%
%TO.C,U6*%
G36*
G01*
X151754999Y-132345000D02*
X152405001Y-132345000D01*
G75*
G02*
X152456000Y-132395999I0J-50999D01*
G01*
X152456000Y-133956001D01*
G75*
G02*
X152405001Y-134007000I-50999J0D01*
G01*
X151754999Y-134007000D01*
G75*
G02*
X151704000Y-133956001I0J50999D01*
G01*
X151704000Y-132395999D01*
G75*
G02*
X151754999Y-132345000I50999J0D01*
G01*
G37*
G36*
G01*
X149854999Y-132345000D02*
X150505001Y-132345000D01*
G75*
G02*
X150556000Y-132395999I0J-50999D01*
G01*
X150556000Y-133956001D01*
G75*
G02*
X150505001Y-134007000I-50999J0D01*
G01*
X149854999Y-134007000D01*
G75*
G02*
X149804000Y-133956001I0J50999D01*
G01*
X149804000Y-132395999D01*
G75*
G02*
X149854999Y-132345000I50999J0D01*
G01*
G37*
G36*
G01*
X149854999Y-129645000D02*
X150505001Y-129645000D01*
G75*
G02*
X150556000Y-129695999I0J-50999D01*
G01*
X150556000Y-131256001D01*
G75*
G02*
X150505001Y-131307000I-50999J0D01*
G01*
X149854999Y-131307000D01*
G75*
G02*
X149804000Y-131256001I0J50999D01*
G01*
X149804000Y-129695999D01*
G75*
G02*
X149854999Y-129645000I50999J0D01*
G01*
G37*
G36*
G01*
X150804999Y-129645000D02*
X151455001Y-129645000D01*
G75*
G02*
X151506000Y-129695999I0J-50999D01*
G01*
X151506000Y-131256001D01*
G75*
G02*
X151455001Y-131307000I-50999J0D01*
G01*
X150804999Y-131307000D01*
G75*
G02*
X150754000Y-131256001I0J50999D01*
G01*
X150754000Y-129695999D01*
G75*
G02*
X150804999Y-129645000I50999J0D01*
G01*
G37*
G36*
G01*
X151754999Y-129645000D02*
X152405001Y-129645000D01*
G75*
G02*
X152456000Y-129695999I0J-50999D01*
G01*
X152456000Y-131256001D01*
G75*
G02*
X152405001Y-131307000I-50999J0D01*
G01*
X151754999Y-131307000D01*
G75*
G02*
X151704000Y-131256001I0J50999D01*
G01*
X151704000Y-129695999D01*
G75*
G02*
X151754999Y-129645000I50999J0D01*
G01*
G37*
%TD*%
%TO.C,U4*%
G36*
G01*
X87238000Y-129656999D02*
X87238000Y-130307001D01*
G75*
G02*
X87187001Y-130358000I-50999J0D01*
G01*
X85626999Y-130358000D01*
G75*
G02*
X85576000Y-130307001I0J50999D01*
G01*
X85576000Y-129656999D01*
G75*
G02*
X85626999Y-129606000I50999J0D01*
G01*
X87187001Y-129606000D01*
G75*
G02*
X87238000Y-129656999I0J-50999D01*
G01*
G37*
G36*
G01*
X87238000Y-127756999D02*
X87238000Y-128407001D01*
G75*
G02*
X87187001Y-128458000I-50999J0D01*
G01*
X85626999Y-128458000D01*
G75*
G02*
X85576000Y-128407001I0J50999D01*
G01*
X85576000Y-127756999D01*
G75*
G02*
X85626999Y-127706000I50999J0D01*
G01*
X87187001Y-127706000D01*
G75*
G02*
X87238000Y-127756999I0J-50999D01*
G01*
G37*
G36*
G01*
X89938000Y-127756999D02*
X89938000Y-128407001D01*
G75*
G02*
X89887001Y-128458000I-50999J0D01*
G01*
X88326999Y-128458000D01*
G75*
G02*
X88276000Y-128407001I0J50999D01*
G01*
X88276000Y-127756999D01*
G75*
G02*
X88326999Y-127706000I50999J0D01*
G01*
X89887001Y-127706000D01*
G75*
G02*
X89938000Y-127756999I0J-50999D01*
G01*
G37*
G36*
G01*
X89938000Y-128706999D02*
X89938000Y-129357001D01*
G75*
G02*
X89887001Y-129408000I-50999J0D01*
G01*
X88326999Y-129408000D01*
G75*
G02*
X88276000Y-129357001I0J50999D01*
G01*
X88276000Y-128706999D01*
G75*
G02*
X88326999Y-128656000I50999J0D01*
G01*
X89887001Y-128656000D01*
G75*
G02*
X89938000Y-128706999I0J-50999D01*
G01*
G37*
G36*
G01*
X89938000Y-129656999D02*
X89938000Y-130307001D01*
G75*
G02*
X89887001Y-130358000I-50999J0D01*
G01*
X88326999Y-130358000D01*
G75*
G02*
X88276000Y-130307001I0J50999D01*
G01*
X88276000Y-129656999D01*
G75*
G02*
X88326999Y-129606000I50999J0D01*
G01*
X89887001Y-129606000D01*
G75*
G02*
X89938000Y-129656999I0J-50999D01*
G01*
G37*
%TD*%
%TO.C,U3*%
G36*
G01*
X100319999Y-132345000D02*
X100970001Y-132345000D01*
G75*
G02*
X101021000Y-132395999I0J-50999D01*
G01*
X101021000Y-133956001D01*
G75*
G02*
X100970001Y-134007000I-50999J0D01*
G01*
X100319999Y-134007000D01*
G75*
G02*
X100269000Y-133956001I0J50999D01*
G01*
X100269000Y-132395999D01*
G75*
G02*
X100319999Y-132345000I50999J0D01*
G01*
G37*
G36*
G01*
X98419999Y-132345000D02*
X99070001Y-132345000D01*
G75*
G02*
X99121000Y-132395999I0J-50999D01*
G01*
X99121000Y-133956001D01*
G75*
G02*
X99070001Y-134007000I-50999J0D01*
G01*
X98419999Y-134007000D01*
G75*
G02*
X98369000Y-133956001I0J50999D01*
G01*
X98369000Y-132395999D01*
G75*
G02*
X98419999Y-132345000I50999J0D01*
G01*
G37*
G36*
G01*
X98419999Y-129645000D02*
X99070001Y-129645000D01*
G75*
G02*
X99121000Y-129695999I0J-50999D01*
G01*
X99121000Y-131256001D01*
G75*
G02*
X99070001Y-131307000I-50999J0D01*
G01*
X98419999Y-131307000D01*
G75*
G02*
X98369000Y-131256001I0J50999D01*
G01*
X98369000Y-129695999D01*
G75*
G02*
X98419999Y-129645000I50999J0D01*
G01*
G37*
G36*
G01*
X99369999Y-129645000D02*
X100020001Y-129645000D01*
G75*
G02*
X100071000Y-129695999I0J-50999D01*
G01*
X100071000Y-131256001D01*
G75*
G02*
X100020001Y-131307000I-50999J0D01*
G01*
X99369999Y-131307000D01*
G75*
G02*
X99319000Y-131256001I0J50999D01*
G01*
X99319000Y-129695999D01*
G75*
G02*
X99369999Y-129645000I50999J0D01*
G01*
G37*
G36*
G01*
X100319999Y-129645000D02*
X100970001Y-129645000D01*
G75*
G02*
X101021000Y-129695999I0J-50999D01*
G01*
X101021000Y-131256001D01*
G75*
G02*
X100970001Y-131307000I-50999J0D01*
G01*
X100319999Y-131307000D01*
G75*
G02*
X100269000Y-131256001I0J50999D01*
G01*
X100269000Y-129695999D01*
G75*
G02*
X100319999Y-129645000I50999J0D01*
G01*
G37*
%TD*%
%TO.C,U1*%
G36*
G01*
X224054000Y-133721000D02*
X225554000Y-133721000D01*
G75*
G02*
X225605000Y-133772000I0J-51000D01*
G01*
X225605000Y-135772000D01*
G75*
G02*
X225554000Y-135823000I-51000J0D01*
G01*
X224054000Y-135823000D01*
G75*
G02*
X224003000Y-135772000I0J51000D01*
G01*
X224003000Y-133772000D01*
G75*
G02*
X224054000Y-133721000I51000J0D01*
G01*
G37*
G36*
G01*
X219454000Y-133721000D02*
X220954000Y-133721000D01*
G75*
G02*
X221005000Y-133772000I0J-51000D01*
G01*
X221005000Y-135772000D01*
G75*
G02*
X220954000Y-135823000I-51000J0D01*
G01*
X219454000Y-135823000D01*
G75*
G02*
X219403000Y-135772000I0J51000D01*
G01*
X219403000Y-133772000D01*
G75*
G02*
X219454000Y-133721000I51000J0D01*
G01*
G37*
G36*
G01*
X221754000Y-133721000D02*
X223254000Y-133721000D01*
G75*
G02*
X223305000Y-133772000I0J-51000D01*
G01*
X223305000Y-135772000D01*
G75*
G02*
X223254000Y-135823000I-51000J0D01*
G01*
X221754000Y-135823000D01*
G75*
G02*
X221703000Y-135772000I0J51000D01*
G01*
X221703000Y-133772000D01*
G75*
G02*
X221754000Y-133721000I51000J0D01*
G01*
G37*
G36*
G01*
X220604000Y-140021000D02*
X224404000Y-140021000D01*
G75*
G02*
X224455000Y-140072000I0J-51000D01*
G01*
X224455000Y-142072000D01*
G75*
G02*
X224404000Y-142123000I-51000J0D01*
G01*
X220604000Y-142123000D01*
G75*
G02*
X220553000Y-142072000I0J51000D01*
G01*
X220553000Y-140072000D01*
G75*
G02*
X220604000Y-140021000I51000J0D01*
G01*
G37*
%TD*%
D14*
%TO.C,TP15*%
X194310000Y-140462000D03*
%TD*%
%TO.C,TP14*%
X202819000Y-140716000D03*
%TD*%
%TO.C,TP13*%
X207391000Y-88900000D03*
%TD*%
%TO.C,TP12*%
X207391000Y-83566000D03*
%TD*%
%TO.C,TP11*%
X207391000Y-94869000D03*
%TD*%
%TO.C,TP10*%
X142494000Y-140716000D03*
%TD*%
%TO.C,TP9*%
X150368000Y-141478000D03*
%TD*%
%TO.C,TP8*%
X155194000Y-89027000D03*
%TD*%
%TO.C,TP7*%
X155194000Y-83566000D03*
%TD*%
%TO.C,TP6*%
X155194000Y-94742000D03*
%TD*%
%TO.C,TP5*%
X91440000Y-140716000D03*
%TD*%
%TO.C,TP4*%
X99949000Y-140716000D03*
%TD*%
%TO.C,TP3*%
X103505000Y-88900000D03*
%TD*%
%TO.C,TP2*%
X103505000Y-83566000D03*
%TD*%
%TO.C,TP1*%
X103505000Y-94742000D03*
%TD*%
%TO.C,R42*%
G36*
G01*
X190579000Y-137258752D02*
X190579000Y-136299248D01*
G75*
G02*
X190850248Y-136028000I271248J0D01*
G01*
X191609752Y-136028000D01*
G75*
G02*
X191881000Y-136299248I0J-271248D01*
G01*
X191881000Y-137258752D01*
G75*
G02*
X191609752Y-137530000I-271248J0D01*
G01*
X190850248Y-137530000D01*
G75*
G02*
X190579000Y-137258752I0J271248D01*
G01*
G37*
G36*
G01*
X188579000Y-137258752D02*
X188579000Y-136299248D01*
G75*
G02*
X188850248Y-136028000I271248J0D01*
G01*
X189609752Y-136028000D01*
G75*
G02*
X189881000Y-136299248I0J-271248D01*
G01*
X189881000Y-137258752D01*
G75*
G02*
X189609752Y-137530000I-271248J0D01*
G01*
X188850248Y-137530000D01*
G75*
G02*
X188579000Y-137258752I0J271248D01*
G01*
G37*
%TD*%
%TO.C,R41*%
G36*
G01*
X190579000Y-140814752D02*
X190579000Y-139855248D01*
G75*
G02*
X190850248Y-139584000I271248J0D01*
G01*
X191609752Y-139584000D01*
G75*
G02*
X191881000Y-139855248I0J-271248D01*
G01*
X191881000Y-140814752D01*
G75*
G02*
X191609752Y-141086000I-271248J0D01*
G01*
X190850248Y-141086000D01*
G75*
G02*
X190579000Y-140814752I0J271248D01*
G01*
G37*
G36*
G01*
X188579000Y-140814752D02*
X188579000Y-139855248D01*
G75*
G02*
X188850248Y-139584000I271248J0D01*
G01*
X189609752Y-139584000D01*
G75*
G02*
X189881000Y-139855248I0J-271248D01*
G01*
X189881000Y-140814752D01*
G75*
G02*
X189609752Y-141086000I-271248J0D01*
G01*
X188850248Y-141086000D01*
G75*
G02*
X188579000Y-140814752I0J271248D01*
G01*
G37*
%TD*%
%TO.C,R40*%
G36*
G01*
X190579000Y-144243752D02*
X190579000Y-143284248D01*
G75*
G02*
X190850248Y-143013000I271248J0D01*
G01*
X191609752Y-143013000D01*
G75*
G02*
X191881000Y-143284248I0J-271248D01*
G01*
X191881000Y-144243752D01*
G75*
G02*
X191609752Y-144515000I-271248J0D01*
G01*
X190850248Y-144515000D01*
G75*
G02*
X190579000Y-144243752I0J271248D01*
G01*
G37*
G36*
G01*
X188579000Y-144243752D02*
X188579000Y-143284248D01*
G75*
G02*
X188850248Y-143013000I271248J0D01*
G01*
X189609752Y-143013000D01*
G75*
G02*
X189881000Y-143284248I0J-271248D01*
G01*
X189881000Y-144243752D01*
G75*
G02*
X189609752Y-144515000I-271248J0D01*
G01*
X188850248Y-144515000D01*
G75*
G02*
X188579000Y-144243752I0J271248D01*
G01*
G37*
%TD*%
%TO.C,R39*%
G36*
G01*
X189913000Y-132870248D02*
X189913000Y-133829752D01*
G75*
G02*
X189641752Y-134101000I-271248J0D01*
G01*
X188882248Y-134101000D01*
G75*
G02*
X188611000Y-133829752I0J271248D01*
G01*
X188611000Y-132870248D01*
G75*
G02*
X188882248Y-132599000I271248J0D01*
G01*
X189641752Y-132599000D01*
G75*
G02*
X189913000Y-132870248I0J-271248D01*
G01*
G37*
G36*
G01*
X191913000Y-132870248D02*
X191913000Y-133829752D01*
G75*
G02*
X191641752Y-134101000I-271248J0D01*
G01*
X190882248Y-134101000D01*
G75*
G02*
X190611000Y-133829752I0J271248D01*
G01*
X190611000Y-132870248D01*
G75*
G02*
X190882248Y-132599000I271248J0D01*
G01*
X191641752Y-132599000D01*
G75*
G02*
X191913000Y-132870248I0J-271248D01*
G01*
G37*
%TD*%
%TO.C,R38*%
G36*
G01*
X198492000Y-131334500D02*
X199018000Y-131334500D01*
G75*
G02*
X199281000Y-131597500I0J-263000D01*
G01*
X199281000Y-132148500D01*
G75*
G02*
X199018000Y-132411500I-263000J0D01*
G01*
X198492000Y-132411500D01*
G75*
G02*
X198229000Y-132148500I0J263000D01*
G01*
X198229000Y-131597500D01*
G75*
G02*
X198492000Y-131334500I263000J0D01*
G01*
G37*
G36*
G01*
X198492000Y-129509500D02*
X199018000Y-129509500D01*
G75*
G02*
X199281000Y-129772500I0J-263000D01*
G01*
X199281000Y-130323500D01*
G75*
G02*
X199018000Y-130586500I-263000J0D01*
G01*
X198492000Y-130586500D01*
G75*
G02*
X198229000Y-130323500I0J263000D01*
G01*
X198229000Y-129772500D01*
G75*
G02*
X198492000Y-129509500I263000J0D01*
G01*
G37*
%TD*%
%TO.C,R37*%
G36*
G01*
X196072000Y-124558752D02*
X196072000Y-123599248D01*
G75*
G02*
X196343248Y-123328000I271248J0D01*
G01*
X197102752Y-123328000D01*
G75*
G02*
X197374000Y-123599248I0J-271248D01*
G01*
X197374000Y-124558752D01*
G75*
G02*
X197102752Y-124830000I-271248J0D01*
G01*
X196343248Y-124830000D01*
G75*
G02*
X196072000Y-124558752I0J271248D01*
G01*
G37*
G36*
G01*
X194072000Y-124558752D02*
X194072000Y-123599248D01*
G75*
G02*
X194343248Y-123328000I271248J0D01*
G01*
X195102752Y-123328000D01*
G75*
G02*
X195374000Y-123599248I0J-271248D01*
G01*
X195374000Y-124558752D01*
G75*
G02*
X195102752Y-124830000I-271248J0D01*
G01*
X194343248Y-124830000D01*
G75*
G02*
X194072000Y-124558752I0J271248D01*
G01*
G37*
%TD*%
%TO.C,R36*%
G36*
G01*
X196040000Y-127987752D02*
X196040000Y-127028248D01*
G75*
G02*
X196311248Y-126757000I271248J0D01*
G01*
X197070752Y-126757000D01*
G75*
G02*
X197342000Y-127028248I0J-271248D01*
G01*
X197342000Y-127987752D01*
G75*
G02*
X197070752Y-128259000I-271248J0D01*
G01*
X196311248Y-128259000D01*
G75*
G02*
X196040000Y-127987752I0J271248D01*
G01*
G37*
G36*
G01*
X194040000Y-127987752D02*
X194040000Y-127028248D01*
G75*
G02*
X194311248Y-126757000I271248J0D01*
G01*
X195070752Y-126757000D01*
G75*
G02*
X195342000Y-127028248I0J-271248D01*
G01*
X195342000Y-127987752D01*
G75*
G02*
X195070752Y-128259000I-271248J0D01*
G01*
X194311248Y-128259000D01*
G75*
G02*
X194040000Y-127987752I0J271248D01*
G01*
G37*
%TD*%
%TO.C,R35*%
G36*
G01*
X199018000Y-134904500D02*
X198492000Y-134904500D01*
G75*
G02*
X198229000Y-134641500I0J263000D01*
G01*
X198229000Y-134090500D01*
G75*
G02*
X198492000Y-133827500I263000J0D01*
G01*
X199018000Y-133827500D01*
G75*
G02*
X199281000Y-134090500I0J-263000D01*
G01*
X199281000Y-134641500D01*
G75*
G02*
X199018000Y-134904500I-263000J0D01*
G01*
G37*
G36*
G01*
X199018000Y-136729500D02*
X198492000Y-136729500D01*
G75*
G02*
X198229000Y-136466500I0J263000D01*
G01*
X198229000Y-135915500D01*
G75*
G02*
X198492000Y-135652500I263000J0D01*
G01*
X199018000Y-135652500D01*
G75*
G02*
X199281000Y-135915500I0J-263000D01*
G01*
X199281000Y-136466500D01*
G75*
G02*
X199018000Y-136729500I-263000J0D01*
G01*
G37*
%TD*%
%TO.C,R34*%
G36*
G01*
X201393752Y-123206000D02*
X200434248Y-123206000D01*
G75*
G02*
X200163000Y-122934752I0J271248D01*
G01*
X200163000Y-122175248D01*
G75*
G02*
X200434248Y-121904000I271248J0D01*
G01*
X201393752Y-121904000D01*
G75*
G02*
X201665000Y-122175248I0J-271248D01*
G01*
X201665000Y-122934752D01*
G75*
G02*
X201393752Y-123206000I-271248J0D01*
G01*
G37*
G36*
G01*
X201393752Y-125206000D02*
X200434248Y-125206000D01*
G75*
G02*
X200163000Y-124934752I0J271248D01*
G01*
X200163000Y-124175248D01*
G75*
G02*
X200434248Y-123904000I271248J0D01*
G01*
X201393752Y-123904000D01*
G75*
G02*
X201665000Y-124175248I0J-271248D01*
G01*
X201665000Y-124934752D01*
G75*
G02*
X201393752Y-125206000I-271248J0D01*
G01*
G37*
%TD*%
%TO.C,R33*%
G36*
G01*
X198275248Y-141716000D02*
X199234752Y-141716000D01*
G75*
G02*
X199506000Y-141987248I0J-271248D01*
G01*
X199506000Y-142746752D01*
G75*
G02*
X199234752Y-143018000I-271248J0D01*
G01*
X198275248Y-143018000D01*
G75*
G02*
X198004000Y-142746752I0J271248D01*
G01*
X198004000Y-141987248D01*
G75*
G02*
X198275248Y-141716000I271248J0D01*
G01*
G37*
G36*
G01*
X198275248Y-139716000D02*
X199234752Y-139716000D01*
G75*
G02*
X199506000Y-139987248I0J-271248D01*
G01*
X199506000Y-140746752D01*
G75*
G02*
X199234752Y-141018000I-271248J0D01*
G01*
X198275248Y-141018000D01*
G75*
G02*
X198004000Y-140746752I0J271248D01*
G01*
X198004000Y-139987248D01*
G75*
G02*
X198275248Y-139716000I271248J0D01*
G01*
G37*
%TD*%
%TO.C,R32*%
G36*
G01*
X205203752Y-123079000D02*
X204244248Y-123079000D01*
G75*
G02*
X203973000Y-122807752I0J271248D01*
G01*
X203973000Y-122048248D01*
G75*
G02*
X204244248Y-121777000I271248J0D01*
G01*
X205203752Y-121777000D01*
G75*
G02*
X205475000Y-122048248I0J-271248D01*
G01*
X205475000Y-122807752D01*
G75*
G02*
X205203752Y-123079000I-271248J0D01*
G01*
G37*
G36*
G01*
X205203752Y-125079000D02*
X204244248Y-125079000D01*
G75*
G02*
X203973000Y-124807752I0J271248D01*
G01*
X203973000Y-124048248D01*
G75*
G02*
X204244248Y-123777000I271248J0D01*
G01*
X205203752Y-123777000D01*
G75*
G02*
X205475000Y-124048248I0J-271248D01*
G01*
X205475000Y-124807752D01*
G75*
G02*
X205203752Y-125079000I-271248J0D01*
G01*
G37*
%TD*%
D15*
%TO.C,R31*%
X196215000Y-68453000D03*
D16*
X196215000Y-78613000D03*
%TD*%
%TO.C,R30*%
G36*
G01*
X206493000Y-135652500D02*
X207019000Y-135652500D01*
G75*
G02*
X207282000Y-135915500I0J-263000D01*
G01*
X207282000Y-136466500D01*
G75*
G02*
X207019000Y-136729500I-263000J0D01*
G01*
X206493000Y-136729500D01*
G75*
G02*
X206230000Y-136466500I0J263000D01*
G01*
X206230000Y-135915500D01*
G75*
G02*
X206493000Y-135652500I263000J0D01*
G01*
G37*
G36*
G01*
X206493000Y-133827500D02*
X207019000Y-133827500D01*
G75*
G02*
X207282000Y-134090500I0J-263000D01*
G01*
X207282000Y-134641500D01*
G75*
G02*
X207019000Y-134904500I-263000J0D01*
G01*
X206493000Y-134904500D01*
G75*
G02*
X206230000Y-134641500I0J263000D01*
G01*
X206230000Y-134090500D01*
G75*
G02*
X206493000Y-133827500I263000J0D01*
G01*
G37*
%TD*%
%TO.C,R29*%
G36*
G01*
X206493000Y-131287500D02*
X207019000Y-131287500D01*
G75*
G02*
X207282000Y-131550500I0J-263000D01*
G01*
X207282000Y-132101500D01*
G75*
G02*
X207019000Y-132364500I-263000J0D01*
G01*
X206493000Y-132364500D01*
G75*
G02*
X206230000Y-132101500I0J263000D01*
G01*
X206230000Y-131550500D01*
G75*
G02*
X206493000Y-131287500I263000J0D01*
G01*
G37*
G36*
G01*
X206493000Y-129462500D02*
X207019000Y-129462500D01*
G75*
G02*
X207282000Y-129725500I0J-263000D01*
G01*
X207282000Y-130276500D01*
G75*
G02*
X207019000Y-130539500I-263000J0D01*
G01*
X206493000Y-130539500D01*
G75*
G02*
X206230000Y-130276500I0J263000D01*
G01*
X206230000Y-129725500D01*
G75*
G02*
X206493000Y-129462500I263000J0D01*
G01*
G37*
%TD*%
%TO.C,R28*%
G36*
G01*
X138890000Y-137301085D02*
X138890000Y-136341581D01*
G75*
G02*
X139161248Y-136070333I271248J0D01*
G01*
X139920752Y-136070333D01*
G75*
G02*
X140192000Y-136341581I0J-271248D01*
G01*
X140192000Y-137301085D01*
G75*
G02*
X139920752Y-137572333I-271248J0D01*
G01*
X139161248Y-137572333D01*
G75*
G02*
X138890000Y-137301085I0J271248D01*
G01*
G37*
G36*
G01*
X136890000Y-137301085D02*
X136890000Y-136341581D01*
G75*
G02*
X137161248Y-136070333I271248J0D01*
G01*
X137920752Y-136070333D01*
G75*
G02*
X138192000Y-136341581I0J-271248D01*
G01*
X138192000Y-137301085D01*
G75*
G02*
X137920752Y-137572333I-271248J0D01*
G01*
X137161248Y-137572333D01*
G75*
G02*
X136890000Y-137301085I0J271248D01*
G01*
G37*
%TD*%
%TO.C,R27*%
G36*
G01*
X138890000Y-140772418D02*
X138890000Y-139812914D01*
G75*
G02*
X139161248Y-139541666I271248J0D01*
G01*
X139920752Y-139541666D01*
G75*
G02*
X140192000Y-139812914I0J-271248D01*
G01*
X140192000Y-140772418D01*
G75*
G02*
X139920752Y-141043666I-271248J0D01*
G01*
X139161248Y-141043666D01*
G75*
G02*
X138890000Y-140772418I0J271248D01*
G01*
G37*
G36*
G01*
X136890000Y-140772418D02*
X136890000Y-139812914D01*
G75*
G02*
X137161248Y-139541666I271248J0D01*
G01*
X137920752Y-139541666D01*
G75*
G02*
X138192000Y-139812914I0J-271248D01*
G01*
X138192000Y-140772418D01*
G75*
G02*
X137920752Y-141043666I-271248J0D01*
G01*
X137161248Y-141043666D01*
G75*
G02*
X136890000Y-140772418I0J271248D01*
G01*
G37*
%TD*%
%TO.C,R26*%
G36*
G01*
X138890000Y-144243752D02*
X138890000Y-143284248D01*
G75*
G02*
X139161248Y-143013000I271248J0D01*
G01*
X139920752Y-143013000D01*
G75*
G02*
X140192000Y-143284248I0J-271248D01*
G01*
X140192000Y-144243752D01*
G75*
G02*
X139920752Y-144515000I-271248J0D01*
G01*
X139161248Y-144515000D01*
G75*
G02*
X138890000Y-144243752I0J271248D01*
G01*
G37*
G36*
G01*
X136890000Y-144243752D02*
X136890000Y-143284248D01*
G75*
G02*
X137161248Y-143013000I271248J0D01*
G01*
X137920752Y-143013000D01*
G75*
G02*
X138192000Y-143284248I0J-271248D01*
G01*
X138192000Y-144243752D01*
G75*
G02*
X137920752Y-144515000I-271248J0D01*
G01*
X137161248Y-144515000D01*
G75*
G02*
X136890000Y-144243752I0J271248D01*
G01*
G37*
%TD*%
%TO.C,R25*%
G36*
G01*
X138192000Y-132870248D02*
X138192000Y-133829752D01*
G75*
G02*
X137920752Y-134101000I-271248J0D01*
G01*
X137161248Y-134101000D01*
G75*
G02*
X136890000Y-133829752I0J271248D01*
G01*
X136890000Y-132870248D01*
G75*
G02*
X137161248Y-132599000I271248J0D01*
G01*
X137920752Y-132599000D01*
G75*
G02*
X138192000Y-132870248I0J-271248D01*
G01*
G37*
G36*
G01*
X140192000Y-132870248D02*
X140192000Y-133829752D01*
G75*
G02*
X139920752Y-134101000I-271248J0D01*
G01*
X139161248Y-134101000D01*
G75*
G02*
X138890000Y-133829752I0J271248D01*
G01*
X138890000Y-132870248D01*
G75*
G02*
X139161248Y-132599000I271248J0D01*
G01*
X139920752Y-132599000D01*
G75*
G02*
X140192000Y-132870248I0J-271248D01*
G01*
G37*
%TD*%
%TO.C,R24*%
G36*
G01*
X146930000Y-131287500D02*
X147456000Y-131287500D01*
G75*
G02*
X147719000Y-131550500I0J-263000D01*
G01*
X147719000Y-132101500D01*
G75*
G02*
X147456000Y-132364500I-263000J0D01*
G01*
X146930000Y-132364500D01*
G75*
G02*
X146667000Y-132101500I0J263000D01*
G01*
X146667000Y-131550500D01*
G75*
G02*
X146930000Y-131287500I263000J0D01*
G01*
G37*
G36*
G01*
X146930000Y-129462500D02*
X147456000Y-129462500D01*
G75*
G02*
X147719000Y-129725500I0J-263000D01*
G01*
X147719000Y-130276500D01*
G75*
G02*
X147456000Y-130539500I-263000J0D01*
G01*
X146930000Y-130539500D01*
G75*
G02*
X146667000Y-130276500I0J263000D01*
G01*
X146667000Y-129725500D01*
G75*
G02*
X146930000Y-129462500I263000J0D01*
G01*
G37*
%TD*%
%TO.C,R23*%
G36*
G01*
X144351000Y-124558752D02*
X144351000Y-123599248D01*
G75*
G02*
X144622248Y-123328000I271248J0D01*
G01*
X145381752Y-123328000D01*
G75*
G02*
X145653000Y-123599248I0J-271248D01*
G01*
X145653000Y-124558752D01*
G75*
G02*
X145381752Y-124830000I-271248J0D01*
G01*
X144622248Y-124830000D01*
G75*
G02*
X144351000Y-124558752I0J271248D01*
G01*
G37*
G36*
G01*
X142351000Y-124558752D02*
X142351000Y-123599248D01*
G75*
G02*
X142622248Y-123328000I271248J0D01*
G01*
X143381752Y-123328000D01*
G75*
G02*
X143653000Y-123599248I0J-271248D01*
G01*
X143653000Y-124558752D01*
G75*
G02*
X143381752Y-124830000I-271248J0D01*
G01*
X142622248Y-124830000D01*
G75*
G02*
X142351000Y-124558752I0J271248D01*
G01*
G37*
%TD*%
%TO.C,R22*%
G36*
G01*
X144351000Y-127987752D02*
X144351000Y-127028248D01*
G75*
G02*
X144622248Y-126757000I271248J0D01*
G01*
X145381752Y-126757000D01*
G75*
G02*
X145653000Y-127028248I0J-271248D01*
G01*
X145653000Y-127987752D01*
G75*
G02*
X145381752Y-128259000I-271248J0D01*
G01*
X144622248Y-128259000D01*
G75*
G02*
X144351000Y-127987752I0J271248D01*
G01*
G37*
G36*
G01*
X142351000Y-127987752D02*
X142351000Y-127028248D01*
G75*
G02*
X142622248Y-126757000I271248J0D01*
G01*
X143381752Y-126757000D01*
G75*
G02*
X143653000Y-127028248I0J-271248D01*
G01*
X143653000Y-127987752D01*
G75*
G02*
X143381752Y-128259000I-271248J0D01*
G01*
X142622248Y-128259000D01*
G75*
G02*
X142351000Y-127987752I0J271248D01*
G01*
G37*
%TD*%
%TO.C,R21*%
G36*
G01*
X147456000Y-134904500D02*
X146930000Y-134904500D01*
G75*
G02*
X146667000Y-134641500I0J263000D01*
G01*
X146667000Y-134090500D01*
G75*
G02*
X146930000Y-133827500I263000J0D01*
G01*
X147456000Y-133827500D01*
G75*
G02*
X147719000Y-134090500I0J-263000D01*
G01*
X147719000Y-134641500D01*
G75*
G02*
X147456000Y-134904500I-263000J0D01*
G01*
G37*
G36*
G01*
X147456000Y-136729500D02*
X146930000Y-136729500D01*
G75*
G02*
X146667000Y-136466500I0J263000D01*
G01*
X146667000Y-135915500D01*
G75*
G02*
X146930000Y-135652500I263000J0D01*
G01*
X147456000Y-135652500D01*
G75*
G02*
X147719000Y-135915500I0J-263000D01*
G01*
X147719000Y-136466500D01*
G75*
G02*
X147456000Y-136729500I-263000J0D01*
G01*
G37*
%TD*%
%TO.C,R20*%
G36*
G01*
X150085752Y-123079000D02*
X149126248Y-123079000D01*
G75*
G02*
X148855000Y-122807752I0J271248D01*
G01*
X148855000Y-122048248D01*
G75*
G02*
X149126248Y-121777000I271248J0D01*
G01*
X150085752Y-121777000D01*
G75*
G02*
X150357000Y-122048248I0J-271248D01*
G01*
X150357000Y-122807752D01*
G75*
G02*
X150085752Y-123079000I-271248J0D01*
G01*
G37*
G36*
G01*
X150085752Y-125079000D02*
X149126248Y-125079000D01*
G75*
G02*
X148855000Y-124807752I0J271248D01*
G01*
X148855000Y-124048248D01*
G75*
G02*
X149126248Y-123777000I271248J0D01*
G01*
X150085752Y-123777000D01*
G75*
G02*
X150357000Y-124048248I0J-271248D01*
G01*
X150357000Y-124807752D01*
G75*
G02*
X150085752Y-125079000I-271248J0D01*
G01*
G37*
%TD*%
%TO.C,R19*%
G36*
G01*
X146713248Y-141684000D02*
X147672752Y-141684000D01*
G75*
G02*
X147944000Y-141955248I0J-271248D01*
G01*
X147944000Y-142714752D01*
G75*
G02*
X147672752Y-142986000I-271248J0D01*
G01*
X146713248Y-142986000D01*
G75*
G02*
X146442000Y-142714752I0J271248D01*
G01*
X146442000Y-141955248D01*
G75*
G02*
X146713248Y-141684000I271248J0D01*
G01*
G37*
G36*
G01*
X146713248Y-139684000D02*
X147672752Y-139684000D01*
G75*
G02*
X147944000Y-139955248I0J-271248D01*
G01*
X147944000Y-140714752D01*
G75*
G02*
X147672752Y-140986000I-271248J0D01*
G01*
X146713248Y-140986000D01*
G75*
G02*
X146442000Y-140714752I0J271248D01*
G01*
X146442000Y-139955248D01*
G75*
G02*
X146713248Y-139684000I271248J0D01*
G01*
G37*
%TD*%
%TO.C,R18*%
G36*
G01*
X153133752Y-123079000D02*
X152174248Y-123079000D01*
G75*
G02*
X151903000Y-122807752I0J271248D01*
G01*
X151903000Y-122048248D01*
G75*
G02*
X152174248Y-121777000I271248J0D01*
G01*
X153133752Y-121777000D01*
G75*
G02*
X153405000Y-122048248I0J-271248D01*
G01*
X153405000Y-122807752D01*
G75*
G02*
X153133752Y-123079000I-271248J0D01*
G01*
G37*
G36*
G01*
X153133752Y-125079000D02*
X152174248Y-125079000D01*
G75*
G02*
X151903000Y-124807752I0J271248D01*
G01*
X151903000Y-124048248D01*
G75*
G02*
X152174248Y-123777000I271248J0D01*
G01*
X153133752Y-123777000D01*
G75*
G02*
X153405000Y-124048248I0J-271248D01*
G01*
X153405000Y-124807752D01*
G75*
G02*
X153133752Y-125079000I-271248J0D01*
G01*
G37*
%TD*%
D15*
%TO.C,R17*%
X143891000Y-68580000D03*
D16*
X143891000Y-78740000D03*
%TD*%
%TO.C,R16*%
G36*
G01*
X154677000Y-135652500D02*
X155203000Y-135652500D01*
G75*
G02*
X155466000Y-135915500I0J-263000D01*
G01*
X155466000Y-136466500D01*
G75*
G02*
X155203000Y-136729500I-263000J0D01*
G01*
X154677000Y-136729500D01*
G75*
G02*
X154414000Y-136466500I0J263000D01*
G01*
X154414000Y-135915500D01*
G75*
G02*
X154677000Y-135652500I263000J0D01*
G01*
G37*
G36*
G01*
X154677000Y-133827500D02*
X155203000Y-133827500D01*
G75*
G02*
X155466000Y-134090500I0J-263000D01*
G01*
X155466000Y-134641500D01*
G75*
G02*
X155203000Y-134904500I-263000J0D01*
G01*
X154677000Y-134904500D01*
G75*
G02*
X154414000Y-134641500I0J263000D01*
G01*
X154414000Y-134090500D01*
G75*
G02*
X154677000Y-133827500I263000J0D01*
G01*
G37*
%TD*%
%TO.C,R15*%
G36*
G01*
X154677000Y-131334500D02*
X155203000Y-131334500D01*
G75*
G02*
X155466000Y-131597500I0J-263000D01*
G01*
X155466000Y-132148500D01*
G75*
G02*
X155203000Y-132411500I-263000J0D01*
G01*
X154677000Y-132411500D01*
G75*
G02*
X154414000Y-132148500I0J263000D01*
G01*
X154414000Y-131597500D01*
G75*
G02*
X154677000Y-131334500I263000J0D01*
G01*
G37*
G36*
G01*
X154677000Y-129509500D02*
X155203000Y-129509500D01*
G75*
G02*
X155466000Y-129772500I0J-263000D01*
G01*
X155466000Y-130323500D01*
G75*
G02*
X155203000Y-130586500I-263000J0D01*
G01*
X154677000Y-130586500D01*
G75*
G02*
X154414000Y-130323500I0J263000D01*
G01*
X154414000Y-129772500D01*
G75*
G02*
X154677000Y-129509500I263000J0D01*
G01*
G37*
%TD*%
%TO.C,R14*%
G36*
G01*
X87852000Y-137301085D02*
X87852000Y-136341581D01*
G75*
G02*
X88123248Y-136070333I271248J0D01*
G01*
X88882752Y-136070333D01*
G75*
G02*
X89154000Y-136341581I0J-271248D01*
G01*
X89154000Y-137301085D01*
G75*
G02*
X88882752Y-137572333I-271248J0D01*
G01*
X88123248Y-137572333D01*
G75*
G02*
X87852000Y-137301085I0J271248D01*
G01*
G37*
G36*
G01*
X85852000Y-137301085D02*
X85852000Y-136341581D01*
G75*
G02*
X86123248Y-136070333I271248J0D01*
G01*
X86882752Y-136070333D01*
G75*
G02*
X87154000Y-136341581I0J-271248D01*
G01*
X87154000Y-137301085D01*
G75*
G02*
X86882752Y-137572333I-271248J0D01*
G01*
X86123248Y-137572333D01*
G75*
G02*
X85852000Y-137301085I0J271248D01*
G01*
G37*
%TD*%
%TO.C,R13*%
G36*
G01*
X87852000Y-140772418D02*
X87852000Y-139812914D01*
G75*
G02*
X88123248Y-139541666I271248J0D01*
G01*
X88882752Y-139541666D01*
G75*
G02*
X89154000Y-139812914I0J-271248D01*
G01*
X89154000Y-140772418D01*
G75*
G02*
X88882752Y-141043666I-271248J0D01*
G01*
X88123248Y-141043666D01*
G75*
G02*
X87852000Y-140772418I0J271248D01*
G01*
G37*
G36*
G01*
X85852000Y-140772418D02*
X85852000Y-139812914D01*
G75*
G02*
X86123248Y-139541666I271248J0D01*
G01*
X86882752Y-139541666D01*
G75*
G02*
X87154000Y-139812914I0J-271248D01*
G01*
X87154000Y-140772418D01*
G75*
G02*
X86882752Y-141043666I-271248J0D01*
G01*
X86123248Y-141043666D01*
G75*
G02*
X85852000Y-140772418I0J271248D01*
G01*
G37*
%TD*%
%TO.C,R12*%
G36*
G01*
X87852000Y-144243752D02*
X87852000Y-143284248D01*
G75*
G02*
X88123248Y-143013000I271248J0D01*
G01*
X88882752Y-143013000D01*
G75*
G02*
X89154000Y-143284248I0J-271248D01*
G01*
X89154000Y-144243752D01*
G75*
G02*
X88882752Y-144515000I-271248J0D01*
G01*
X88123248Y-144515000D01*
G75*
G02*
X87852000Y-144243752I0J271248D01*
G01*
G37*
G36*
G01*
X85852000Y-144243752D02*
X85852000Y-143284248D01*
G75*
G02*
X86123248Y-143013000I271248J0D01*
G01*
X86882752Y-143013000D01*
G75*
G02*
X87154000Y-143284248I0J-271248D01*
G01*
X87154000Y-144243752D01*
G75*
G02*
X86882752Y-144515000I-271248J0D01*
G01*
X86123248Y-144515000D01*
G75*
G02*
X85852000Y-144243752I0J271248D01*
G01*
G37*
%TD*%
%TO.C,R11*%
G36*
G01*
X87154000Y-132870248D02*
X87154000Y-133829752D01*
G75*
G02*
X86882752Y-134101000I-271248J0D01*
G01*
X86123248Y-134101000D01*
G75*
G02*
X85852000Y-133829752I0J271248D01*
G01*
X85852000Y-132870248D01*
G75*
G02*
X86123248Y-132599000I271248J0D01*
G01*
X86882752Y-132599000D01*
G75*
G02*
X87154000Y-132870248I0J-271248D01*
G01*
G37*
G36*
G01*
X89154000Y-132870248D02*
X89154000Y-133829752D01*
G75*
G02*
X88882752Y-134101000I-271248J0D01*
G01*
X88123248Y-134101000D01*
G75*
G02*
X87852000Y-133829752I0J271248D01*
G01*
X87852000Y-132870248D01*
G75*
G02*
X88123248Y-132599000I271248J0D01*
G01*
X88882752Y-132599000D01*
G75*
G02*
X89154000Y-132870248I0J-271248D01*
G01*
G37*
%TD*%
%TO.C,R10*%
G36*
G01*
X95622000Y-131287500D02*
X96148000Y-131287500D01*
G75*
G02*
X96411000Y-131550500I0J-263000D01*
G01*
X96411000Y-132101500D01*
G75*
G02*
X96148000Y-132364500I-263000J0D01*
G01*
X95622000Y-132364500D01*
G75*
G02*
X95359000Y-132101500I0J263000D01*
G01*
X95359000Y-131550500D01*
G75*
G02*
X95622000Y-131287500I263000J0D01*
G01*
G37*
G36*
G01*
X95622000Y-129462500D02*
X96148000Y-129462500D01*
G75*
G02*
X96411000Y-129725500I0J-263000D01*
G01*
X96411000Y-130276500D01*
G75*
G02*
X96148000Y-130539500I-263000J0D01*
G01*
X95622000Y-130539500D01*
G75*
G02*
X95359000Y-130276500I0J263000D01*
G01*
X95359000Y-129725500D01*
G75*
G02*
X95622000Y-129462500I263000J0D01*
G01*
G37*
%TD*%
%TO.C,R9*%
G36*
G01*
X93456000Y-124558752D02*
X93456000Y-123599248D01*
G75*
G02*
X93727248Y-123328000I271248J0D01*
G01*
X94486752Y-123328000D01*
G75*
G02*
X94758000Y-123599248I0J-271248D01*
G01*
X94758000Y-124558752D01*
G75*
G02*
X94486752Y-124830000I-271248J0D01*
G01*
X93727248Y-124830000D01*
G75*
G02*
X93456000Y-124558752I0J271248D01*
G01*
G37*
G36*
G01*
X91456000Y-124558752D02*
X91456000Y-123599248D01*
G75*
G02*
X91727248Y-123328000I271248J0D01*
G01*
X92486752Y-123328000D01*
G75*
G02*
X92758000Y-123599248I0J-271248D01*
G01*
X92758000Y-124558752D01*
G75*
G02*
X92486752Y-124830000I-271248J0D01*
G01*
X91727248Y-124830000D01*
G75*
G02*
X91456000Y-124558752I0J271248D01*
G01*
G37*
%TD*%
%TO.C,R8*%
G36*
G01*
X93456000Y-127987752D02*
X93456000Y-127028248D01*
G75*
G02*
X93727248Y-126757000I271248J0D01*
G01*
X94486752Y-126757000D01*
G75*
G02*
X94758000Y-127028248I0J-271248D01*
G01*
X94758000Y-127987752D01*
G75*
G02*
X94486752Y-128259000I-271248J0D01*
G01*
X93727248Y-128259000D01*
G75*
G02*
X93456000Y-127987752I0J271248D01*
G01*
G37*
G36*
G01*
X91456000Y-127987752D02*
X91456000Y-127028248D01*
G75*
G02*
X91727248Y-126757000I271248J0D01*
G01*
X92486752Y-126757000D01*
G75*
G02*
X92758000Y-127028248I0J-271248D01*
G01*
X92758000Y-127987752D01*
G75*
G02*
X92486752Y-128259000I-271248J0D01*
G01*
X91727248Y-128259000D01*
G75*
G02*
X91456000Y-127987752I0J271248D01*
G01*
G37*
%TD*%
%TO.C,R7*%
G36*
G01*
X96148000Y-134904500D02*
X95622000Y-134904500D01*
G75*
G02*
X95359000Y-134641500I0J263000D01*
G01*
X95359000Y-134090500D01*
G75*
G02*
X95622000Y-133827500I263000J0D01*
G01*
X96148000Y-133827500D01*
G75*
G02*
X96411000Y-134090500I0J-263000D01*
G01*
X96411000Y-134641500D01*
G75*
G02*
X96148000Y-134904500I-263000J0D01*
G01*
G37*
G36*
G01*
X96148000Y-136729500D02*
X95622000Y-136729500D01*
G75*
G02*
X95359000Y-136466500I0J263000D01*
G01*
X95359000Y-135915500D01*
G75*
G02*
X95622000Y-135652500I263000J0D01*
G01*
X96148000Y-135652500D01*
G75*
G02*
X96411000Y-135915500I0J-263000D01*
G01*
X96411000Y-136466500D01*
G75*
G02*
X96148000Y-136729500I-263000J0D01*
G01*
G37*
%TD*%
%TO.C,R6*%
G36*
G01*
X98904752Y-123333000D02*
X97945248Y-123333000D01*
G75*
G02*
X97674000Y-123061752I0J271248D01*
G01*
X97674000Y-122302248D01*
G75*
G02*
X97945248Y-122031000I271248J0D01*
G01*
X98904752Y-122031000D01*
G75*
G02*
X99176000Y-122302248I0J-271248D01*
G01*
X99176000Y-123061752D01*
G75*
G02*
X98904752Y-123333000I-271248J0D01*
G01*
G37*
G36*
G01*
X98904752Y-125333000D02*
X97945248Y-125333000D01*
G75*
G02*
X97674000Y-125061752I0J271248D01*
G01*
X97674000Y-124302248D01*
G75*
G02*
X97945248Y-124031000I271248J0D01*
G01*
X98904752Y-124031000D01*
G75*
G02*
X99176000Y-124302248I0J-271248D01*
G01*
X99176000Y-125061752D01*
G75*
G02*
X98904752Y-125333000I-271248J0D01*
G01*
G37*
%TD*%
%TO.C,R5*%
G36*
G01*
X95405248Y-141589000D02*
X96364752Y-141589000D01*
G75*
G02*
X96636000Y-141860248I0J-271248D01*
G01*
X96636000Y-142619752D01*
G75*
G02*
X96364752Y-142891000I-271248J0D01*
G01*
X95405248Y-142891000D01*
G75*
G02*
X95134000Y-142619752I0J271248D01*
G01*
X95134000Y-141860248D01*
G75*
G02*
X95405248Y-141589000I271248J0D01*
G01*
G37*
G36*
G01*
X95405248Y-139589000D02*
X96364752Y-139589000D01*
G75*
G02*
X96636000Y-139860248I0J-271248D01*
G01*
X96636000Y-140619752D01*
G75*
G02*
X96364752Y-140891000I-271248J0D01*
G01*
X95405248Y-140891000D01*
G75*
G02*
X95134000Y-140619752I0J271248D01*
G01*
X95134000Y-139860248D01*
G75*
G02*
X95405248Y-139589000I271248J0D01*
G01*
G37*
%TD*%
%TO.C,R4*%
G36*
G01*
X101952752Y-123333000D02*
X100993248Y-123333000D01*
G75*
G02*
X100722000Y-123061752I0J271248D01*
G01*
X100722000Y-122302248D01*
G75*
G02*
X100993248Y-122031000I271248J0D01*
G01*
X101952752Y-122031000D01*
G75*
G02*
X102224000Y-122302248I0J-271248D01*
G01*
X102224000Y-123061752D01*
G75*
G02*
X101952752Y-123333000I-271248J0D01*
G01*
G37*
G36*
G01*
X101952752Y-125333000D02*
X100993248Y-125333000D01*
G75*
G02*
X100722000Y-125061752I0J271248D01*
G01*
X100722000Y-124302248D01*
G75*
G02*
X100993248Y-124031000I271248J0D01*
G01*
X101952752Y-124031000D01*
G75*
G02*
X102224000Y-124302248I0J-271248D01*
G01*
X102224000Y-125061752D01*
G75*
G02*
X101952752Y-125333000I-271248J0D01*
G01*
G37*
%TD*%
D15*
%TO.C,R3*%
X92837000Y-68580000D03*
D16*
X92837000Y-78740000D03*
%TD*%
%TO.C,R2*%
G36*
G01*
X102988000Y-135665200D02*
X103514000Y-135665200D01*
G75*
G02*
X103777000Y-135928200I0J-263000D01*
G01*
X103777000Y-136479200D01*
G75*
G02*
X103514000Y-136742200I-263000J0D01*
G01*
X102988000Y-136742200D01*
G75*
G02*
X102725000Y-136479200I0J263000D01*
G01*
X102725000Y-135928200D01*
G75*
G02*
X102988000Y-135665200I263000J0D01*
G01*
G37*
G36*
G01*
X102988000Y-133840200D02*
X103514000Y-133840200D01*
G75*
G02*
X103777000Y-134103200I0J-263000D01*
G01*
X103777000Y-134654200D01*
G75*
G02*
X103514000Y-134917200I-263000J0D01*
G01*
X102988000Y-134917200D01*
G75*
G02*
X102725000Y-134654200I0J263000D01*
G01*
X102725000Y-134103200D01*
G75*
G02*
X102988000Y-133840200I263000J0D01*
G01*
G37*
%TD*%
%TO.C,R1*%
G36*
G01*
X102988000Y-131287500D02*
X103514000Y-131287500D01*
G75*
G02*
X103777000Y-131550500I0J-263000D01*
G01*
X103777000Y-132101500D01*
G75*
G02*
X103514000Y-132364500I-263000J0D01*
G01*
X102988000Y-132364500D01*
G75*
G02*
X102725000Y-132101500I0J263000D01*
G01*
X102725000Y-131550500D01*
G75*
G02*
X102988000Y-131287500I263000J0D01*
G01*
G37*
G36*
G01*
X102988000Y-129462500D02*
X103514000Y-129462500D01*
G75*
G02*
X103777000Y-129725500I0J-263000D01*
G01*
X103777000Y-130276500D01*
G75*
G02*
X103514000Y-130539500I-263000J0D01*
G01*
X102988000Y-130539500D01*
G75*
G02*
X102725000Y-130276500I0J263000D01*
G01*
X102725000Y-129725500D01*
G75*
G02*
X102988000Y-129462500I263000J0D01*
G01*
G37*
%TD*%
%TO.C,L3*%
G36*
G01*
X203824000Y-76621000D02*
X205624000Y-76621000D01*
G75*
G02*
X205675000Y-76672000I0J-51000D01*
G01*
X205675000Y-79672000D01*
G75*
G02*
X205624000Y-79723000I-51000J0D01*
G01*
X203824000Y-79723000D01*
G75*
G02*
X203773000Y-79672000I0J51000D01*
G01*
X203773000Y-76672000D01*
G75*
G02*
X203824000Y-76621000I51000J0D01*
G01*
G37*
G36*
G01*
X201284000Y-76621000D02*
X203084000Y-76621000D01*
G75*
G02*
X203135000Y-76672000I0J-51000D01*
G01*
X203135000Y-79672000D01*
G75*
G02*
X203084000Y-79723000I-51000J0D01*
G01*
X201284000Y-79723000D01*
G75*
G02*
X201233000Y-79672000I0J51000D01*
G01*
X201233000Y-76672000D01*
G75*
G02*
X201284000Y-76621000I51000J0D01*
G01*
G37*
G36*
G01*
X201284000Y-69121000D02*
X203084000Y-69121000D01*
G75*
G02*
X203135000Y-69172000I0J-51000D01*
G01*
X203135000Y-72172000D01*
G75*
G02*
X203084000Y-72223000I-51000J0D01*
G01*
X201284000Y-72223000D01*
G75*
G02*
X201233000Y-72172000I0J51000D01*
G01*
X201233000Y-69172000D01*
G75*
G02*
X201284000Y-69121000I51000J0D01*
G01*
G37*
G36*
G01*
X203824000Y-69121000D02*
X205624000Y-69121000D01*
G75*
G02*
X205675000Y-69172000I0J-51000D01*
G01*
X205675000Y-72172000D01*
G75*
G02*
X205624000Y-72223000I-51000J0D01*
G01*
X203824000Y-72223000D01*
G75*
G02*
X203773000Y-72172000I0J51000D01*
G01*
X203773000Y-69172000D01*
G75*
G02*
X203824000Y-69121000I51000J0D01*
G01*
G37*
%TD*%
%TO.C,L2*%
G36*
G01*
X152084200Y-76367000D02*
X153884200Y-76367000D01*
G75*
G02*
X153935200Y-76418000I0J-51000D01*
G01*
X153935200Y-79418000D01*
G75*
G02*
X153884200Y-79469000I-51000J0D01*
G01*
X152084200Y-79469000D01*
G75*
G02*
X152033200Y-79418000I0J51000D01*
G01*
X152033200Y-76418000D01*
G75*
G02*
X152084200Y-76367000I51000J0D01*
G01*
G37*
G36*
G01*
X149544200Y-76367000D02*
X151344200Y-76367000D01*
G75*
G02*
X151395200Y-76418000I0J-51000D01*
G01*
X151395200Y-79418000D01*
G75*
G02*
X151344200Y-79469000I-51000J0D01*
G01*
X149544200Y-79469000D01*
G75*
G02*
X149493200Y-79418000I0J51000D01*
G01*
X149493200Y-76418000D01*
G75*
G02*
X149544200Y-76367000I51000J0D01*
G01*
G37*
G36*
G01*
X149544200Y-68867000D02*
X151344200Y-68867000D01*
G75*
G02*
X151395200Y-68918000I0J-51000D01*
G01*
X151395200Y-71918000D01*
G75*
G02*
X151344200Y-71969000I-51000J0D01*
G01*
X149544200Y-71969000D01*
G75*
G02*
X149493200Y-71918000I0J51000D01*
G01*
X149493200Y-68918000D01*
G75*
G02*
X149544200Y-68867000I51000J0D01*
G01*
G37*
G36*
G01*
X152084200Y-68867000D02*
X153884200Y-68867000D01*
G75*
G02*
X153935200Y-68918000I0J-51000D01*
G01*
X153935200Y-71918000D01*
G75*
G02*
X153884200Y-71969000I-51000J0D01*
G01*
X152084200Y-71969000D01*
G75*
G02*
X152033200Y-71918000I0J51000D01*
G01*
X152033200Y-68918000D01*
G75*
G02*
X152084200Y-68867000I51000J0D01*
G01*
G37*
%TD*%
%TO.C,L1*%
G36*
G01*
X100827000Y-76367000D02*
X102627000Y-76367000D01*
G75*
G02*
X102678000Y-76418000I0J-51000D01*
G01*
X102678000Y-79418000D01*
G75*
G02*
X102627000Y-79469000I-51000J0D01*
G01*
X100827000Y-79469000D01*
G75*
G02*
X100776000Y-79418000I0J51000D01*
G01*
X100776000Y-76418000D01*
G75*
G02*
X100827000Y-76367000I51000J0D01*
G01*
G37*
G36*
G01*
X98287000Y-76367000D02*
X100087000Y-76367000D01*
G75*
G02*
X100138000Y-76418000I0J-51000D01*
G01*
X100138000Y-79418000D01*
G75*
G02*
X100087000Y-79469000I-51000J0D01*
G01*
X98287000Y-79469000D01*
G75*
G02*
X98236000Y-79418000I0J51000D01*
G01*
X98236000Y-76418000D01*
G75*
G02*
X98287000Y-76367000I51000J0D01*
G01*
G37*
G36*
G01*
X98287000Y-68867000D02*
X100087000Y-68867000D01*
G75*
G02*
X100138000Y-68918000I0J-51000D01*
G01*
X100138000Y-71918000D01*
G75*
G02*
X100087000Y-71969000I-51000J0D01*
G01*
X98287000Y-71969000D01*
G75*
G02*
X98236000Y-71918000I0J51000D01*
G01*
X98236000Y-68918000D01*
G75*
G02*
X98287000Y-68867000I51000J0D01*
G01*
G37*
G36*
G01*
X100827000Y-68867000D02*
X102627000Y-68867000D01*
G75*
G02*
X102678000Y-68918000I0J-51000D01*
G01*
X102678000Y-71918000D01*
G75*
G02*
X102627000Y-71969000I-51000J0D01*
G01*
X100827000Y-71969000D01*
G75*
G02*
X100776000Y-71918000I0J51000D01*
G01*
X100776000Y-68918000D01*
G75*
G02*
X100827000Y-68867000I51000J0D01*
G01*
G37*
%TD*%
D17*
%TO.C,J5*%
X239014000Y-131017000D03*
G36*
G01*
X240264000Y-137318000D02*
X237764000Y-137318000D01*
G75*
G02*
X237713000Y-137267000I0J51000D01*
G01*
X237713000Y-134767000D01*
G75*
G02*
X237764000Y-134716000I51000J0D01*
G01*
X240264000Y-134716000D01*
G75*
G02*
X240315000Y-134767000I0J-51000D01*
G01*
X240315000Y-137267000D01*
G75*
G02*
X240264000Y-137318000I-51000J0D01*
G01*
G37*
%TD*%
D18*
%TO.C,J4*%
X237998000Y-177673000D03*
X240538000Y-177673000D03*
X237998000Y-175133000D03*
X240538000Y-175133000D03*
X237998000Y-172593000D03*
X240538000Y-172593000D03*
X237998000Y-170053000D03*
X240538000Y-170053000D03*
X237998000Y-167513000D03*
X240538000Y-167513000D03*
%TD*%
D19*
%TO.C,J3*%
X202057000Y-63500000D03*
X204597000Y-63500000D03*
%TD*%
%TO.C,J2*%
X150241000Y-63500000D03*
X152781000Y-63500000D03*
%TD*%
%TO.C,J1*%
X99187000Y-63512700D03*
X101727000Y-63512700D03*
%TD*%
D20*
%TO.C,D6*%
X202565000Y-83566000D03*
G36*
G01*
X191254000Y-84666000D02*
X191254000Y-82466000D01*
G75*
G02*
X191305000Y-82415000I51000J0D01*
G01*
X193505000Y-82415000D01*
G75*
G02*
X193556000Y-82466000I0J-51000D01*
G01*
X193556000Y-84666000D01*
G75*
G02*
X193505000Y-84717000I-51000J0D01*
G01*
X191305000Y-84717000D01*
G75*
G02*
X191254000Y-84666000I0J51000D01*
G01*
G37*
%TD*%
%TO.C,D5*%
X202565000Y-88900000D03*
G36*
G01*
X191254000Y-90000000D02*
X191254000Y-87800000D01*
G75*
G02*
X191305000Y-87749000I51000J0D01*
G01*
X193505000Y-87749000D01*
G75*
G02*
X193556000Y-87800000I0J-51000D01*
G01*
X193556000Y-90000000D01*
G75*
G02*
X193505000Y-90051000I-51000J0D01*
G01*
X191305000Y-90051000D01*
G75*
G02*
X191254000Y-90000000I0J51000D01*
G01*
G37*
%TD*%
%TO.C,D4*%
X150495000Y-83566000D03*
G36*
G01*
X139184000Y-84666000D02*
X139184000Y-82466000D01*
G75*
G02*
X139235000Y-82415000I51000J0D01*
G01*
X141435000Y-82415000D01*
G75*
G02*
X141486000Y-82466000I0J-51000D01*
G01*
X141486000Y-84666000D01*
G75*
G02*
X141435000Y-84717000I-51000J0D01*
G01*
X139235000Y-84717000D01*
G75*
G02*
X139184000Y-84666000I0J51000D01*
G01*
G37*
%TD*%
%TO.C,D3*%
X150495000Y-88900000D03*
G36*
G01*
X139184000Y-90000000D02*
X139184000Y-87800000D01*
G75*
G02*
X139235000Y-87749000I51000J0D01*
G01*
X141435000Y-87749000D01*
G75*
G02*
X141486000Y-87800000I0J-51000D01*
G01*
X141486000Y-90000000D01*
G75*
G02*
X141435000Y-90051000I-51000J0D01*
G01*
X139235000Y-90051000D01*
G75*
G02*
X139184000Y-90000000I0J51000D01*
G01*
G37*
%TD*%
%TO.C,D2*%
X99187000Y-83566000D03*
G36*
G01*
X87876000Y-84666000D02*
X87876000Y-82466000D01*
G75*
G02*
X87927000Y-82415000I51000J0D01*
G01*
X90127000Y-82415000D01*
G75*
G02*
X90178000Y-82466000I0J-51000D01*
G01*
X90178000Y-84666000D01*
G75*
G02*
X90127000Y-84717000I-51000J0D01*
G01*
X87927000Y-84717000D01*
G75*
G02*
X87876000Y-84666000I0J51000D01*
G01*
G37*
%TD*%
%TO.C,D1*%
X99187000Y-88900000D03*
G36*
G01*
X87876000Y-90000000D02*
X87876000Y-87800000D01*
G75*
G02*
X87927000Y-87749000I51000J0D01*
G01*
X90127000Y-87749000D01*
G75*
G02*
X90178000Y-87800000I0J-51000D01*
G01*
X90178000Y-90000000D01*
G75*
G02*
X90127000Y-90051000I-51000J0D01*
G01*
X87927000Y-90051000D01*
G75*
G02*
X87876000Y-90000000I0J51000D01*
G01*
G37*
%TD*%
%TO.C,C24*%
G36*
G01*
X207509000Y-104768500D02*
X208035000Y-104768500D01*
G75*
G02*
X208298000Y-105031500I0J-263000D01*
G01*
X208298000Y-105682500D01*
G75*
G02*
X208035000Y-105945500I-263000J0D01*
G01*
X207509000Y-105945500D01*
G75*
G02*
X207246000Y-105682500I0J263000D01*
G01*
X207246000Y-105031500D01*
G75*
G02*
X207509000Y-104768500I263000J0D01*
G01*
G37*
G36*
G01*
X207509000Y-103043500D02*
X208035000Y-103043500D01*
G75*
G02*
X208298000Y-103306500I0J-263000D01*
G01*
X208298000Y-103957500D01*
G75*
G02*
X208035000Y-104220500I-263000J0D01*
G01*
X207509000Y-104220500D01*
G75*
G02*
X207246000Y-103957500I0J263000D01*
G01*
X207246000Y-103306500D01*
G75*
G02*
X207509000Y-103043500I263000J0D01*
G01*
G37*
%TD*%
%TO.C,C23*%
G36*
G01*
X201883500Y-98797000D02*
X201883500Y-99323000D01*
G75*
G02*
X201620500Y-99586000I-263000J0D01*
G01*
X200969500Y-99586000D01*
G75*
G02*
X200706500Y-99323000I0J263000D01*
G01*
X200706500Y-98797000D01*
G75*
G02*
X200969500Y-98534000I263000J0D01*
G01*
X201620500Y-98534000D01*
G75*
G02*
X201883500Y-98797000I0J-263000D01*
G01*
G37*
G36*
G01*
X203608500Y-98797000D02*
X203608500Y-99323000D01*
G75*
G02*
X203345500Y-99586000I-263000J0D01*
G01*
X202694500Y-99586000D01*
G75*
G02*
X202431500Y-99323000I0J263000D01*
G01*
X202431500Y-98797000D01*
G75*
G02*
X202694500Y-98534000I263000J0D01*
G01*
X203345500Y-98534000D01*
G75*
G02*
X203608500Y-98797000I0J-263000D01*
G01*
G37*
%TD*%
%TO.C,C22*%
G36*
G01*
X207019000Y-119513500D02*
X206493000Y-119513500D01*
G75*
G02*
X206230000Y-119250500I0J263000D01*
G01*
X206230000Y-118599500D01*
G75*
G02*
X206493000Y-118336500I263000J0D01*
G01*
X207019000Y-118336500D01*
G75*
G02*
X207282000Y-118599500I0J-263000D01*
G01*
X207282000Y-119250500D01*
G75*
G02*
X207019000Y-119513500I-263000J0D01*
G01*
G37*
G36*
G01*
X207019000Y-121238500D02*
X206493000Y-121238500D01*
G75*
G02*
X206230000Y-120975500I0J263000D01*
G01*
X206230000Y-120324500D01*
G75*
G02*
X206493000Y-120061500I263000J0D01*
G01*
X207019000Y-120061500D01*
G75*
G02*
X207282000Y-120324500I0J-263000D01*
G01*
X207282000Y-120975500D01*
G75*
G02*
X207019000Y-121238500I-263000J0D01*
G01*
G37*
%TD*%
%TO.C,C18*%
G36*
G01*
X156963000Y-139693500D02*
X157489000Y-139693500D01*
G75*
G02*
X157752000Y-139956500I0J-263000D01*
G01*
X157752000Y-140607500D01*
G75*
G02*
X157489000Y-140870500I-263000J0D01*
G01*
X156963000Y-140870500D01*
G75*
G02*
X156700000Y-140607500I0J263000D01*
G01*
X156700000Y-139956500D01*
G75*
G02*
X156963000Y-139693500I263000J0D01*
G01*
G37*
G36*
G01*
X156963000Y-137968500D02*
X157489000Y-137968500D01*
G75*
G02*
X157752000Y-138231500I0J-263000D01*
G01*
X157752000Y-138882500D01*
G75*
G02*
X157489000Y-139145500I-263000J0D01*
G01*
X156963000Y-139145500D01*
G75*
G02*
X156700000Y-138882500I0J263000D01*
G01*
X156700000Y-138231500D01*
G75*
G02*
X156963000Y-137968500I263000J0D01*
G01*
G37*
%TD*%
%TO.C,C17*%
G36*
G01*
X162159000Y-137786000D02*
X162159000Y-138312000D01*
G75*
G02*
X161896000Y-138575000I-263000J0D01*
G01*
X161245000Y-138575000D01*
G75*
G02*
X160982000Y-138312000I0J263000D01*
G01*
X160982000Y-137786000D01*
G75*
G02*
X161245000Y-137523000I263000J0D01*
G01*
X161896000Y-137523000D01*
G75*
G02*
X162159000Y-137786000I0J-263000D01*
G01*
G37*
G36*
G01*
X163884000Y-137786000D02*
X163884000Y-138312000D01*
G75*
G02*
X163621000Y-138575000I-263000J0D01*
G01*
X162970000Y-138575000D01*
G75*
G02*
X162707000Y-138312000I0J263000D01*
G01*
X162707000Y-137786000D01*
G75*
G02*
X162970000Y-137523000I263000J0D01*
G01*
X163621000Y-137523000D01*
G75*
G02*
X163884000Y-137786000I0J-263000D01*
G01*
G37*
%TD*%
%TO.C,C15*%
G36*
G01*
X155693000Y-104768500D02*
X156219000Y-104768500D01*
G75*
G02*
X156482000Y-105031500I0J-263000D01*
G01*
X156482000Y-105682500D01*
G75*
G02*
X156219000Y-105945500I-263000J0D01*
G01*
X155693000Y-105945500D01*
G75*
G02*
X155430000Y-105682500I0J263000D01*
G01*
X155430000Y-105031500D01*
G75*
G02*
X155693000Y-104768500I263000J0D01*
G01*
G37*
G36*
G01*
X155693000Y-103043500D02*
X156219000Y-103043500D01*
G75*
G02*
X156482000Y-103306500I0J-263000D01*
G01*
X156482000Y-103957500D01*
G75*
G02*
X156219000Y-104220500I-263000J0D01*
G01*
X155693000Y-104220500D01*
G75*
G02*
X155430000Y-103957500I0J263000D01*
G01*
X155430000Y-103306500D01*
G75*
G02*
X155693000Y-103043500I263000J0D01*
G01*
G37*
%TD*%
%TO.C,C14*%
G36*
G01*
X149866500Y-98797000D02*
X149866500Y-99323000D01*
G75*
G02*
X149603500Y-99586000I-263000J0D01*
G01*
X148952500Y-99586000D01*
G75*
G02*
X148689500Y-99323000I0J263000D01*
G01*
X148689500Y-98797000D01*
G75*
G02*
X148952500Y-98534000I263000J0D01*
G01*
X149603500Y-98534000D01*
G75*
G02*
X149866500Y-98797000I0J-263000D01*
G01*
G37*
G36*
G01*
X151591500Y-98797000D02*
X151591500Y-99323000D01*
G75*
G02*
X151328500Y-99586000I-263000J0D01*
G01*
X150677500Y-99586000D01*
G75*
G02*
X150414500Y-99323000I0J263000D01*
G01*
X150414500Y-98797000D01*
G75*
G02*
X150677500Y-98534000I263000J0D01*
G01*
X151328500Y-98534000D01*
G75*
G02*
X151591500Y-98797000I0J-263000D01*
G01*
G37*
%TD*%
%TO.C,C13*%
G36*
G01*
X155457000Y-119487000D02*
X154931000Y-119487000D01*
G75*
G02*
X154668000Y-119224000I0J263000D01*
G01*
X154668000Y-118573000D01*
G75*
G02*
X154931000Y-118310000I263000J0D01*
G01*
X155457000Y-118310000D01*
G75*
G02*
X155720000Y-118573000I0J-263000D01*
G01*
X155720000Y-119224000D01*
G75*
G02*
X155457000Y-119487000I-263000J0D01*
G01*
G37*
G36*
G01*
X155457000Y-121212000D02*
X154931000Y-121212000D01*
G75*
G02*
X154668000Y-120949000I0J263000D01*
G01*
X154668000Y-120298000D01*
G75*
G02*
X154931000Y-120035000I263000J0D01*
G01*
X155457000Y-120035000D01*
G75*
G02*
X155720000Y-120298000I0J-263000D01*
G01*
X155720000Y-120949000D01*
G75*
G02*
X155457000Y-121212000I-263000J0D01*
G01*
G37*
%TD*%
%TO.C,C8*%
G36*
G01*
X104385000Y-104694500D02*
X104911000Y-104694500D01*
G75*
G02*
X105174000Y-104957500I0J-263000D01*
G01*
X105174000Y-105608500D01*
G75*
G02*
X104911000Y-105871500I-263000J0D01*
G01*
X104385000Y-105871500D01*
G75*
G02*
X104122000Y-105608500I0J263000D01*
G01*
X104122000Y-104957500D01*
G75*
G02*
X104385000Y-104694500I263000J0D01*
G01*
G37*
G36*
G01*
X104385000Y-102969500D02*
X104911000Y-102969500D01*
G75*
G02*
X105174000Y-103232500I0J-263000D01*
G01*
X105174000Y-103883500D01*
G75*
G02*
X104911000Y-104146500I-263000J0D01*
G01*
X104385000Y-104146500D01*
G75*
G02*
X104122000Y-103883500I0J263000D01*
G01*
X104122000Y-103232500D01*
G75*
G02*
X104385000Y-102969500I263000J0D01*
G01*
G37*
%TD*%
%TO.C,C7*%
G36*
G01*
X98913000Y-98797000D02*
X98913000Y-99323000D01*
G75*
G02*
X98650000Y-99586000I-263000J0D01*
G01*
X97999000Y-99586000D01*
G75*
G02*
X97736000Y-99323000I0J263000D01*
G01*
X97736000Y-98797000D01*
G75*
G02*
X97999000Y-98534000I263000J0D01*
G01*
X98650000Y-98534000D01*
G75*
G02*
X98913000Y-98797000I0J-263000D01*
G01*
G37*
G36*
G01*
X100638000Y-98797000D02*
X100638000Y-99323000D01*
G75*
G02*
X100375000Y-99586000I-263000J0D01*
G01*
X99724000Y-99586000D01*
G75*
G02*
X99461000Y-99323000I0J263000D01*
G01*
X99461000Y-98797000D01*
G75*
G02*
X99724000Y-98534000I263000J0D01*
G01*
X100375000Y-98534000D01*
G75*
G02*
X100638000Y-98797000I0J-263000D01*
G01*
G37*
%TD*%
%TO.C,C6*%
G36*
G01*
X213404000Y-141554113D02*
X213404000Y-140639887D01*
G75*
G02*
X213672887Y-140371000I268887J0D01*
G01*
X214637113Y-140371000D01*
G75*
G02*
X214906000Y-140639887I0J-268887D01*
G01*
X214906000Y-141554113D01*
G75*
G02*
X214637113Y-141823000I-268887J0D01*
G01*
X213672887Y-141823000D01*
G75*
G02*
X213404000Y-141554113I0J268887D01*
G01*
G37*
G36*
G01*
X210704000Y-141554113D02*
X210704000Y-140639887D01*
G75*
G02*
X210972887Y-140371000I268887J0D01*
G01*
X211937113Y-140371000D01*
G75*
G02*
X212206000Y-140639887I0J-268887D01*
G01*
X212206000Y-141554113D01*
G75*
G02*
X211937113Y-141823000I-268887J0D01*
G01*
X210972887Y-141823000D01*
G75*
G02*
X210704000Y-141554113I0J268887D01*
G01*
G37*
%TD*%
%TO.C,C5*%
G36*
G01*
X103895000Y-120122000D02*
X103369000Y-120122000D01*
G75*
G02*
X103106000Y-119859000I0J263000D01*
G01*
X103106000Y-119208000D01*
G75*
G02*
X103369000Y-118945000I263000J0D01*
G01*
X103895000Y-118945000D01*
G75*
G02*
X104158000Y-119208000I0J-263000D01*
G01*
X104158000Y-119859000D01*
G75*
G02*
X103895000Y-120122000I-263000J0D01*
G01*
G37*
G36*
G01*
X103895000Y-121847000D02*
X103369000Y-121847000D01*
G75*
G02*
X103106000Y-121584000I0J263000D01*
G01*
X103106000Y-120933000D01*
G75*
G02*
X103369000Y-120670000I263000J0D01*
G01*
X103895000Y-120670000D01*
G75*
G02*
X104158000Y-120933000I0J-263000D01*
G01*
X104158000Y-121584000D01*
G75*
G02*
X103895000Y-121847000I-263000J0D01*
G01*
G37*
%TD*%
%TO.C,C2*%
G36*
G01*
X220226000Y-127332332D02*
X220226000Y-129461668D01*
G75*
G02*
X219964668Y-129723000I-261332J0D01*
G01*
X218135332Y-129723000D01*
G75*
G02*
X217874000Y-129461668I0J261332D01*
G01*
X217874000Y-127332332D01*
G75*
G02*
X218135332Y-127071000I261332J0D01*
G01*
X219964668Y-127071000D01*
G75*
G02*
X220226000Y-127332332I0J-261332D01*
G01*
G37*
G36*
G01*
X226626000Y-127332332D02*
X226626000Y-129461668D01*
G75*
G02*
X226364668Y-129723000I-261332J0D01*
G01*
X224535332Y-129723000D01*
G75*
G02*
X224274000Y-129461668I0J261332D01*
G01*
X224274000Y-127332332D01*
G75*
G02*
X224535332Y-127071000I261332J0D01*
G01*
X226364668Y-127071000D01*
G75*
G02*
X226626000Y-127332332I0J-261332D01*
G01*
G37*
%TD*%
D21*
%TO.C,REF\u002A\u002A*%
X67462400Y-55798720D03*
%TD*%
%TO.C,REF\u002A\u002A*%
X67462400Y-188798200D03*
%TD*%
%TO.C,REF\u002A\u002A*%
X247462040Y-188798200D03*
%TD*%
%TO.C,REF\u002A\u002A*%
X247462040Y-55798720D03*
%TD*%
D22*
G36*
X160915732Y-133741000D02*
G01*
X160916000Y-133742000D01*
X160916000Y-135404000D01*
X160915000Y-135405732D01*
X160914000Y-135406000D01*
X160716000Y-135406000D01*
X160714268Y-135405000D01*
X160714000Y-135404000D01*
X160714000Y-133742000D01*
X160715000Y-133740268D01*
X160716000Y-133740000D01*
X160914000Y-133740000D01*
X160915732Y-133741000D01*
G37*
G36*
X161865732Y-133741000D02*
G01*
X161866000Y-133742000D01*
X161866000Y-135404000D01*
X161865000Y-135405732D01*
X161864000Y-135406000D01*
X161666000Y-135406000D01*
X161664268Y-135405000D01*
X161664000Y-135404000D01*
X161664000Y-133742000D01*
X161665000Y-133740268D01*
X161666000Y-133740000D01*
X161864000Y-133740000D01*
X161865732Y-133741000D01*
G37*
G36*
X202444732Y-129771000D02*
G01*
X202445000Y-129772000D01*
X202445000Y-131434000D01*
X202444000Y-131435732D01*
X202443000Y-131436000D01*
X202245000Y-131436000D01*
X202243268Y-131435000D01*
X202243000Y-131434000D01*
X202243000Y-129772000D01*
X202244000Y-129770268D01*
X202245000Y-129770000D01*
X202443000Y-129770000D01*
X202444732Y-129771000D01*
G37*
G36*
X203394732Y-129771000D02*
G01*
X203395000Y-129772000D01*
X203395000Y-131434000D01*
X203394000Y-131435732D01*
X203393000Y-131436000D01*
X203195000Y-131436000D01*
X203193268Y-131435000D01*
X203193000Y-131434000D01*
X203193000Y-129772000D01*
X203194000Y-129770268D01*
X203195000Y-129770000D01*
X203393000Y-129770000D01*
X203394732Y-129771000D01*
G37*
G36*
X150755732Y-129644000D02*
G01*
X150756000Y-129645000D01*
X150756000Y-131307000D01*
X150755000Y-131308732D01*
X150754000Y-131309000D01*
X150556000Y-131309000D01*
X150554268Y-131308000D01*
X150554000Y-131307000D01*
X150554000Y-129645000D01*
X150555000Y-129643268D01*
X150556000Y-129643000D01*
X150754000Y-129643000D01*
X150755732Y-129644000D01*
G37*
G36*
X151705732Y-129644000D02*
G01*
X151706000Y-129645000D01*
X151706000Y-131307000D01*
X151705000Y-131308732D01*
X151704000Y-131309000D01*
X151506000Y-131309000D01*
X151504268Y-131308000D01*
X151504000Y-131307000D01*
X151504000Y-129645000D01*
X151505000Y-129643268D01*
X151506000Y-129643000D01*
X151704000Y-129643000D01*
X151705732Y-129644000D01*
G37*
G36*
X99320732Y-129644000D02*
G01*
X99321000Y-129645000D01*
X99321000Y-131307000D01*
X99320000Y-131308732D01*
X99319000Y-131309000D01*
X99121000Y-131309000D01*
X99119268Y-131308000D01*
X99119000Y-131307000D01*
X99119000Y-129645000D01*
X99120000Y-129643268D01*
X99121000Y-129643000D01*
X99319000Y-129643000D01*
X99320732Y-129644000D01*
G37*
G36*
X100270732Y-129644000D02*
G01*
X100271000Y-129645000D01*
X100271000Y-131307000D01*
X100270000Y-131308732D01*
X100269000Y-131309000D01*
X100071000Y-131309000D01*
X100069268Y-131308000D01*
X100069000Y-131307000D01*
X100069000Y-129645000D01*
X100070000Y-129643268D01*
X100071000Y-129643000D01*
X100269000Y-129643000D01*
X100270732Y-129644000D01*
G37*
G36*
X192428732Y-129534000D02*
G01*
X192429000Y-129535000D01*
X192429000Y-129733000D01*
X192428000Y-129734732D01*
X192427000Y-129735000D01*
X190765000Y-129735000D01*
X190763268Y-129734000D01*
X190763000Y-129733000D01*
X190763000Y-129535000D01*
X190764000Y-129533268D01*
X190765000Y-129533000D01*
X192427000Y-129533000D01*
X192428732Y-129534000D01*
G37*
G36*
X140866732Y-129407000D02*
G01*
X140867000Y-129408000D01*
X140867000Y-129606000D01*
X140866000Y-129607732D01*
X140865000Y-129608000D01*
X139203000Y-129608000D01*
X139201268Y-129607000D01*
X139201000Y-129606000D01*
X139201000Y-129408000D01*
X139202000Y-129406268D01*
X139203000Y-129406000D01*
X140865000Y-129406000D01*
X140866732Y-129407000D01*
G37*
G36*
X89939732Y-129407000D02*
G01*
X89940000Y-129408000D01*
X89940000Y-129606000D01*
X89939000Y-129607732D01*
X89938000Y-129608000D01*
X88276000Y-129608000D01*
X88274268Y-129607000D01*
X88274000Y-129606000D01*
X88274000Y-129408000D01*
X88275000Y-129406268D01*
X88276000Y-129406000D01*
X89938000Y-129406000D01*
X89939732Y-129407000D01*
G37*
G36*
X192428732Y-128584000D02*
G01*
X192429000Y-128585000D01*
X192429000Y-128783000D01*
X192428000Y-128784732D01*
X192427000Y-128785000D01*
X190765000Y-128785000D01*
X190763268Y-128784000D01*
X190763000Y-128783000D01*
X190763000Y-128585000D01*
X190764000Y-128583268D01*
X190765000Y-128583000D01*
X192427000Y-128583000D01*
X192428732Y-128584000D01*
G37*
G36*
X140866732Y-128457000D02*
G01*
X140867000Y-128458000D01*
X140867000Y-128656000D01*
X140866000Y-128657732D01*
X140865000Y-128658000D01*
X139203000Y-128658000D01*
X139201268Y-128657000D01*
X139201000Y-128656000D01*
X139201000Y-128458000D01*
X139202000Y-128456268D01*
X139203000Y-128456000D01*
X140865000Y-128456000D01*
X140866732Y-128457000D01*
G37*
G36*
X89939732Y-128457000D02*
G01*
X89940000Y-128458000D01*
X89940000Y-128656000D01*
X89939000Y-128657732D01*
X89938000Y-128658000D01*
X88276000Y-128658000D01*
X88274268Y-128657000D01*
X88274000Y-128656000D01*
X88274000Y-128458000D01*
X88275000Y-128456268D01*
X88276000Y-128456000D01*
X89938000Y-128456000D01*
X89939732Y-128457000D01*
G37*
M02*
