M48
METRIC,TZ
T1C0.500
T2C0.800
T3C0.850
T4C1.020
T5C1.100
T6C1.200
T7C1.300
T8C2.200
%
G90
G05
T1
X84074Y-131191
X84074Y-138938
X84074Y-143938
X88773Y-175133
X90297Y-126365
X91567Y-130556
X93552Y-143938
X96393Y-126873
X98425Y-167513
X98679Y-136906
X99187Y-101854
X99695Y-128270
X101473Y-126746
X101727Y-141097
X103505Y-97282
X103712Y-143938
X104394Y-124460
X105410Y-136144
X106560Y-141090
X131953Y-140970
X135937Y-143938
X139573Y-180721
X144960Y-132895
X144987Y-143938
X147193Y-122809
X147193Y-126873
X149606Y-169926
X150495Y-101600
X150495Y-137287
X151130Y-128143
X152654Y-126873
X152861Y-143938
X153670Y-98806
X154432Y-141097
X155194Y-122555
X157226Y-136144
X157306Y-143938
X161497Y-143938
X163296Y-141124
X164084Y-131826
X165354Y-141097
X184023Y-140970
X186055Y-149860
X191516Y-177673
X192913Y-125984
X195860Y-132233
X196295Y-143938
X198882Y-126746
X201168Y-172593
X202184Y-101346
X202819Y-128270
X202819Y-137287
X204724Y-126746
X205232Y-98806
X205232Y-138049
X206756Y-122682
X208788Y-136144
X210947Y-138049
X212471Y-138049
X213995Y-138049
X215011Y-137033
X216090Y-135954
X217234Y-134811
X219202Y-141097
X225933Y-141097
X227940Y-141097
X229946Y-141097
X231952Y-141097
X232029Y-133604
X232029Y-136017
X232029Y-138557
X233959Y-141097
X235331Y-139700
X236728Y-138303
X236855Y-141097
X239014Y-141097
X241427Y-141097
X243967Y-141097
T2
X92837Y-68580
X92837Y-78740
X143891Y-68580
X143891Y-78740
X196215Y-68453
X196215Y-78613
T3
X89281Y-103886
X89281Y-106426
X89281Y-108966
X89281Y-114046
X89281Y-116586
X140208Y-103886
X140208Y-106426
X140208Y-108966
X140208Y-114046
X140208Y-116586
X191770Y-104013
X191770Y-106553
X191770Y-109093
X191770Y-114173
X191770Y-116713
T4
X99187Y-63513
X101727Y-63513
X150241Y-63500
X152781Y-63500
X202057Y-63500
X204597Y-63500
T5
X89027Y-83566
X89027Y-88900
X99187Y-83566
X99187Y-88900
X140335Y-83566
X140335Y-88900
X150495Y-83566
X150495Y-88900
X192405Y-83566
X192405Y-88900
X202565Y-83566
X202565Y-88900
T6
X237998Y-167513
X237998Y-170053
X237998Y-172593
X237998Y-175133
X237998Y-177673
X240538Y-167513
X240538Y-170053
X240538Y-172593
X240538Y-175133
X240538Y-177673
T7
X239014Y-131017
X239014Y-136017
T8
X247015Y-166116
X247015Y-179070
T0
M30
