%TF.GenerationSoftware,KiCad,Pcbnew,5.1.10-88a1d61d58~88~ubuntu20.04.1*%
%TF.CreationDate,2021-06-08T11:44:55+07:00*%
%TF.ProjectId,Analog_decoupling,416e616c-6f67-45f6-9465-636f75706c69,rev?*%
%TF.SameCoordinates,Original*%
%TF.FileFunction,Copper,L2,Bot*%
%TF.FilePolarity,Positive*%
%FSLAX46Y46*%
G04 Gerber Fmt 4.6, Leading zero omitted, Abs format (unit mm)*
G04 Created by KiCad (PCBNEW 5.1.10-88a1d61d58~88~ubuntu20.04.1) date 2021-06-08 11:44:55*
%MOMM*%
%LPD*%
G01*
G04 APERTURE LIST*
%TA.AperFunction,ComponentPad*%
%ADD10C,1.850000*%
%TD*%
%TA.AperFunction,ComponentPad*%
%ADD11R,1.850000X1.850000*%
%TD*%
%TA.AperFunction,ConnectorPad*%
%ADD12C,3.800000*%
%TD*%
%TA.AperFunction,ComponentPad*%
%ADD13C,2.600000*%
%TD*%
%TA.AperFunction,ComponentPad*%
%ADD14O,1.600000X1.600000*%
%TD*%
%TA.AperFunction,ComponentPad*%
%ADD15C,1.600000*%
%TD*%
%TA.AperFunction,ComponentPad*%
%ADD16C,2.500000*%
%TD*%
%TA.AperFunction,ComponentPad*%
%ADD17R,2.500000X2.500000*%
%TD*%
%TA.AperFunction,ComponentPad*%
%ADD18C,2.200000*%
%TD*%
%TA.AperFunction,ComponentPad*%
%ADD19C,2.020000*%
%TD*%
%TA.AperFunction,ComponentPad*%
%ADD20O,2.200000X2.200000*%
%TD*%
%TA.AperFunction,ComponentPad*%
%ADD21R,2.200000X2.200000*%
%TD*%
%TA.AperFunction,ViaPad*%
%ADD22C,0.900000*%
%TD*%
%TA.AperFunction,Conductor*%
%ADD23C,0.600000*%
%TD*%
%TA.AperFunction,Conductor*%
%ADD24C,0.800000*%
%TD*%
%TA.AperFunction,Conductor*%
%ADD25C,2.500000*%
%TD*%
%TA.AperFunction,Conductor*%
%ADD26C,1.500000*%
%TD*%
%TA.AperFunction,Conductor*%
%ADD27C,0.400000*%
%TD*%
%TA.AperFunction,Conductor*%
%ADD28C,0.254000*%
%TD*%
%TA.AperFunction,Conductor*%
%ADD29C,0.100000*%
%TD*%
G04 APERTURE END LIST*
D10*
%TO.P,PS3,6*%
%TO.N,Net-(C20-Pad1)*%
X191770000Y-104013000D03*
%TO.P,PS3,5*%
%TO.N,Net-(PS3-Pad5)*%
X191770000Y-106553000D03*
%TO.P,PS3,4*%
%TO.N,Net-(C20-Pad2)*%
X191770000Y-109093000D03*
%TO.P,PS3,2*%
%TO.N,GNDREF*%
X191770000Y-114173000D03*
D11*
%TO.P,PS3,1*%
%TO.N,+24V*%
X191770000Y-116713000D03*
%TD*%
D10*
%TO.P,PS2,6*%
%TO.N,Net-(C11-Pad1)*%
X140208000Y-103886000D03*
%TO.P,PS2,5*%
%TO.N,Net-(PS2-Pad5)*%
X140208000Y-106426000D03*
%TO.P,PS2,4*%
%TO.N,Net-(C11-Pad2)*%
X140208000Y-108966000D03*
%TO.P,PS2,2*%
%TO.N,GNDREF*%
X140208000Y-114046000D03*
D11*
%TO.P,PS2,1*%
%TO.N,+24V*%
X140208000Y-116586000D03*
%TD*%
D10*
%TO.P,PS1,6*%
%TO.N,Net-(C3-Pad1)*%
X89281000Y-103886000D03*
%TO.P,PS1,5*%
%TO.N,Net-(PS1-Pad5)*%
X89281000Y-106426000D03*
%TO.P,PS1,4*%
%TO.N,Net-(C3-Pad2)*%
X89281000Y-108966000D03*
%TO.P,PS1,2*%
%TO.N,GNDREF*%
X89281000Y-114046000D03*
D11*
%TO.P,PS1,1*%
%TO.N,+24V*%
X89281000Y-116586000D03*
%TD*%
D12*
%TO.P,REF\u002A\u002A,1*%
%TO.N,N/C*%
X247015000Y-166116000D03*
D13*
X247015000Y-166116000D03*
%TD*%
D12*
%TO.P,REF\u002A\u002A,1*%
%TO.N,N/C*%
X247015000Y-179070000D03*
D13*
X247015000Y-179070000D03*
%TD*%
D14*
%TO.P,R31,2*%
%TO.N,Net-(L3-Pad2)*%
X196215000Y-68453000D03*
D15*
%TO.P,R31,1*%
%TO.N,Net-(C23-Pad1)*%
X196215000Y-78613000D03*
%TD*%
D14*
%TO.P,R17,2*%
%TO.N,Net-(L2-Pad2)*%
X143891000Y-68580000D03*
D15*
%TO.P,R17,1*%
%TO.N,Net-(C14-Pad1)*%
X143891000Y-78740000D03*
%TD*%
D14*
%TO.P,R3,2*%
%TO.N,Net-(L1-Pad2)*%
X92837000Y-68580000D03*
D15*
%TO.P,R3,1*%
%TO.N,Net-(C7-Pad1)*%
X92837000Y-78740000D03*
%TD*%
D16*
%TO.P,J5,2*%
%TO.N,+24V*%
X239014000Y-131017000D03*
D17*
%TO.P,J5,1*%
%TO.N,GNDREF*%
X239014000Y-136017000D03*
%TD*%
D18*
%TO.P,J4,10*%
%TO.N,/A_CH3_FAULT*%
X237998000Y-177673000D03*
%TO.P,J4,9*%
%TO.N,/A_CH2_FAULT*%
X240538000Y-177673000D03*
%TO.P,J4,8*%
%TO.N,/A_CH1_FAULT*%
X237998000Y-175133000D03*
%TO.P,J4,7*%
%TO.N,GNDREF*%
X240538000Y-175133000D03*
%TO.P,J4,6*%
%TO.N,/ADC3_P*%
X237998000Y-172593000D03*
%TO.P,J4,5*%
%TO.N,GNDREF*%
X240538000Y-172593000D03*
%TO.P,J4,4*%
%TO.N,/ADC2_P*%
X237998000Y-170053000D03*
%TO.P,J4,3*%
%TO.N,GNDREF*%
X240538000Y-170053000D03*
%TO.P,J4,2*%
%TO.N,/ADC1_P*%
X237998000Y-167513000D03*
%TO.P,J4,1*%
%TO.N,GNDREF*%
X240538000Y-167513000D03*
%TD*%
D19*
%TO.P,J3,2*%
%TO.N,Net-(J3-Pad2)*%
X202057000Y-63500000D03*
%TO.P,J3,1*%
%TO.N,Net-(J3-Pad1)*%
X204597000Y-63500000D03*
%TD*%
%TO.P,J2,2*%
%TO.N,Net-(J2-Pad2)*%
X150241000Y-63500000D03*
%TO.P,J2,1*%
%TO.N,Net-(J2-Pad1)*%
X152781000Y-63500000D03*
%TD*%
%TO.P,J1,2*%
%TO.N,Net-(J1-Pad2)*%
X99187000Y-63512700D03*
%TO.P,J1,1*%
%TO.N,Net-(J1-Pad1)*%
X101727000Y-63512700D03*
%TD*%
D20*
%TO.P,D6,2*%
%TO.N,Net-(C20-Pad2)*%
X202565000Y-83566000D03*
D21*
%TO.P,D6,1*%
%TO.N,Net-(D5-Pad1)*%
X192405000Y-83566000D03*
%TD*%
D20*
%TO.P,D5,2*%
%TO.N,Net-(C23-Pad1)*%
X202565000Y-88900000D03*
D21*
%TO.P,D5,1*%
%TO.N,Net-(D5-Pad1)*%
X192405000Y-88900000D03*
%TD*%
D20*
%TO.P,D4,2*%
%TO.N,Net-(C11-Pad2)*%
X150495000Y-83566000D03*
D21*
%TO.P,D4,1*%
%TO.N,Net-(D3-Pad1)*%
X140335000Y-83566000D03*
%TD*%
D20*
%TO.P,D3,2*%
%TO.N,Net-(C14-Pad1)*%
X150495000Y-88900000D03*
D21*
%TO.P,D3,1*%
%TO.N,Net-(D3-Pad1)*%
X140335000Y-88900000D03*
%TD*%
D20*
%TO.P,D2,2*%
%TO.N,Net-(C3-Pad2)*%
X99187000Y-83566000D03*
D21*
%TO.P,D2,1*%
%TO.N,Net-(D1-Pad1)*%
X89027000Y-83566000D03*
%TD*%
D20*
%TO.P,D1,2*%
%TO.N,Net-(C7-Pad1)*%
X99187000Y-88900000D03*
D21*
%TO.P,D1,1*%
%TO.N,Net-(D1-Pad1)*%
X89027000Y-88900000D03*
%TD*%
%TO.P,C21,2*%
%TO.N,Net-(C20-Pad2)*%
%TA.AperFunction,SMDPad,CuDef*%
G36*
G01*
X185029999Y-105555000D02*
X187080001Y-105555000D01*
G75*
G02*
X187330000Y-105804999I0J-249999D01*
G01*
X187330000Y-107555001D01*
G75*
G02*
X187080001Y-107805000I-249999J0D01*
G01*
X185029999Y-107805000D01*
G75*
G02*
X184780000Y-107555001I0J249999D01*
G01*
X184780000Y-105804999D01*
G75*
G02*
X185029999Y-105555000I249999J0D01*
G01*
G37*
%TD.AperFunction*%
%TO.P,C21,1*%
%TO.N,Net-(C20-Pad1)*%
%TA.AperFunction,SMDPad,CuDef*%
G36*
G01*
X185029999Y-99155000D02*
X187080001Y-99155000D01*
G75*
G02*
X187330000Y-99404999I0J-249999D01*
G01*
X187330000Y-101155001D01*
G75*
G02*
X187080001Y-101405000I-249999J0D01*
G01*
X185029999Y-101405000D01*
G75*
G02*
X184780000Y-101155001I0J249999D01*
G01*
X184780000Y-99404999D01*
G75*
G02*
X185029999Y-99155000I249999J0D01*
G01*
G37*
%TD.AperFunction*%
%TD*%
%TO.P,C20,2*%
%TO.N,Net-(C20-Pad2)*%
%TA.AperFunction,SMDPad,CuDef*%
G36*
G01*
X195342500Y-106470500D02*
X195817500Y-106470500D01*
G75*
G02*
X196055000Y-106708000I0J-237500D01*
G01*
X196055000Y-107308000D01*
G75*
G02*
X195817500Y-107545500I-237500J0D01*
G01*
X195342500Y-107545500D01*
G75*
G02*
X195105000Y-107308000I0J237500D01*
G01*
X195105000Y-106708000D01*
G75*
G02*
X195342500Y-106470500I237500J0D01*
G01*
G37*
%TD.AperFunction*%
%TO.P,C20,1*%
%TO.N,Net-(C20-Pad1)*%
%TA.AperFunction,SMDPad,CuDef*%
G36*
G01*
X195342500Y-104745500D02*
X195817500Y-104745500D01*
G75*
G02*
X196055000Y-104983000I0J-237500D01*
G01*
X196055000Y-105583000D01*
G75*
G02*
X195817500Y-105820500I-237500J0D01*
G01*
X195342500Y-105820500D01*
G75*
G02*
X195105000Y-105583000I0J237500D01*
G01*
X195105000Y-104983000D01*
G75*
G02*
X195342500Y-104745500I237500J0D01*
G01*
G37*
%TD.AperFunction*%
%TD*%
%TO.P,C19,2*%
%TO.N,GNDREF*%
%TA.AperFunction,SMDPad,CuDef*%
G36*
G01*
X187308500Y-115245000D02*
X186833500Y-115245000D01*
G75*
G02*
X186596000Y-115007500I0J237500D01*
G01*
X186596000Y-114407500D01*
G75*
G02*
X186833500Y-114170000I237500J0D01*
G01*
X187308500Y-114170000D01*
G75*
G02*
X187546000Y-114407500I0J-237500D01*
G01*
X187546000Y-115007500D01*
G75*
G02*
X187308500Y-115245000I-237500J0D01*
G01*
G37*
%TD.AperFunction*%
%TO.P,C19,1*%
%TO.N,+24V*%
%TA.AperFunction,SMDPad,CuDef*%
G36*
G01*
X187308500Y-116970000D02*
X186833500Y-116970000D01*
G75*
G02*
X186596000Y-116732500I0J237500D01*
G01*
X186596000Y-116132500D01*
G75*
G02*
X186833500Y-115895000I237500J0D01*
G01*
X187308500Y-115895000D01*
G75*
G02*
X187546000Y-116132500I0J-237500D01*
G01*
X187546000Y-116732500D01*
G75*
G02*
X187308500Y-116970000I-237500J0D01*
G01*
G37*
%TD.AperFunction*%
%TD*%
%TO.P,C12,2*%
%TO.N,Net-(C11-Pad2)*%
%TA.AperFunction,SMDPad,CuDef*%
G36*
G01*
X132705999Y-105453000D02*
X134756001Y-105453000D01*
G75*
G02*
X135006000Y-105702999I0J-249999D01*
G01*
X135006000Y-107453001D01*
G75*
G02*
X134756001Y-107703000I-249999J0D01*
G01*
X132705999Y-107703000D01*
G75*
G02*
X132456000Y-107453001I0J249999D01*
G01*
X132456000Y-105702999D01*
G75*
G02*
X132705999Y-105453000I249999J0D01*
G01*
G37*
%TD.AperFunction*%
%TO.P,C12,1*%
%TO.N,Net-(C11-Pad1)*%
%TA.AperFunction,SMDPad,CuDef*%
G36*
G01*
X132705999Y-99053000D02*
X134756001Y-99053000D01*
G75*
G02*
X135006000Y-99302999I0J-249999D01*
G01*
X135006000Y-101053001D01*
G75*
G02*
X134756001Y-101303000I-249999J0D01*
G01*
X132705999Y-101303000D01*
G75*
G02*
X132456000Y-101053001I0J249999D01*
G01*
X132456000Y-99302999D01*
G75*
G02*
X132705999Y-99053000I249999J0D01*
G01*
G37*
%TD.AperFunction*%
%TD*%
%TO.P,C11,2*%
%TO.N,Net-(C11-Pad2)*%
%TA.AperFunction,SMDPad,CuDef*%
G36*
G01*
X143526500Y-106470500D02*
X144001500Y-106470500D01*
G75*
G02*
X144239000Y-106708000I0J-237500D01*
G01*
X144239000Y-107308000D01*
G75*
G02*
X144001500Y-107545500I-237500J0D01*
G01*
X143526500Y-107545500D01*
G75*
G02*
X143289000Y-107308000I0J237500D01*
G01*
X143289000Y-106708000D01*
G75*
G02*
X143526500Y-106470500I237500J0D01*
G01*
G37*
%TD.AperFunction*%
%TO.P,C11,1*%
%TO.N,Net-(C11-Pad1)*%
%TA.AperFunction,SMDPad,CuDef*%
G36*
G01*
X143526500Y-104745500D02*
X144001500Y-104745500D01*
G75*
G02*
X144239000Y-104983000I0J-237500D01*
G01*
X144239000Y-105583000D01*
G75*
G02*
X144001500Y-105820500I-237500J0D01*
G01*
X143526500Y-105820500D01*
G75*
G02*
X143289000Y-105583000I0J237500D01*
G01*
X143289000Y-104983000D01*
G75*
G02*
X143526500Y-104745500I237500J0D01*
G01*
G37*
%TD.AperFunction*%
%TD*%
%TO.P,C10,2*%
%TO.N,GNDREF*%
%TA.AperFunction,SMDPad,CuDef*%
G36*
G01*
X135619500Y-114890500D02*
X135144500Y-114890500D01*
G75*
G02*
X134907000Y-114653000I0J237500D01*
G01*
X134907000Y-114053000D01*
G75*
G02*
X135144500Y-113815500I237500J0D01*
G01*
X135619500Y-113815500D01*
G75*
G02*
X135857000Y-114053000I0J-237500D01*
G01*
X135857000Y-114653000D01*
G75*
G02*
X135619500Y-114890500I-237500J0D01*
G01*
G37*
%TD.AperFunction*%
%TO.P,C10,1*%
%TO.N,+24V*%
%TA.AperFunction,SMDPad,CuDef*%
G36*
G01*
X135619500Y-116615500D02*
X135144500Y-116615500D01*
G75*
G02*
X134907000Y-116378000I0J237500D01*
G01*
X134907000Y-115778000D01*
G75*
G02*
X135144500Y-115540500I237500J0D01*
G01*
X135619500Y-115540500D01*
G75*
G02*
X135857000Y-115778000I0J-237500D01*
G01*
X135857000Y-116378000D01*
G75*
G02*
X135619500Y-116615500I-237500J0D01*
G01*
G37*
%TD.AperFunction*%
%TD*%
%TO.P,C4,2*%
%TO.N,Net-(C3-Pad2)*%
%TA.AperFunction,SMDPad,CuDef*%
G36*
G01*
X81524999Y-105453000D02*
X83575001Y-105453000D01*
G75*
G02*
X83825000Y-105702999I0J-249999D01*
G01*
X83825000Y-107453001D01*
G75*
G02*
X83575001Y-107703000I-249999J0D01*
G01*
X81524999Y-107703000D01*
G75*
G02*
X81275000Y-107453001I0J249999D01*
G01*
X81275000Y-105702999D01*
G75*
G02*
X81524999Y-105453000I249999J0D01*
G01*
G37*
%TD.AperFunction*%
%TO.P,C4,1*%
%TO.N,Net-(C3-Pad1)*%
%TA.AperFunction,SMDPad,CuDef*%
G36*
G01*
X81524999Y-99053000D02*
X83575001Y-99053000D01*
G75*
G02*
X83825000Y-99302999I0J-249999D01*
G01*
X83825000Y-101053001D01*
G75*
G02*
X83575001Y-101303000I-249999J0D01*
G01*
X81524999Y-101303000D01*
G75*
G02*
X81275000Y-101053001I0J249999D01*
G01*
X81275000Y-99302999D01*
G75*
G02*
X81524999Y-99053000I249999J0D01*
G01*
G37*
%TD.AperFunction*%
%TD*%
%TO.P,C3,2*%
%TO.N,Net-(C3-Pad2)*%
%TA.AperFunction,SMDPad,CuDef*%
G36*
G01*
X92091500Y-106597500D02*
X92566500Y-106597500D01*
G75*
G02*
X92804000Y-106835000I0J-237500D01*
G01*
X92804000Y-107435000D01*
G75*
G02*
X92566500Y-107672500I-237500J0D01*
G01*
X92091500Y-107672500D01*
G75*
G02*
X91854000Y-107435000I0J237500D01*
G01*
X91854000Y-106835000D01*
G75*
G02*
X92091500Y-106597500I237500J0D01*
G01*
G37*
%TD.AperFunction*%
%TO.P,C3,1*%
%TO.N,Net-(C3-Pad1)*%
%TA.AperFunction,SMDPad,CuDef*%
G36*
G01*
X92091500Y-104872500D02*
X92566500Y-104872500D01*
G75*
G02*
X92804000Y-105110000I0J-237500D01*
G01*
X92804000Y-105710000D01*
G75*
G02*
X92566500Y-105947500I-237500J0D01*
G01*
X92091500Y-105947500D01*
G75*
G02*
X91854000Y-105710000I0J237500D01*
G01*
X91854000Y-105110000D01*
G75*
G02*
X92091500Y-104872500I237500J0D01*
G01*
G37*
%TD.AperFunction*%
%TD*%
%TO.P,C1,2*%
%TO.N,GNDREF*%
%TA.AperFunction,SMDPad,CuDef*%
G36*
G01*
X84946500Y-115091500D02*
X84471500Y-115091500D01*
G75*
G02*
X84234000Y-114854000I0J237500D01*
G01*
X84234000Y-114254000D01*
G75*
G02*
X84471500Y-114016500I237500J0D01*
G01*
X84946500Y-114016500D01*
G75*
G02*
X85184000Y-114254000I0J-237500D01*
G01*
X85184000Y-114854000D01*
G75*
G02*
X84946500Y-115091500I-237500J0D01*
G01*
G37*
%TD.AperFunction*%
%TO.P,C1,1*%
%TO.N,+24V*%
%TA.AperFunction,SMDPad,CuDef*%
G36*
G01*
X84946500Y-116816500D02*
X84471500Y-116816500D01*
G75*
G02*
X84234000Y-116579000I0J237500D01*
G01*
X84234000Y-115979000D01*
G75*
G02*
X84471500Y-115741500I237500J0D01*
G01*
X84946500Y-115741500D01*
G75*
G02*
X85184000Y-115979000I0J-237500D01*
G01*
X85184000Y-116579000D01*
G75*
G02*
X84946500Y-116816500I-237500J0D01*
G01*
G37*
%TD.AperFunction*%
%TD*%
D22*
%TO.N,+5V_Analog*%
X210947000Y-138049000D03*
%TO.N,GNDREF*%
X91567000Y-130556000D03*
X99695000Y-128270000D03*
X84074000Y-138938000D03*
X151130000Y-128143000D03*
X202819000Y-128270000D03*
X90297000Y-126365000D03*
X147193000Y-122809000D03*
X144960001Y-132895001D03*
X186055000Y-149860000D03*
X236728000Y-138303000D03*
X235331000Y-139700000D03*
X233959000Y-141097000D03*
X231952500Y-141097000D03*
X229946000Y-141097000D03*
X227939500Y-141097000D03*
X225933000Y-141097000D03*
X219202000Y-141097000D03*
X192913000Y-125984000D03*
X195860001Y-132233001D03*
X206756000Y-122682000D03*
X104394000Y-124460000D03*
X135937011Y-143938011D03*
X144986989Y-143938011D03*
X152860989Y-143938011D03*
X157305989Y-143938011D03*
X161496989Y-143938011D03*
X196294989Y-143938011D03*
X93551989Y-143938011D03*
X84074000Y-143938011D03*
X103711989Y-143938011D03*
X232029000Y-136017000D03*
X232029000Y-138557000D03*
X236855000Y-141097000D03*
X239014000Y-141097000D03*
X241427000Y-141097000D03*
X243967000Y-141097000D03*
X232029000Y-133604000D03*
X155194000Y-122555000D03*
X98679000Y-136906000D03*
X150495000Y-137287000D03*
X202819000Y-137287000D03*
%TO.N,Net-(C3-Pad1)*%
X99187000Y-101854000D03*
X103505000Y-97282000D03*
%TO.N,+5V_Analog*%
X84074000Y-131191000D03*
X205232000Y-138049000D03*
X164084000Y-131826000D03*
X212471000Y-138049000D03*
X213995000Y-138049000D03*
X215011000Y-137033000D03*
X216090500Y-135953500D03*
X217233500Y-134810500D03*
X101727000Y-141097000D03*
X106560001Y-141089999D03*
X131953000Y-140970000D03*
X154432000Y-141097000D03*
X163295500Y-141123500D03*
X165354000Y-141097000D03*
X184023000Y-140970000D03*
%TO.N,/ADC1_P*%
X98425000Y-167513000D03*
%TO.N,Net-(C11-Pad1)*%
X150495000Y-101600000D03*
X153670000Y-98806000D03*
%TO.N,/ADC2_P*%
X149606000Y-169926000D03*
%TO.N,/Ref_1\u002C65V*%
X105410000Y-136144000D03*
X157226000Y-136144000D03*
X208788000Y-136144000D03*
%TO.N,Net-(C20-Pad1)*%
X202184000Y-101346000D03*
X205232000Y-98806000D03*
%TO.N,/ADC3_P*%
X201168000Y-172593000D03*
%TO.N,Net-(R1-Pad1)*%
X96393000Y-126873000D03*
X101473000Y-126746000D03*
%TO.N,/A_CH1_FAULT*%
X88773000Y-175133000D03*
%TO.N,Net-(R15-Pad1)*%
X147193000Y-126873000D03*
X152654000Y-126873000D03*
%TO.N,/A_CH2_FAULT*%
X139573000Y-180721000D03*
%TO.N,Net-(R29-Pad1)*%
X198882000Y-126746000D03*
X204724000Y-126746000D03*
%TO.N,/A_CH3_FAULT*%
X191516000Y-177673000D03*
%TD*%
D23*
%TO.N,GNDREF*%
X85217000Y-114046000D02*
X84709000Y-114554000D01*
X89281000Y-114046000D02*
X85217000Y-114046000D01*
X139901000Y-114353000D02*
X140208000Y-114046000D01*
X135382000Y-114353000D02*
X139901000Y-114353000D01*
X187605500Y-114173000D02*
X187071000Y-114707500D01*
X191770000Y-114173000D02*
X187605500Y-114173000D01*
X191643000Y-114046000D02*
X191770000Y-114173000D01*
X89281000Y-114046000D02*
X191643000Y-114046000D01*
X240964001Y-134066999D02*
X239014000Y-136017000D01*
X240964001Y-130080999D02*
X240964001Y-134066999D01*
X225056002Y-114173000D02*
X240964001Y-130080999D01*
X191770000Y-114173000D02*
X225056002Y-114173000D01*
D24*
X84074000Y-138049000D02*
X91567000Y-130556000D01*
X84074000Y-138938000D02*
X84074000Y-138049000D01*
D25*
X239014000Y-136017000D02*
X236728000Y-138303000D01*
X234061000Y-140970000D02*
X233959000Y-141072000D01*
X233934000Y-141097000D02*
X231775000Y-141097000D01*
D24*
X97409000Y-130556000D02*
X99695000Y-128270000D01*
X91567000Y-130556000D02*
X97409000Y-130556000D01*
X90297000Y-129286000D02*
X91567000Y-130556000D01*
X90297000Y-126365000D02*
X90297000Y-129286000D01*
X144960001Y-125041999D02*
X144960001Y-132895001D01*
X147193000Y-122809000D02*
X144960001Y-125041999D01*
D25*
X236728000Y-138303000D02*
X235331000Y-139700000D01*
X235331000Y-139700000D02*
X234061000Y-140970000D01*
X233959000Y-141072000D02*
X233934000Y-141097000D01*
X231775000Y-141097000D02*
X229616000Y-141097000D01*
X229616000Y-141097000D02*
X227965000Y-141097000D01*
X227965000Y-141097000D02*
X225933000Y-141097000D01*
X225933000Y-141097000D02*
X219202000Y-141097000D01*
D23*
X192913000Y-129286000D02*
X195860001Y-132233001D01*
X192913000Y-125984000D02*
X192913000Y-129286000D01*
X198855999Y-132233001D02*
X202819000Y-128270000D01*
X195860001Y-132233001D02*
X198855999Y-132233001D01*
D25*
X219202000Y-141097000D02*
X212000232Y-141097000D01*
X212000232Y-141097000D02*
X209159222Y-143938011D01*
X133350000Y-143938011D02*
X133350000Y-143938011D01*
X135937011Y-143938011D02*
X133350000Y-143938011D01*
X209159222Y-143938011D02*
X196294989Y-143938011D01*
X144986989Y-143938011D02*
X135937011Y-143938011D01*
X152860989Y-143938011D02*
X144986989Y-143938011D01*
X157305989Y-143938011D02*
X152860989Y-143938011D01*
X161496989Y-143938011D02*
X157305989Y-143938011D01*
X196294989Y-143938011D02*
X161496989Y-143938011D01*
X133350000Y-143938011D02*
X103711989Y-143938011D01*
X93551989Y-143938011D02*
X84074000Y-143938011D01*
X84074000Y-143938011D02*
X84074000Y-143938011D01*
X103711989Y-143938011D02*
X93551989Y-143938011D01*
D23*
%TO.N,+24V*%
X85016000Y-116586000D02*
X84709000Y-116279000D01*
X89281000Y-116586000D02*
X85016000Y-116586000D01*
X135890000Y-116586000D02*
X135382000Y-116078000D01*
X140208000Y-116586000D02*
X135890000Y-116586000D01*
D26*
X89281000Y-118311000D02*
X90858000Y-119888000D01*
X89281000Y-116586000D02*
X89281000Y-118311000D01*
X90858000Y-119888000D02*
X136906000Y-119888000D01*
X143510000Y-119888000D02*
X188595000Y-119888000D01*
X227885000Y-119888000D02*
X239014000Y-131017000D01*
X140208000Y-119507000D02*
X140589000Y-119888000D01*
X140208000Y-116586000D02*
X140208000Y-119507000D01*
X140589000Y-119888000D02*
X136906000Y-119888000D01*
X143510000Y-119888000D02*
X140589000Y-119888000D01*
X191770000Y-119507000D02*
X192151000Y-119888000D01*
X191770000Y-116713000D02*
X191770000Y-119507000D01*
X192151000Y-119888000D02*
X227885000Y-119888000D01*
X188595000Y-119888000D02*
X192151000Y-119888000D01*
D23*
X187351500Y-116713000D02*
X187071000Y-116432500D01*
X191770000Y-116713000D02*
X187351500Y-116713000D01*
D24*
%TO.N,Net-(C3-Pad2)*%
X90498000Y-108966000D02*
X92329000Y-107135000D01*
X89281000Y-108966000D02*
X90498000Y-108966000D01*
X86893000Y-106578000D02*
X89281000Y-108966000D01*
X82550000Y-106578000D02*
X86893000Y-106578000D01*
%TO.N,Net-(C3-Pad1)*%
X90805000Y-103886000D02*
X92329000Y-105410000D01*
X89281000Y-103886000D02*
X90805000Y-103886000D01*
D23*
X95631000Y-105410000D02*
X92329000Y-105410000D01*
X99187000Y-101854000D02*
X95631000Y-105410000D01*
X103505000Y-97536000D02*
X103505000Y-97282000D01*
X99187000Y-101854000D02*
X103505000Y-97536000D01*
D24*
X86258000Y-103886000D02*
X82550000Y-100178000D01*
X89281000Y-103886000D02*
X86258000Y-103886000D01*
D26*
%TO.N,+5V_Analog*%
X81534000Y-133731000D02*
X84074000Y-131191000D01*
D25*
X81592999Y-141038001D02*
X81534000Y-141097000D01*
X81534000Y-141097000D02*
X81534000Y-133731000D01*
X207957999Y-141038001D02*
X81592999Y-141038001D01*
X210947000Y-138049000D02*
X207957999Y-141038001D01*
X210947000Y-138049000D02*
X213995000Y-138049000D01*
X213995000Y-138049000D02*
X217233500Y-134810500D01*
D24*
%TO.N,Net-(C7-Pad1)*%
X92837000Y-82550000D02*
X99187000Y-88900000D01*
X92837000Y-78740000D02*
X92837000Y-82550000D01*
D27*
%TO.N,/ADC1_P*%
X237998000Y-167513000D02*
X98425000Y-167513000D01*
D24*
%TO.N,Net-(C11-Pad1)*%
X142367000Y-103886000D02*
X143764000Y-105283000D01*
X140208000Y-103886000D02*
X142367000Y-103886000D01*
X147447000Y-101600000D02*
X143764000Y-105283000D01*
X150495000Y-101600000D02*
X147447000Y-101600000D01*
D27*
X153289000Y-98806000D02*
X153670000Y-98806000D01*
X150495000Y-101600000D02*
X153289000Y-98806000D01*
D24*
X136500000Y-100178000D02*
X140208000Y-103886000D01*
X133731000Y-100178000D02*
X136500000Y-100178000D01*
%TO.N,Net-(C11-Pad2)*%
X141806000Y-108966000D02*
X143764000Y-107008000D01*
X140208000Y-108966000D02*
X141806000Y-108966000D01*
X137820000Y-106578000D02*
X140208000Y-108966000D01*
X133731000Y-106578000D02*
X137820000Y-106578000D01*
%TO.N,Net-(C14-Pad1)*%
X143891000Y-82296000D02*
X143891000Y-78740000D01*
X150495000Y-88900000D02*
X143891000Y-82296000D01*
D27*
%TO.N,/ADC2_P*%
X149733000Y-170053000D02*
X149606000Y-169926000D01*
X237998000Y-170053000D02*
X149733000Y-170053000D01*
%TO.N,/Ref_1\u002C65V*%
X105410000Y-136144000D02*
X157226000Y-136144000D01*
X208788000Y-136144000D02*
X157226000Y-136144000D01*
D24*
%TO.N,Net-(C20-Pad1)*%
X190323000Y-102566000D02*
X191770000Y-104013000D01*
X194310000Y-104013000D02*
X195580000Y-105283000D01*
X191770000Y-104013000D02*
X194310000Y-104013000D01*
D27*
X204724000Y-98806000D02*
X205232000Y-98806000D01*
X202184000Y-101346000D02*
X204724000Y-98806000D01*
D24*
X198247000Y-105283000D02*
X202184000Y-101346000D01*
X195580000Y-105283000D02*
X198247000Y-105283000D01*
X188341000Y-102566000D02*
X186055000Y-100280000D01*
X190323000Y-102566000D02*
X188341000Y-102566000D01*
%TO.N,Net-(C20-Pad2)*%
X191643000Y-108966000D02*
X191770000Y-109093000D01*
X193495000Y-109093000D02*
X195580000Y-107008000D01*
X191770000Y-109093000D02*
X193495000Y-109093000D01*
X189357000Y-106680000D02*
X191770000Y-109093000D01*
X186055000Y-106680000D02*
X189357000Y-106680000D01*
%TO.N,Net-(C23-Pad1)*%
X196215000Y-82550000D02*
X202565000Y-88900000D01*
X196215000Y-78613000D02*
X196215000Y-82550000D01*
D27*
%TO.N,/ADC3_P*%
X237998000Y-172593000D02*
X201168000Y-172593000D01*
%TO.N,Net-(R1-Pad1)*%
X101346000Y-126873000D02*
X101473000Y-126746000D01*
X96393000Y-126873000D02*
X101346000Y-126873000D01*
%TO.N,/A_CH1_FAULT*%
X237998000Y-175133000D02*
X88773000Y-175133000D01*
%TO.N,Net-(R15-Pad1)*%
X147193000Y-126873000D02*
X152654000Y-126873000D01*
%TO.N,/A_CH2_FAULT*%
X240538000Y-177673000D02*
X240538000Y-180213000D01*
X240538000Y-180213000D02*
X240030000Y-180721000D01*
X240030000Y-180721000D02*
X139573000Y-180721000D01*
%TO.N,Net-(R29-Pad1)*%
X198882000Y-126746000D02*
X204724000Y-126746000D01*
%TO.N,/A_CH3_FAULT*%
X237998000Y-177673000D02*
X191516000Y-177673000D01*
%TD*%
D28*
%TO.N,GNDREF*%
X89950656Y-120795344D02*
X90145104Y-120954924D01*
X90366947Y-121073501D01*
X90366949Y-121073502D01*
X90607664Y-121146522D01*
X90858000Y-121171178D01*
X90920726Y-121165000D01*
X140526281Y-121165000D01*
X140588999Y-121171177D01*
X140651718Y-121165000D01*
X192088281Y-121165000D01*
X192150999Y-121171177D01*
X192213718Y-121165000D01*
X227157394Y-121165000D01*
X235583984Y-129591590D01*
X235521523Y-132839558D01*
X235523940Y-132866776D01*
X235531167Y-132890601D01*
X235542903Y-132912557D01*
X235558697Y-132931803D01*
X235577943Y-132947597D01*
X235599899Y-132959333D01*
X235623724Y-132966560D01*
X235648500Y-132969000D01*
X243141500Y-132969000D01*
X243163563Y-132967069D01*
X243187539Y-132960361D01*
X243209746Y-132949105D01*
X243229330Y-132933733D01*
X243245538Y-132914836D01*
X243257749Y-132893139D01*
X243265492Y-132869478D01*
X243268470Y-132844760D01*
X243331970Y-129923760D01*
X243329050Y-129893786D01*
X243321357Y-129870108D01*
X243309193Y-129848386D01*
X243293025Y-129829454D01*
X233878473Y-120777000D01*
X249752190Y-120777000D01*
X249928961Y-120794444D01*
X250092901Y-120844278D01*
X250243944Y-120925197D01*
X250376247Y-121034072D01*
X250484726Y-121166718D01*
X250565180Y-121318000D01*
X250614512Y-121482091D01*
X250631418Y-121658926D01*
X250447030Y-182015003D01*
X250429441Y-182189769D01*
X250380211Y-182351877D01*
X250300571Y-182501426D01*
X250193532Y-182632752D01*
X250063123Y-182740917D01*
X249914271Y-182821832D01*
X249752580Y-182872452D01*
X249577980Y-182891539D01*
X240635896Y-182995516D01*
X240623548Y-182996262D01*
X240430116Y-183017445D01*
X240405929Y-183022512D01*
X240220262Y-183080754D01*
X240197513Y-183090410D01*
X240026641Y-183183507D01*
X240006194Y-183197386D01*
X239856586Y-183321813D01*
X239839213Y-183339389D01*
X239716535Y-183490433D01*
X239702895Y-183511040D01*
X239611791Y-183682983D01*
X239602401Y-183705842D01*
X239546321Y-183892174D01*
X239541535Y-183916419D01*
X239522603Y-184110084D01*
X239522000Y-184122440D01*
X239522000Y-191017766D01*
X239504624Y-191194189D01*
X239454978Y-191357850D01*
X239374362Y-191508672D01*
X239265870Y-191640870D01*
X239133672Y-191749362D01*
X238982850Y-191829978D01*
X238819189Y-191879624D01*
X238642766Y-191897000D01*
X74920234Y-191897000D01*
X74743811Y-191879624D01*
X74580150Y-191829978D01*
X74429328Y-191749362D01*
X74297130Y-191640870D01*
X74188638Y-191508672D01*
X74108022Y-191357850D01*
X74058376Y-191194189D01*
X74041000Y-191017766D01*
X74041000Y-182991000D01*
X74040388Y-182978552D01*
X74021173Y-182783462D01*
X74016317Y-182759044D01*
X73959412Y-182571451D01*
X73949884Y-182548450D01*
X73857474Y-182375563D01*
X73843642Y-182354862D01*
X73719279Y-182203325D01*
X73701675Y-182185721D01*
X73550138Y-182061358D01*
X73529437Y-182047526D01*
X73356550Y-181955116D01*
X73333549Y-181945588D01*
X73145956Y-181888683D01*
X73121538Y-181883827D01*
X72926448Y-181864612D01*
X72914000Y-181864000D01*
X65271361Y-181864000D01*
X65094585Y-181846554D01*
X64930638Y-181796717D01*
X64779595Y-181715795D01*
X64647284Y-181606909D01*
X64538810Y-181474259D01*
X64458359Y-181322971D01*
X64409031Y-181158868D01*
X64392133Y-180982034D01*
X64410596Y-175036774D01*
X87796000Y-175036774D01*
X87796000Y-175229226D01*
X87833546Y-175417980D01*
X87907194Y-175595783D01*
X88014115Y-175755801D01*
X88150199Y-175891885D01*
X88310217Y-175998806D01*
X88488020Y-176072454D01*
X88676774Y-176110000D01*
X88869226Y-176110000D01*
X89057980Y-176072454D01*
X89235783Y-175998806D01*
X89395801Y-175891885D01*
X89427686Y-175860000D01*
X236538082Y-175860000D01*
X236556172Y-175903673D01*
X236734227Y-176170152D01*
X236960848Y-176396773D01*
X236970167Y-176403000D01*
X236960848Y-176409227D01*
X236734227Y-176635848D01*
X236556172Y-176902327D01*
X236538082Y-176946000D01*
X192170686Y-176946000D01*
X192138801Y-176914115D01*
X191978783Y-176807194D01*
X191800980Y-176733546D01*
X191612226Y-176696000D01*
X191419774Y-176696000D01*
X191231020Y-176733546D01*
X191053217Y-176807194D01*
X190893199Y-176914115D01*
X190757115Y-177050199D01*
X190650194Y-177210217D01*
X190576546Y-177388020D01*
X190539000Y-177576774D01*
X190539000Y-177769226D01*
X190576546Y-177957980D01*
X190650194Y-178135783D01*
X190757115Y-178295801D01*
X190893199Y-178431885D01*
X191053217Y-178538806D01*
X191231020Y-178612454D01*
X191419774Y-178650000D01*
X191612226Y-178650000D01*
X191800980Y-178612454D01*
X191978783Y-178538806D01*
X192138801Y-178431885D01*
X192170686Y-178400000D01*
X236538082Y-178400000D01*
X236556172Y-178443673D01*
X236734227Y-178710152D01*
X236960848Y-178936773D01*
X237227327Y-179114828D01*
X237523422Y-179237475D01*
X237837755Y-179300000D01*
X238158245Y-179300000D01*
X238472578Y-179237475D01*
X238768673Y-179114828D01*
X239035152Y-178936773D01*
X239261773Y-178710152D01*
X239268000Y-178700833D01*
X239274227Y-178710152D01*
X239500848Y-178936773D01*
X239767327Y-179114828D01*
X239811001Y-179132918D01*
X239811001Y-179911867D01*
X239728868Y-179994000D01*
X140227686Y-179994000D01*
X140195801Y-179962115D01*
X140035783Y-179855194D01*
X139857980Y-179781546D01*
X139669226Y-179744000D01*
X139476774Y-179744000D01*
X139288020Y-179781546D01*
X139110217Y-179855194D01*
X138950199Y-179962115D01*
X138814115Y-180098199D01*
X138707194Y-180258217D01*
X138633546Y-180436020D01*
X138596000Y-180624774D01*
X138596000Y-180817226D01*
X138633546Y-181005980D01*
X138707194Y-181183783D01*
X138814115Y-181343801D01*
X138950199Y-181479885D01*
X139110217Y-181586806D01*
X139288020Y-181660454D01*
X139476774Y-181698000D01*
X139669226Y-181698000D01*
X139857980Y-181660454D01*
X140035783Y-181586806D01*
X140195801Y-181479885D01*
X140227686Y-181448000D01*
X239994292Y-181448000D01*
X240030000Y-181451517D01*
X240172517Y-181437480D01*
X240309557Y-181395910D01*
X240435853Y-181328403D01*
X240546554Y-181237554D01*
X240569325Y-181209807D01*
X241026811Y-180752322D01*
X241054554Y-180729554D01*
X241145403Y-180618853D01*
X241212910Y-180492557D01*
X241254480Y-180355517D01*
X241265000Y-180248708D01*
X241265000Y-180248706D01*
X241268517Y-180213001D01*
X241265000Y-180177295D01*
X241265000Y-179132918D01*
X241308673Y-179114828D01*
X241575152Y-178936773D01*
X241680964Y-178830961D01*
X244588000Y-178830961D01*
X244588000Y-179309039D01*
X244681268Y-179777930D01*
X244864221Y-180219615D01*
X245129826Y-180617122D01*
X245467878Y-180955174D01*
X245865385Y-181220779D01*
X246307070Y-181403732D01*
X246775961Y-181497000D01*
X247254039Y-181497000D01*
X247722930Y-181403732D01*
X248164615Y-181220779D01*
X248562122Y-180955174D01*
X248900174Y-180617122D01*
X249165779Y-180219615D01*
X249348732Y-179777930D01*
X249442000Y-179309039D01*
X249442000Y-178830961D01*
X249348732Y-178362070D01*
X249165779Y-177920385D01*
X248900174Y-177522878D01*
X248562122Y-177184826D01*
X248164615Y-176919221D01*
X247722930Y-176736268D01*
X247254039Y-176643000D01*
X246775961Y-176643000D01*
X246307070Y-176736268D01*
X245865385Y-176919221D01*
X245467878Y-177184826D01*
X245129826Y-177522878D01*
X244864221Y-177920385D01*
X244681268Y-178362070D01*
X244588000Y-178830961D01*
X241680964Y-178830961D01*
X241801773Y-178710152D01*
X241979828Y-178443673D01*
X242102475Y-178147578D01*
X242165000Y-177833245D01*
X242165000Y-177512755D01*
X242102475Y-177198422D01*
X241979828Y-176902327D01*
X241801773Y-176635848D01*
X241575152Y-176409227D01*
X241413414Y-176301157D01*
X241453688Y-176228294D01*
X240538000Y-175312605D01*
X239622312Y-176228294D01*
X239662586Y-176301157D01*
X239500848Y-176409227D01*
X239274227Y-176635848D01*
X239268000Y-176645167D01*
X239261773Y-176635848D01*
X239035152Y-176409227D01*
X239025833Y-176403000D01*
X239035152Y-176396773D01*
X239261773Y-176170152D01*
X239369843Y-176008414D01*
X239442706Y-176048688D01*
X240358395Y-175133000D01*
X240717605Y-175133000D01*
X241633294Y-176048688D01*
X241849736Y-175929052D01*
X241979833Y-175657849D01*
X242054521Y-175366476D01*
X242070930Y-175066131D01*
X242028430Y-174768356D01*
X241928653Y-174484594D01*
X241849736Y-174336948D01*
X241633294Y-174217312D01*
X240717605Y-175133000D01*
X240358395Y-175133000D01*
X239442706Y-174217312D01*
X239369843Y-174257586D01*
X239261773Y-174095848D01*
X239035152Y-173869227D01*
X239025833Y-173863000D01*
X239035152Y-173856773D01*
X239203631Y-173688294D01*
X239622312Y-173688294D01*
X239718879Y-173863000D01*
X239622312Y-174037706D01*
X240538000Y-174953395D01*
X241453688Y-174037706D01*
X241357121Y-173863000D01*
X241453688Y-173688294D01*
X240538000Y-172772605D01*
X239622312Y-173688294D01*
X239203631Y-173688294D01*
X239261773Y-173630152D01*
X239369843Y-173468414D01*
X239442706Y-173508688D01*
X240358395Y-172593000D01*
X240717605Y-172593000D01*
X241633294Y-173508688D01*
X241849736Y-173389052D01*
X241979833Y-173117849D01*
X242054521Y-172826476D01*
X242070930Y-172526131D01*
X242028430Y-172228356D01*
X241928653Y-171944594D01*
X241849736Y-171796948D01*
X241633294Y-171677312D01*
X240717605Y-172593000D01*
X240358395Y-172593000D01*
X239442706Y-171677312D01*
X239369843Y-171717586D01*
X239261773Y-171555848D01*
X239035152Y-171329227D01*
X239025833Y-171323000D01*
X239035152Y-171316773D01*
X239203631Y-171148294D01*
X239622312Y-171148294D01*
X239718879Y-171323000D01*
X239622312Y-171497706D01*
X240538000Y-172413395D01*
X241453688Y-171497706D01*
X241357121Y-171323000D01*
X241453688Y-171148294D01*
X240538000Y-170232605D01*
X239622312Y-171148294D01*
X239203631Y-171148294D01*
X239261773Y-171090152D01*
X239369843Y-170928414D01*
X239442706Y-170968688D01*
X240358395Y-170053000D01*
X240717605Y-170053000D01*
X241633294Y-170968688D01*
X241849736Y-170849052D01*
X241979833Y-170577849D01*
X242054521Y-170286476D01*
X242070930Y-169986131D01*
X242028430Y-169688356D01*
X241928653Y-169404594D01*
X241849736Y-169256948D01*
X241633294Y-169137312D01*
X240717605Y-170053000D01*
X240358395Y-170053000D01*
X239442706Y-169137312D01*
X239369843Y-169177586D01*
X239261773Y-169015848D01*
X239035152Y-168789227D01*
X239025833Y-168783000D01*
X239035152Y-168776773D01*
X239203631Y-168608294D01*
X239622312Y-168608294D01*
X239718879Y-168783000D01*
X239622312Y-168957706D01*
X240538000Y-169873395D01*
X241453688Y-168957706D01*
X241357121Y-168783000D01*
X241453688Y-168608294D01*
X240538000Y-167692605D01*
X239622312Y-168608294D01*
X239203631Y-168608294D01*
X239261773Y-168550152D01*
X239369843Y-168388414D01*
X239442706Y-168428688D01*
X240358395Y-167513000D01*
X240717605Y-167513000D01*
X241633294Y-168428688D01*
X241849736Y-168309052D01*
X241979833Y-168037849D01*
X242054521Y-167746476D01*
X242070930Y-167446131D01*
X242028430Y-167148356D01*
X241928653Y-166864594D01*
X241849736Y-166716948D01*
X241633294Y-166597312D01*
X240717605Y-167513000D01*
X240358395Y-167513000D01*
X239442706Y-166597312D01*
X239369843Y-166637586D01*
X239261773Y-166475848D01*
X239203631Y-166417706D01*
X239622312Y-166417706D01*
X240538000Y-167333395D01*
X241453688Y-166417706D01*
X241334052Y-166201264D01*
X241062849Y-166071167D01*
X240771476Y-165996479D01*
X240471131Y-165980070D01*
X240173356Y-166022570D01*
X239889594Y-166122347D01*
X239741948Y-166201264D01*
X239622312Y-166417706D01*
X239203631Y-166417706D01*
X239035152Y-166249227D01*
X238768673Y-166071172D01*
X238472578Y-165948525D01*
X238158245Y-165886000D01*
X237837755Y-165886000D01*
X237523422Y-165948525D01*
X237227327Y-166071172D01*
X236960848Y-166249227D01*
X236734227Y-166475848D01*
X236556172Y-166742327D01*
X236538082Y-166786000D01*
X99079686Y-166786000D01*
X99047801Y-166754115D01*
X98887783Y-166647194D01*
X98709980Y-166573546D01*
X98521226Y-166536000D01*
X98328774Y-166536000D01*
X98140020Y-166573546D01*
X97962217Y-166647194D01*
X97802199Y-166754115D01*
X97666115Y-166890199D01*
X97559194Y-167050217D01*
X97485546Y-167228020D01*
X97448000Y-167416774D01*
X97448000Y-167609226D01*
X97485546Y-167797980D01*
X97559194Y-167975783D01*
X97666115Y-168135801D01*
X97802199Y-168271885D01*
X97962217Y-168378806D01*
X98140020Y-168452454D01*
X98328774Y-168490000D01*
X98521226Y-168490000D01*
X98709980Y-168452454D01*
X98887783Y-168378806D01*
X99047801Y-168271885D01*
X99079686Y-168240000D01*
X236538082Y-168240000D01*
X236556172Y-168283673D01*
X236734227Y-168550152D01*
X236960848Y-168776773D01*
X236970167Y-168783000D01*
X236960848Y-168789227D01*
X236734227Y-169015848D01*
X236556172Y-169282327D01*
X236538082Y-169326000D01*
X150380120Y-169326000D01*
X150364885Y-169303199D01*
X150228801Y-169167115D01*
X150068783Y-169060194D01*
X149890980Y-168986546D01*
X149702226Y-168949000D01*
X149509774Y-168949000D01*
X149321020Y-168986546D01*
X149143217Y-169060194D01*
X148983199Y-169167115D01*
X148847115Y-169303199D01*
X148740194Y-169463217D01*
X148666546Y-169641020D01*
X148629000Y-169829774D01*
X148629000Y-170022226D01*
X148666546Y-170210980D01*
X148740194Y-170388783D01*
X148847115Y-170548801D01*
X148983199Y-170684885D01*
X149143217Y-170791806D01*
X149321020Y-170865454D01*
X149509774Y-170903000D01*
X149702226Y-170903000D01*
X149890980Y-170865454D01*
X150068783Y-170791806D01*
X150086452Y-170780000D01*
X236538082Y-170780000D01*
X236556172Y-170823673D01*
X236734227Y-171090152D01*
X236960848Y-171316773D01*
X236970167Y-171323000D01*
X236960848Y-171329227D01*
X236734227Y-171555848D01*
X236556172Y-171822327D01*
X236538082Y-171866000D01*
X201822686Y-171866000D01*
X201790801Y-171834115D01*
X201630783Y-171727194D01*
X201452980Y-171653546D01*
X201264226Y-171616000D01*
X201071774Y-171616000D01*
X200883020Y-171653546D01*
X200705217Y-171727194D01*
X200545199Y-171834115D01*
X200409115Y-171970199D01*
X200302194Y-172130217D01*
X200228546Y-172308020D01*
X200191000Y-172496774D01*
X200191000Y-172689226D01*
X200228546Y-172877980D01*
X200302194Y-173055783D01*
X200409115Y-173215801D01*
X200545199Y-173351885D01*
X200705217Y-173458806D01*
X200883020Y-173532454D01*
X201071774Y-173570000D01*
X201264226Y-173570000D01*
X201452980Y-173532454D01*
X201630783Y-173458806D01*
X201790801Y-173351885D01*
X201822686Y-173320000D01*
X236538082Y-173320000D01*
X236556172Y-173363673D01*
X236734227Y-173630152D01*
X236960848Y-173856773D01*
X236970167Y-173863000D01*
X236960848Y-173869227D01*
X236734227Y-174095848D01*
X236556172Y-174362327D01*
X236538082Y-174406000D01*
X89427686Y-174406000D01*
X89395801Y-174374115D01*
X89235783Y-174267194D01*
X89057980Y-174193546D01*
X88869226Y-174156000D01*
X88676774Y-174156000D01*
X88488020Y-174193546D01*
X88310217Y-174267194D01*
X88150199Y-174374115D01*
X88014115Y-174510199D01*
X87907194Y-174670217D01*
X87833546Y-174848020D01*
X87796000Y-175036774D01*
X64410596Y-175036774D01*
X64439042Y-165876961D01*
X244588000Y-165876961D01*
X244588000Y-166355039D01*
X244681268Y-166823930D01*
X244864221Y-167265615D01*
X245129826Y-167663122D01*
X245467878Y-168001174D01*
X245865385Y-168266779D01*
X246307070Y-168449732D01*
X246775961Y-168543000D01*
X247254039Y-168543000D01*
X247722930Y-168449732D01*
X248164615Y-168266779D01*
X248562122Y-168001174D01*
X248900174Y-167663122D01*
X249165779Y-167265615D01*
X249348732Y-166823930D01*
X249442000Y-166355039D01*
X249442000Y-165876961D01*
X249348732Y-165408070D01*
X249165779Y-164966385D01*
X248900174Y-164568878D01*
X248562122Y-164230826D01*
X248164615Y-163965221D01*
X247722930Y-163782268D01*
X247254039Y-163689000D01*
X246775961Y-163689000D01*
X246307070Y-163782268D01*
X245865385Y-163965221D01*
X245467878Y-164230826D01*
X245129826Y-164568878D01*
X244864221Y-164966385D01*
X244681268Y-165408070D01*
X244588000Y-165876961D01*
X64439042Y-165876961D01*
X64516000Y-141097000D01*
X79748403Y-141097000D01*
X79757000Y-141184286D01*
X79757000Y-141184295D01*
X79782712Y-141445352D01*
X79884323Y-141780318D01*
X80049330Y-142089024D01*
X80271392Y-142359608D01*
X80541975Y-142581670D01*
X80850681Y-142746677D01*
X81185647Y-142848288D01*
X81534000Y-142882598D01*
X81882352Y-142848288D01*
X81992084Y-142815001D01*
X207870713Y-142815001D01*
X207957999Y-142823598D01*
X208045285Y-142815001D01*
X208045295Y-142815001D01*
X208306352Y-142789289D01*
X208641318Y-142687678D01*
X208950024Y-142522671D01*
X209220607Y-142300609D01*
X209276255Y-142232802D01*
X211683057Y-139826000D01*
X213907714Y-139826000D01*
X213995000Y-139834597D01*
X214082286Y-139826000D01*
X214082296Y-139826000D01*
X214343353Y-139800288D01*
X214678319Y-139698677D01*
X214987025Y-139533670D01*
X215257608Y-139311608D01*
X215313256Y-139243801D01*
X217290057Y-137267000D01*
X237334934Y-137267000D01*
X237343178Y-137350707D01*
X237367595Y-137431196D01*
X237407245Y-137505376D01*
X237460605Y-137570395D01*
X237525624Y-137623755D01*
X237599804Y-137663405D01*
X237680293Y-137687822D01*
X237764000Y-137696066D01*
X238780250Y-137694000D01*
X238887000Y-137587250D01*
X238887000Y-136144000D01*
X239141000Y-136144000D01*
X239141000Y-137587250D01*
X239247750Y-137694000D01*
X240264000Y-137696066D01*
X240347707Y-137687822D01*
X240428196Y-137663405D01*
X240502376Y-137623755D01*
X240567395Y-137570395D01*
X240620755Y-137505376D01*
X240660405Y-137431196D01*
X240684822Y-137350707D01*
X240693066Y-137267000D01*
X240691000Y-136250750D01*
X240584250Y-136144000D01*
X239141000Y-136144000D01*
X238887000Y-136144000D01*
X237443750Y-136144000D01*
X237337000Y-136250750D01*
X237334934Y-137267000D01*
X217290057Y-137267000D01*
X218551756Y-136005301D01*
X218718170Y-135802525D01*
X218883177Y-135493819D01*
X218984788Y-135158853D01*
X219019097Y-134810500D01*
X219014813Y-134767000D01*
X237334934Y-134767000D01*
X237337000Y-135783250D01*
X237443750Y-135890000D01*
X238887000Y-135890000D01*
X238887000Y-134446750D01*
X239141000Y-134446750D01*
X239141000Y-135890000D01*
X240584250Y-135890000D01*
X240691000Y-135783250D01*
X240693066Y-134767000D01*
X240684822Y-134683293D01*
X240660405Y-134602804D01*
X240620755Y-134528624D01*
X240567395Y-134463605D01*
X240502376Y-134410245D01*
X240428196Y-134370595D01*
X240347707Y-134346178D01*
X240264000Y-134337934D01*
X239247750Y-134340000D01*
X239141000Y-134446750D01*
X238887000Y-134446750D01*
X238780250Y-134340000D01*
X237764000Y-134337934D01*
X237680293Y-134346178D01*
X237599804Y-134370595D01*
X237525624Y-134410245D01*
X237460605Y-134463605D01*
X237407245Y-134528624D01*
X237367595Y-134602804D01*
X237343178Y-134683293D01*
X237334934Y-134767000D01*
X219014813Y-134767000D01*
X218984788Y-134462148D01*
X218883177Y-134127182D01*
X218718170Y-133818475D01*
X218496108Y-133547892D01*
X218225525Y-133325830D01*
X217916818Y-133160823D01*
X217581852Y-133059212D01*
X217233500Y-133024903D01*
X216885147Y-133059212D01*
X216550181Y-133160823D01*
X216241475Y-133325830D01*
X216038699Y-133492244D01*
X213258943Y-136272000D01*
X211034289Y-136272000D01*
X210947000Y-136263403D01*
X210859711Y-136272000D01*
X210859704Y-136272000D01*
X210598647Y-136297712D01*
X210263681Y-136399323D01*
X209954975Y-136564330D01*
X209684392Y-136786392D01*
X209628745Y-136854198D01*
X207221942Y-139261001D01*
X83311000Y-139261001D01*
X83311000Y-137952774D01*
X204255000Y-137952774D01*
X204255000Y-138145226D01*
X204292546Y-138333980D01*
X204366194Y-138511783D01*
X204473115Y-138671801D01*
X204609199Y-138807885D01*
X204769217Y-138914806D01*
X204947020Y-138988454D01*
X205135774Y-139026000D01*
X205328226Y-139026000D01*
X205516980Y-138988454D01*
X205694783Y-138914806D01*
X205854801Y-138807885D01*
X205990885Y-138671801D01*
X206097806Y-138511783D01*
X206171454Y-138333980D01*
X206209000Y-138145226D01*
X206209000Y-137952774D01*
X206171454Y-137764020D01*
X206097806Y-137586217D01*
X205990885Y-137426199D01*
X205854801Y-137290115D01*
X205694783Y-137183194D01*
X205516980Y-137109546D01*
X205328226Y-137072000D01*
X205135774Y-137072000D01*
X204947020Y-137109546D01*
X204769217Y-137183194D01*
X204609199Y-137290115D01*
X204473115Y-137426199D01*
X204366194Y-137586217D01*
X204292546Y-137764020D01*
X204255000Y-137952774D01*
X83311000Y-137952774D01*
X83311000Y-136047774D01*
X104433000Y-136047774D01*
X104433000Y-136240226D01*
X104470546Y-136428980D01*
X104544194Y-136606783D01*
X104651115Y-136766801D01*
X104787199Y-136902885D01*
X104947217Y-137009806D01*
X105125020Y-137083454D01*
X105313774Y-137121000D01*
X105506226Y-137121000D01*
X105694980Y-137083454D01*
X105872783Y-137009806D01*
X106032801Y-136902885D01*
X106064686Y-136871000D01*
X156571314Y-136871000D01*
X156603199Y-136902885D01*
X156763217Y-137009806D01*
X156941020Y-137083454D01*
X157129774Y-137121000D01*
X157322226Y-137121000D01*
X157510980Y-137083454D01*
X157688783Y-137009806D01*
X157848801Y-136902885D01*
X157880686Y-136871000D01*
X208133314Y-136871000D01*
X208165199Y-136902885D01*
X208325217Y-137009806D01*
X208503020Y-137083454D01*
X208691774Y-137121000D01*
X208884226Y-137121000D01*
X209072980Y-137083454D01*
X209250783Y-137009806D01*
X209410801Y-136902885D01*
X209546885Y-136766801D01*
X209653806Y-136606783D01*
X209727454Y-136428980D01*
X209765000Y-136240226D01*
X209765000Y-136047774D01*
X209727454Y-135859020D01*
X209653806Y-135681217D01*
X209546885Y-135521199D01*
X209410801Y-135385115D01*
X209250783Y-135278194D01*
X209072980Y-135204546D01*
X208884226Y-135167000D01*
X208691774Y-135167000D01*
X208503020Y-135204546D01*
X208325217Y-135278194D01*
X208165199Y-135385115D01*
X208133314Y-135417000D01*
X157880686Y-135417000D01*
X157848801Y-135385115D01*
X157688783Y-135278194D01*
X157510980Y-135204546D01*
X157322226Y-135167000D01*
X157129774Y-135167000D01*
X156941020Y-135204546D01*
X156763217Y-135278194D01*
X156603199Y-135385115D01*
X156571314Y-135417000D01*
X106064686Y-135417000D01*
X106032801Y-135385115D01*
X105872783Y-135278194D01*
X105694980Y-135204546D01*
X105506226Y-135167000D01*
X105313774Y-135167000D01*
X105125020Y-135204546D01*
X104947217Y-135278194D01*
X104787199Y-135385115D01*
X104651115Y-135521199D01*
X104544194Y-135681217D01*
X104470546Y-135859020D01*
X104433000Y-136047774D01*
X83311000Y-136047774D01*
X83311000Y-133759950D01*
X85021329Y-132049622D01*
X85140923Y-131903896D01*
X85233993Y-131729774D01*
X163107000Y-131729774D01*
X163107000Y-131922226D01*
X163144546Y-132110980D01*
X163218194Y-132288783D01*
X163325115Y-132448801D01*
X163461199Y-132584885D01*
X163621217Y-132691806D01*
X163799020Y-132765454D01*
X163987774Y-132803000D01*
X164180226Y-132803000D01*
X164368980Y-132765454D01*
X164546783Y-132691806D01*
X164706801Y-132584885D01*
X164842885Y-132448801D01*
X164949806Y-132288783D01*
X165023454Y-132110980D01*
X165061000Y-131922226D01*
X165061000Y-131729774D01*
X165023454Y-131541020D01*
X164949806Y-131363217D01*
X164842885Y-131203199D01*
X164706801Y-131067115D01*
X164546783Y-130960194D01*
X164368980Y-130886546D01*
X164180226Y-130849000D01*
X163987774Y-130849000D01*
X163799020Y-130886546D01*
X163621217Y-130960194D01*
X163461199Y-131067115D01*
X163325115Y-131203199D01*
X163218194Y-131363217D01*
X163144546Y-131541020D01*
X163107000Y-131729774D01*
X85233993Y-131729774D01*
X85259501Y-131682052D01*
X85332522Y-131441336D01*
X85357177Y-131191001D01*
X85332522Y-130940665D01*
X85259501Y-130699950D01*
X85140923Y-130478106D01*
X84981343Y-130283657D01*
X84786894Y-130124077D01*
X84565050Y-130005499D01*
X84324335Y-129932478D01*
X84073999Y-129907823D01*
X83823664Y-129932478D01*
X83582948Y-130005499D01*
X83361104Y-130124077D01*
X83215378Y-130243671D01*
X81511424Y-131947626D01*
X81185648Y-131979712D01*
X80850682Y-132081323D01*
X80541976Y-132246330D01*
X80271393Y-132468392D01*
X80049331Y-132738975D01*
X79884324Y-133047681D01*
X79782713Y-133382647D01*
X79757001Y-133643704D01*
X79757000Y-141009714D01*
X79748403Y-141097000D01*
X64516000Y-141097000D01*
X64560473Y-126776774D01*
X95416000Y-126776774D01*
X95416000Y-126969226D01*
X95453546Y-127157980D01*
X95527194Y-127335783D01*
X95634115Y-127495801D01*
X95770199Y-127631885D01*
X95930217Y-127738806D01*
X96108020Y-127812454D01*
X96296774Y-127850000D01*
X96489226Y-127850000D01*
X96677980Y-127812454D01*
X96855783Y-127738806D01*
X97015801Y-127631885D01*
X97047686Y-127600000D01*
X100992548Y-127600000D01*
X101010217Y-127611806D01*
X101188020Y-127685454D01*
X101376774Y-127723000D01*
X101569226Y-127723000D01*
X101757980Y-127685454D01*
X101935783Y-127611806D01*
X102095801Y-127504885D01*
X102231885Y-127368801D01*
X102338806Y-127208783D01*
X102412454Y-127030980D01*
X102450000Y-126842226D01*
X102450000Y-126776774D01*
X146216000Y-126776774D01*
X146216000Y-126969226D01*
X146253546Y-127157980D01*
X146327194Y-127335783D01*
X146434115Y-127495801D01*
X146570199Y-127631885D01*
X146730217Y-127738806D01*
X146908020Y-127812454D01*
X147096774Y-127850000D01*
X147289226Y-127850000D01*
X147477980Y-127812454D01*
X147655783Y-127738806D01*
X147815801Y-127631885D01*
X147847686Y-127600000D01*
X151999314Y-127600000D01*
X152031199Y-127631885D01*
X152191217Y-127738806D01*
X152369020Y-127812454D01*
X152557774Y-127850000D01*
X152750226Y-127850000D01*
X152938980Y-127812454D01*
X153116783Y-127738806D01*
X153276801Y-127631885D01*
X153412885Y-127495801D01*
X153519806Y-127335783D01*
X153593454Y-127157980D01*
X153631000Y-126969226D01*
X153631000Y-126776774D01*
X153605738Y-126649774D01*
X197905000Y-126649774D01*
X197905000Y-126842226D01*
X197942546Y-127030980D01*
X198016194Y-127208783D01*
X198123115Y-127368801D01*
X198259199Y-127504885D01*
X198419217Y-127611806D01*
X198597020Y-127685454D01*
X198785774Y-127723000D01*
X198978226Y-127723000D01*
X199166980Y-127685454D01*
X199344783Y-127611806D01*
X199504801Y-127504885D01*
X199536686Y-127473000D01*
X204069314Y-127473000D01*
X204101199Y-127504885D01*
X204261217Y-127611806D01*
X204439020Y-127685454D01*
X204627774Y-127723000D01*
X204820226Y-127723000D01*
X205008980Y-127685454D01*
X205186783Y-127611806D01*
X205346801Y-127504885D01*
X205482885Y-127368801D01*
X205589806Y-127208783D01*
X205663454Y-127030980D01*
X205701000Y-126842226D01*
X205701000Y-126649774D01*
X205663454Y-126461020D01*
X205589806Y-126283217D01*
X205482885Y-126123199D01*
X205346801Y-125987115D01*
X205186783Y-125880194D01*
X205008980Y-125806546D01*
X204820226Y-125769000D01*
X204627774Y-125769000D01*
X204439020Y-125806546D01*
X204261217Y-125880194D01*
X204101199Y-125987115D01*
X204069314Y-126019000D01*
X199536686Y-126019000D01*
X199504801Y-125987115D01*
X199344783Y-125880194D01*
X199166980Y-125806546D01*
X198978226Y-125769000D01*
X198785774Y-125769000D01*
X198597020Y-125806546D01*
X198419217Y-125880194D01*
X198259199Y-125987115D01*
X198123115Y-126123199D01*
X198016194Y-126283217D01*
X197942546Y-126461020D01*
X197905000Y-126649774D01*
X153605738Y-126649774D01*
X153593454Y-126588020D01*
X153519806Y-126410217D01*
X153412885Y-126250199D01*
X153276801Y-126114115D01*
X153116783Y-126007194D01*
X152938980Y-125933546D01*
X152750226Y-125896000D01*
X152557774Y-125896000D01*
X152369020Y-125933546D01*
X152191217Y-126007194D01*
X152031199Y-126114115D01*
X151999314Y-126146000D01*
X147847686Y-126146000D01*
X147815801Y-126114115D01*
X147655783Y-126007194D01*
X147477980Y-125933546D01*
X147289226Y-125896000D01*
X147096774Y-125896000D01*
X146908020Y-125933546D01*
X146730217Y-126007194D01*
X146570199Y-126114115D01*
X146434115Y-126250199D01*
X146327194Y-126410217D01*
X146253546Y-126588020D01*
X146216000Y-126776774D01*
X102450000Y-126776774D01*
X102450000Y-126649774D01*
X102412454Y-126461020D01*
X102338806Y-126283217D01*
X102231885Y-126123199D01*
X102095801Y-125987115D01*
X101935783Y-125880194D01*
X101757980Y-125806546D01*
X101569226Y-125769000D01*
X101376774Y-125769000D01*
X101188020Y-125806546D01*
X101010217Y-125880194D01*
X100850199Y-125987115D01*
X100714115Y-126123199D01*
X100698880Y-126146000D01*
X97047686Y-126146000D01*
X97015801Y-126114115D01*
X96855783Y-126007194D01*
X96677980Y-125933546D01*
X96489226Y-125896000D01*
X96296774Y-125896000D01*
X96108020Y-125933546D01*
X95930217Y-126007194D01*
X95770199Y-126114115D01*
X95634115Y-126250199D01*
X95527194Y-126410217D01*
X95453546Y-126588020D01*
X95416000Y-126776774D01*
X64560473Y-126776774D01*
X64576384Y-121653522D01*
X64594240Y-121477480D01*
X64644198Y-121314275D01*
X64724977Y-121163922D01*
X64833487Y-121032170D01*
X64965571Y-120924073D01*
X65116176Y-120843761D01*
X65279538Y-120794309D01*
X65455627Y-120777000D01*
X89935601Y-120777000D01*
X89950656Y-120795344D01*
%TA.AperFunction,Conductor*%
D29*
G36*
X89950656Y-120795344D02*
G01*
X90145104Y-120954924D01*
X90366947Y-121073501D01*
X90366949Y-121073502D01*
X90607664Y-121146522D01*
X90858000Y-121171178D01*
X90920726Y-121165000D01*
X140526281Y-121165000D01*
X140588999Y-121171177D01*
X140651718Y-121165000D01*
X192088281Y-121165000D01*
X192150999Y-121171177D01*
X192213718Y-121165000D01*
X227157394Y-121165000D01*
X235583984Y-129591590D01*
X235521523Y-132839558D01*
X235523940Y-132866776D01*
X235531167Y-132890601D01*
X235542903Y-132912557D01*
X235558697Y-132931803D01*
X235577943Y-132947597D01*
X235599899Y-132959333D01*
X235623724Y-132966560D01*
X235648500Y-132969000D01*
X243141500Y-132969000D01*
X243163563Y-132967069D01*
X243187539Y-132960361D01*
X243209746Y-132949105D01*
X243229330Y-132933733D01*
X243245538Y-132914836D01*
X243257749Y-132893139D01*
X243265492Y-132869478D01*
X243268470Y-132844760D01*
X243331970Y-129923760D01*
X243329050Y-129893786D01*
X243321357Y-129870108D01*
X243309193Y-129848386D01*
X243293025Y-129829454D01*
X233878473Y-120777000D01*
X249752190Y-120777000D01*
X249928961Y-120794444D01*
X250092901Y-120844278D01*
X250243944Y-120925197D01*
X250376247Y-121034072D01*
X250484726Y-121166718D01*
X250565180Y-121318000D01*
X250614512Y-121482091D01*
X250631418Y-121658926D01*
X250447030Y-182015003D01*
X250429441Y-182189769D01*
X250380211Y-182351877D01*
X250300571Y-182501426D01*
X250193532Y-182632752D01*
X250063123Y-182740917D01*
X249914271Y-182821832D01*
X249752580Y-182872452D01*
X249577980Y-182891539D01*
X240635896Y-182995516D01*
X240623548Y-182996262D01*
X240430116Y-183017445D01*
X240405929Y-183022512D01*
X240220262Y-183080754D01*
X240197513Y-183090410D01*
X240026641Y-183183507D01*
X240006194Y-183197386D01*
X239856586Y-183321813D01*
X239839213Y-183339389D01*
X239716535Y-183490433D01*
X239702895Y-183511040D01*
X239611791Y-183682983D01*
X239602401Y-183705842D01*
X239546321Y-183892174D01*
X239541535Y-183916419D01*
X239522603Y-184110084D01*
X239522000Y-184122440D01*
X239522000Y-191017766D01*
X239504624Y-191194189D01*
X239454978Y-191357850D01*
X239374362Y-191508672D01*
X239265870Y-191640870D01*
X239133672Y-191749362D01*
X238982850Y-191829978D01*
X238819189Y-191879624D01*
X238642766Y-191897000D01*
X74920234Y-191897000D01*
X74743811Y-191879624D01*
X74580150Y-191829978D01*
X74429328Y-191749362D01*
X74297130Y-191640870D01*
X74188638Y-191508672D01*
X74108022Y-191357850D01*
X74058376Y-191194189D01*
X74041000Y-191017766D01*
X74041000Y-182991000D01*
X74040388Y-182978552D01*
X74021173Y-182783462D01*
X74016317Y-182759044D01*
X73959412Y-182571451D01*
X73949884Y-182548450D01*
X73857474Y-182375563D01*
X73843642Y-182354862D01*
X73719279Y-182203325D01*
X73701675Y-182185721D01*
X73550138Y-182061358D01*
X73529437Y-182047526D01*
X73356550Y-181955116D01*
X73333549Y-181945588D01*
X73145956Y-181888683D01*
X73121538Y-181883827D01*
X72926448Y-181864612D01*
X72914000Y-181864000D01*
X65271361Y-181864000D01*
X65094585Y-181846554D01*
X64930638Y-181796717D01*
X64779595Y-181715795D01*
X64647284Y-181606909D01*
X64538810Y-181474259D01*
X64458359Y-181322971D01*
X64409031Y-181158868D01*
X64392133Y-180982034D01*
X64410596Y-175036774D01*
X87796000Y-175036774D01*
X87796000Y-175229226D01*
X87833546Y-175417980D01*
X87907194Y-175595783D01*
X88014115Y-175755801D01*
X88150199Y-175891885D01*
X88310217Y-175998806D01*
X88488020Y-176072454D01*
X88676774Y-176110000D01*
X88869226Y-176110000D01*
X89057980Y-176072454D01*
X89235783Y-175998806D01*
X89395801Y-175891885D01*
X89427686Y-175860000D01*
X236538082Y-175860000D01*
X236556172Y-175903673D01*
X236734227Y-176170152D01*
X236960848Y-176396773D01*
X236970167Y-176403000D01*
X236960848Y-176409227D01*
X236734227Y-176635848D01*
X236556172Y-176902327D01*
X236538082Y-176946000D01*
X192170686Y-176946000D01*
X192138801Y-176914115D01*
X191978783Y-176807194D01*
X191800980Y-176733546D01*
X191612226Y-176696000D01*
X191419774Y-176696000D01*
X191231020Y-176733546D01*
X191053217Y-176807194D01*
X190893199Y-176914115D01*
X190757115Y-177050199D01*
X190650194Y-177210217D01*
X190576546Y-177388020D01*
X190539000Y-177576774D01*
X190539000Y-177769226D01*
X190576546Y-177957980D01*
X190650194Y-178135783D01*
X190757115Y-178295801D01*
X190893199Y-178431885D01*
X191053217Y-178538806D01*
X191231020Y-178612454D01*
X191419774Y-178650000D01*
X191612226Y-178650000D01*
X191800980Y-178612454D01*
X191978783Y-178538806D01*
X192138801Y-178431885D01*
X192170686Y-178400000D01*
X236538082Y-178400000D01*
X236556172Y-178443673D01*
X236734227Y-178710152D01*
X236960848Y-178936773D01*
X237227327Y-179114828D01*
X237523422Y-179237475D01*
X237837755Y-179300000D01*
X238158245Y-179300000D01*
X238472578Y-179237475D01*
X238768673Y-179114828D01*
X239035152Y-178936773D01*
X239261773Y-178710152D01*
X239268000Y-178700833D01*
X239274227Y-178710152D01*
X239500848Y-178936773D01*
X239767327Y-179114828D01*
X239811001Y-179132918D01*
X239811001Y-179911867D01*
X239728868Y-179994000D01*
X140227686Y-179994000D01*
X140195801Y-179962115D01*
X140035783Y-179855194D01*
X139857980Y-179781546D01*
X139669226Y-179744000D01*
X139476774Y-179744000D01*
X139288020Y-179781546D01*
X139110217Y-179855194D01*
X138950199Y-179962115D01*
X138814115Y-180098199D01*
X138707194Y-180258217D01*
X138633546Y-180436020D01*
X138596000Y-180624774D01*
X138596000Y-180817226D01*
X138633546Y-181005980D01*
X138707194Y-181183783D01*
X138814115Y-181343801D01*
X138950199Y-181479885D01*
X139110217Y-181586806D01*
X139288020Y-181660454D01*
X139476774Y-181698000D01*
X139669226Y-181698000D01*
X139857980Y-181660454D01*
X140035783Y-181586806D01*
X140195801Y-181479885D01*
X140227686Y-181448000D01*
X239994292Y-181448000D01*
X240030000Y-181451517D01*
X240172517Y-181437480D01*
X240309557Y-181395910D01*
X240435853Y-181328403D01*
X240546554Y-181237554D01*
X240569325Y-181209807D01*
X241026811Y-180752322D01*
X241054554Y-180729554D01*
X241145403Y-180618853D01*
X241212910Y-180492557D01*
X241254480Y-180355517D01*
X241265000Y-180248708D01*
X241265000Y-180248706D01*
X241268517Y-180213001D01*
X241265000Y-180177295D01*
X241265000Y-179132918D01*
X241308673Y-179114828D01*
X241575152Y-178936773D01*
X241680964Y-178830961D01*
X244588000Y-178830961D01*
X244588000Y-179309039D01*
X244681268Y-179777930D01*
X244864221Y-180219615D01*
X245129826Y-180617122D01*
X245467878Y-180955174D01*
X245865385Y-181220779D01*
X246307070Y-181403732D01*
X246775961Y-181497000D01*
X247254039Y-181497000D01*
X247722930Y-181403732D01*
X248164615Y-181220779D01*
X248562122Y-180955174D01*
X248900174Y-180617122D01*
X249165779Y-180219615D01*
X249348732Y-179777930D01*
X249442000Y-179309039D01*
X249442000Y-178830961D01*
X249348732Y-178362070D01*
X249165779Y-177920385D01*
X248900174Y-177522878D01*
X248562122Y-177184826D01*
X248164615Y-176919221D01*
X247722930Y-176736268D01*
X247254039Y-176643000D01*
X246775961Y-176643000D01*
X246307070Y-176736268D01*
X245865385Y-176919221D01*
X245467878Y-177184826D01*
X245129826Y-177522878D01*
X244864221Y-177920385D01*
X244681268Y-178362070D01*
X244588000Y-178830961D01*
X241680964Y-178830961D01*
X241801773Y-178710152D01*
X241979828Y-178443673D01*
X242102475Y-178147578D01*
X242165000Y-177833245D01*
X242165000Y-177512755D01*
X242102475Y-177198422D01*
X241979828Y-176902327D01*
X241801773Y-176635848D01*
X241575152Y-176409227D01*
X241413414Y-176301157D01*
X241453688Y-176228294D01*
X240538000Y-175312605D01*
X239622312Y-176228294D01*
X239662586Y-176301157D01*
X239500848Y-176409227D01*
X239274227Y-176635848D01*
X239268000Y-176645167D01*
X239261773Y-176635848D01*
X239035152Y-176409227D01*
X239025833Y-176403000D01*
X239035152Y-176396773D01*
X239261773Y-176170152D01*
X239369843Y-176008414D01*
X239442706Y-176048688D01*
X240358395Y-175133000D01*
X240717605Y-175133000D01*
X241633294Y-176048688D01*
X241849736Y-175929052D01*
X241979833Y-175657849D01*
X242054521Y-175366476D01*
X242070930Y-175066131D01*
X242028430Y-174768356D01*
X241928653Y-174484594D01*
X241849736Y-174336948D01*
X241633294Y-174217312D01*
X240717605Y-175133000D01*
X240358395Y-175133000D01*
X239442706Y-174217312D01*
X239369843Y-174257586D01*
X239261773Y-174095848D01*
X239035152Y-173869227D01*
X239025833Y-173863000D01*
X239035152Y-173856773D01*
X239203631Y-173688294D01*
X239622312Y-173688294D01*
X239718879Y-173863000D01*
X239622312Y-174037706D01*
X240538000Y-174953395D01*
X241453688Y-174037706D01*
X241357121Y-173863000D01*
X241453688Y-173688294D01*
X240538000Y-172772605D01*
X239622312Y-173688294D01*
X239203631Y-173688294D01*
X239261773Y-173630152D01*
X239369843Y-173468414D01*
X239442706Y-173508688D01*
X240358395Y-172593000D01*
X240717605Y-172593000D01*
X241633294Y-173508688D01*
X241849736Y-173389052D01*
X241979833Y-173117849D01*
X242054521Y-172826476D01*
X242070930Y-172526131D01*
X242028430Y-172228356D01*
X241928653Y-171944594D01*
X241849736Y-171796948D01*
X241633294Y-171677312D01*
X240717605Y-172593000D01*
X240358395Y-172593000D01*
X239442706Y-171677312D01*
X239369843Y-171717586D01*
X239261773Y-171555848D01*
X239035152Y-171329227D01*
X239025833Y-171323000D01*
X239035152Y-171316773D01*
X239203631Y-171148294D01*
X239622312Y-171148294D01*
X239718879Y-171323000D01*
X239622312Y-171497706D01*
X240538000Y-172413395D01*
X241453688Y-171497706D01*
X241357121Y-171323000D01*
X241453688Y-171148294D01*
X240538000Y-170232605D01*
X239622312Y-171148294D01*
X239203631Y-171148294D01*
X239261773Y-171090152D01*
X239369843Y-170928414D01*
X239442706Y-170968688D01*
X240358395Y-170053000D01*
X240717605Y-170053000D01*
X241633294Y-170968688D01*
X241849736Y-170849052D01*
X241979833Y-170577849D01*
X242054521Y-170286476D01*
X242070930Y-169986131D01*
X242028430Y-169688356D01*
X241928653Y-169404594D01*
X241849736Y-169256948D01*
X241633294Y-169137312D01*
X240717605Y-170053000D01*
X240358395Y-170053000D01*
X239442706Y-169137312D01*
X239369843Y-169177586D01*
X239261773Y-169015848D01*
X239035152Y-168789227D01*
X239025833Y-168783000D01*
X239035152Y-168776773D01*
X239203631Y-168608294D01*
X239622312Y-168608294D01*
X239718879Y-168783000D01*
X239622312Y-168957706D01*
X240538000Y-169873395D01*
X241453688Y-168957706D01*
X241357121Y-168783000D01*
X241453688Y-168608294D01*
X240538000Y-167692605D01*
X239622312Y-168608294D01*
X239203631Y-168608294D01*
X239261773Y-168550152D01*
X239369843Y-168388414D01*
X239442706Y-168428688D01*
X240358395Y-167513000D01*
X240717605Y-167513000D01*
X241633294Y-168428688D01*
X241849736Y-168309052D01*
X241979833Y-168037849D01*
X242054521Y-167746476D01*
X242070930Y-167446131D01*
X242028430Y-167148356D01*
X241928653Y-166864594D01*
X241849736Y-166716948D01*
X241633294Y-166597312D01*
X240717605Y-167513000D01*
X240358395Y-167513000D01*
X239442706Y-166597312D01*
X239369843Y-166637586D01*
X239261773Y-166475848D01*
X239203631Y-166417706D01*
X239622312Y-166417706D01*
X240538000Y-167333395D01*
X241453688Y-166417706D01*
X241334052Y-166201264D01*
X241062849Y-166071167D01*
X240771476Y-165996479D01*
X240471131Y-165980070D01*
X240173356Y-166022570D01*
X239889594Y-166122347D01*
X239741948Y-166201264D01*
X239622312Y-166417706D01*
X239203631Y-166417706D01*
X239035152Y-166249227D01*
X238768673Y-166071172D01*
X238472578Y-165948525D01*
X238158245Y-165886000D01*
X237837755Y-165886000D01*
X237523422Y-165948525D01*
X237227327Y-166071172D01*
X236960848Y-166249227D01*
X236734227Y-166475848D01*
X236556172Y-166742327D01*
X236538082Y-166786000D01*
X99079686Y-166786000D01*
X99047801Y-166754115D01*
X98887783Y-166647194D01*
X98709980Y-166573546D01*
X98521226Y-166536000D01*
X98328774Y-166536000D01*
X98140020Y-166573546D01*
X97962217Y-166647194D01*
X97802199Y-166754115D01*
X97666115Y-166890199D01*
X97559194Y-167050217D01*
X97485546Y-167228020D01*
X97448000Y-167416774D01*
X97448000Y-167609226D01*
X97485546Y-167797980D01*
X97559194Y-167975783D01*
X97666115Y-168135801D01*
X97802199Y-168271885D01*
X97962217Y-168378806D01*
X98140020Y-168452454D01*
X98328774Y-168490000D01*
X98521226Y-168490000D01*
X98709980Y-168452454D01*
X98887783Y-168378806D01*
X99047801Y-168271885D01*
X99079686Y-168240000D01*
X236538082Y-168240000D01*
X236556172Y-168283673D01*
X236734227Y-168550152D01*
X236960848Y-168776773D01*
X236970167Y-168783000D01*
X236960848Y-168789227D01*
X236734227Y-169015848D01*
X236556172Y-169282327D01*
X236538082Y-169326000D01*
X150380120Y-169326000D01*
X150364885Y-169303199D01*
X150228801Y-169167115D01*
X150068783Y-169060194D01*
X149890980Y-168986546D01*
X149702226Y-168949000D01*
X149509774Y-168949000D01*
X149321020Y-168986546D01*
X149143217Y-169060194D01*
X148983199Y-169167115D01*
X148847115Y-169303199D01*
X148740194Y-169463217D01*
X148666546Y-169641020D01*
X148629000Y-169829774D01*
X148629000Y-170022226D01*
X148666546Y-170210980D01*
X148740194Y-170388783D01*
X148847115Y-170548801D01*
X148983199Y-170684885D01*
X149143217Y-170791806D01*
X149321020Y-170865454D01*
X149509774Y-170903000D01*
X149702226Y-170903000D01*
X149890980Y-170865454D01*
X150068783Y-170791806D01*
X150086452Y-170780000D01*
X236538082Y-170780000D01*
X236556172Y-170823673D01*
X236734227Y-171090152D01*
X236960848Y-171316773D01*
X236970167Y-171323000D01*
X236960848Y-171329227D01*
X236734227Y-171555848D01*
X236556172Y-171822327D01*
X236538082Y-171866000D01*
X201822686Y-171866000D01*
X201790801Y-171834115D01*
X201630783Y-171727194D01*
X201452980Y-171653546D01*
X201264226Y-171616000D01*
X201071774Y-171616000D01*
X200883020Y-171653546D01*
X200705217Y-171727194D01*
X200545199Y-171834115D01*
X200409115Y-171970199D01*
X200302194Y-172130217D01*
X200228546Y-172308020D01*
X200191000Y-172496774D01*
X200191000Y-172689226D01*
X200228546Y-172877980D01*
X200302194Y-173055783D01*
X200409115Y-173215801D01*
X200545199Y-173351885D01*
X200705217Y-173458806D01*
X200883020Y-173532454D01*
X201071774Y-173570000D01*
X201264226Y-173570000D01*
X201452980Y-173532454D01*
X201630783Y-173458806D01*
X201790801Y-173351885D01*
X201822686Y-173320000D01*
X236538082Y-173320000D01*
X236556172Y-173363673D01*
X236734227Y-173630152D01*
X236960848Y-173856773D01*
X236970167Y-173863000D01*
X236960848Y-173869227D01*
X236734227Y-174095848D01*
X236556172Y-174362327D01*
X236538082Y-174406000D01*
X89427686Y-174406000D01*
X89395801Y-174374115D01*
X89235783Y-174267194D01*
X89057980Y-174193546D01*
X88869226Y-174156000D01*
X88676774Y-174156000D01*
X88488020Y-174193546D01*
X88310217Y-174267194D01*
X88150199Y-174374115D01*
X88014115Y-174510199D01*
X87907194Y-174670217D01*
X87833546Y-174848020D01*
X87796000Y-175036774D01*
X64410596Y-175036774D01*
X64439042Y-165876961D01*
X244588000Y-165876961D01*
X244588000Y-166355039D01*
X244681268Y-166823930D01*
X244864221Y-167265615D01*
X245129826Y-167663122D01*
X245467878Y-168001174D01*
X245865385Y-168266779D01*
X246307070Y-168449732D01*
X246775961Y-168543000D01*
X247254039Y-168543000D01*
X247722930Y-168449732D01*
X248164615Y-168266779D01*
X248562122Y-168001174D01*
X248900174Y-167663122D01*
X249165779Y-167265615D01*
X249348732Y-166823930D01*
X249442000Y-166355039D01*
X249442000Y-165876961D01*
X249348732Y-165408070D01*
X249165779Y-164966385D01*
X248900174Y-164568878D01*
X248562122Y-164230826D01*
X248164615Y-163965221D01*
X247722930Y-163782268D01*
X247254039Y-163689000D01*
X246775961Y-163689000D01*
X246307070Y-163782268D01*
X245865385Y-163965221D01*
X245467878Y-164230826D01*
X245129826Y-164568878D01*
X244864221Y-164966385D01*
X244681268Y-165408070D01*
X244588000Y-165876961D01*
X64439042Y-165876961D01*
X64516000Y-141097000D01*
X79748403Y-141097000D01*
X79757000Y-141184286D01*
X79757000Y-141184295D01*
X79782712Y-141445352D01*
X79884323Y-141780318D01*
X80049330Y-142089024D01*
X80271392Y-142359608D01*
X80541975Y-142581670D01*
X80850681Y-142746677D01*
X81185647Y-142848288D01*
X81534000Y-142882598D01*
X81882352Y-142848288D01*
X81992084Y-142815001D01*
X207870713Y-142815001D01*
X207957999Y-142823598D01*
X208045285Y-142815001D01*
X208045295Y-142815001D01*
X208306352Y-142789289D01*
X208641318Y-142687678D01*
X208950024Y-142522671D01*
X209220607Y-142300609D01*
X209276255Y-142232802D01*
X211683057Y-139826000D01*
X213907714Y-139826000D01*
X213995000Y-139834597D01*
X214082286Y-139826000D01*
X214082296Y-139826000D01*
X214343353Y-139800288D01*
X214678319Y-139698677D01*
X214987025Y-139533670D01*
X215257608Y-139311608D01*
X215313256Y-139243801D01*
X217290057Y-137267000D01*
X237334934Y-137267000D01*
X237343178Y-137350707D01*
X237367595Y-137431196D01*
X237407245Y-137505376D01*
X237460605Y-137570395D01*
X237525624Y-137623755D01*
X237599804Y-137663405D01*
X237680293Y-137687822D01*
X237764000Y-137696066D01*
X238780250Y-137694000D01*
X238887000Y-137587250D01*
X238887000Y-136144000D01*
X239141000Y-136144000D01*
X239141000Y-137587250D01*
X239247750Y-137694000D01*
X240264000Y-137696066D01*
X240347707Y-137687822D01*
X240428196Y-137663405D01*
X240502376Y-137623755D01*
X240567395Y-137570395D01*
X240620755Y-137505376D01*
X240660405Y-137431196D01*
X240684822Y-137350707D01*
X240693066Y-137267000D01*
X240691000Y-136250750D01*
X240584250Y-136144000D01*
X239141000Y-136144000D01*
X238887000Y-136144000D01*
X237443750Y-136144000D01*
X237337000Y-136250750D01*
X237334934Y-137267000D01*
X217290057Y-137267000D01*
X218551756Y-136005301D01*
X218718170Y-135802525D01*
X218883177Y-135493819D01*
X218984788Y-135158853D01*
X219019097Y-134810500D01*
X219014813Y-134767000D01*
X237334934Y-134767000D01*
X237337000Y-135783250D01*
X237443750Y-135890000D01*
X238887000Y-135890000D01*
X238887000Y-134446750D01*
X239141000Y-134446750D01*
X239141000Y-135890000D01*
X240584250Y-135890000D01*
X240691000Y-135783250D01*
X240693066Y-134767000D01*
X240684822Y-134683293D01*
X240660405Y-134602804D01*
X240620755Y-134528624D01*
X240567395Y-134463605D01*
X240502376Y-134410245D01*
X240428196Y-134370595D01*
X240347707Y-134346178D01*
X240264000Y-134337934D01*
X239247750Y-134340000D01*
X239141000Y-134446750D01*
X238887000Y-134446750D01*
X238780250Y-134340000D01*
X237764000Y-134337934D01*
X237680293Y-134346178D01*
X237599804Y-134370595D01*
X237525624Y-134410245D01*
X237460605Y-134463605D01*
X237407245Y-134528624D01*
X237367595Y-134602804D01*
X237343178Y-134683293D01*
X237334934Y-134767000D01*
X219014813Y-134767000D01*
X218984788Y-134462148D01*
X218883177Y-134127182D01*
X218718170Y-133818475D01*
X218496108Y-133547892D01*
X218225525Y-133325830D01*
X217916818Y-133160823D01*
X217581852Y-133059212D01*
X217233500Y-133024903D01*
X216885147Y-133059212D01*
X216550181Y-133160823D01*
X216241475Y-133325830D01*
X216038699Y-133492244D01*
X213258943Y-136272000D01*
X211034289Y-136272000D01*
X210947000Y-136263403D01*
X210859711Y-136272000D01*
X210859704Y-136272000D01*
X210598647Y-136297712D01*
X210263681Y-136399323D01*
X209954975Y-136564330D01*
X209684392Y-136786392D01*
X209628745Y-136854198D01*
X207221942Y-139261001D01*
X83311000Y-139261001D01*
X83311000Y-137952774D01*
X204255000Y-137952774D01*
X204255000Y-138145226D01*
X204292546Y-138333980D01*
X204366194Y-138511783D01*
X204473115Y-138671801D01*
X204609199Y-138807885D01*
X204769217Y-138914806D01*
X204947020Y-138988454D01*
X205135774Y-139026000D01*
X205328226Y-139026000D01*
X205516980Y-138988454D01*
X205694783Y-138914806D01*
X205854801Y-138807885D01*
X205990885Y-138671801D01*
X206097806Y-138511783D01*
X206171454Y-138333980D01*
X206209000Y-138145226D01*
X206209000Y-137952774D01*
X206171454Y-137764020D01*
X206097806Y-137586217D01*
X205990885Y-137426199D01*
X205854801Y-137290115D01*
X205694783Y-137183194D01*
X205516980Y-137109546D01*
X205328226Y-137072000D01*
X205135774Y-137072000D01*
X204947020Y-137109546D01*
X204769217Y-137183194D01*
X204609199Y-137290115D01*
X204473115Y-137426199D01*
X204366194Y-137586217D01*
X204292546Y-137764020D01*
X204255000Y-137952774D01*
X83311000Y-137952774D01*
X83311000Y-136047774D01*
X104433000Y-136047774D01*
X104433000Y-136240226D01*
X104470546Y-136428980D01*
X104544194Y-136606783D01*
X104651115Y-136766801D01*
X104787199Y-136902885D01*
X104947217Y-137009806D01*
X105125020Y-137083454D01*
X105313774Y-137121000D01*
X105506226Y-137121000D01*
X105694980Y-137083454D01*
X105872783Y-137009806D01*
X106032801Y-136902885D01*
X106064686Y-136871000D01*
X156571314Y-136871000D01*
X156603199Y-136902885D01*
X156763217Y-137009806D01*
X156941020Y-137083454D01*
X157129774Y-137121000D01*
X157322226Y-137121000D01*
X157510980Y-137083454D01*
X157688783Y-137009806D01*
X157848801Y-136902885D01*
X157880686Y-136871000D01*
X208133314Y-136871000D01*
X208165199Y-136902885D01*
X208325217Y-137009806D01*
X208503020Y-137083454D01*
X208691774Y-137121000D01*
X208884226Y-137121000D01*
X209072980Y-137083454D01*
X209250783Y-137009806D01*
X209410801Y-136902885D01*
X209546885Y-136766801D01*
X209653806Y-136606783D01*
X209727454Y-136428980D01*
X209765000Y-136240226D01*
X209765000Y-136047774D01*
X209727454Y-135859020D01*
X209653806Y-135681217D01*
X209546885Y-135521199D01*
X209410801Y-135385115D01*
X209250783Y-135278194D01*
X209072980Y-135204546D01*
X208884226Y-135167000D01*
X208691774Y-135167000D01*
X208503020Y-135204546D01*
X208325217Y-135278194D01*
X208165199Y-135385115D01*
X208133314Y-135417000D01*
X157880686Y-135417000D01*
X157848801Y-135385115D01*
X157688783Y-135278194D01*
X157510980Y-135204546D01*
X157322226Y-135167000D01*
X157129774Y-135167000D01*
X156941020Y-135204546D01*
X156763217Y-135278194D01*
X156603199Y-135385115D01*
X156571314Y-135417000D01*
X106064686Y-135417000D01*
X106032801Y-135385115D01*
X105872783Y-135278194D01*
X105694980Y-135204546D01*
X105506226Y-135167000D01*
X105313774Y-135167000D01*
X105125020Y-135204546D01*
X104947217Y-135278194D01*
X104787199Y-135385115D01*
X104651115Y-135521199D01*
X104544194Y-135681217D01*
X104470546Y-135859020D01*
X104433000Y-136047774D01*
X83311000Y-136047774D01*
X83311000Y-133759950D01*
X85021329Y-132049622D01*
X85140923Y-131903896D01*
X85233993Y-131729774D01*
X163107000Y-131729774D01*
X163107000Y-131922226D01*
X163144546Y-132110980D01*
X163218194Y-132288783D01*
X163325115Y-132448801D01*
X163461199Y-132584885D01*
X163621217Y-132691806D01*
X163799020Y-132765454D01*
X163987774Y-132803000D01*
X164180226Y-132803000D01*
X164368980Y-132765454D01*
X164546783Y-132691806D01*
X164706801Y-132584885D01*
X164842885Y-132448801D01*
X164949806Y-132288783D01*
X165023454Y-132110980D01*
X165061000Y-131922226D01*
X165061000Y-131729774D01*
X165023454Y-131541020D01*
X164949806Y-131363217D01*
X164842885Y-131203199D01*
X164706801Y-131067115D01*
X164546783Y-130960194D01*
X164368980Y-130886546D01*
X164180226Y-130849000D01*
X163987774Y-130849000D01*
X163799020Y-130886546D01*
X163621217Y-130960194D01*
X163461199Y-131067115D01*
X163325115Y-131203199D01*
X163218194Y-131363217D01*
X163144546Y-131541020D01*
X163107000Y-131729774D01*
X85233993Y-131729774D01*
X85259501Y-131682052D01*
X85332522Y-131441336D01*
X85357177Y-131191001D01*
X85332522Y-130940665D01*
X85259501Y-130699950D01*
X85140923Y-130478106D01*
X84981343Y-130283657D01*
X84786894Y-130124077D01*
X84565050Y-130005499D01*
X84324335Y-129932478D01*
X84073999Y-129907823D01*
X83823664Y-129932478D01*
X83582948Y-130005499D01*
X83361104Y-130124077D01*
X83215378Y-130243671D01*
X81511424Y-131947626D01*
X81185648Y-131979712D01*
X80850682Y-132081323D01*
X80541976Y-132246330D01*
X80271393Y-132468392D01*
X80049331Y-132738975D01*
X79884324Y-133047681D01*
X79782713Y-133382647D01*
X79757001Y-133643704D01*
X79757000Y-141009714D01*
X79748403Y-141097000D01*
X64516000Y-141097000D01*
X64560473Y-126776774D01*
X95416000Y-126776774D01*
X95416000Y-126969226D01*
X95453546Y-127157980D01*
X95527194Y-127335783D01*
X95634115Y-127495801D01*
X95770199Y-127631885D01*
X95930217Y-127738806D01*
X96108020Y-127812454D01*
X96296774Y-127850000D01*
X96489226Y-127850000D01*
X96677980Y-127812454D01*
X96855783Y-127738806D01*
X97015801Y-127631885D01*
X97047686Y-127600000D01*
X100992548Y-127600000D01*
X101010217Y-127611806D01*
X101188020Y-127685454D01*
X101376774Y-127723000D01*
X101569226Y-127723000D01*
X101757980Y-127685454D01*
X101935783Y-127611806D01*
X102095801Y-127504885D01*
X102231885Y-127368801D01*
X102338806Y-127208783D01*
X102412454Y-127030980D01*
X102450000Y-126842226D01*
X102450000Y-126776774D01*
X146216000Y-126776774D01*
X146216000Y-126969226D01*
X146253546Y-127157980D01*
X146327194Y-127335783D01*
X146434115Y-127495801D01*
X146570199Y-127631885D01*
X146730217Y-127738806D01*
X146908020Y-127812454D01*
X147096774Y-127850000D01*
X147289226Y-127850000D01*
X147477980Y-127812454D01*
X147655783Y-127738806D01*
X147815801Y-127631885D01*
X147847686Y-127600000D01*
X151999314Y-127600000D01*
X152031199Y-127631885D01*
X152191217Y-127738806D01*
X152369020Y-127812454D01*
X152557774Y-127850000D01*
X152750226Y-127850000D01*
X152938980Y-127812454D01*
X153116783Y-127738806D01*
X153276801Y-127631885D01*
X153412885Y-127495801D01*
X153519806Y-127335783D01*
X153593454Y-127157980D01*
X153631000Y-126969226D01*
X153631000Y-126776774D01*
X153605738Y-126649774D01*
X197905000Y-126649774D01*
X197905000Y-126842226D01*
X197942546Y-127030980D01*
X198016194Y-127208783D01*
X198123115Y-127368801D01*
X198259199Y-127504885D01*
X198419217Y-127611806D01*
X198597020Y-127685454D01*
X198785774Y-127723000D01*
X198978226Y-127723000D01*
X199166980Y-127685454D01*
X199344783Y-127611806D01*
X199504801Y-127504885D01*
X199536686Y-127473000D01*
X204069314Y-127473000D01*
X204101199Y-127504885D01*
X204261217Y-127611806D01*
X204439020Y-127685454D01*
X204627774Y-127723000D01*
X204820226Y-127723000D01*
X205008980Y-127685454D01*
X205186783Y-127611806D01*
X205346801Y-127504885D01*
X205482885Y-127368801D01*
X205589806Y-127208783D01*
X205663454Y-127030980D01*
X205701000Y-126842226D01*
X205701000Y-126649774D01*
X205663454Y-126461020D01*
X205589806Y-126283217D01*
X205482885Y-126123199D01*
X205346801Y-125987115D01*
X205186783Y-125880194D01*
X205008980Y-125806546D01*
X204820226Y-125769000D01*
X204627774Y-125769000D01*
X204439020Y-125806546D01*
X204261217Y-125880194D01*
X204101199Y-125987115D01*
X204069314Y-126019000D01*
X199536686Y-126019000D01*
X199504801Y-125987115D01*
X199344783Y-125880194D01*
X199166980Y-125806546D01*
X198978226Y-125769000D01*
X198785774Y-125769000D01*
X198597020Y-125806546D01*
X198419217Y-125880194D01*
X198259199Y-125987115D01*
X198123115Y-126123199D01*
X198016194Y-126283217D01*
X197942546Y-126461020D01*
X197905000Y-126649774D01*
X153605738Y-126649774D01*
X153593454Y-126588020D01*
X153519806Y-126410217D01*
X153412885Y-126250199D01*
X153276801Y-126114115D01*
X153116783Y-126007194D01*
X152938980Y-125933546D01*
X152750226Y-125896000D01*
X152557774Y-125896000D01*
X152369020Y-125933546D01*
X152191217Y-126007194D01*
X152031199Y-126114115D01*
X151999314Y-126146000D01*
X147847686Y-126146000D01*
X147815801Y-126114115D01*
X147655783Y-126007194D01*
X147477980Y-125933546D01*
X147289226Y-125896000D01*
X147096774Y-125896000D01*
X146908020Y-125933546D01*
X146730217Y-126007194D01*
X146570199Y-126114115D01*
X146434115Y-126250199D01*
X146327194Y-126410217D01*
X146253546Y-126588020D01*
X146216000Y-126776774D01*
X102450000Y-126776774D01*
X102450000Y-126649774D01*
X102412454Y-126461020D01*
X102338806Y-126283217D01*
X102231885Y-126123199D01*
X102095801Y-125987115D01*
X101935783Y-125880194D01*
X101757980Y-125806546D01*
X101569226Y-125769000D01*
X101376774Y-125769000D01*
X101188020Y-125806546D01*
X101010217Y-125880194D01*
X100850199Y-125987115D01*
X100714115Y-126123199D01*
X100698880Y-126146000D01*
X97047686Y-126146000D01*
X97015801Y-126114115D01*
X96855783Y-126007194D01*
X96677980Y-125933546D01*
X96489226Y-125896000D01*
X96296774Y-125896000D01*
X96108020Y-125933546D01*
X95930217Y-126007194D01*
X95770199Y-126114115D01*
X95634115Y-126250199D01*
X95527194Y-126410217D01*
X95453546Y-126588020D01*
X95416000Y-126776774D01*
X64560473Y-126776774D01*
X64576384Y-121653522D01*
X64594240Y-121477480D01*
X64644198Y-121314275D01*
X64724977Y-121163922D01*
X64833487Y-121032170D01*
X64965571Y-120924073D01*
X65116176Y-120843761D01*
X65279538Y-120794309D01*
X65455627Y-120777000D01*
X89935601Y-120777000D01*
X89950656Y-120795344D01*
G37*
%TD.AperFunction*%
%TD*%
M02*
