%TF.GenerationSoftware,KiCad,Pcbnew,5.1.10-88a1d61d58~88~ubuntu20.04.1*%
%TF.CreationDate,2021-06-03T12:29:12+07:00*%
%TF.ProjectId,Schema_and_PCB,53636865-6d61-45f6-916e-645f5043422e,v0.1*%
%TF.SameCoordinates,Original*%
%TF.FileFunction,Paste,Bot*%
%TF.FilePolarity,Positive*%
%FSLAX46Y46*%
G04 Gerber Fmt 4.6, Leading zero omitted, Abs format (unit mm)*
G04 Created by KiCad (PCBNEW 5.1.10-88a1d61d58~88~ubuntu20.04.1) date 2021-06-03 12:29:12*
%MOMM*%
%LPD*%
G01*
G04 APERTURE LIST*
%ADD10R,3.500000X1.800000*%
G04 APERTURE END LIST*
%TO.C,R56*%
G36*
G01*
X307143999Y-91856000D02*
X308044001Y-91856000D01*
G75*
G02*
X308294000Y-92105999I0J-249999D01*
G01*
X308294000Y-92806001D01*
G75*
G02*
X308044001Y-93056000I-249999J0D01*
G01*
X307143999Y-93056000D01*
G75*
G02*
X306894000Y-92806001I0J249999D01*
G01*
X306894000Y-92105999D01*
G75*
G02*
X307143999Y-91856000I249999J0D01*
G01*
G37*
G36*
G01*
X307143999Y-89856000D02*
X308044001Y-89856000D01*
G75*
G02*
X308294000Y-90105999I0J-249999D01*
G01*
X308294000Y-90806001D01*
G75*
G02*
X308044001Y-91056000I-249999J0D01*
G01*
X307143999Y-91056000D01*
G75*
G02*
X306894000Y-90806001I0J249999D01*
G01*
X306894000Y-90105999D01*
G75*
G02*
X307143999Y-89856000I249999J0D01*
G01*
G37*
%TD*%
%TO.C,C61*%
G36*
G01*
X223772100Y-94801700D02*
X223772100Y-94326700D01*
G75*
G02*
X224009600Y-94089200I237500J0D01*
G01*
X224609600Y-94089200D01*
G75*
G02*
X224847100Y-94326700I0J-237500D01*
G01*
X224847100Y-94801700D01*
G75*
G02*
X224609600Y-95039200I-237500J0D01*
G01*
X224009600Y-95039200D01*
G75*
G02*
X223772100Y-94801700I0J237500D01*
G01*
G37*
G36*
G01*
X225497100Y-94801700D02*
X225497100Y-94326700D01*
G75*
G02*
X225734600Y-94089200I237500J0D01*
G01*
X226334600Y-94089200D01*
G75*
G02*
X226572100Y-94326700I0J-237500D01*
G01*
X226572100Y-94801700D01*
G75*
G02*
X226334600Y-95039200I-237500J0D01*
G01*
X225734600Y-95039200D01*
G75*
G02*
X225497100Y-94801700I0J237500D01*
G01*
G37*
%TD*%
%TO.C,C66*%
G36*
G01*
X307831500Y-95840500D02*
X307356500Y-95840500D01*
G75*
G02*
X307119000Y-95603000I0J237500D01*
G01*
X307119000Y-95003000D01*
G75*
G02*
X307356500Y-94765500I237500J0D01*
G01*
X307831500Y-94765500D01*
G75*
G02*
X308069000Y-95003000I0J-237500D01*
G01*
X308069000Y-95603000D01*
G75*
G02*
X307831500Y-95840500I-237500J0D01*
G01*
G37*
G36*
G01*
X307831500Y-97565500D02*
X307356500Y-97565500D01*
G75*
G02*
X307119000Y-97328000I0J237500D01*
G01*
X307119000Y-96728000D01*
G75*
G02*
X307356500Y-96490500I237500J0D01*
G01*
X307831500Y-96490500D01*
G75*
G02*
X308069000Y-96728000I0J-237500D01*
G01*
X308069000Y-97328000D01*
G75*
G02*
X307831500Y-97565500I-237500J0D01*
G01*
G37*
%TD*%
%TO.C,C74*%
G36*
G01*
X310531500Y-78037400D02*
X311006500Y-78037400D01*
G75*
G02*
X311244000Y-78274900I0J-237500D01*
G01*
X311244000Y-78874900D01*
G75*
G02*
X311006500Y-79112400I-237500J0D01*
G01*
X310531500Y-79112400D01*
G75*
G02*
X310294000Y-78874900I0J237500D01*
G01*
X310294000Y-78274900D01*
G75*
G02*
X310531500Y-78037400I237500J0D01*
G01*
G37*
G36*
G01*
X310531500Y-79762400D02*
X311006500Y-79762400D01*
G75*
G02*
X311244000Y-79999900I0J-237500D01*
G01*
X311244000Y-80599900D01*
G75*
G02*
X311006500Y-80837400I-237500J0D01*
G01*
X310531500Y-80837400D01*
G75*
G02*
X310294000Y-80599900I0J237500D01*
G01*
X310294000Y-79999900D01*
G75*
G02*
X310531500Y-79762400I237500J0D01*
G01*
G37*
%TD*%
%TO.C,C90*%
G36*
G01*
X80001100Y-149970000D02*
X80476100Y-149970000D01*
G75*
G02*
X80713600Y-150207500I0J-237500D01*
G01*
X80713600Y-150807500D01*
G75*
G02*
X80476100Y-151045000I-237500J0D01*
G01*
X80001100Y-151045000D01*
G75*
G02*
X79763600Y-150807500I0J237500D01*
G01*
X79763600Y-150207500D01*
G75*
G02*
X80001100Y-149970000I237500J0D01*
G01*
G37*
G36*
G01*
X80001100Y-148245000D02*
X80476100Y-148245000D01*
G75*
G02*
X80713600Y-148482500I0J-237500D01*
G01*
X80713600Y-149082500D01*
G75*
G02*
X80476100Y-149320000I-237500J0D01*
G01*
X80001100Y-149320000D01*
G75*
G02*
X79763600Y-149082500I0J237500D01*
G01*
X79763600Y-148482500D01*
G75*
G02*
X80001100Y-148245000I237500J0D01*
G01*
G37*
%TD*%
%TO.C,C91*%
G36*
G01*
X80450700Y-139765000D02*
X79975700Y-139765000D01*
G75*
G02*
X79738200Y-139527500I0J237500D01*
G01*
X79738200Y-138927500D01*
G75*
G02*
X79975700Y-138690000I237500J0D01*
G01*
X80450700Y-138690000D01*
G75*
G02*
X80688200Y-138927500I0J-237500D01*
G01*
X80688200Y-139527500D01*
G75*
G02*
X80450700Y-139765000I-237500J0D01*
G01*
G37*
G36*
G01*
X80450700Y-138040000D02*
X79975700Y-138040000D01*
G75*
G02*
X79738200Y-137802500I0J237500D01*
G01*
X79738200Y-137202500D01*
G75*
G02*
X79975700Y-136965000I237500J0D01*
G01*
X80450700Y-136965000D01*
G75*
G02*
X80688200Y-137202500I0J-237500D01*
G01*
X80688200Y-137802500D01*
G75*
G02*
X80450700Y-138040000I-237500J0D01*
G01*
G37*
%TD*%
D10*
%TO.C,D8*%
X342686000Y-112522000D03*
X347686000Y-112522000D03*
%TD*%
%TO.C,R3*%
G36*
G01*
X225196200Y-144355399D02*
X225196200Y-145255401D01*
G75*
G02*
X224946201Y-145505400I-249999J0D01*
G01*
X224246199Y-145505400D01*
G75*
G02*
X223996200Y-145255401I0J249999D01*
G01*
X223996200Y-144355399D01*
G75*
G02*
X224246199Y-144105400I249999J0D01*
G01*
X224946201Y-144105400D01*
G75*
G02*
X225196200Y-144355399I0J-249999D01*
G01*
G37*
G36*
G01*
X223196200Y-144355399D02*
X223196200Y-145255401D01*
G75*
G02*
X222946201Y-145505400I-249999J0D01*
G01*
X222246199Y-145505400D01*
G75*
G02*
X221996200Y-145255401I0J249999D01*
G01*
X221996200Y-144355399D01*
G75*
G02*
X222246199Y-144105400I249999J0D01*
G01*
X222946201Y-144105400D01*
G75*
G02*
X223196200Y-144355399I0J-249999D01*
G01*
G37*
%TD*%
%TO.C,R6*%
G36*
G01*
X217884600Y-144368199D02*
X217884600Y-145268201D01*
G75*
G02*
X217634601Y-145518200I-249999J0D01*
G01*
X216934599Y-145518200D01*
G75*
G02*
X216684600Y-145268201I0J249999D01*
G01*
X216684600Y-144368199D01*
G75*
G02*
X216934599Y-144118200I249999J0D01*
G01*
X217634601Y-144118200D01*
G75*
G02*
X217884600Y-144368199I0J-249999D01*
G01*
G37*
G36*
G01*
X219884600Y-144368199D02*
X219884600Y-145268201D01*
G75*
G02*
X219634601Y-145518200I-249999J0D01*
G01*
X218934599Y-145518200D01*
G75*
G02*
X218684600Y-145268201I0J249999D01*
G01*
X218684600Y-144368199D01*
G75*
G02*
X218934599Y-144118200I249999J0D01*
G01*
X219634601Y-144118200D01*
G75*
G02*
X219884600Y-144368199I0J-249999D01*
G01*
G37*
%TD*%
%TO.C,R7*%
G36*
G01*
X223808600Y-114103999D02*
X223808600Y-115004001D01*
G75*
G02*
X223558601Y-115254000I-249999J0D01*
G01*
X222858599Y-115254000D01*
G75*
G02*
X222608600Y-115004001I0J249999D01*
G01*
X222608600Y-114103999D01*
G75*
G02*
X222858599Y-113854000I249999J0D01*
G01*
X223558601Y-113854000D01*
G75*
G02*
X223808600Y-114103999I0J-249999D01*
G01*
G37*
G36*
G01*
X221808600Y-114103999D02*
X221808600Y-115004001D01*
G75*
G02*
X221558601Y-115254000I-249999J0D01*
G01*
X220858599Y-115254000D01*
G75*
G02*
X220608600Y-115004001I0J249999D01*
G01*
X220608600Y-114103999D01*
G75*
G02*
X220858599Y-113854000I249999J0D01*
G01*
X221558601Y-113854000D01*
G75*
G02*
X221808600Y-114103999I0J-249999D01*
G01*
G37*
%TD*%
%TO.C,R8*%
G36*
G01*
X216868400Y-114103999D02*
X216868400Y-115004001D01*
G75*
G02*
X216618401Y-115254000I-249999J0D01*
G01*
X215918399Y-115254000D01*
G75*
G02*
X215668400Y-115004001I0J249999D01*
G01*
X215668400Y-114103999D01*
G75*
G02*
X215918399Y-113854000I249999J0D01*
G01*
X216618401Y-113854000D01*
G75*
G02*
X216868400Y-114103999I0J-249999D01*
G01*
G37*
G36*
G01*
X218868400Y-114103999D02*
X218868400Y-115004001D01*
G75*
G02*
X218618401Y-115254000I-249999J0D01*
G01*
X217918399Y-115254000D01*
G75*
G02*
X217668400Y-115004001I0J249999D01*
G01*
X217668400Y-114103999D01*
G75*
G02*
X217918399Y-113854000I249999J0D01*
G01*
X218618401Y-113854000D01*
G75*
G02*
X218868400Y-114103999I0J-249999D01*
G01*
G37*
%TD*%
%TO.C,R14*%
G36*
G01*
X72517200Y-174275001D02*
X72517200Y-173374999D01*
G75*
G02*
X72767199Y-173125000I249999J0D01*
G01*
X73467201Y-173125000D01*
G75*
G02*
X73717200Y-173374999I0J-249999D01*
G01*
X73717200Y-174275001D01*
G75*
G02*
X73467201Y-174525000I-249999J0D01*
G01*
X72767199Y-174525000D01*
G75*
G02*
X72517200Y-174275001I0J249999D01*
G01*
G37*
G36*
G01*
X74517200Y-174275001D02*
X74517200Y-173374999D01*
G75*
G02*
X74767199Y-173125000I249999J0D01*
G01*
X75467201Y-173125000D01*
G75*
G02*
X75717200Y-173374999I0J-249999D01*
G01*
X75717200Y-174275001D01*
G75*
G02*
X75467201Y-174525000I-249999J0D01*
G01*
X74767199Y-174525000D01*
G75*
G02*
X74517200Y-174275001I0J249999D01*
G01*
G37*
%TD*%
%TO.C,R15*%
G36*
G01*
X65039800Y-177247999D02*
X65039800Y-178148001D01*
G75*
G02*
X64789801Y-178398000I-249999J0D01*
G01*
X64089799Y-178398000D01*
G75*
G02*
X63839800Y-178148001I0J249999D01*
G01*
X63839800Y-177247999D01*
G75*
G02*
X64089799Y-176998000I249999J0D01*
G01*
X64789801Y-176998000D01*
G75*
G02*
X65039800Y-177247999I0J-249999D01*
G01*
G37*
G36*
G01*
X67039800Y-177247999D02*
X67039800Y-178148001D01*
G75*
G02*
X66789801Y-178398000I-249999J0D01*
G01*
X66089799Y-178398000D01*
G75*
G02*
X65839800Y-178148001I0J249999D01*
G01*
X65839800Y-177247999D01*
G75*
G02*
X66089799Y-176998000I249999J0D01*
G01*
X66789801Y-176998000D01*
G75*
G02*
X67039800Y-177247999I0J-249999D01*
G01*
G37*
%TD*%
%TO.C,R60*%
G36*
G01*
X307143999Y-79918000D02*
X308044001Y-79918000D01*
G75*
G02*
X308294000Y-80167999I0J-249999D01*
G01*
X308294000Y-80868001D01*
G75*
G02*
X308044001Y-81118000I-249999J0D01*
G01*
X307143999Y-81118000D01*
G75*
G02*
X306894000Y-80868001I0J249999D01*
G01*
X306894000Y-80167999D01*
G75*
G02*
X307143999Y-79918000I249999J0D01*
G01*
G37*
G36*
G01*
X307143999Y-77918000D02*
X308044001Y-77918000D01*
G75*
G02*
X308294000Y-78167999I0J-249999D01*
G01*
X308294000Y-78868001D01*
G75*
G02*
X308044001Y-79118000I-249999J0D01*
G01*
X307143999Y-79118000D01*
G75*
G02*
X306894000Y-78868001I0J249999D01*
G01*
X306894000Y-78167999D01*
G75*
G02*
X307143999Y-77918000I249999J0D01*
G01*
G37*
%TD*%
%TO.C,R74*%
G36*
G01*
X166451701Y-177993600D02*
X165551699Y-177993600D01*
G75*
G02*
X165301700Y-177743601I0J249999D01*
G01*
X165301700Y-177043599D01*
G75*
G02*
X165551699Y-176793600I249999J0D01*
G01*
X166451701Y-176793600D01*
G75*
G02*
X166701700Y-177043599I0J-249999D01*
G01*
X166701700Y-177743601D01*
G75*
G02*
X166451701Y-177993600I-249999J0D01*
G01*
G37*
G36*
G01*
X166451701Y-175993600D02*
X165551699Y-175993600D01*
G75*
G02*
X165301700Y-175743601I0J249999D01*
G01*
X165301700Y-175043599D01*
G75*
G02*
X165551699Y-174793600I249999J0D01*
G01*
X166451701Y-174793600D01*
G75*
G02*
X166701700Y-175043599I0J-249999D01*
G01*
X166701700Y-175743601D01*
G75*
G02*
X166451701Y-175993600I-249999J0D01*
G01*
G37*
%TD*%
%TO.C,R75*%
G36*
G01*
X169507321Y-177993600D02*
X168607319Y-177993600D01*
G75*
G02*
X168357320Y-177743601I0J249999D01*
G01*
X168357320Y-177043599D01*
G75*
G02*
X168607319Y-176793600I249999J0D01*
G01*
X169507321Y-176793600D01*
G75*
G02*
X169757320Y-177043599I0J-249999D01*
G01*
X169757320Y-177743601D01*
G75*
G02*
X169507321Y-177993600I-249999J0D01*
G01*
G37*
G36*
G01*
X169507321Y-175993600D02*
X168607319Y-175993600D01*
G75*
G02*
X168357320Y-175743601I0J249999D01*
G01*
X168357320Y-175043599D01*
G75*
G02*
X168607319Y-174793600I249999J0D01*
G01*
X169507321Y-174793600D01*
G75*
G02*
X169757320Y-175043599I0J-249999D01*
G01*
X169757320Y-175743601D01*
G75*
G02*
X169507321Y-175993600I-249999J0D01*
G01*
G37*
%TD*%
%TO.C,R76*%
G36*
G01*
X181729801Y-175993600D02*
X180829799Y-175993600D01*
G75*
G02*
X180579800Y-175743601I0J249999D01*
G01*
X180579800Y-175043599D01*
G75*
G02*
X180829799Y-174793600I249999J0D01*
G01*
X181729801Y-174793600D01*
G75*
G02*
X181979800Y-175043599I0J-249999D01*
G01*
X181979800Y-175743601D01*
G75*
G02*
X181729801Y-175993600I-249999J0D01*
G01*
G37*
G36*
G01*
X181729801Y-177993600D02*
X180829799Y-177993600D01*
G75*
G02*
X180579800Y-177743601I0J249999D01*
G01*
X180579800Y-177043599D01*
G75*
G02*
X180829799Y-176793600I249999J0D01*
G01*
X181729801Y-176793600D01*
G75*
G02*
X181979800Y-177043599I0J-249999D01*
G01*
X181979800Y-177743601D01*
G75*
G02*
X181729801Y-177993600I-249999J0D01*
G01*
G37*
%TD*%
%TO.C,R77*%
G36*
G01*
X178674181Y-177993600D02*
X177774179Y-177993600D01*
G75*
G02*
X177524180Y-177743601I0J249999D01*
G01*
X177524180Y-177043599D01*
G75*
G02*
X177774179Y-176793600I249999J0D01*
G01*
X178674181Y-176793600D01*
G75*
G02*
X178924180Y-177043599I0J-249999D01*
G01*
X178924180Y-177743601D01*
G75*
G02*
X178674181Y-177993600I-249999J0D01*
G01*
G37*
G36*
G01*
X178674181Y-175993600D02*
X177774179Y-175993600D01*
G75*
G02*
X177524180Y-175743601I0J249999D01*
G01*
X177524180Y-175043599D01*
G75*
G02*
X177774179Y-174793600I249999J0D01*
G01*
X178674181Y-174793600D01*
G75*
G02*
X178924180Y-175043599I0J-249999D01*
G01*
X178924180Y-175743601D01*
G75*
G02*
X178674181Y-175993600I-249999J0D01*
G01*
G37*
%TD*%
%TO.C,R78*%
G36*
G01*
X175618561Y-175993600D02*
X174718559Y-175993600D01*
G75*
G02*
X174468560Y-175743601I0J249999D01*
G01*
X174468560Y-175043599D01*
G75*
G02*
X174718559Y-174793600I249999J0D01*
G01*
X175618561Y-174793600D01*
G75*
G02*
X175868560Y-175043599I0J-249999D01*
G01*
X175868560Y-175743601D01*
G75*
G02*
X175618561Y-175993600I-249999J0D01*
G01*
G37*
G36*
G01*
X175618561Y-177993600D02*
X174718559Y-177993600D01*
G75*
G02*
X174468560Y-177743601I0J249999D01*
G01*
X174468560Y-177043599D01*
G75*
G02*
X174718559Y-176793600I249999J0D01*
G01*
X175618561Y-176793600D01*
G75*
G02*
X175868560Y-177043599I0J-249999D01*
G01*
X175868560Y-177743601D01*
G75*
G02*
X175618561Y-177993600I-249999J0D01*
G01*
G37*
%TD*%
%TO.C,R79*%
G36*
G01*
X172562941Y-177993600D02*
X171662939Y-177993600D01*
G75*
G02*
X171412940Y-177743601I0J249999D01*
G01*
X171412940Y-177043599D01*
G75*
G02*
X171662939Y-176793600I249999J0D01*
G01*
X172562941Y-176793600D01*
G75*
G02*
X172812940Y-177043599I0J-249999D01*
G01*
X172812940Y-177743601D01*
G75*
G02*
X172562941Y-177993600I-249999J0D01*
G01*
G37*
G36*
G01*
X172562941Y-175993600D02*
X171662939Y-175993600D01*
G75*
G02*
X171412940Y-175743601I0J249999D01*
G01*
X171412940Y-175043599D01*
G75*
G02*
X171662939Y-174793600I249999J0D01*
G01*
X172562941Y-174793600D01*
G75*
G02*
X172812940Y-175043599I0J-249999D01*
G01*
X172812940Y-175743601D01*
G75*
G02*
X172562941Y-175993600I-249999J0D01*
G01*
G37*
%TD*%
%TO.C,C50*%
G36*
G01*
X135032800Y-138350000D02*
X135032800Y-137875000D01*
G75*
G02*
X135270300Y-137637500I237500J0D01*
G01*
X135870300Y-137637500D01*
G75*
G02*
X136107800Y-137875000I0J-237500D01*
G01*
X136107800Y-138350000D01*
G75*
G02*
X135870300Y-138587500I-237500J0D01*
G01*
X135270300Y-138587500D01*
G75*
G02*
X135032800Y-138350000I0J237500D01*
G01*
G37*
G36*
G01*
X133307800Y-138350000D02*
X133307800Y-137875000D01*
G75*
G02*
X133545300Y-137637500I237500J0D01*
G01*
X134145300Y-137637500D01*
G75*
G02*
X134382800Y-137875000I0J-237500D01*
G01*
X134382800Y-138350000D01*
G75*
G02*
X134145300Y-138587500I-237500J0D01*
G01*
X133545300Y-138587500D01*
G75*
G02*
X133307800Y-138350000I0J237500D01*
G01*
G37*
%TD*%
M02*
