%TF.GenerationSoftware,KiCad,Pcbnew,5.1.10-88a1d61d58~88~ubuntu20.04.1*%
%TF.CreationDate,2021-06-03T15:25:56+07:00*%
%TF.ProjectId,Schema_and_PCB,53636865-6d61-45f6-916e-645f5043422e,v0.1*%
%TF.SameCoordinates,Original*%
%TF.FileFunction,Profile,NP*%
%FSLAX46Y46*%
G04 Gerber Fmt 4.6, Leading zero omitted, Abs format (unit mm)*
G04 Created by KiCad (PCBNEW 5.1.10-88a1d61d58~88~ubuntu20.04.1) date 2021-06-03 15:25:56*
%MOMM*%
%LPD*%
G01*
G04 APERTURE LIST*
%TA.AperFunction,Profile*%
%ADD10C,0.100000*%
%TD*%
G04 APERTURE END LIST*
D10*
X348232600Y-92925900D02*
G75*
G03*
X348232600Y-92925900I-2006600J0D01*
G01*
X348232600Y-187934600D02*
G75*
G03*
X348232600Y-187934600I-2006600J0D01*
G01*
X219114500Y-161455100D02*
G75*
G03*
X219114500Y-161455100I-2006600J0D01*
G01*
X72162800Y-187096900D02*
G75*
G03*
X72162800Y-187096900I-2006600J0D01*
G01*
X72162800Y-92100900D02*
G75*
G03*
X72162800Y-92100900I-2006600J0D01*
G01*
X64568200Y-201434700D02*
G75*
G02*
X63145800Y-200012300I0J1422400D01*
G01*
X81216500Y-201434700D02*
G75*
G02*
X82638900Y-202857100I0J-1422400D01*
G01*
X84061300Y-214439500D02*
G75*
G02*
X82638900Y-213017100I0J1422400D01*
G01*
X208237100Y-213017100D02*
G75*
G02*
X206814700Y-214439500I-1422400J0D01*
G01*
X208237100Y-180092600D02*
G75*
G02*
X209659500Y-178670200I1422400J0D01*
G01*
X337820000Y-178670200D02*
G75*
G02*
X339242400Y-180092600I0J-1422400D01*
G01*
X340664800Y-196354700D02*
G75*
G02*
X339242400Y-194932300I0J1422400D01*
G01*
X356735000Y-194932300D02*
G75*
G02*
X355312600Y-196354700I-1422400J0D01*
G01*
X355312600Y-85394800D02*
G75*
G02*
X356735000Y-86817200I0J-1422400D01*
G01*
X333654400Y-85394800D02*
G75*
G02*
X332232000Y-83972400I0J1422400D01*
G01*
X330809600Y-71107300D02*
G75*
G02*
X332232000Y-72529700I0J-1422400D01*
G01*
X219227400Y-72529700D02*
G75*
G02*
X220649800Y-71107300I1422400J0D01*
G01*
X219227400Y-78651100D02*
G75*
G02*
X217805000Y-80073500I-1422400J0D01*
G01*
X192798700Y-71107300D02*
G75*
G02*
X194221100Y-72529700I0J-1422400D01*
G01*
X195643500Y-80073500D02*
G75*
G02*
X194221100Y-78651100I0J1422400D01*
G01*
X82651600Y-72529700D02*
G75*
G02*
X84074000Y-71107300I1422400J0D01*
G01*
X63145800Y-87464900D02*
G75*
G02*
X64568200Y-86042500I1422400J0D01*
G01*
X82651600Y-84620100D02*
G75*
G02*
X81229200Y-86042500I-1422400J0D01*
G01*
X356735000Y-86817200D02*
X356735000Y-194932300D01*
X333654400Y-85394800D02*
X355312600Y-85394800D01*
X332232000Y-72529700D02*
X332232000Y-83972400D01*
X220649800Y-71107300D02*
X330809600Y-71107300D01*
X219227400Y-78651100D02*
X219227400Y-72529700D01*
X195643500Y-80073500D02*
X217805000Y-80073500D01*
X194221100Y-72529700D02*
X194221100Y-78651100D01*
X84074000Y-71107300D02*
X192798700Y-71107300D01*
X82651600Y-84620100D02*
X82651600Y-72529700D01*
X64568200Y-86042500D02*
X81229200Y-86042500D01*
X63145800Y-200012300D02*
X63145800Y-87464900D01*
X81216500Y-201434700D02*
X64568200Y-201434700D01*
X82638900Y-213017100D02*
X82638900Y-202857100D01*
X206814700Y-214439500D02*
X84061300Y-214439500D01*
X208237100Y-180092600D02*
X208237100Y-213017100D01*
X337820000Y-178670200D02*
X209659500Y-178670200D01*
X339242400Y-194932300D02*
X339242400Y-180092600D01*
X355312600Y-196354700D02*
X340664800Y-196354700D01*
M02*
