M48
METRIC,TZ
T1C0.300
T2C0.400
T3C0.500
T4C0.600
T5C0.762
T6C0.800
T7C0.900
T8C1.000
T9C1.020
T10C1.100
T11C1.170
T12C1.200
T13C1.300
T14C1.500
%
G90
G05
T1
X80823Y-129819
X80848Y-132918
X86208Y-137630
X86297Y-152324
X86512Y-144564
X87681Y-145199
X89535Y-151968
X89586Y-157556
X90932Y-142875
X90957Y-148768
X90983Y-145593
X91567Y-190475
X92354Y-151968
X93066Y-142367
X95529Y-145771
X95580Y-144958
X95631Y-190475
X96444Y-139535
X96444Y-140945
X96558Y-147751
X97536Y-140945
X98083Y-148158
X98108Y-143472
X98108Y-145072
X98108Y-190475
X98501Y-140589
X99365Y-151651
X99708Y-143472
X99708Y-145072
X101830Y-139320
X102057Y-147460
X102172Y-141656
X103016Y-138983
X110922Y-148692
X116027Y-147371
X121768Y-132436
X121895Y-141605
X127000Y-132436
X127838Y-158902
X128245Y-133426
X128372Y-155346
X128404Y-159502
X128575Y-157531
X129028Y-160102
X130070Y-139620
X131191Y-137020
X131280Y-144844
X131902Y-117018
X132563Y-143523
X132944Y-116256
X133883Y-136601
X134476Y-132474
X134829Y-151007
X135423Y-136131
X135529Y-150597
X135560Y-127076
X136129Y-168554
X136436Y-121552
X136740Y-157950
X137097Y-138100
X137109Y-111023
X137224Y-159586
X137427Y-172644
X137706Y-151638
X137740Y-160198
X138240Y-161125
X138294Y-172514
X138629Y-161900
X138629Y-170218
X138629Y-171374
X139395Y-126746
X139573Y-132563
X139963Y-159068
X139963Y-159944
X140348Y-136512
X141111Y-169710
X141111Y-170677
X142011Y-157861
X142151Y-132575
X142660Y-142775
X142783Y-110681
X142850Y-160706
X142951Y-132055
X143027Y-154457
X143440Y-158217
X143815Y-136271
X144094Y-157658
X144564Y-154330
X144765Y-158407
X145009Y-148273
X145723Y-136516
X146507Y-139776
X146540Y-136547
X147701Y-139802
X148209Y-152959
X149098Y-132944
X149936Y-134277
X151232Y-134290
X151257Y-133198
X151727Y-152502
X151733Y-189389
X151952Y-154082
X152489Y-189979
X152952Y-152267
X153111Y-138900
X153152Y-191643
X153365Y-130861
X153579Y-196840
X153899Y-193497
X154407Y-195168
X154559Y-151321
X155410Y-150520
X156896Y-175387
X156947Y-191338
X157302Y-174434
X157353Y-83302
X157353Y-133198
X157353Y-194107
X157378Y-196342
X157582Y-195390
X158128Y-173723
X158542Y-191326
X158547Y-81902
X158553Y-133198
X159283Y-192316
X159880Y-203962
X160325Y-191770
X161341Y-197510
X161544Y-194234
X162077Y-193065
X162077Y-195631
X162077Y-199060
X162103Y-200838
X165329Y-196774
X165506Y-82702
X165506Y-139497
X165989Y-173114
X167653Y-204508
X168212Y-133998
X169056Y-172523
X169062Y-179299
X169862Y-103416
X169875Y-118923
X170967Y-197510
X171044Y-195631
X171044Y-198603
X171069Y-200838
X172120Y-171923
X172428Y-102476
X172466Y-118923
X173965Y-194666
X174041Y-201905
X174295Y-102464
X175171Y-171323
X176835Y-204673
X177559Y-119520
X177864Y-102667
X178235Y-170723
X178245Y-159702
X179578Y-118961
X180416Y-122072
X181271Y-170323
X181318Y-179172
X181356Y-140945
X182537Y-121869
X183058Y-207594
X183794Y-118961
X185255Y-102540
X185661Y-146304
X187198Y-207594
X187998Y-118961
X191389Y-100178
X192697Y-118986
X192710Y-102540
X193177Y-100778
X193954Y-116992
X194666Y-164541
X194716Y-159804
X197803Y-181229
X198628Y-145529
X198653Y-148946
X199034Y-117602
X206019Y-139929
X208991Y-109556
X208991Y-136969
X210668Y-139776
X211684Y-121361
X211963Y-148920
X211984Y-135987
X212979Y-120244
X212992Y-124153
X213233Y-100171
X213935Y-100778
X213970Y-120244
X213995Y-116281
X214595Y-101378
X214909Y-116281
X215265Y-106528
X216357Y-172618
X217062Y-153765
X217805Y-99578
X217805Y-106528
X217805Y-152679
X218465Y-152095
X219075Y-116281
X220345Y-146279
X220878Y-116281
X221615Y-146279
X221666Y-102641
X222377Y-116281
X222783Y-165113
X223418Y-153162
X223418Y-155181
X223825Y-120675
X224134Y-103281
X224155Y-151435
X224180Y-111379
X224184Y-165713
X225425Y-151460
X225431Y-167113
X226695Y-141605
X226695Y-155943
X226771Y-134150
X227495Y-137249
X228067Y-151395
X228072Y-166413
X228727Y-124079
X229438Y-111658
X229440Y-148998
X230226Y-142164
X230226Y-164363
X230556Y-121666
X233058Y-119901
X237477Y-125984
X237490Y-100178
X238811Y-172618
X239763Y-151397
X239789Y-159944
X239789Y-165062
X239801Y-163398
X239963Y-100778
X239967Y-125353
X245085Y-124679
X245104Y-101378
X249733Y-119240
X250825Y-154508
X256743Y-145796
X260350Y-172517
X262712Y-120917
X264719Y-164363
X281851Y-123634
X282651Y-172568
X284175Y-123634
X290855Y-89586
X291783Y-100546
X293545Y-109550
X295046Y-85065
X295046Y-97015
X305054Y-172466
X305397Y-78524
X305562Y-80505
X305575Y-90475
X305587Y-92037
X326466Y-109652
X327000Y-172517
T2
X68537Y-172768
X68537Y-173618
X68537Y-174468
X68537Y-175318
X68537Y-176168
X68537Y-177018
X68537Y-177868
X68537Y-178718
X69887Y-172768
X69887Y-173618
X69887Y-174468
X69887Y-175318
X69887Y-176168
X69887Y-177018
X69887Y-177868
X69887Y-178718
T3
X74066Y-180213
X74092Y-175260
X76759Y-173787
X77038Y-170586
X80188Y-136017
X80239Y-152222
X80975Y-140741
X80975Y-147244
X83134Y-171856
X83134Y-179476
X90221Y-134379
X92405Y-127914
X96012Y-127940
X96088Y-134366
X96241Y-152044
X96774Y-164033
X97206Y-179781
X98069Y-170790
X99111Y-205791
X102159Y-156248
X102210Y-202921
X102235Y-205486
X103429Y-152006
X104368Y-200889
X104368Y-207695
X104521Y-170459
X106350Y-204267
X107467Y-204267
X108585Y-204267
X108991Y-134214
X110668Y-208559
X110668Y-210172
X111252Y-143548
X112179Y-144666
X112852Y-208610
X114948Y-208610
X117323Y-208610
X119583Y-208610
X120282Y-134239
X121565Y-208610
X121641Y-195072
X121768Y-148996
X121768Y-153594
X121844Y-143967
X121895Y-146533
X121920Y-156921
X122631Y-188849
X122631Y-195859
X123508Y-208610
X123850Y-190094
X123850Y-194666
X124968Y-150317
X124993Y-145339
X125146Y-135966
X125387Y-208610
X125501Y-201422
X125755Y-138722
X126060Y-156921
X126873Y-131166
X127076Y-127559
X127191Y-208610
X127610Y-193853
X128702Y-123927
X128778Y-208610
X128854Y-97231
X128930Y-107671
X128994Y-193853
X129286Y-196672
X130581Y-97257
X130657Y-107696
X130899Y-129426
X133477Y-194691
X133833Y-116967
X133845Y-159398
X133905Y-192418
X134645Y-128092
X134993Y-193506
X134993Y-194598
X135001Y-192456
X136110Y-194623
X137185Y-115926
X138582Y-112700
X138989Y-116967
X139852Y-129616
X139929Y-161011
X140335Y-194412
X141554Y-129642
X142545Y-159309
X143535Y-94107
X143535Y-95834
X145288Y-122199
X146177Y-190932
X147320Y-154000
X147688Y-143485
X148565Y-118339
X148565Y-121666
X148908Y-159207
X148910Y-160957
X151409Y-200355
X151435Y-202057
X153365Y-127610
X153365Y-146609
X153391Y-135103
X153391Y-141605
X154102Y-205105
X154610Y-118364
X154610Y-121590
X155092Y-135103
X155118Y-141630
X155118Y-146609
X157556Y-200635
X159944Y-143485
X161696Y-206299
X162077Y-201828
X163919Y-186982
X165024Y-183032
X166700Y-192888
X167437Y-198476
X168504Y-185877
X172898Y-180797
X187655Y-190678
X190959Y-179069
X190959Y-180466
X190960Y-177721
X207645Y-93904
X216535Y-106528
X217297Y-122453
X217780Y-137236
X220218Y-151867
X221945Y-151867
X221971Y-121691
X222885Y-106528
X224180Y-137262
X227863Y-94564
X293624Y-84480
X293624Y-96469
X296621Y-84480
X297028Y-96469
X304952Y-93320
X305003Y-81686
X307594Y-98755
X312407Y-80302
X312941Y-123190
X320192Y-123190
X321920Y-150508
X323647Y-154381
X327203Y-154381
X330505Y-113487
T5
X219253Y-175095
X221793Y-175115
X241262Y-175095
X243802Y-175115
X263334Y-175095
X265874Y-175115
X285407Y-175095
X287947Y-175115
X307632Y-175095
X310172Y-175115
X329667Y-175095
X332207Y-175115
T6
X237477Y-105600
X237477Y-120840
X240017Y-105600
X240017Y-120840
X242557Y-105600
X242557Y-120840
X245097Y-105600
X245097Y-120840
X247637Y-105600
X247637Y-120840
X313436Y-86868
X313436Y-97028
X318008Y-86614
X328168Y-86614
X341986Y-153416
X342240Y-162306
X342240Y-172466
X352146Y-153416
T7
X157950Y-184464
X160490Y-184464
X198958Y-184490
X201498Y-184490
T8
X67996Y-157290
X86970Y-84442
X89510Y-84442
X92050Y-84442
X105181Y-192380
X107721Y-192380
X118986Y-185407
X121526Y-185407
X124066Y-185407
X127381Y-76873
X128626Y-185395
X129921Y-76873
X131166Y-185395
X132461Y-76873
X133706Y-185395
X136246Y-185395
X138252Y-76860
X140792Y-76860
X143332Y-76860
X145872Y-76860
X148196Y-176695
X148196Y-179235
X148196Y-181775
X168548Y-105397
X168548Y-120637
X171088Y-105397
X171088Y-120637
X173628Y-105397
X173628Y-120637
X174600Y-149187
X174600Y-164427
X176168Y-105397
X176168Y-120637
X177140Y-149187
X177140Y-164427
X178708Y-105397
X178708Y-120637
X179680Y-149187
X179680Y-164427
X181248Y-105397
X181248Y-120637
X182220Y-149187
X182220Y-164427
X183788Y-105397
X183788Y-120637
X184760Y-149187
X184760Y-164427
X186328Y-105397
X186328Y-120637
X187300Y-149187
X187300Y-164427
X188868Y-105397
X188868Y-120637
X191408Y-105397
X191408Y-120637
X193948Y-105397
X193948Y-120637
X196488Y-105397
X196488Y-120637
X199028Y-105397
X199028Y-120637
X201568Y-105397
X201568Y-120637
X220726Y-86964
X220726Y-94564
X254559Y-149123
X254559Y-164363
X257099Y-149123
X257099Y-164363
X259639Y-149123
X259639Y-164363
X262179Y-149123
X262179Y-164363
X264719Y-149123
X264719Y-164363
X267259Y-149123
X267259Y-164363
X279179Y-105702
X279179Y-120942
X281719Y-105702
X281719Y-120942
X284259Y-105702
X284259Y-120942
X286799Y-105702
X286799Y-120942
X289339Y-105702
X289339Y-120942
X291879Y-105702
X291879Y-120942
X347066Y-159258
X347066Y-164338
X352146Y-159258
X352146Y-164338
T9
X321564Y-79756
X324104Y-79756
X326644Y-79756
T10
X73796Y-105842
X73796Y-112342
X78296Y-105842
X78296Y-112342
X317754Y-91694
X317754Y-97282
X327914Y-91694
X327914Y-97282
X341986Y-149860
X352146Y-149860
T11
X87574Y-104280
T12
X86335Y-193370
X86335Y-195910
X88875Y-193370
X88875Y-195910
X91415Y-193370
X91415Y-195910
X93955Y-193370
X93955Y-195910
X96495Y-193370
X96495Y-195910
T13
X132410Y-208610
X137410Y-208610
X340614Y-139446
X345614Y-139446
X347066Y-172466
X350614Y-139446
X352066Y-172466
T14
X107574Y-104280
X341503Y-106045
X341503Y-121045
X341503Y-126045
X341503Y-131045
X349003Y-106045
X349003Y-121045
X349003Y-126045
X349003Y-131045
T4
G00X65927Y-171418
M15
G01X65127Y-171418
M16
G05
G00X65927Y-180068
M15
G01X65127Y-180068
M16
G05
G00X69657Y-171418
M15
G01X68157Y-171418
M16
G05
G00X69657Y-180068
M15
G01X68157Y-180068
M16
G05
T0
M30
