%TF.GenerationSoftware,KiCad,Pcbnew,5.1.10-88a1d61d58~88~ubuntu20.04.1*%
%TF.CreationDate,2021-06-03T12:29:12+07:00*%
%TF.ProjectId,Schema_and_PCB,53636865-6d61-45f6-916e-645f5043422e,v0.1*%
%TF.SameCoordinates,Original*%
%TF.FileFunction,Soldermask,Bot*%
%TF.FilePolarity,Negative*%
%FSLAX46Y46*%
G04 Gerber Fmt 4.6, Leading zero omitted, Abs format (unit mm)*
G04 Created by KiCad (PCBNEW 5.1.10-88a1d61d58~88~ubuntu20.04.1) date 2021-06-03 12:29:12*
%MOMM*%
%LPD*%
G01*
G04 APERTURE LIST*
%ADD10O,1.700000X1.700000*%
%ADD11R,1.700000X1.700000*%
%ADD12C,2.000000*%
%ADD13C,1.755000*%
%ADD14C,2.250000*%
%ADD15R,1.500000X1.500000*%
%ADD16C,1.500000*%
%ADD17R,2.000000X2.000000*%
%ADD18R,1.800000X1.800000*%
%ADD19C,1.800000*%
%ADD20O,2.000000X2.000000*%
%ADD21R,2.200000X2.200000*%
%ADD22O,2.200000X2.200000*%
%ADD23R,3.500000X1.800000*%
%ADD24C,0.650000*%
%ADD25O,2.216000X1.108000*%
%ADD26R,2.500000X2.500000*%
%ADD27C,2.500000*%
%ADD28C,2.020000*%
%ADD29C,3.000000*%
%ADD30C,1.600000*%
%ADD31O,1.600000X1.600000*%
%ADD32O,2.500000X2.500000*%
%ADD33C,1.524000*%
%ADD34O,1.524000X2.524000*%
%ADD35R,1.524000X2.524000*%
%ADD36C,2.200000*%
%ADD37C,0.900000*%
%ADD38C,0.600000*%
%ADD39C,0.800000*%
%ADD40C,0.700000*%
G04 APERTURE END LIST*
D10*
%TO.C,J13*%
X127381000Y-76873100D03*
X129921000Y-76873100D03*
D11*
X132461000Y-76873100D03*
%TD*%
D12*
%TO.C,SW7*%
X78295500Y-112341800D03*
X73795500Y-112341800D03*
X78295500Y-105841800D03*
X73795500Y-105841800D03*
%TD*%
%TO.C,R56*%
G36*
G01*
X307143999Y-91856000D02*
X308044001Y-91856000D01*
G75*
G02*
X308294000Y-92105999I0J-249999D01*
G01*
X308294000Y-92806001D01*
G75*
G02*
X308044001Y-93056000I-249999J0D01*
G01*
X307143999Y-93056000D01*
G75*
G02*
X306894000Y-92806001I0J249999D01*
G01*
X306894000Y-92105999D01*
G75*
G02*
X307143999Y-91856000I249999J0D01*
G01*
G37*
G36*
G01*
X307143999Y-89856000D02*
X308044001Y-89856000D01*
G75*
G02*
X308294000Y-90105999I0J-249999D01*
G01*
X308294000Y-90806001D01*
G75*
G02*
X308044001Y-91056000I-249999J0D01*
G01*
X307143999Y-91056000D01*
G75*
G02*
X306894000Y-90806001I0J249999D01*
G01*
X306894000Y-90105999D01*
G75*
G02*
X307143999Y-89856000I249999J0D01*
G01*
G37*
%TD*%
D13*
%TO.C,BT1*%
X87574100Y-104279700D03*
D14*
X107574100Y-104279700D03*
%TD*%
D15*
%TO.C,U4*%
X201568000Y-120637000D03*
D16*
X199028000Y-120637000D03*
X196488000Y-120637000D03*
X193948000Y-120637000D03*
X191408000Y-120637000D03*
X188868000Y-120637000D03*
X186328000Y-120637000D03*
X183788000Y-120637000D03*
X181248000Y-120637000D03*
X181248000Y-105397000D03*
X183788000Y-105397000D03*
X186328000Y-105397000D03*
X188868000Y-105397000D03*
X191408000Y-105397000D03*
X193948000Y-105397000D03*
X196488000Y-105397000D03*
X199028000Y-105397000D03*
X201568000Y-105397000D03*
X178708000Y-120637000D03*
X178708000Y-105397000D03*
X176168000Y-105397000D03*
X176168000Y-120637000D03*
X173628000Y-105397000D03*
X173628000Y-120637000D03*
X171088000Y-120637000D03*
X171088000Y-105397000D03*
X168548000Y-120637000D03*
X168548000Y-105397000D03*
%TD*%
D17*
%TO.C,LS1*%
X220726000Y-94564200D03*
D12*
X220726000Y-86964200D03*
%TD*%
D16*
%TO.C,U2*%
X187300000Y-149187000D03*
X184760000Y-149187000D03*
X182220000Y-149187000D03*
X179680000Y-149187000D03*
X177140000Y-149187000D03*
X174600000Y-149187000D03*
X174600000Y-164427000D03*
X177140000Y-164427000D03*
X179680000Y-164427000D03*
X182220000Y-164427000D03*
X184760000Y-164427000D03*
D15*
X187300000Y-164427000D03*
%TD*%
D10*
%TO.C,JP2*%
X105181400Y-192379600D03*
D11*
X107721400Y-192379600D03*
%TD*%
%TO.C,C61*%
G36*
G01*
X223772100Y-94801700D02*
X223772100Y-94326700D01*
G75*
G02*
X224009600Y-94089200I237500J0D01*
G01*
X224609600Y-94089200D01*
G75*
G02*
X224847100Y-94326700I0J-237500D01*
G01*
X224847100Y-94801700D01*
G75*
G02*
X224609600Y-95039200I-237500J0D01*
G01*
X224009600Y-95039200D01*
G75*
G02*
X223772100Y-94801700I0J237500D01*
G01*
G37*
G36*
G01*
X225497100Y-94801700D02*
X225497100Y-94326700D01*
G75*
G02*
X225734600Y-94089200I237500J0D01*
G01*
X226334600Y-94089200D01*
G75*
G02*
X226572100Y-94326700I0J-237500D01*
G01*
X226572100Y-94801700D01*
G75*
G02*
X226334600Y-95039200I-237500J0D01*
G01*
X225734600Y-95039200D01*
G75*
G02*
X225497100Y-94801700I0J237500D01*
G01*
G37*
%TD*%
%TO.C,C66*%
G36*
G01*
X307831500Y-95840500D02*
X307356500Y-95840500D01*
G75*
G02*
X307119000Y-95603000I0J237500D01*
G01*
X307119000Y-95003000D01*
G75*
G02*
X307356500Y-94765500I237500J0D01*
G01*
X307831500Y-94765500D01*
G75*
G02*
X308069000Y-95003000I0J-237500D01*
G01*
X308069000Y-95603000D01*
G75*
G02*
X307831500Y-95840500I-237500J0D01*
G01*
G37*
G36*
G01*
X307831500Y-97565500D02*
X307356500Y-97565500D01*
G75*
G02*
X307119000Y-97328000I0J237500D01*
G01*
X307119000Y-96728000D01*
G75*
G02*
X307356500Y-96490500I237500J0D01*
G01*
X307831500Y-96490500D01*
G75*
G02*
X308069000Y-96728000I0J-237500D01*
G01*
X308069000Y-97328000D01*
G75*
G02*
X307831500Y-97565500I-237500J0D01*
G01*
G37*
%TD*%
%TO.C,C74*%
G36*
G01*
X310531500Y-78037400D02*
X311006500Y-78037400D01*
G75*
G02*
X311244000Y-78274900I0J-237500D01*
G01*
X311244000Y-78874900D01*
G75*
G02*
X311006500Y-79112400I-237500J0D01*
G01*
X310531500Y-79112400D01*
G75*
G02*
X310294000Y-78874900I0J237500D01*
G01*
X310294000Y-78274900D01*
G75*
G02*
X310531500Y-78037400I237500J0D01*
G01*
G37*
G36*
G01*
X310531500Y-79762400D02*
X311006500Y-79762400D01*
G75*
G02*
X311244000Y-79999900I0J-237500D01*
G01*
X311244000Y-80599900D01*
G75*
G02*
X311006500Y-80837400I-237500J0D01*
G01*
X310531500Y-80837400D01*
G75*
G02*
X310294000Y-80599900I0J237500D01*
G01*
X310294000Y-79999900D01*
G75*
G02*
X310531500Y-79762400I237500J0D01*
G01*
G37*
%TD*%
%TO.C,C90*%
G36*
G01*
X80001100Y-149970000D02*
X80476100Y-149970000D01*
G75*
G02*
X80713600Y-150207500I0J-237500D01*
G01*
X80713600Y-150807500D01*
G75*
G02*
X80476100Y-151045000I-237500J0D01*
G01*
X80001100Y-151045000D01*
G75*
G02*
X79763600Y-150807500I0J237500D01*
G01*
X79763600Y-150207500D01*
G75*
G02*
X80001100Y-149970000I237500J0D01*
G01*
G37*
G36*
G01*
X80001100Y-148245000D02*
X80476100Y-148245000D01*
G75*
G02*
X80713600Y-148482500I0J-237500D01*
G01*
X80713600Y-149082500D01*
G75*
G02*
X80476100Y-149320000I-237500J0D01*
G01*
X80001100Y-149320000D01*
G75*
G02*
X79763600Y-149082500I0J237500D01*
G01*
X79763600Y-148482500D01*
G75*
G02*
X80001100Y-148245000I237500J0D01*
G01*
G37*
%TD*%
%TO.C,C91*%
G36*
G01*
X80450700Y-139765000D02*
X79975700Y-139765000D01*
G75*
G02*
X79738200Y-139527500I0J237500D01*
G01*
X79738200Y-138927500D01*
G75*
G02*
X79975700Y-138690000I237500J0D01*
G01*
X80450700Y-138690000D01*
G75*
G02*
X80688200Y-138927500I0J-237500D01*
G01*
X80688200Y-139527500D01*
G75*
G02*
X80450700Y-139765000I-237500J0D01*
G01*
G37*
G36*
G01*
X80450700Y-138040000D02*
X79975700Y-138040000D01*
G75*
G02*
X79738200Y-137802500I0J237500D01*
G01*
X79738200Y-137202500D01*
G75*
G02*
X79975700Y-136965000I237500J0D01*
G01*
X80450700Y-136965000D01*
G75*
G02*
X80688200Y-137202500I0J-237500D01*
G01*
X80688200Y-137802500D01*
G75*
G02*
X80450700Y-138040000I-237500J0D01*
G01*
G37*
%TD*%
D18*
%TO.C,D1*%
X198958000Y-184490000D03*
D19*
X201498000Y-184490000D03*
%TD*%
%TO.C,D2*%
X160490000Y-184464000D03*
D18*
X157950000Y-184464000D03*
%TD*%
D17*
%TO.C,D4*%
X352145600Y-164338000D03*
D20*
X347065600Y-159258000D03*
X352145600Y-159258000D03*
X347065600Y-164338000D03*
%TD*%
D21*
%TO.C,D5*%
X352145600Y-149860000D03*
D22*
X341985600Y-149860000D03*
%TD*%
D23*
%TO.C,D8*%
X342686000Y-112522000D03*
X347686000Y-112522000D03*
%TD*%
D21*
%TO.C,D11*%
X327914000Y-97282000D03*
D22*
X317754000Y-97282000D03*
%TD*%
%TO.C,D12*%
X317754000Y-91694000D03*
D21*
X327914000Y-91694000D03*
%TD*%
D24*
%TO.C,J1*%
X69887200Y-172768000D03*
X69887200Y-173618000D03*
X69887200Y-174468000D03*
X69887200Y-175318000D03*
X69887200Y-176168000D03*
X69887200Y-177018000D03*
X69887200Y-177868000D03*
X69887200Y-178718000D03*
X68537200Y-178718000D03*
X68537200Y-177868000D03*
X68537200Y-177018000D03*
X68537200Y-176168000D03*
X68537200Y-175318000D03*
X68537200Y-174468000D03*
X68537200Y-173618000D03*
X68537200Y-172768000D03*
D25*
X68907200Y-171418000D03*
X68907200Y-180068000D03*
X65527200Y-180068000D03*
X65527200Y-171418000D03*
%TD*%
D26*
%TO.C,J2*%
X132410000Y-208610000D03*
D27*
X137410000Y-208610000D03*
%TD*%
D26*
%TO.C,J5*%
X347065600Y-172466000D03*
D27*
X352065600Y-172466000D03*
%TD*%
D26*
%TO.C,J7*%
X340614000Y-139446000D03*
D27*
X345614000Y-139446000D03*
X350614000Y-139446000D03*
%TD*%
D28*
%TO.C,J9*%
X321564000Y-79756000D03*
X324104000Y-79756000D03*
X326644000Y-79756000D03*
%TD*%
D29*
%TO.C,J11*%
X71005400Y-149644000D03*
X71005400Y-138214000D03*
%TD*%
D11*
%TO.C,JP3*%
X86969600Y-84442300D03*
D10*
X89509600Y-84442300D03*
X92049600Y-84442300D03*
%TD*%
%TO.C,R3*%
G36*
G01*
X225196200Y-144355399D02*
X225196200Y-145255401D01*
G75*
G02*
X224946201Y-145505400I-249999J0D01*
G01*
X224246199Y-145505400D01*
G75*
G02*
X223996200Y-145255401I0J249999D01*
G01*
X223996200Y-144355399D01*
G75*
G02*
X224246199Y-144105400I249999J0D01*
G01*
X224946201Y-144105400D01*
G75*
G02*
X225196200Y-144355399I0J-249999D01*
G01*
G37*
G36*
G01*
X223196200Y-144355399D02*
X223196200Y-145255401D01*
G75*
G02*
X222946201Y-145505400I-249999J0D01*
G01*
X222246199Y-145505400D01*
G75*
G02*
X221996200Y-145255401I0J249999D01*
G01*
X221996200Y-144355399D01*
G75*
G02*
X222246199Y-144105400I249999J0D01*
G01*
X222946201Y-144105400D01*
G75*
G02*
X223196200Y-144355399I0J-249999D01*
G01*
G37*
%TD*%
%TO.C,R6*%
G36*
G01*
X217884600Y-144368199D02*
X217884600Y-145268201D01*
G75*
G02*
X217634601Y-145518200I-249999J0D01*
G01*
X216934599Y-145518200D01*
G75*
G02*
X216684600Y-145268201I0J249999D01*
G01*
X216684600Y-144368199D01*
G75*
G02*
X216934599Y-144118200I249999J0D01*
G01*
X217634601Y-144118200D01*
G75*
G02*
X217884600Y-144368199I0J-249999D01*
G01*
G37*
G36*
G01*
X219884600Y-144368199D02*
X219884600Y-145268201D01*
G75*
G02*
X219634601Y-145518200I-249999J0D01*
G01*
X218934599Y-145518200D01*
G75*
G02*
X218684600Y-145268201I0J249999D01*
G01*
X218684600Y-144368199D01*
G75*
G02*
X218934599Y-144118200I249999J0D01*
G01*
X219634601Y-144118200D01*
G75*
G02*
X219884600Y-144368199I0J-249999D01*
G01*
G37*
%TD*%
%TO.C,R7*%
G36*
G01*
X223808600Y-114103999D02*
X223808600Y-115004001D01*
G75*
G02*
X223558601Y-115254000I-249999J0D01*
G01*
X222858599Y-115254000D01*
G75*
G02*
X222608600Y-115004001I0J249999D01*
G01*
X222608600Y-114103999D01*
G75*
G02*
X222858599Y-113854000I249999J0D01*
G01*
X223558601Y-113854000D01*
G75*
G02*
X223808600Y-114103999I0J-249999D01*
G01*
G37*
G36*
G01*
X221808600Y-114103999D02*
X221808600Y-115004001D01*
G75*
G02*
X221558601Y-115254000I-249999J0D01*
G01*
X220858599Y-115254000D01*
G75*
G02*
X220608600Y-115004001I0J249999D01*
G01*
X220608600Y-114103999D01*
G75*
G02*
X220858599Y-113854000I249999J0D01*
G01*
X221558601Y-113854000D01*
G75*
G02*
X221808600Y-114103999I0J-249999D01*
G01*
G37*
%TD*%
%TO.C,R8*%
G36*
G01*
X216868400Y-114103999D02*
X216868400Y-115004001D01*
G75*
G02*
X216618401Y-115254000I-249999J0D01*
G01*
X215918399Y-115254000D01*
G75*
G02*
X215668400Y-115004001I0J249999D01*
G01*
X215668400Y-114103999D01*
G75*
G02*
X215918399Y-113854000I249999J0D01*
G01*
X216618401Y-113854000D01*
G75*
G02*
X216868400Y-114103999I0J-249999D01*
G01*
G37*
G36*
G01*
X218868400Y-114103999D02*
X218868400Y-115004001D01*
G75*
G02*
X218618401Y-115254000I-249999J0D01*
G01*
X217918399Y-115254000D01*
G75*
G02*
X217668400Y-115004001I0J249999D01*
G01*
X217668400Y-114103999D01*
G75*
G02*
X217918399Y-113854000I249999J0D01*
G01*
X218618401Y-113854000D01*
G75*
G02*
X218868400Y-114103999I0J-249999D01*
G01*
G37*
%TD*%
%TO.C,R14*%
G36*
G01*
X72517200Y-174275001D02*
X72517200Y-173374999D01*
G75*
G02*
X72767199Y-173125000I249999J0D01*
G01*
X73467201Y-173125000D01*
G75*
G02*
X73717200Y-173374999I0J-249999D01*
G01*
X73717200Y-174275001D01*
G75*
G02*
X73467201Y-174525000I-249999J0D01*
G01*
X72767199Y-174525000D01*
G75*
G02*
X72517200Y-174275001I0J249999D01*
G01*
G37*
G36*
G01*
X74517200Y-174275001D02*
X74517200Y-173374999D01*
G75*
G02*
X74767199Y-173125000I249999J0D01*
G01*
X75467201Y-173125000D01*
G75*
G02*
X75717200Y-173374999I0J-249999D01*
G01*
X75717200Y-174275001D01*
G75*
G02*
X75467201Y-174525000I-249999J0D01*
G01*
X74767199Y-174525000D01*
G75*
G02*
X74517200Y-174275001I0J249999D01*
G01*
G37*
%TD*%
%TO.C,R15*%
G36*
G01*
X65039800Y-177247999D02*
X65039800Y-178148001D01*
G75*
G02*
X64789801Y-178398000I-249999J0D01*
G01*
X64089799Y-178398000D01*
G75*
G02*
X63839800Y-178148001I0J249999D01*
G01*
X63839800Y-177247999D01*
G75*
G02*
X64089799Y-176998000I249999J0D01*
G01*
X64789801Y-176998000D01*
G75*
G02*
X65039800Y-177247999I0J-249999D01*
G01*
G37*
G36*
G01*
X67039800Y-177247999D02*
X67039800Y-178148001D01*
G75*
G02*
X66789801Y-178398000I-249999J0D01*
G01*
X66089799Y-178398000D01*
G75*
G02*
X65839800Y-178148001I0J249999D01*
G01*
X65839800Y-177247999D01*
G75*
G02*
X66089799Y-176998000I249999J0D01*
G01*
X66789801Y-176998000D01*
G75*
G02*
X67039800Y-177247999I0J-249999D01*
G01*
G37*
%TD*%
D30*
%TO.C,R23*%
X342239600Y-172466000D03*
D31*
X342239600Y-162306000D03*
%TD*%
%TO.C,R27*%
X341985600Y-153416000D03*
D30*
X352145600Y-153416000D03*
%TD*%
%TO.C,R57*%
X313436000Y-97028000D03*
D31*
X313436000Y-86868000D03*
%TD*%
%TO.C,R60*%
G36*
G01*
X307143999Y-79918000D02*
X308044001Y-79918000D01*
G75*
G02*
X308294000Y-80167999I0J-249999D01*
G01*
X308294000Y-80868001D01*
G75*
G02*
X308044001Y-81118000I-249999J0D01*
G01*
X307143999Y-81118000D01*
G75*
G02*
X306894000Y-80868001I0J249999D01*
G01*
X306894000Y-80167999D01*
G75*
G02*
X307143999Y-79918000I249999J0D01*
G01*
G37*
G36*
G01*
X307143999Y-77918000D02*
X308044001Y-77918000D01*
G75*
G02*
X308294000Y-78167999I0J-249999D01*
G01*
X308294000Y-78868001D01*
G75*
G02*
X308044001Y-79118000I-249999J0D01*
G01*
X307143999Y-79118000D01*
G75*
G02*
X306894000Y-78868001I0J249999D01*
G01*
X306894000Y-78167999D01*
G75*
G02*
X307143999Y-77918000I249999J0D01*
G01*
G37*
%TD*%
%TO.C,R61*%
X318008000Y-86614000D03*
D30*
X328168000Y-86614000D03*
%TD*%
%TO.C,R74*%
G36*
G01*
X166451701Y-177993600D02*
X165551699Y-177993600D01*
G75*
G02*
X165301700Y-177743601I0J249999D01*
G01*
X165301700Y-177043599D01*
G75*
G02*
X165551699Y-176793600I249999J0D01*
G01*
X166451701Y-176793600D01*
G75*
G02*
X166701700Y-177043599I0J-249999D01*
G01*
X166701700Y-177743601D01*
G75*
G02*
X166451701Y-177993600I-249999J0D01*
G01*
G37*
G36*
G01*
X166451701Y-175993600D02*
X165551699Y-175993600D01*
G75*
G02*
X165301700Y-175743601I0J249999D01*
G01*
X165301700Y-175043599D01*
G75*
G02*
X165551699Y-174793600I249999J0D01*
G01*
X166451701Y-174793600D01*
G75*
G02*
X166701700Y-175043599I0J-249999D01*
G01*
X166701700Y-175743601D01*
G75*
G02*
X166451701Y-175993600I-249999J0D01*
G01*
G37*
%TD*%
%TO.C,R75*%
G36*
G01*
X169507321Y-177993600D02*
X168607319Y-177993600D01*
G75*
G02*
X168357320Y-177743601I0J249999D01*
G01*
X168357320Y-177043599D01*
G75*
G02*
X168607319Y-176793600I249999J0D01*
G01*
X169507321Y-176793600D01*
G75*
G02*
X169757320Y-177043599I0J-249999D01*
G01*
X169757320Y-177743601D01*
G75*
G02*
X169507321Y-177993600I-249999J0D01*
G01*
G37*
G36*
G01*
X169507321Y-175993600D02*
X168607319Y-175993600D01*
G75*
G02*
X168357320Y-175743601I0J249999D01*
G01*
X168357320Y-175043599D01*
G75*
G02*
X168607319Y-174793600I249999J0D01*
G01*
X169507321Y-174793600D01*
G75*
G02*
X169757320Y-175043599I0J-249999D01*
G01*
X169757320Y-175743601D01*
G75*
G02*
X169507321Y-175993600I-249999J0D01*
G01*
G37*
%TD*%
%TO.C,R76*%
G36*
G01*
X181729801Y-175993600D02*
X180829799Y-175993600D01*
G75*
G02*
X180579800Y-175743601I0J249999D01*
G01*
X180579800Y-175043599D01*
G75*
G02*
X180829799Y-174793600I249999J0D01*
G01*
X181729801Y-174793600D01*
G75*
G02*
X181979800Y-175043599I0J-249999D01*
G01*
X181979800Y-175743601D01*
G75*
G02*
X181729801Y-175993600I-249999J0D01*
G01*
G37*
G36*
G01*
X181729801Y-177993600D02*
X180829799Y-177993600D01*
G75*
G02*
X180579800Y-177743601I0J249999D01*
G01*
X180579800Y-177043599D01*
G75*
G02*
X180829799Y-176793600I249999J0D01*
G01*
X181729801Y-176793600D01*
G75*
G02*
X181979800Y-177043599I0J-249999D01*
G01*
X181979800Y-177743601D01*
G75*
G02*
X181729801Y-177993600I-249999J0D01*
G01*
G37*
%TD*%
%TO.C,R77*%
G36*
G01*
X178674181Y-177993600D02*
X177774179Y-177993600D01*
G75*
G02*
X177524180Y-177743601I0J249999D01*
G01*
X177524180Y-177043599D01*
G75*
G02*
X177774179Y-176793600I249999J0D01*
G01*
X178674181Y-176793600D01*
G75*
G02*
X178924180Y-177043599I0J-249999D01*
G01*
X178924180Y-177743601D01*
G75*
G02*
X178674181Y-177993600I-249999J0D01*
G01*
G37*
G36*
G01*
X178674181Y-175993600D02*
X177774179Y-175993600D01*
G75*
G02*
X177524180Y-175743601I0J249999D01*
G01*
X177524180Y-175043599D01*
G75*
G02*
X177774179Y-174793600I249999J0D01*
G01*
X178674181Y-174793600D01*
G75*
G02*
X178924180Y-175043599I0J-249999D01*
G01*
X178924180Y-175743601D01*
G75*
G02*
X178674181Y-175993600I-249999J0D01*
G01*
G37*
%TD*%
%TO.C,R78*%
G36*
G01*
X175618561Y-175993600D02*
X174718559Y-175993600D01*
G75*
G02*
X174468560Y-175743601I0J249999D01*
G01*
X174468560Y-175043599D01*
G75*
G02*
X174718559Y-174793600I249999J0D01*
G01*
X175618561Y-174793600D01*
G75*
G02*
X175868560Y-175043599I0J-249999D01*
G01*
X175868560Y-175743601D01*
G75*
G02*
X175618561Y-175993600I-249999J0D01*
G01*
G37*
G36*
G01*
X175618561Y-177993600D02*
X174718559Y-177993600D01*
G75*
G02*
X174468560Y-177743601I0J249999D01*
G01*
X174468560Y-177043599D01*
G75*
G02*
X174718559Y-176793600I249999J0D01*
G01*
X175618561Y-176793600D01*
G75*
G02*
X175868560Y-177043599I0J-249999D01*
G01*
X175868560Y-177743601D01*
G75*
G02*
X175618561Y-177993600I-249999J0D01*
G01*
G37*
%TD*%
%TO.C,R79*%
G36*
G01*
X172562941Y-177993600D02*
X171662939Y-177993600D01*
G75*
G02*
X171412940Y-177743601I0J249999D01*
G01*
X171412940Y-177043599D01*
G75*
G02*
X171662939Y-176793600I249999J0D01*
G01*
X172562941Y-176793600D01*
G75*
G02*
X172812940Y-177043599I0J-249999D01*
G01*
X172812940Y-177743601D01*
G75*
G02*
X172562941Y-177993600I-249999J0D01*
G01*
G37*
G36*
G01*
X172562941Y-175993600D02*
X171662939Y-175993600D01*
G75*
G02*
X171412940Y-175743601I0J249999D01*
G01*
X171412940Y-175043599D01*
G75*
G02*
X171662939Y-174793600I249999J0D01*
G01*
X172562941Y-174793600D01*
G75*
G02*
X172812940Y-175043599I0J-249999D01*
G01*
X172812940Y-175743601D01*
G75*
G02*
X172562941Y-175993600I-249999J0D01*
G01*
G37*
%TD*%
D26*
%TO.C,RL1*%
X341503000Y-106045000D03*
D32*
X341503000Y-121045000D03*
X341503000Y-126045000D03*
X341503000Y-131045000D03*
X349003000Y-131045000D03*
X349003000Y-126045000D03*
X349003000Y-121045000D03*
X349003000Y-106045000D03*
%TD*%
D33*
%TO.C,SW1*%
X332207000Y-175115000D03*
X329667000Y-175095000D03*
%TD*%
%TO.C,SW2*%
X310172000Y-175115000D03*
X307632000Y-175095000D03*
%TD*%
%TO.C,SW3*%
X287947000Y-175115000D03*
X285407000Y-175095000D03*
%TD*%
%TO.C,SW4*%
X265874000Y-175115000D03*
X263334000Y-175095000D03*
%TD*%
%TO.C,SW5*%
X241262000Y-175095000D03*
X243802000Y-175115000D03*
%TD*%
%TO.C,SW6*%
X219253000Y-175095000D03*
X221793000Y-175115000D03*
%TD*%
D15*
%TO.C,U1*%
X267259000Y-164363000D03*
D16*
X264719000Y-164363000D03*
X262179000Y-164363000D03*
X259639000Y-164363000D03*
X257099000Y-164363000D03*
X254559000Y-164363000D03*
X254559000Y-149123000D03*
X257099000Y-149123000D03*
X259639000Y-149123000D03*
X262179000Y-149123000D03*
X264719000Y-149123000D03*
X267259000Y-149123000D03*
%TD*%
D34*
%TO.C,U5*%
X247637000Y-105600000D03*
X245097000Y-105600000D03*
X242557000Y-105600000D03*
X240017000Y-105600000D03*
X237477000Y-105600000D03*
X237477000Y-120840000D03*
X240017000Y-120840000D03*
X242557000Y-120840000D03*
X245097000Y-120840000D03*
D35*
X247637000Y-120840000D03*
%TD*%
D15*
%TO.C,U7*%
X291879000Y-120942000D03*
D16*
X289339000Y-120942000D03*
X286799000Y-120942000D03*
X284259000Y-120942000D03*
X281719000Y-120942000D03*
X279179000Y-120942000D03*
X279179000Y-105702000D03*
X281719000Y-105702000D03*
X284259000Y-105702000D03*
X286799000Y-105702000D03*
X289339000Y-105702000D03*
X291879000Y-105702000D03*
%TD*%
%TO.C,C50*%
G36*
G01*
X135032800Y-138350000D02*
X135032800Y-137875000D01*
G75*
G02*
X135270300Y-137637500I237500J0D01*
G01*
X135870300Y-137637500D01*
G75*
G02*
X136107800Y-137875000I0J-237500D01*
G01*
X136107800Y-138350000D01*
G75*
G02*
X135870300Y-138587500I-237500J0D01*
G01*
X135270300Y-138587500D01*
G75*
G02*
X135032800Y-138350000I0J237500D01*
G01*
G37*
G36*
G01*
X133307800Y-138350000D02*
X133307800Y-137875000D01*
G75*
G02*
X133545300Y-137637500I237500J0D01*
G01*
X134145300Y-137637500D01*
G75*
G02*
X134382800Y-137875000I0J-237500D01*
G01*
X134382800Y-138350000D01*
G75*
G02*
X134145300Y-138587500I-237500J0D01*
G01*
X133545300Y-138587500D01*
G75*
G02*
X133307800Y-138350000I0J237500D01*
G01*
G37*
%TD*%
D36*
%TO.C,J3*%
X96494600Y-195910200D03*
X96494600Y-193370200D03*
X93954600Y-195910200D03*
X93954600Y-193370200D03*
X91414600Y-195910200D03*
X91414600Y-193370200D03*
X88874600Y-195910200D03*
X88874600Y-193370200D03*
X86334600Y-195910200D03*
X86334600Y-193370200D03*
%TD*%
D11*
%TO.C,J12*%
X67995800Y-157290000D03*
%TD*%
D10*
%TO.C,J14*%
X148196300Y-176695100D03*
X148196300Y-179235100D03*
D11*
X148196300Y-181775100D03*
%TD*%
%TO.C,J15*%
X124066300Y-185407300D03*
D10*
X121526300Y-185407300D03*
X118986300Y-185407300D03*
%TD*%
%TO.C,J16*%
X128625600Y-185394600D03*
X131165600Y-185394600D03*
X133705600Y-185394600D03*
D11*
X136245600Y-185394600D03*
%TD*%
%TO.C,J17*%
X145872200Y-76860400D03*
D10*
X143332200Y-76860400D03*
X140792200Y-76860400D03*
X138252200Y-76860400D03*
%TD*%
D37*
X127609600Y-193852800D03*
D38*
X98107500Y-143471900D03*
X99707500Y-143471900D03*
X98107500Y-145071900D03*
X99707500Y-145071900D03*
X87680800Y-145199100D03*
D39*
X90220800Y-134378700D03*
X102158800Y-156248100D03*
D38*
X99364800Y-151650700D03*
D39*
X103428800Y-152006300D03*
X111252000Y-143548100D03*
D38*
X89585800Y-157556200D03*
D39*
X80238600Y-152222200D03*
X80187800Y-136017000D03*
D38*
X80822800Y-129819400D03*
X80848200Y-132918200D03*
D37*
X97205800Y-179781200D03*
X98069400Y-170789600D03*
X96774000Y-164033200D03*
D39*
X96012000Y-127939800D03*
X96088200Y-134366000D03*
X96240600Y-152044400D03*
X147320000Y-154000200D03*
X141554200Y-129641600D03*
D37*
X133832600Y-116967000D03*
X138988800Y-116967000D03*
D39*
X155117800Y-146608800D03*
X155092400Y-135102600D03*
X148910000Y-160957300D03*
X139928600Y-161010600D03*
D37*
X121920000Y-156921200D03*
X121767600Y-153593800D03*
D39*
X121767600Y-148996400D03*
D37*
X121843800Y-143967200D03*
D38*
X121894600Y-141605000D03*
D37*
X121894600Y-146532600D03*
D38*
X187198000Y-207594200D03*
X183057800Y-207594200D03*
X176834800Y-204673200D03*
X174040800Y-201904600D03*
D37*
X168503600Y-185877200D03*
X165023800Y-183032400D03*
X166700200Y-192887600D03*
X157556200Y-200634600D03*
D38*
X173964600Y-194665600D03*
X162077400Y-199059800D03*
D37*
X162077400Y-201828400D03*
X167436800Y-198475600D03*
X172897800Y-180797200D03*
X151434800Y-202057000D03*
X133477000Y-194691000D03*
X129286000Y-196672200D03*
X125501400Y-201422000D03*
X99110800Y-205790800D03*
X121640600Y-195072000D03*
X140335000Y-194411600D03*
D39*
X126873000Y-131165600D03*
X127076200Y-127558800D03*
X134645400Y-128092200D03*
D37*
X137185400Y-115925600D03*
D39*
X143535400Y-95834200D03*
D37*
X130581400Y-97256600D03*
X130657300Y-107696300D03*
X153365200Y-127609600D03*
D38*
X153365200Y-130860800D03*
X156895800Y-175387000D03*
X216357200Y-172618400D03*
X238810800Y-172618400D03*
X260350000Y-172516800D03*
X305054000Y-172466000D03*
X326999600Y-172516800D03*
X282651200Y-172567600D03*
D39*
X330504800Y-113487200D03*
X296621200Y-84480400D03*
X293624000Y-84480400D03*
X293624000Y-96469200D03*
X297027600Y-96469200D03*
X320192400Y-123190000D03*
X323646800Y-154381200D03*
X327202800Y-154381200D03*
X217779600Y-137236200D03*
X224180400Y-137261600D03*
X220218000Y-151866600D03*
X187655200Y-190677800D03*
X227863400Y-94564200D03*
X207645000Y-93903800D03*
X222885000Y-106527600D03*
X216535000Y-106527600D03*
X217297000Y-122453400D03*
D37*
X154609800Y-121589800D03*
X154609800Y-118364000D03*
D38*
X137096500Y-138099800D03*
X140347700Y-136512300D03*
D39*
X155117800Y-141630400D03*
X147688300Y-143484600D03*
X130898900Y-129425700D03*
X120281700Y-134239000D03*
X159943800Y-143484600D03*
D38*
X86296500Y-152323800D03*
X167652700Y-204508100D03*
X194716400Y-159804100D03*
X168211500Y-133997700D03*
X181356000Y-140944600D03*
X194665600Y-164541200D03*
X178244500Y-159702500D03*
X192709800Y-102539800D03*
X185254900Y-102539800D03*
X177863500Y-102666800D03*
X172427900Y-102476300D03*
X169862500Y-103416100D03*
X174294800Y-102463600D03*
X221665800Y-102641400D03*
X169875200Y-118922800D03*
X172466000Y-118922800D03*
X177558700Y-119519700D03*
X179578000Y-118960900D03*
X182537100Y-121869200D03*
X180416200Y-122072400D03*
X183794400Y-118960900D03*
X187998100Y-118960900D03*
X192697100Y-118986300D03*
X262712200Y-120916700D03*
X230555800Y-121666000D03*
X233057700Y-119900700D03*
X284175200Y-123634500D03*
X281851100Y-123634500D03*
X136436100Y-121551700D03*
X139395200Y-126746000D03*
X135559800Y-127076200D03*
X137109200Y-111023400D03*
X239788700Y-159943800D03*
X239763300Y-151396700D03*
X198653400Y-148945600D03*
X198628000Y-145529300D03*
X206019400Y-139928600D03*
X185661300Y-146304000D03*
X256743200Y-145796000D03*
X239788700Y-165061900D03*
X239801400Y-163398200D03*
D37*
X128778200Y-208610000D03*
X123507700Y-208610000D03*
X121564600Y-208610000D03*
X119583400Y-208610000D03*
X112852400Y-208610000D03*
X114947900Y-208610000D03*
X117322800Y-208610000D03*
X110668000Y-210172100D03*
X110668000Y-208559200D03*
D38*
X137706100Y-151638000D03*
D37*
X145288000Y-122199400D03*
D38*
X95631000Y-190474600D03*
X98107500Y-190474600D03*
X91567000Y-190474600D03*
X131191000Y-137020300D03*
X145008600Y-148272500D03*
X144564100Y-154330400D03*
X96443800Y-139534900D03*
X102057200Y-147459700D03*
X102171500Y-141655800D03*
X159880300Y-203962000D03*
X197802500Y-181229000D03*
D37*
X125387300Y-208610000D03*
X127190700Y-208610000D03*
X128993700Y-193853000D03*
X146176800Y-190932000D03*
D40*
X157378400Y-196342000D03*
D37*
X133845300Y-159397700D03*
X125145800Y-135966200D03*
D38*
X221615000Y-146278600D03*
D39*
X221945200Y-151866600D03*
X190958601Y-179068599D03*
X190958601Y-180465599D03*
X190960010Y-177720990D03*
D38*
X220878400Y-116281200D03*
D39*
X221970600Y-121691400D03*
D37*
X104521000Y-170459400D03*
D39*
X92405200Y-127914400D03*
D37*
X106349600Y-204267000D03*
X108584800Y-204267000D03*
X107467200Y-204267000D03*
X102235000Y-205486000D03*
X102209600Y-202920600D03*
X104368000Y-207695200D03*
X104368000Y-200889200D03*
D39*
X112179100Y-144665700D03*
D38*
X110921800Y-148691600D03*
D39*
X108991400Y-134213600D03*
X139852400Y-129616200D03*
X153365200Y-146608800D03*
X153390600Y-135102600D03*
X148907500Y-159207200D03*
D37*
X126060200Y-156921200D03*
X124968000Y-150317200D03*
D39*
X124993400Y-145338800D03*
D37*
X161696400Y-206298800D03*
X154101800Y-205105000D03*
X151409400Y-200355200D03*
X122631200Y-188849000D03*
X123850400Y-190093600D03*
X123850400Y-194665600D03*
X133905000Y-192418000D03*
X134992600Y-193505600D03*
X136110200Y-194623200D03*
X134992600Y-194597800D03*
D39*
X128701800Y-123926600D03*
X135153400Y-132435600D03*
D37*
X138582400Y-112699800D03*
X143535400Y-94107000D03*
X128854200Y-97231200D03*
X128930400Y-107670600D03*
D39*
X142544800Y-159308800D03*
D38*
X151257000Y-133197600D03*
X169062400Y-179298600D03*
X181317900Y-179171600D03*
D39*
X153390600Y-141605000D03*
D38*
X136740000Y-157949900D03*
D37*
X122631200Y-195859400D03*
X135001000Y-192455800D03*
D40*
X157581600Y-195389500D03*
D37*
X125755400Y-138722100D03*
X148564600Y-118338600D03*
X148564600Y-121666000D03*
D38*
X305396900Y-78524100D03*
X165989000Y-173113700D03*
X137224293Y-159586204D03*
X137426700Y-172643800D03*
X169056200Y-172523300D03*
X137740000Y-160197800D03*
X138294097Y-172513699D03*
X181270690Y-170323290D03*
X139962990Y-159067500D03*
X141111401Y-169710100D03*
X139962990Y-159943800D03*
X178234601Y-170723299D03*
X141111401Y-170677304D03*
X138628599Y-161899600D03*
X175171100Y-171323300D03*
X138628599Y-170218100D03*
X138240000Y-161124900D03*
X172119700Y-171923300D03*
X138628599Y-171373800D03*
X95529400Y-145770600D03*
X90932000Y-142875000D03*
X86512400Y-144564100D03*
X90982800Y-145592800D03*
X90957400Y-148767800D03*
X93065600Y-142367000D03*
X95580200Y-144957800D03*
X171043600Y-195630800D03*
X162077400Y-195630800D03*
X161340800Y-197510400D03*
X170967400Y-197510400D03*
X165328600Y-196773800D03*
X171043600Y-198602600D03*
X162102800Y-200837800D03*
X171069000Y-200837800D03*
X98069400Y-147726400D03*
X83655400Y-137019800D03*
X142151100Y-132575300D03*
X142951200Y-132054600D03*
X144094200Y-157657800D03*
X144765000Y-158407100D03*
X134828598Y-151006736D03*
X135528598Y-150596600D03*
X136128598Y-168554400D03*
X142660285Y-142774585D03*
X143814800Y-136271000D03*
X145723015Y-136515515D03*
X146540062Y-136546997D03*
X149098000Y-132943600D03*
X157353000Y-133197600D03*
X157353000Y-83302400D03*
X158127700Y-173723300D03*
X151231600Y-134289800D03*
X149936200Y-134277100D03*
X157302200Y-174434500D03*
X220345000Y-146278600D03*
X219075000Y-116281200D03*
X165506400Y-82702400D03*
X165506400Y-139496800D03*
X139573000Y-132562600D03*
D40*
X132943600Y-116255800D03*
X131902200Y-117017800D03*
D38*
X135423200Y-136131300D03*
X305587400Y-92036900D03*
X305562000Y-80505300D03*
X103016300Y-138982700D03*
X128244600Y-133426200D03*
X127000000Y-132435600D03*
X121767600Y-132435600D03*
X226771200Y-134150100D03*
X227495100Y-137248900D03*
X208991200Y-109556400D03*
X210667600Y-139776200D03*
X208991200Y-136969500D03*
X211683600Y-121361200D03*
X211963000Y-148920200D03*
X211983599Y-135986799D03*
X229438200Y-111658400D03*
X229440000Y-148998200D03*
X224155000Y-151434800D03*
X224183801Y-165713001D03*
X264719000Y-164363000D03*
X228067003Y-151395203D03*
X228071511Y-166413011D03*
X225425000Y-151460200D03*
X225431421Y-167113021D03*
X223418400Y-153162000D03*
X223418400Y-155181300D03*
X218465400Y-152095200D03*
X222783100Y-165113000D03*
X230225600Y-164363400D03*
X230225600Y-142163800D03*
X217805000Y-152679400D03*
X250825000Y-154508200D03*
X217062050Y-153765250D03*
X226695000Y-141605000D03*
X226695000Y-155943300D03*
X199034400Y-117602000D03*
X245084600Y-124679000D03*
X193954400Y-116992400D03*
X223824800Y-120675400D03*
X222377000Y-116281200D03*
X239966500Y-125353412D03*
X237477300Y-125984000D03*
X191389000Y-100177600D03*
X237490000Y-100177600D03*
X213969600Y-120243600D03*
X213233000Y-100171399D03*
X193176600Y-100777600D03*
X239963399Y-100777601D03*
X213995000Y-116281199D03*
X213934601Y-100777600D03*
X212979000Y-120243600D03*
X212991700Y-124153411D03*
X249732800Y-119240300D03*
X245103799Y-101377601D03*
X214909400Y-116281199D03*
X214595000Y-101377601D03*
X224180400Y-111379000D03*
X228727000Y-124079000D03*
X217805000Y-99577600D03*
X217805000Y-106527600D03*
X224134467Y-103281267D03*
X215265000Y-106527600D03*
X116027200Y-147370800D03*
X98501200Y-140589000D03*
X151952400Y-154081564D03*
D40*
X154406600Y-195168001D03*
D38*
X148209000Y-152958800D03*
D40*
X151733464Y-189388536D03*
D38*
X151726900Y-152501600D03*
D40*
X152488900Y-189979300D03*
X156946600Y-191338200D03*
D38*
X152952410Y-152266610D03*
X147701000Y-139801600D03*
X142783000Y-110680500D03*
X146507200Y-139776200D03*
D40*
X153578634Y-196839766D03*
D38*
X101830035Y-139320435D03*
X130070034Y-139620434D03*
X97536000Y-140944600D03*
X128371600Y-155346400D03*
X96443800Y-140944600D03*
X128574800Y-157530800D03*
D40*
X153898600Y-193497200D03*
D38*
X142849600Y-160705800D03*
X143440000Y-158216600D03*
D40*
X153152400Y-191643000D03*
X159283400Y-192316100D03*
X154559000Y-151320500D03*
X160324800Y-191770000D03*
X155409900Y-150520400D03*
X158541559Y-191326239D03*
D38*
X153111200Y-138900000D03*
X142011400Y-157861000D03*
X161544000Y-194233800D03*
D40*
X157353000Y-194106800D03*
D38*
X162077400Y-193065400D03*
X143027400Y-154457400D03*
X132562600Y-143522700D03*
X131279900Y-144843500D03*
X133883400Y-136601200D03*
X127838200Y-158902400D03*
X128403887Y-159502400D03*
X293544700Y-109550200D03*
X326466200Y-109651800D03*
X158553001Y-133197600D03*
X158546800Y-81902300D03*
X291782500Y-100545900D03*
X295046400Y-97015300D03*
X295046400Y-85064600D03*
X290855400Y-89585800D03*
X129028102Y-160102400D03*
D37*
X163918900Y-186982100D03*
D39*
X312940700Y-123190000D03*
X321919600Y-150507700D03*
D37*
X76758800Y-173786800D03*
X77038200Y-170586400D03*
X74091800Y-175260000D03*
X74066400Y-180213000D03*
X83134200Y-171856400D03*
X83134200Y-179476400D03*
D39*
X80975200Y-147243800D03*
X80975200Y-140741400D03*
D38*
X89535000Y-151968200D03*
X92354400Y-151968200D03*
X97180400Y-147726400D03*
X305574700Y-90474800D03*
D39*
X304952400Y-93319600D03*
X312407300Y-80302100D03*
X305003200Y-81686400D03*
X307594000Y-98755200D03*
M02*
