%TF.GenerationSoftware,KiCad,Pcbnew,5.1.10-88a1d61d58~88~ubuntu20.04.1*%
%TF.CreationDate,2021-06-04T13:37:27+07:00*%
%TF.ProjectId,Schema_and_PCB,53636865-6d61-45f6-916e-645f5043422e,v0.1*%
%TF.SameCoordinates,Original*%
%TF.FileFunction,Soldermask,Bot*%
%TF.FilePolarity,Negative*%
%FSLAX46Y46*%
G04 Gerber Fmt 4.6, Leading zero omitted, Abs format (unit mm)*
G04 Created by KiCad (PCBNEW 5.1.10-88a1d61d58~88~ubuntu20.04.1) date 2021-06-04 13:37:27*
%MOMM*%
%LPD*%
G01*
G04 APERTURE LIST*
%ADD10O,1.802000X1.802000*%
%ADD11C,2.302000*%
%ADD12C,2.102000*%
%ADD13C,3.802000*%
%ADD14C,3.102000*%
%ADD15C,2.352000*%
%ADD16C,1.857000*%
%ADD17C,0.802000*%
%ADD18O,2.902000X1.402000*%
%ADD19O,2.402000X1.402000*%
%ADD20O,2.102000X2.102000*%
%ADD21C,1.602000*%
%ADD22C,1.902000*%
%ADD23O,2.302000X2.302000*%
%ADD24C,2.602000*%
%ADD25C,2.122000*%
%ADD26C,1.702000*%
%ADD27O,1.702000X1.702000*%
%ADD28O,2.602000X2.602000*%
%ADD29C,1.626000*%
%ADD30O,1.626000X2.626000*%
%ADD31C,1.002000*%
%ADD32C,0.902000*%
%ADD33C,0.100000*%
G04 APERTURE END LIST*
D10*
%TO.C,JP2*%
X105181400Y-192379600D03*
G36*
G01*
X106871400Y-191478600D02*
X108571400Y-191478600D01*
G75*
G02*
X108622400Y-191529600I0J-51000D01*
G01*
X108622400Y-193229600D01*
G75*
G02*
X108571400Y-193280600I-51000J0D01*
G01*
X106871400Y-193280600D01*
G75*
G02*
X106820400Y-193229600I0J51000D01*
G01*
X106820400Y-191529600D01*
G75*
G02*
X106871400Y-191478600I51000J0D01*
G01*
G37*
%TD*%
D11*
%TO.C,J3*%
X86334600Y-193370200D03*
X86334600Y-195910200D03*
X88874600Y-193370200D03*
X88874600Y-195910200D03*
X91414600Y-193370200D03*
X91414600Y-195910200D03*
X93954600Y-193370200D03*
X93954600Y-195910200D03*
X96494600Y-193370200D03*
X96494600Y-195910200D03*
%TD*%
D12*
%TO.C,SW7*%
X78295500Y-112341800D03*
X73795500Y-112341800D03*
X78295500Y-105841800D03*
X73795500Y-105841800D03*
%TD*%
D13*
%TO.C,REF\u002A\u002A*%
X70157340Y-187096400D03*
%TD*%
%TO.C,REF\u002A\u002A*%
X70157340Y-92100400D03*
%TD*%
%TO.C,REF\u002A\u002A*%
X346227400Y-92925900D03*
%TD*%
%TO.C,REF\u002A\u002A*%
X346227400Y-187934600D03*
%TD*%
%TO.C,REF\u002A\u002A*%
X217106500Y-161455100D03*
%TD*%
D14*
%TO.C,J11*%
X71005400Y-149644000D03*
X71005400Y-138214000D03*
%TD*%
D15*
%TO.C,BT1*%
X107574100Y-104279700D03*
D16*
X87574100Y-104279700D03*
%TD*%
D10*
%TO.C,JP3*%
X92049600Y-84442300D03*
X89509600Y-84442300D03*
G36*
G01*
X87819600Y-85343300D02*
X86119600Y-85343300D01*
G75*
G02*
X86068600Y-85292300I0J51000D01*
G01*
X86068600Y-83592300D01*
G75*
G02*
X86119600Y-83541300I51000J0D01*
G01*
X87819600Y-83541300D01*
G75*
G02*
X87870600Y-83592300I0J-51000D01*
G01*
X87870600Y-85292300D01*
G75*
G02*
X87819600Y-85343300I-51000J0D01*
G01*
G37*
%TD*%
%TO.C,J16*%
X128625600Y-185394600D03*
X131165600Y-185394600D03*
X133705600Y-185394600D03*
G36*
G01*
X135395600Y-184493600D02*
X137095600Y-184493600D01*
G75*
G02*
X137146600Y-184544600I0J-51000D01*
G01*
X137146600Y-186244600D01*
G75*
G02*
X137095600Y-186295600I-51000J0D01*
G01*
X135395600Y-186295600D01*
G75*
G02*
X135344600Y-186244600I0J51000D01*
G01*
X135344600Y-184544600D01*
G75*
G02*
X135395600Y-184493600I51000J0D01*
G01*
G37*
%TD*%
%TO.C,J17*%
X138252200Y-76860400D03*
X140792200Y-76860400D03*
X143332200Y-76860400D03*
G36*
G01*
X145022200Y-75959400D02*
X146722200Y-75959400D01*
G75*
G02*
X146773200Y-76010400I0J-51000D01*
G01*
X146773200Y-77710400D01*
G75*
G02*
X146722200Y-77761400I-51000J0D01*
G01*
X145022200Y-77761400D01*
G75*
G02*
X144971200Y-77710400I0J51000D01*
G01*
X144971200Y-76010400D01*
G75*
G02*
X145022200Y-75959400I51000J0D01*
G01*
G37*
%TD*%
%TO.C,J13*%
X127381000Y-76873100D03*
X129921000Y-76873100D03*
G36*
G01*
X131611000Y-75972100D02*
X133311000Y-75972100D01*
G75*
G02*
X133362000Y-76023100I0J-51000D01*
G01*
X133362000Y-77723100D01*
G75*
G02*
X133311000Y-77774100I-51000J0D01*
G01*
X131611000Y-77774100D01*
G75*
G02*
X131560000Y-77723100I0J51000D01*
G01*
X131560000Y-76023100D01*
G75*
G02*
X131611000Y-75972100I51000J0D01*
G01*
G37*
%TD*%
%TO.C,J14*%
X148196300Y-176695100D03*
X148196300Y-179235100D03*
G36*
G01*
X149097300Y-180925100D02*
X149097300Y-182625100D01*
G75*
G02*
X149046300Y-182676100I-51000J0D01*
G01*
X147346300Y-182676100D01*
G75*
G02*
X147295300Y-182625100I0J51000D01*
G01*
X147295300Y-180925100D01*
G75*
G02*
X147346300Y-180874100I51000J0D01*
G01*
X149046300Y-180874100D01*
G75*
G02*
X149097300Y-180925100I0J-51000D01*
G01*
G37*
%TD*%
%TO.C,J15*%
X118986300Y-185407300D03*
X121526300Y-185407300D03*
G36*
G01*
X123216300Y-184506300D02*
X124916300Y-184506300D01*
G75*
G02*
X124967300Y-184557300I0J-51000D01*
G01*
X124967300Y-186257300D01*
G75*
G02*
X124916300Y-186308300I-51000J0D01*
G01*
X123216300Y-186308300D01*
G75*
G02*
X123165300Y-186257300I0J51000D01*
G01*
X123165300Y-184557300D01*
G75*
G02*
X123216300Y-184506300I51000J0D01*
G01*
G37*
%TD*%
D17*
%TO.C,J1*%
X69887200Y-172768000D03*
X69887200Y-173618000D03*
X69887200Y-174468000D03*
X69887200Y-175318000D03*
X69887200Y-176168000D03*
X69887200Y-177018000D03*
X69887200Y-177868000D03*
X69887200Y-178718000D03*
X68537200Y-178718000D03*
X68537200Y-177868000D03*
X68537200Y-177018000D03*
X68537200Y-176168000D03*
X68537200Y-175318000D03*
X68537200Y-174468000D03*
X68537200Y-173618000D03*
X68537200Y-172768000D03*
D18*
X68907200Y-171418000D03*
X68907200Y-180068000D03*
D19*
X65527200Y-180068000D03*
X65527200Y-171418000D03*
%TD*%
%TO.C,D4*%
G36*
G01*
X353196600Y-163338000D02*
X353196600Y-165338000D01*
G75*
G02*
X353145600Y-165389000I-51000J0D01*
G01*
X351145600Y-165389000D01*
G75*
G02*
X351094600Y-165338000I0J51000D01*
G01*
X351094600Y-163338000D01*
G75*
G02*
X351145600Y-163287000I51000J0D01*
G01*
X353145600Y-163287000D01*
G75*
G02*
X353196600Y-163338000I0J-51000D01*
G01*
G37*
D20*
X347065600Y-159258000D03*
X352145600Y-159258000D03*
X347065600Y-164338000D03*
%TD*%
D12*
%TO.C,LS1*%
X220726000Y-86964200D03*
G36*
G01*
X221726000Y-95615200D02*
X219726000Y-95615200D01*
G75*
G02*
X219675000Y-95564200I0J51000D01*
G01*
X219675000Y-93564200D01*
G75*
G02*
X219726000Y-93513200I51000J0D01*
G01*
X221726000Y-93513200D01*
G75*
G02*
X221777000Y-93564200I0J-51000D01*
G01*
X221777000Y-95564200D01*
G75*
G02*
X221726000Y-95615200I-51000J0D01*
G01*
G37*
%TD*%
%TO.C,R56*%
G36*
G01*
X307114248Y-91805000D02*
X308073752Y-91805000D01*
G75*
G02*
X308345000Y-92076248I0J-271248D01*
G01*
X308345000Y-92835752D01*
G75*
G02*
X308073752Y-93107000I-271248J0D01*
G01*
X307114248Y-93107000D01*
G75*
G02*
X306843000Y-92835752I0J271248D01*
G01*
X306843000Y-92076248D01*
G75*
G02*
X307114248Y-91805000I271248J0D01*
G01*
G37*
G36*
G01*
X307114248Y-89805000D02*
X308073752Y-89805000D01*
G75*
G02*
X308345000Y-90076248I0J-271248D01*
G01*
X308345000Y-90835752D01*
G75*
G02*
X308073752Y-91107000I-271248J0D01*
G01*
X307114248Y-91107000D01*
G75*
G02*
X306843000Y-90835752I0J271248D01*
G01*
X306843000Y-90076248D01*
G75*
G02*
X307114248Y-89805000I271248J0D01*
G01*
G37*
%TD*%
%TO.C,U4*%
G36*
G01*
X202318000Y-121438000D02*
X200818000Y-121438000D01*
G75*
G02*
X200767000Y-121387000I0J51000D01*
G01*
X200767000Y-119887000D01*
G75*
G02*
X200818000Y-119836000I51000J0D01*
G01*
X202318000Y-119836000D01*
G75*
G02*
X202369000Y-119887000I0J-51000D01*
G01*
X202369000Y-121387000D01*
G75*
G02*
X202318000Y-121438000I-51000J0D01*
G01*
G37*
D21*
X199028000Y-120637000D03*
X196488000Y-120637000D03*
X193948000Y-120637000D03*
X191408000Y-120637000D03*
X188868000Y-120637000D03*
X186328000Y-120637000D03*
X183788000Y-120637000D03*
X181248000Y-120637000D03*
X181248000Y-105397000D03*
X183788000Y-105397000D03*
X186328000Y-105397000D03*
X188868000Y-105397000D03*
X191408000Y-105397000D03*
X193948000Y-105397000D03*
X196488000Y-105397000D03*
X199028000Y-105397000D03*
X201568000Y-105397000D03*
X178708000Y-120637000D03*
X178708000Y-105397000D03*
X176168000Y-105397000D03*
X176168000Y-120637000D03*
X173628000Y-105397000D03*
X173628000Y-120637000D03*
X171088000Y-120637000D03*
X171088000Y-105397000D03*
X168548000Y-120637000D03*
X168548000Y-105397000D03*
%TD*%
%TO.C,U2*%
X187300000Y-149187000D03*
X184760000Y-149187000D03*
X182220000Y-149187000D03*
X179680000Y-149187000D03*
X177140000Y-149187000D03*
X174600000Y-149187000D03*
X174600000Y-164427000D03*
X177140000Y-164427000D03*
X179680000Y-164427000D03*
X182220000Y-164427000D03*
X184760000Y-164427000D03*
G36*
G01*
X188050000Y-165228000D02*
X186550000Y-165228000D01*
G75*
G02*
X186499000Y-165177000I0J51000D01*
G01*
X186499000Y-163677000D01*
G75*
G02*
X186550000Y-163626000I51000J0D01*
G01*
X188050000Y-163626000D01*
G75*
G02*
X188101000Y-163677000I0J-51000D01*
G01*
X188101000Y-165177000D01*
G75*
G02*
X188050000Y-165228000I-51000J0D01*
G01*
G37*
%TD*%
%TO.C,C61*%
G36*
G01*
X223721100Y-94827200D02*
X223721100Y-94301200D01*
G75*
G02*
X223984100Y-94038200I263000J0D01*
G01*
X224635100Y-94038200D01*
G75*
G02*
X224898100Y-94301200I0J-263000D01*
G01*
X224898100Y-94827200D01*
G75*
G02*
X224635100Y-95090200I-263000J0D01*
G01*
X223984100Y-95090200D01*
G75*
G02*
X223721100Y-94827200I0J263000D01*
G01*
G37*
G36*
G01*
X225446100Y-94827200D02*
X225446100Y-94301200D01*
G75*
G02*
X225709100Y-94038200I263000J0D01*
G01*
X226360100Y-94038200D01*
G75*
G02*
X226623100Y-94301200I0J-263000D01*
G01*
X226623100Y-94827200D01*
G75*
G02*
X226360100Y-95090200I-263000J0D01*
G01*
X225709100Y-95090200D01*
G75*
G02*
X225446100Y-94827200I0J263000D01*
G01*
G37*
%TD*%
%TO.C,C66*%
G36*
G01*
X307857000Y-95891500D02*
X307331000Y-95891500D01*
G75*
G02*
X307068000Y-95628500I0J263000D01*
G01*
X307068000Y-94977500D01*
G75*
G02*
X307331000Y-94714500I263000J0D01*
G01*
X307857000Y-94714500D01*
G75*
G02*
X308120000Y-94977500I0J-263000D01*
G01*
X308120000Y-95628500D01*
G75*
G02*
X307857000Y-95891500I-263000J0D01*
G01*
G37*
G36*
G01*
X307857000Y-97616500D02*
X307331000Y-97616500D01*
G75*
G02*
X307068000Y-97353500I0J263000D01*
G01*
X307068000Y-96702500D01*
G75*
G02*
X307331000Y-96439500I263000J0D01*
G01*
X307857000Y-96439500D01*
G75*
G02*
X308120000Y-96702500I0J-263000D01*
G01*
X308120000Y-97353500D01*
G75*
G02*
X307857000Y-97616500I-263000J0D01*
G01*
G37*
%TD*%
%TO.C,C74*%
G36*
G01*
X310506000Y-77986400D02*
X311032000Y-77986400D01*
G75*
G02*
X311295000Y-78249400I0J-263000D01*
G01*
X311295000Y-78900400D01*
G75*
G02*
X311032000Y-79163400I-263000J0D01*
G01*
X310506000Y-79163400D01*
G75*
G02*
X310243000Y-78900400I0J263000D01*
G01*
X310243000Y-78249400D01*
G75*
G02*
X310506000Y-77986400I263000J0D01*
G01*
G37*
G36*
G01*
X310506000Y-79711400D02*
X311032000Y-79711400D01*
G75*
G02*
X311295000Y-79974400I0J-263000D01*
G01*
X311295000Y-80625400D01*
G75*
G02*
X311032000Y-80888400I-263000J0D01*
G01*
X310506000Y-80888400D01*
G75*
G02*
X310243000Y-80625400I0J263000D01*
G01*
X310243000Y-79974400D01*
G75*
G02*
X310506000Y-79711400I263000J0D01*
G01*
G37*
%TD*%
%TO.C,C90*%
G36*
G01*
X80069580Y-148483000D02*
X80595580Y-148483000D01*
G75*
G02*
X80858580Y-148746000I0J-263000D01*
G01*
X80858580Y-149397000D01*
G75*
G02*
X80595580Y-149660000I-263000J0D01*
G01*
X80069580Y-149660000D01*
G75*
G02*
X79806580Y-149397000I0J263000D01*
G01*
X79806580Y-148746000D01*
G75*
G02*
X80069580Y-148483000I263000J0D01*
G01*
G37*
G36*
G01*
X80069580Y-146758000D02*
X80595580Y-146758000D01*
G75*
G02*
X80858580Y-147021000I0J-263000D01*
G01*
X80858580Y-147672000D01*
G75*
G02*
X80595580Y-147935000I-263000J0D01*
G01*
X80069580Y-147935000D01*
G75*
G02*
X79806580Y-147672000I0J263000D01*
G01*
X79806580Y-147021000D01*
G75*
G02*
X80069580Y-146758000I263000J0D01*
G01*
G37*
%TD*%
%TO.C,C91*%
G36*
G01*
X80476200Y-139816000D02*
X79950200Y-139816000D01*
G75*
G02*
X79687200Y-139553000I0J263000D01*
G01*
X79687200Y-138902000D01*
G75*
G02*
X79950200Y-138639000I263000J0D01*
G01*
X80476200Y-138639000D01*
G75*
G02*
X80739200Y-138902000I0J-263000D01*
G01*
X80739200Y-139553000D01*
G75*
G02*
X80476200Y-139816000I-263000J0D01*
G01*
G37*
G36*
G01*
X80476200Y-138091000D02*
X79950200Y-138091000D01*
G75*
G02*
X79687200Y-137828000I0J263000D01*
G01*
X79687200Y-137177000D01*
G75*
G02*
X79950200Y-136914000I263000J0D01*
G01*
X80476200Y-136914000D01*
G75*
G02*
X80739200Y-137177000I0J-263000D01*
G01*
X80739200Y-137828000D01*
G75*
G02*
X80476200Y-138091000I-263000J0D01*
G01*
G37*
%TD*%
%TO.C,D1*%
G36*
G01*
X198007000Y-185390000D02*
X198007000Y-183590000D01*
G75*
G02*
X198058000Y-183539000I51000J0D01*
G01*
X199858000Y-183539000D01*
G75*
G02*
X199909000Y-183590000I0J-51000D01*
G01*
X199909000Y-185390000D01*
G75*
G02*
X199858000Y-185441000I-51000J0D01*
G01*
X198058000Y-185441000D01*
G75*
G02*
X198007000Y-185390000I0J51000D01*
G01*
G37*
D22*
X201498000Y-184490000D03*
%TD*%
%TO.C,D2*%
X160490000Y-184464000D03*
G36*
G01*
X156999000Y-185364000D02*
X156999000Y-183564000D01*
G75*
G02*
X157050000Y-183513000I51000J0D01*
G01*
X158850000Y-183513000D01*
G75*
G02*
X158901000Y-183564000I0J-51000D01*
G01*
X158901000Y-185364000D01*
G75*
G02*
X158850000Y-185415000I-51000J0D01*
G01*
X157050000Y-185415000D01*
G75*
G02*
X156999000Y-185364000I0J51000D01*
G01*
G37*
%TD*%
%TO.C,D5*%
G36*
G01*
X353296600Y-148760000D02*
X353296600Y-150960000D01*
G75*
G02*
X353245600Y-151011000I-51000J0D01*
G01*
X351045600Y-151011000D01*
G75*
G02*
X350994600Y-150960000I0J51000D01*
G01*
X350994600Y-148760000D01*
G75*
G02*
X351045600Y-148709000I51000J0D01*
G01*
X353245600Y-148709000D01*
G75*
G02*
X353296600Y-148760000I0J-51000D01*
G01*
G37*
D23*
X341985600Y-149860000D03*
%TD*%
%TO.C,D8*%
G36*
G01*
X340885000Y-113422000D02*
X340885000Y-111622000D01*
G75*
G02*
X340936000Y-111571000I51000J0D01*
G01*
X344436000Y-111571000D01*
G75*
G02*
X344487000Y-111622000I0J-51000D01*
G01*
X344487000Y-113422000D01*
G75*
G02*
X344436000Y-113473000I-51000J0D01*
G01*
X340936000Y-113473000D01*
G75*
G02*
X340885000Y-113422000I0J51000D01*
G01*
G37*
G36*
G01*
X345885000Y-113422000D02*
X345885000Y-111622000D01*
G75*
G02*
X345936000Y-111571000I51000J0D01*
G01*
X349436000Y-111571000D01*
G75*
G02*
X349487000Y-111622000I0J-51000D01*
G01*
X349487000Y-113422000D01*
G75*
G02*
X349436000Y-113473000I-51000J0D01*
G01*
X345936000Y-113473000D01*
G75*
G02*
X345885000Y-113422000I0J51000D01*
G01*
G37*
%TD*%
%TO.C,D11*%
G36*
G01*
X329065000Y-96182000D02*
X329065000Y-98382000D01*
G75*
G02*
X329014000Y-98433000I-51000J0D01*
G01*
X326814000Y-98433000D01*
G75*
G02*
X326763000Y-98382000I0J51000D01*
G01*
X326763000Y-96182000D01*
G75*
G02*
X326814000Y-96131000I51000J0D01*
G01*
X329014000Y-96131000D01*
G75*
G02*
X329065000Y-96182000I0J-51000D01*
G01*
G37*
X317754000Y-97282000D03*
%TD*%
%TO.C,D12*%
X317754000Y-91694000D03*
G36*
G01*
X329065000Y-90594000D02*
X329065000Y-92794000D01*
G75*
G02*
X329014000Y-92845000I-51000J0D01*
G01*
X326814000Y-92845000D01*
G75*
G02*
X326763000Y-92794000I0J51000D01*
G01*
X326763000Y-90594000D01*
G75*
G02*
X326814000Y-90543000I51000J0D01*
G01*
X329014000Y-90543000D01*
G75*
G02*
X329065000Y-90594000I0J-51000D01*
G01*
G37*
%TD*%
%TO.C,J2*%
G36*
G01*
X131109000Y-209860000D02*
X131109000Y-207360000D01*
G75*
G02*
X131160000Y-207309000I51000J0D01*
G01*
X133660000Y-207309000D01*
G75*
G02*
X133711000Y-207360000I0J-51000D01*
G01*
X133711000Y-209860000D01*
G75*
G02*
X133660000Y-209911000I-51000J0D01*
G01*
X131160000Y-209911000D01*
G75*
G02*
X131109000Y-209860000I0J51000D01*
G01*
G37*
D24*
X137410000Y-208610000D03*
%TD*%
%TO.C,J5*%
G36*
G01*
X345764600Y-173716000D02*
X345764600Y-171216000D01*
G75*
G02*
X345815600Y-171165000I51000J0D01*
G01*
X348315600Y-171165000D01*
G75*
G02*
X348366600Y-171216000I0J-51000D01*
G01*
X348366600Y-173716000D01*
G75*
G02*
X348315600Y-173767000I-51000J0D01*
G01*
X345815600Y-173767000D01*
G75*
G02*
X345764600Y-173716000I0J51000D01*
G01*
G37*
X352065600Y-172466000D03*
%TD*%
%TO.C,J7*%
G36*
G01*
X339313000Y-140696000D02*
X339313000Y-138196000D01*
G75*
G02*
X339364000Y-138145000I51000J0D01*
G01*
X341864000Y-138145000D01*
G75*
G02*
X341915000Y-138196000I0J-51000D01*
G01*
X341915000Y-140696000D01*
G75*
G02*
X341864000Y-140747000I-51000J0D01*
G01*
X339364000Y-140747000D01*
G75*
G02*
X339313000Y-140696000I0J51000D01*
G01*
G37*
X345614000Y-139446000D03*
X350614000Y-139446000D03*
%TD*%
D25*
%TO.C,J9*%
X321564000Y-79756000D03*
X324104000Y-79756000D03*
X326644000Y-79756000D03*
%TD*%
%TO.C,R3*%
G36*
G01*
X225247200Y-144325648D02*
X225247200Y-145285152D01*
G75*
G02*
X224975952Y-145556400I-271248J0D01*
G01*
X224216448Y-145556400D01*
G75*
G02*
X223945200Y-145285152I0J271248D01*
G01*
X223945200Y-144325648D01*
G75*
G02*
X224216448Y-144054400I271248J0D01*
G01*
X224975952Y-144054400D01*
G75*
G02*
X225247200Y-144325648I0J-271248D01*
G01*
G37*
G36*
G01*
X223247200Y-144325648D02*
X223247200Y-145285152D01*
G75*
G02*
X222975952Y-145556400I-271248J0D01*
G01*
X222216448Y-145556400D01*
G75*
G02*
X221945200Y-145285152I0J271248D01*
G01*
X221945200Y-144325648D01*
G75*
G02*
X222216448Y-144054400I271248J0D01*
G01*
X222975952Y-144054400D01*
G75*
G02*
X223247200Y-144325648I0J-271248D01*
G01*
G37*
%TD*%
%TO.C,R6*%
G36*
G01*
X217935600Y-144338448D02*
X217935600Y-145297952D01*
G75*
G02*
X217664352Y-145569200I-271248J0D01*
G01*
X216904848Y-145569200D01*
G75*
G02*
X216633600Y-145297952I0J271248D01*
G01*
X216633600Y-144338448D01*
G75*
G02*
X216904848Y-144067200I271248J0D01*
G01*
X217664352Y-144067200D01*
G75*
G02*
X217935600Y-144338448I0J-271248D01*
G01*
G37*
G36*
G01*
X219935600Y-144338448D02*
X219935600Y-145297952D01*
G75*
G02*
X219664352Y-145569200I-271248J0D01*
G01*
X218904848Y-145569200D01*
G75*
G02*
X218633600Y-145297952I0J271248D01*
G01*
X218633600Y-144338448D01*
G75*
G02*
X218904848Y-144067200I271248J0D01*
G01*
X219664352Y-144067200D01*
G75*
G02*
X219935600Y-144338448I0J-271248D01*
G01*
G37*
%TD*%
%TO.C,R7*%
G36*
G01*
X223859600Y-114074248D02*
X223859600Y-115033752D01*
G75*
G02*
X223588352Y-115305000I-271248J0D01*
G01*
X222828848Y-115305000D01*
G75*
G02*
X222557600Y-115033752I0J271248D01*
G01*
X222557600Y-114074248D01*
G75*
G02*
X222828848Y-113803000I271248J0D01*
G01*
X223588352Y-113803000D01*
G75*
G02*
X223859600Y-114074248I0J-271248D01*
G01*
G37*
G36*
G01*
X221859600Y-114074248D02*
X221859600Y-115033752D01*
G75*
G02*
X221588352Y-115305000I-271248J0D01*
G01*
X220828848Y-115305000D01*
G75*
G02*
X220557600Y-115033752I0J271248D01*
G01*
X220557600Y-114074248D01*
G75*
G02*
X220828848Y-113803000I271248J0D01*
G01*
X221588352Y-113803000D01*
G75*
G02*
X221859600Y-114074248I0J-271248D01*
G01*
G37*
%TD*%
%TO.C,R8*%
G36*
G01*
X216919400Y-114074248D02*
X216919400Y-115033752D01*
G75*
G02*
X216648152Y-115305000I-271248J0D01*
G01*
X215888648Y-115305000D01*
G75*
G02*
X215617400Y-115033752I0J271248D01*
G01*
X215617400Y-114074248D01*
G75*
G02*
X215888648Y-113803000I271248J0D01*
G01*
X216648152Y-113803000D01*
G75*
G02*
X216919400Y-114074248I0J-271248D01*
G01*
G37*
G36*
G01*
X218919400Y-114074248D02*
X218919400Y-115033752D01*
G75*
G02*
X218648152Y-115305000I-271248J0D01*
G01*
X217888648Y-115305000D01*
G75*
G02*
X217617400Y-115033752I0J271248D01*
G01*
X217617400Y-114074248D01*
G75*
G02*
X217888648Y-113803000I271248J0D01*
G01*
X218648152Y-113803000D01*
G75*
G02*
X218919400Y-114074248I0J-271248D01*
G01*
G37*
%TD*%
%TO.C,R14*%
G36*
G01*
X72466200Y-174304752D02*
X72466200Y-173345248D01*
G75*
G02*
X72737448Y-173074000I271248J0D01*
G01*
X73496952Y-173074000D01*
G75*
G02*
X73768200Y-173345248I0J-271248D01*
G01*
X73768200Y-174304752D01*
G75*
G02*
X73496952Y-174576000I-271248J0D01*
G01*
X72737448Y-174576000D01*
G75*
G02*
X72466200Y-174304752I0J271248D01*
G01*
G37*
G36*
G01*
X74466200Y-174304752D02*
X74466200Y-173345248D01*
G75*
G02*
X74737448Y-173074000I271248J0D01*
G01*
X75496952Y-173074000D01*
G75*
G02*
X75768200Y-173345248I0J-271248D01*
G01*
X75768200Y-174304752D01*
G75*
G02*
X75496952Y-174576000I-271248J0D01*
G01*
X74737448Y-174576000D01*
G75*
G02*
X74466200Y-174304752I0J271248D01*
G01*
G37*
%TD*%
%TO.C,R15*%
G36*
G01*
X65090800Y-177218248D02*
X65090800Y-178177752D01*
G75*
G02*
X64819552Y-178449000I-271248J0D01*
G01*
X64060048Y-178449000D01*
G75*
G02*
X63788800Y-178177752I0J271248D01*
G01*
X63788800Y-177218248D01*
G75*
G02*
X64060048Y-176947000I271248J0D01*
G01*
X64819552Y-176947000D01*
G75*
G02*
X65090800Y-177218248I0J-271248D01*
G01*
G37*
G36*
G01*
X67090800Y-177218248D02*
X67090800Y-178177752D01*
G75*
G02*
X66819552Y-178449000I-271248J0D01*
G01*
X66060048Y-178449000D01*
G75*
G02*
X65788800Y-178177752I0J271248D01*
G01*
X65788800Y-177218248D01*
G75*
G02*
X66060048Y-176947000I271248J0D01*
G01*
X66819552Y-176947000D01*
G75*
G02*
X67090800Y-177218248I0J-271248D01*
G01*
G37*
%TD*%
D26*
%TO.C,R23*%
X342239600Y-172466000D03*
D27*
X342239600Y-162306000D03*
%TD*%
%TO.C,R27*%
X341985600Y-153416000D03*
D26*
X352145600Y-153416000D03*
%TD*%
%TO.C,R57*%
X313436000Y-97028000D03*
D27*
X313436000Y-86868000D03*
%TD*%
%TO.C,R60*%
G36*
G01*
X307114248Y-79867000D02*
X308073752Y-79867000D01*
G75*
G02*
X308345000Y-80138248I0J-271248D01*
G01*
X308345000Y-80897752D01*
G75*
G02*
X308073752Y-81169000I-271248J0D01*
G01*
X307114248Y-81169000D01*
G75*
G02*
X306843000Y-80897752I0J271248D01*
G01*
X306843000Y-80138248D01*
G75*
G02*
X307114248Y-79867000I271248J0D01*
G01*
G37*
G36*
G01*
X307114248Y-77867000D02*
X308073752Y-77867000D01*
G75*
G02*
X308345000Y-78138248I0J-271248D01*
G01*
X308345000Y-78897752D01*
G75*
G02*
X308073752Y-79169000I-271248J0D01*
G01*
X307114248Y-79169000D01*
G75*
G02*
X306843000Y-78897752I0J271248D01*
G01*
X306843000Y-78138248D01*
G75*
G02*
X307114248Y-77867000I271248J0D01*
G01*
G37*
%TD*%
%TO.C,R61*%
X318008000Y-86614000D03*
D26*
X328168000Y-86614000D03*
%TD*%
%TO.C,R74*%
G36*
G01*
X166481452Y-178044600D02*
X165521948Y-178044600D01*
G75*
G02*
X165250700Y-177773352I0J271248D01*
G01*
X165250700Y-177013848D01*
G75*
G02*
X165521948Y-176742600I271248J0D01*
G01*
X166481452Y-176742600D01*
G75*
G02*
X166752700Y-177013848I0J-271248D01*
G01*
X166752700Y-177773352D01*
G75*
G02*
X166481452Y-178044600I-271248J0D01*
G01*
G37*
G36*
G01*
X166481452Y-176044600D02*
X165521948Y-176044600D01*
G75*
G02*
X165250700Y-175773352I0J271248D01*
G01*
X165250700Y-175013848D01*
G75*
G02*
X165521948Y-174742600I271248J0D01*
G01*
X166481452Y-174742600D01*
G75*
G02*
X166752700Y-175013848I0J-271248D01*
G01*
X166752700Y-175773352D01*
G75*
G02*
X166481452Y-176044600I-271248J0D01*
G01*
G37*
%TD*%
%TO.C,R75*%
G36*
G01*
X169537072Y-178044600D02*
X168577568Y-178044600D01*
G75*
G02*
X168306320Y-177773352I0J271248D01*
G01*
X168306320Y-177013848D01*
G75*
G02*
X168577568Y-176742600I271248J0D01*
G01*
X169537072Y-176742600D01*
G75*
G02*
X169808320Y-177013848I0J-271248D01*
G01*
X169808320Y-177773352D01*
G75*
G02*
X169537072Y-178044600I-271248J0D01*
G01*
G37*
G36*
G01*
X169537072Y-176044600D02*
X168577568Y-176044600D01*
G75*
G02*
X168306320Y-175773352I0J271248D01*
G01*
X168306320Y-175013848D01*
G75*
G02*
X168577568Y-174742600I271248J0D01*
G01*
X169537072Y-174742600D01*
G75*
G02*
X169808320Y-175013848I0J-271248D01*
G01*
X169808320Y-175773352D01*
G75*
G02*
X169537072Y-176044600I-271248J0D01*
G01*
G37*
%TD*%
%TO.C,R76*%
G36*
G01*
X181759552Y-176044600D02*
X180800048Y-176044600D01*
G75*
G02*
X180528800Y-175773352I0J271248D01*
G01*
X180528800Y-175013848D01*
G75*
G02*
X180800048Y-174742600I271248J0D01*
G01*
X181759552Y-174742600D01*
G75*
G02*
X182030800Y-175013848I0J-271248D01*
G01*
X182030800Y-175773352D01*
G75*
G02*
X181759552Y-176044600I-271248J0D01*
G01*
G37*
G36*
G01*
X181759552Y-178044600D02*
X180800048Y-178044600D01*
G75*
G02*
X180528800Y-177773352I0J271248D01*
G01*
X180528800Y-177013848D01*
G75*
G02*
X180800048Y-176742600I271248J0D01*
G01*
X181759552Y-176742600D01*
G75*
G02*
X182030800Y-177013848I0J-271248D01*
G01*
X182030800Y-177773352D01*
G75*
G02*
X181759552Y-178044600I-271248J0D01*
G01*
G37*
%TD*%
%TO.C,R77*%
G36*
G01*
X178703932Y-178044600D02*
X177744428Y-178044600D01*
G75*
G02*
X177473180Y-177773352I0J271248D01*
G01*
X177473180Y-177013848D01*
G75*
G02*
X177744428Y-176742600I271248J0D01*
G01*
X178703932Y-176742600D01*
G75*
G02*
X178975180Y-177013848I0J-271248D01*
G01*
X178975180Y-177773352D01*
G75*
G02*
X178703932Y-178044600I-271248J0D01*
G01*
G37*
G36*
G01*
X178703932Y-176044600D02*
X177744428Y-176044600D01*
G75*
G02*
X177473180Y-175773352I0J271248D01*
G01*
X177473180Y-175013848D01*
G75*
G02*
X177744428Y-174742600I271248J0D01*
G01*
X178703932Y-174742600D01*
G75*
G02*
X178975180Y-175013848I0J-271248D01*
G01*
X178975180Y-175773352D01*
G75*
G02*
X178703932Y-176044600I-271248J0D01*
G01*
G37*
%TD*%
%TO.C,R78*%
G36*
G01*
X175648312Y-176044600D02*
X174688808Y-176044600D01*
G75*
G02*
X174417560Y-175773352I0J271248D01*
G01*
X174417560Y-175013848D01*
G75*
G02*
X174688808Y-174742600I271248J0D01*
G01*
X175648312Y-174742600D01*
G75*
G02*
X175919560Y-175013848I0J-271248D01*
G01*
X175919560Y-175773352D01*
G75*
G02*
X175648312Y-176044600I-271248J0D01*
G01*
G37*
G36*
G01*
X175648312Y-178044600D02*
X174688808Y-178044600D01*
G75*
G02*
X174417560Y-177773352I0J271248D01*
G01*
X174417560Y-177013848D01*
G75*
G02*
X174688808Y-176742600I271248J0D01*
G01*
X175648312Y-176742600D01*
G75*
G02*
X175919560Y-177013848I0J-271248D01*
G01*
X175919560Y-177773352D01*
G75*
G02*
X175648312Y-178044600I-271248J0D01*
G01*
G37*
%TD*%
%TO.C,R79*%
G36*
G01*
X172592692Y-178044600D02*
X171633188Y-178044600D01*
G75*
G02*
X171361940Y-177773352I0J271248D01*
G01*
X171361940Y-177013848D01*
G75*
G02*
X171633188Y-176742600I271248J0D01*
G01*
X172592692Y-176742600D01*
G75*
G02*
X172863940Y-177013848I0J-271248D01*
G01*
X172863940Y-177773352D01*
G75*
G02*
X172592692Y-178044600I-271248J0D01*
G01*
G37*
G36*
G01*
X172592692Y-176044600D02*
X171633188Y-176044600D01*
G75*
G02*
X171361940Y-175773352I0J271248D01*
G01*
X171361940Y-175013848D01*
G75*
G02*
X171633188Y-174742600I271248J0D01*
G01*
X172592692Y-174742600D01*
G75*
G02*
X172863940Y-175013848I0J-271248D01*
G01*
X172863940Y-175773352D01*
G75*
G02*
X172592692Y-176044600I-271248J0D01*
G01*
G37*
%TD*%
%TO.C,RL1*%
G36*
G01*
X340202000Y-107295000D02*
X340202000Y-104795000D01*
G75*
G02*
X340253000Y-104744000I51000J0D01*
G01*
X342753000Y-104744000D01*
G75*
G02*
X342804000Y-104795000I0J-51000D01*
G01*
X342804000Y-107295000D01*
G75*
G02*
X342753000Y-107346000I-51000J0D01*
G01*
X340253000Y-107346000D01*
G75*
G02*
X340202000Y-107295000I0J51000D01*
G01*
G37*
D28*
X341503000Y-121045000D03*
X341503000Y-126045000D03*
X341503000Y-131045000D03*
X349003000Y-131045000D03*
X349003000Y-126045000D03*
X349003000Y-121045000D03*
X349003000Y-106045000D03*
%TD*%
D29*
%TO.C,SW1*%
X332207000Y-175115000D03*
X329667000Y-175095000D03*
%TD*%
%TO.C,SW2*%
X310172000Y-175115000D03*
X307632000Y-175095000D03*
%TD*%
%TO.C,SW3*%
X287947000Y-175115000D03*
X285407000Y-175095000D03*
%TD*%
%TO.C,SW4*%
X265874000Y-175115000D03*
X263334000Y-175095000D03*
%TD*%
%TO.C,SW5*%
X241262000Y-175095000D03*
X243802000Y-175115000D03*
%TD*%
%TO.C,SW6*%
X219253000Y-175095000D03*
X221793000Y-175115000D03*
%TD*%
%TO.C,U1*%
G36*
G01*
X268009000Y-165164000D02*
X266509000Y-165164000D01*
G75*
G02*
X266458000Y-165113000I0J51000D01*
G01*
X266458000Y-163613000D01*
G75*
G02*
X266509000Y-163562000I51000J0D01*
G01*
X268009000Y-163562000D01*
G75*
G02*
X268060000Y-163613000I0J-51000D01*
G01*
X268060000Y-165113000D01*
G75*
G02*
X268009000Y-165164000I-51000J0D01*
G01*
G37*
D21*
X264719000Y-164363000D03*
X262179000Y-164363000D03*
X259639000Y-164363000D03*
X257099000Y-164363000D03*
X254559000Y-164363000D03*
X254559000Y-149123000D03*
X257099000Y-149123000D03*
X259639000Y-149123000D03*
X262179000Y-149123000D03*
X264719000Y-149123000D03*
X267259000Y-149123000D03*
%TD*%
D30*
%TO.C,U5*%
X247637000Y-105600000D03*
X245097000Y-105600000D03*
X242557000Y-105600000D03*
X240017000Y-105600000D03*
X237477000Y-105600000D03*
X237477000Y-120840000D03*
X240017000Y-120840000D03*
X242557000Y-120840000D03*
X245097000Y-120840000D03*
G36*
G01*
X248450000Y-119578000D02*
X248450000Y-122102000D01*
G75*
G02*
X248399000Y-122153000I-51000J0D01*
G01*
X246875000Y-122153000D01*
G75*
G02*
X246824000Y-122102000I0J51000D01*
G01*
X246824000Y-119578000D01*
G75*
G02*
X246875000Y-119527000I51000J0D01*
G01*
X248399000Y-119527000D01*
G75*
G02*
X248450000Y-119578000I0J-51000D01*
G01*
G37*
%TD*%
%TO.C,U7*%
G36*
G01*
X292629000Y-121743000D02*
X291129000Y-121743000D01*
G75*
G02*
X291078000Y-121692000I0J51000D01*
G01*
X291078000Y-120192000D01*
G75*
G02*
X291129000Y-120141000I51000J0D01*
G01*
X292629000Y-120141000D01*
G75*
G02*
X292680000Y-120192000I0J-51000D01*
G01*
X292680000Y-121692000D01*
G75*
G02*
X292629000Y-121743000I-51000J0D01*
G01*
G37*
D21*
X289339000Y-120942000D03*
X286799000Y-120942000D03*
X284259000Y-120942000D03*
X281719000Y-120942000D03*
X279179000Y-120942000D03*
X279179000Y-105702000D03*
X281719000Y-105702000D03*
X284259000Y-105702000D03*
X286799000Y-105702000D03*
X289339000Y-105702000D03*
X291879000Y-105702000D03*
%TD*%
%TO.C,C50*%
G36*
G01*
X134981800Y-138375500D02*
X134981800Y-137849500D01*
G75*
G02*
X135244800Y-137586500I263000J0D01*
G01*
X135895800Y-137586500D01*
G75*
G02*
X136158800Y-137849500I0J-263000D01*
G01*
X136158800Y-138375500D01*
G75*
G02*
X135895800Y-138638500I-263000J0D01*
G01*
X135244800Y-138638500D01*
G75*
G02*
X134981800Y-138375500I0J263000D01*
G01*
G37*
G36*
G01*
X133256800Y-138375500D02*
X133256800Y-137849500D01*
G75*
G02*
X133519800Y-137586500I263000J0D01*
G01*
X134170800Y-137586500D01*
G75*
G02*
X134433800Y-137849500I0J-263000D01*
G01*
X134433800Y-138375500D01*
G75*
G02*
X134170800Y-138638500I-263000J0D01*
G01*
X133519800Y-138638500D01*
G75*
G02*
X133256800Y-138375500I0J263000D01*
G01*
G37*
%TD*%
%TO.C,J12*%
G36*
G01*
X67094800Y-158140000D02*
X67094800Y-156440000D01*
G75*
G02*
X67145800Y-156389000I51000J0D01*
G01*
X68845800Y-156389000D01*
G75*
G02*
X68896800Y-156440000I0J-51000D01*
G01*
X68896800Y-158140000D01*
G75*
G02*
X68845800Y-158191000I-51000J0D01*
G01*
X67145800Y-158191000D01*
G75*
G02*
X67094800Y-158140000I0J51000D01*
G01*
G37*
%TD*%
D31*
X127574040Y-193697860D03*
D17*
X98107500Y-143471900D03*
X99707500Y-143471900D03*
X98107500Y-145071900D03*
X99707500Y-145071900D03*
D31*
X90220800Y-134378700D03*
D32*
X102158800Y-156248100D03*
X103428800Y-152006300D03*
X111252000Y-143548100D03*
D31*
X97205800Y-179781200D03*
X98069400Y-170789600D03*
X96774000Y-164033200D03*
D32*
X96012000Y-127939800D03*
D31*
X96088200Y-134366000D03*
D32*
X96240600Y-152044400D03*
D17*
X147320000Y-154000200D03*
X133832600Y-116967000D03*
X138988800Y-116967000D03*
D31*
X155117800Y-146608800D03*
X148910000Y-160957300D03*
D17*
X139928600Y-161010600D03*
D31*
X121920000Y-156921200D03*
X121767600Y-153593800D03*
X121767600Y-148996400D03*
X121843800Y-143967200D03*
D17*
X121894600Y-141605000D03*
D31*
X121894600Y-146532600D03*
D17*
X187198000Y-207594200D03*
X183057800Y-207594200D03*
X176834800Y-204673200D03*
X174040800Y-201904600D03*
D31*
X168503600Y-185877200D03*
X165023800Y-183032400D03*
X166700200Y-192887600D03*
X157556200Y-200634600D03*
D17*
X173964600Y-194665600D03*
X162077400Y-199059800D03*
D31*
X167436800Y-198475600D03*
X172897800Y-180797200D03*
X151434800Y-202057000D03*
X133477000Y-194691000D03*
X129286000Y-196672200D03*
X125501400Y-201422000D03*
X99110800Y-205790800D03*
X121640600Y-195072000D03*
X140335000Y-194411600D03*
X126873000Y-131165600D03*
X127076200Y-127558800D03*
D17*
X134645400Y-128092200D03*
X137185400Y-115925600D03*
X130581400Y-97256600D03*
D31*
X130657300Y-107696300D03*
D17*
X153365200Y-127609600D03*
X153365200Y-130860800D03*
X216357200Y-172618400D03*
X238810800Y-172618400D03*
X260350000Y-172516800D03*
X305054000Y-172466000D03*
X326999600Y-172516800D03*
X282651200Y-172567600D03*
D31*
X330504800Y-113487200D03*
X296621200Y-84480400D03*
D32*
X293624000Y-96469200D03*
X297027600Y-96469200D03*
D31*
X320192400Y-123190000D03*
X323646800Y-154381200D03*
X327202800Y-154381200D03*
X224180400Y-137261600D03*
D17*
X187655200Y-190677800D03*
D31*
X227863400Y-94564200D03*
D17*
X207645000Y-93903800D03*
D31*
X222885000Y-106527600D03*
X216535000Y-106527600D03*
X217297000Y-122453400D03*
D17*
X154609800Y-121589800D03*
X154609800Y-118364000D03*
X137096500Y-138099800D03*
X140347700Y-136512300D03*
D31*
X155117800Y-141630400D03*
X147688300Y-143484600D03*
X130898900Y-129425700D03*
X120281700Y-134239000D03*
D17*
X159943800Y-143484600D03*
X86296500Y-152323800D03*
X167652700Y-204508100D03*
X194716400Y-159804100D03*
X168211500Y-133997700D03*
X181356000Y-140944600D03*
X194665600Y-164541200D03*
X169862500Y-103416100D03*
X221665800Y-102641400D03*
X169875200Y-118922800D03*
X172466000Y-118922800D03*
X177558700Y-119519700D03*
X179578000Y-118960900D03*
X182537100Y-121869200D03*
X180416200Y-122072400D03*
X183794400Y-118960900D03*
X187998100Y-118960900D03*
X192697100Y-118986300D03*
X262712200Y-120916700D03*
X233057700Y-119900700D03*
X136436100Y-121551700D03*
X137109200Y-111023400D03*
X239788700Y-159943800D03*
X239763300Y-151396700D03*
X198653400Y-148945600D03*
X198628000Y-145529300D03*
X206019400Y-139928600D03*
X185661300Y-146304000D03*
X256743200Y-145796000D03*
D31*
X128778200Y-208610000D03*
X123507700Y-208610000D03*
X121564600Y-208610000D03*
X119583400Y-208610000D03*
X112852400Y-208610000D03*
X114947900Y-208610000D03*
X117322800Y-208610000D03*
X110668000Y-210172100D03*
X110668000Y-208559200D03*
D17*
X137706100Y-151638000D03*
X145288000Y-122199400D03*
X95631000Y-190474600D03*
X98107500Y-190474600D03*
X91567000Y-190474600D03*
X131191000Y-137020300D03*
X145008600Y-148272500D03*
X96443800Y-139534900D03*
X102057200Y-147459700D03*
X102171500Y-141655800D03*
X159880300Y-203962000D03*
X197802500Y-181229000D03*
D31*
X125387300Y-208610000D03*
X127190700Y-208610000D03*
X129024380Y-193697860D03*
X146176800Y-190932000D03*
D17*
X157378400Y-196342000D03*
D31*
X125145800Y-135966200D03*
D17*
X81125060Y-150655020D03*
X81419700Y-136298940D03*
X156903420Y-175541940D03*
X161836100Y-202049380D03*
X177822860Y-160149540D03*
X135356600Y-154335480D03*
X135839200Y-162433000D03*
X133045200Y-126593600D03*
D31*
X141274800Y-129692400D03*
D17*
X143535400Y-95834200D03*
D31*
X155067000Y-135153400D03*
D17*
X172389800Y-102463600D03*
X177241200Y-102819200D03*
X185166000Y-102616000D03*
X192760600Y-102514400D03*
X231292400Y-121615200D03*
X284073600Y-123698000D03*
D31*
X293649400Y-84429600D03*
X218109800Y-137287000D03*
X220218000Y-151866600D03*
D17*
X239801400Y-163398200D03*
X239776000Y-165074600D03*
X89598500Y-157010100D03*
D31*
X87795100Y-144703800D03*
D17*
X99364800Y-151752300D03*
X217944700Y-146913600D03*
X137744200Y-127266700D03*
D31*
X221945200Y-151866600D03*
X190958601Y-180465599D03*
X221970600Y-121691400D03*
D17*
X220751400Y-116408200D03*
X222453200Y-146761200D03*
D31*
X190957200Y-177723800D03*
X190957873Y-179043927D03*
X104521000Y-170459400D03*
D32*
X92405200Y-127914400D03*
D31*
X106349600Y-204267000D03*
X108584800Y-204267000D03*
X107467200Y-204267000D03*
X102235000Y-205486000D03*
X102209600Y-202920600D03*
X104368000Y-207695200D03*
X104368000Y-200889200D03*
D32*
X112179100Y-144665700D03*
D17*
X110921800Y-148691600D03*
D32*
X108991400Y-134213600D03*
D31*
X153365200Y-146608800D03*
X148907500Y-159207200D03*
X126060200Y-156921200D03*
X124968000Y-150317200D03*
X161696400Y-206298800D03*
X154101800Y-205105000D03*
X151409400Y-200355200D03*
D17*
X122631200Y-188849000D03*
D31*
X123850400Y-190093600D03*
X123850400Y-194665600D03*
X133905000Y-192418000D03*
X134992600Y-193505600D03*
X136110200Y-194623200D03*
X134992600Y-194597800D03*
X128701800Y-123926600D03*
X138582400Y-112699800D03*
D17*
X128854200Y-97231200D03*
D31*
X128930400Y-107670600D03*
D17*
X151257000Y-133197600D03*
X169062400Y-179298600D03*
X181317900Y-179171600D03*
D31*
X153390600Y-141605000D03*
X122631200Y-195859400D03*
X135001000Y-192455800D03*
D17*
X157581600Y-195389500D03*
D31*
X125755400Y-138722100D03*
D17*
X148564600Y-118338600D03*
X148564600Y-121666000D03*
X134475759Y-132474239D03*
X134932642Y-158242111D03*
X142547340Y-160213040D03*
D31*
X139852400Y-129667000D03*
D17*
X143535400Y-94107000D03*
X153390600Y-135178800D03*
D31*
X124975620Y-145270220D03*
D17*
X305396900Y-78524100D03*
X165989000Y-173113700D03*
X137312400Y-173507400D03*
X136575800Y-157904180D03*
X169059860Y-172473300D03*
X137736580Y-172582840D03*
X137144760Y-158689040D03*
X181282340Y-170793380D03*
X140807440Y-169834560D03*
X140103860Y-158150560D03*
X178513740Y-171568390D03*
X139915900Y-170548540D03*
X139878599Y-160103820D03*
X175953059Y-171928121D03*
X138572240Y-171198540D03*
X138444760Y-161010600D03*
X172118020Y-171823300D03*
X138559540Y-172161200D03*
X137794760Y-159443839D03*
X94672787Y-145841497D03*
X90967560Y-142384780D03*
X86512400Y-144564100D03*
X90982800Y-145592800D03*
X90957400Y-148767800D03*
X95357030Y-145158834D03*
X93064900Y-142623540D03*
X171043600Y-195630800D03*
X162077400Y-195630800D03*
X165186360Y-199318880D03*
X170855640Y-197563740D03*
X165328600Y-196773800D03*
X171043600Y-198602600D03*
X162102800Y-200837800D03*
X171069000Y-200837800D03*
X86207600Y-137629900D03*
X98032600Y-147739600D03*
X142176500Y-132892800D03*
X142951200Y-131546600D03*
X144129760Y-154277060D03*
X145158460Y-154325320D03*
X134929880Y-148656040D03*
X135528598Y-150596600D03*
X136061399Y-170412359D03*
X136184640Y-147190460D03*
X145135600Y-136423400D03*
X146052540Y-136420860D03*
X147015200Y-136431020D03*
X149098000Y-132943600D03*
X157353000Y-133197600D03*
X157353000Y-83302400D03*
X151231600Y-134289800D03*
X158635700Y-174241460D03*
X149936200Y-134277100D03*
X157850840Y-175242220D03*
X219583000Y-146761200D03*
X218465400Y-116382800D03*
X164007001Y-82652399D03*
X163830000Y-139293600D03*
X139496800Y-132537200D03*
X132943600Y-116255800D03*
X131902200Y-117017800D03*
X135681720Y-136141460D03*
X305587400Y-92036900D03*
X305562000Y-80505300D03*
X128244600Y-133426200D03*
X102834440Y-138904980D03*
X127000000Y-132435600D03*
X121767600Y-132435600D03*
X226771200Y-134150100D03*
X227495100Y-137248900D03*
X208991200Y-109556400D03*
X210667600Y-139776200D03*
X208991200Y-136804400D03*
X211683600Y-121361200D03*
X211963000Y-148920200D03*
X211983599Y-135986799D03*
X229438200Y-111658400D03*
X229440000Y-148998200D03*
X224155000Y-151434800D03*
X224155000Y-165684200D03*
X228067003Y-151395203D03*
X228071511Y-166413011D03*
X225425000Y-151460200D03*
X225552000Y-166979600D03*
X223443800Y-152831800D03*
X223443800Y-155158200D03*
X222783100Y-165113000D03*
X218465400Y-152095200D03*
X230225600Y-142163800D03*
X230861000Y-164363000D03*
X217246200Y-151790400D03*
X216179400Y-152958800D03*
X252984000Y-154559000D03*
X227101400Y-141503400D03*
X226288600Y-155956000D03*
X245084600Y-124739400D03*
X199034400Y-117558201D03*
X199034400Y-114604800D03*
X223824800Y-120675400D03*
X222605600Y-116281200D03*
X223824800Y-124968000D03*
X194716400Y-116958201D03*
X237477300Y-125984000D03*
X191414400Y-100127601D03*
X213227210Y-100077600D03*
X237490000Y-100061000D03*
X214680800Y-120091200D03*
X193954400Y-100727600D03*
X213944200Y-100711000D03*
X214122000Y-116357400D03*
X240004600Y-100711000D03*
X212979000Y-120243600D03*
X249732800Y-119240300D03*
X212979000Y-124103412D03*
X245103799Y-101377601D03*
X214595000Y-101377601D03*
X215265000Y-116331199D03*
X224510600Y-110921800D03*
X228727000Y-124125410D03*
X217805000Y-106527600D03*
X217805000Y-99411000D03*
X224258722Y-103227722D03*
X215265000Y-106527600D03*
X116027200Y-147370800D03*
X98501200Y-140589000D03*
X154406600Y-195168001D03*
X152146000Y-153670000D03*
X151744680Y-188815980D03*
X148209000Y-152501600D03*
X151726900Y-152501600D03*
X152488900Y-189979300D03*
X156946600Y-191338200D03*
X152952410Y-152266610D03*
X147701000Y-139801600D03*
X142646400Y-110921800D03*
X146507200Y-139776200D03*
X153578634Y-196839766D03*
X101830035Y-139320435D03*
X130070034Y-139620434D03*
X97536000Y-140944600D03*
X128371600Y-155346400D03*
X96443800Y-140944600D03*
X128574800Y-157530800D03*
X153898600Y-193497200D03*
X142968082Y-158874687D03*
X153152400Y-191643000D03*
X143490000Y-158087162D03*
X154559000Y-151320500D03*
X159390080Y-191706500D03*
X155409900Y-150520400D03*
X160741360Y-190573660D03*
X158541559Y-191326239D03*
X153441400Y-138850000D03*
X161544000Y-194233800D03*
X142057120Y-157827980D03*
X161036000Y-193042540D03*
X157497780Y-193431160D03*
X142671800Y-154368500D03*
X132562600Y-143522700D03*
X131279900Y-144843500D03*
X133261100Y-136555480D03*
X127127000Y-159232600D03*
X127838200Y-159918400D03*
X326466200Y-109651800D03*
X293494700Y-111709200D03*
X158546800Y-81902300D03*
X158978600Y-133858000D03*
X295046400Y-97015300D03*
D31*
X291795200Y-100914200D03*
D17*
X295046400Y-85064600D03*
X290855400Y-89585800D03*
X128524000Y-160655000D03*
D31*
X163918900Y-186982100D03*
X312940700Y-123190000D03*
X321919600Y-150507700D03*
X76758800Y-173786800D03*
X74066400Y-180213000D03*
X83134200Y-171856400D03*
X83134200Y-179476400D03*
X76987400Y-171424600D03*
X74117200Y-175209200D03*
D17*
X80975200Y-140741400D03*
X89535000Y-151968200D03*
X92354400Y-151968200D03*
X96558100Y-147751399D03*
X80810100Y-145910300D03*
X305574700Y-90474800D03*
D31*
X304952400Y-93319600D03*
X312407300Y-80302100D03*
X305003200Y-81686400D03*
X307594000Y-98755200D03*
D33*
G36*
X108099948Y-204154810D02*
G01*
X108100450Y-204156567D01*
X108088212Y-204218092D01*
X108088212Y-204315908D01*
X108100451Y-204377433D01*
X108099808Y-204379327D01*
X108097846Y-204379717D01*
X108096575Y-204378404D01*
X108093433Y-204368049D01*
X108086688Y-204355429D01*
X108077612Y-204344369D01*
X108066552Y-204335292D01*
X108053932Y-204328547D01*
X108040237Y-204324392D01*
X108026000Y-204322990D01*
X108011764Y-204324392D01*
X107998069Y-204328547D01*
X107985449Y-204335292D01*
X107974389Y-204344368D01*
X107965312Y-204355428D01*
X107958566Y-204368049D01*
X107955426Y-204378403D01*
X107953966Y-204379771D01*
X107952052Y-204379190D01*
X107951550Y-204377433D01*
X107963788Y-204315908D01*
X107963788Y-204218092D01*
X107951549Y-204156567D01*
X107952192Y-204154673D01*
X107954154Y-204154283D01*
X107955425Y-204155596D01*
X107958567Y-204165951D01*
X107965312Y-204178571D01*
X107974388Y-204189631D01*
X107985448Y-204198708D01*
X107998068Y-204205453D01*
X108011763Y-204209608D01*
X108026000Y-204211010D01*
X108040236Y-204209608D01*
X108053931Y-204205453D01*
X108066551Y-204198708D01*
X108077611Y-204189632D01*
X108086688Y-204178572D01*
X108093434Y-204165951D01*
X108096574Y-204155597D01*
X108098034Y-204154229D01*
X108099948Y-204154810D01*
G37*
G36*
X106982348Y-204154810D02*
G01*
X106982850Y-204156567D01*
X106970612Y-204218092D01*
X106970612Y-204315908D01*
X106982851Y-204377433D01*
X106982208Y-204379327D01*
X106980246Y-204379717D01*
X106978975Y-204378404D01*
X106975833Y-204368049D01*
X106969088Y-204355429D01*
X106960012Y-204344369D01*
X106948952Y-204335292D01*
X106936332Y-204328547D01*
X106922637Y-204324392D01*
X106908400Y-204322990D01*
X106894164Y-204324392D01*
X106880469Y-204328547D01*
X106867849Y-204335292D01*
X106856789Y-204344368D01*
X106847712Y-204355428D01*
X106840966Y-204368049D01*
X106837826Y-204378403D01*
X106836366Y-204379771D01*
X106834452Y-204379190D01*
X106833950Y-204377433D01*
X106846188Y-204315908D01*
X106846188Y-204218092D01*
X106833949Y-204156567D01*
X106834592Y-204154673D01*
X106836554Y-204154283D01*
X106837825Y-204155596D01*
X106840967Y-204165951D01*
X106847712Y-204178571D01*
X106856788Y-204189631D01*
X106867848Y-204198708D01*
X106880468Y-204205453D01*
X106894163Y-204209608D01*
X106908400Y-204211010D01*
X106922636Y-204209608D01*
X106936331Y-204205453D01*
X106948951Y-204198708D01*
X106960011Y-204189632D01*
X106969088Y-204178572D01*
X106975834Y-204165951D01*
X106978974Y-204155597D01*
X106980434Y-204154229D01*
X106982348Y-204154810D01*
G37*
G36*
X135627875Y-194498307D02*
G01*
X135628377Y-194500064D01*
X135613612Y-194574292D01*
X135613612Y-194672108D01*
X135623324Y-194720931D01*
X135622681Y-194722825D01*
X135620719Y-194723215D01*
X135619448Y-194721902D01*
X135616307Y-194711549D01*
X135609562Y-194698929D01*
X135600486Y-194687869D01*
X135589426Y-194678792D01*
X135576806Y-194672047D01*
X135563111Y-194667892D01*
X135548875Y-194666490D01*
X135534638Y-194667892D01*
X135520943Y-194672047D01*
X135508323Y-194678792D01*
X135497263Y-194687868D01*
X135488186Y-194698928D01*
X135481441Y-194711548D01*
X135478299Y-194721907D01*
X135476839Y-194723274D01*
X135474925Y-194722693D01*
X135474423Y-194720936D01*
X135489188Y-194646708D01*
X135489188Y-194548892D01*
X135479476Y-194500069D01*
X135480119Y-194498175D01*
X135482081Y-194497785D01*
X135483352Y-194499098D01*
X135486493Y-194509451D01*
X135493238Y-194522071D01*
X135502314Y-194533131D01*
X135513374Y-194542208D01*
X135525994Y-194548953D01*
X135539689Y-194553108D01*
X135553925Y-194554510D01*
X135568162Y-194553108D01*
X135581857Y-194548953D01*
X135594477Y-194542208D01*
X135605537Y-194533132D01*
X135614614Y-194522072D01*
X135621359Y-194509452D01*
X135624501Y-194499093D01*
X135625961Y-194497726D01*
X135627875Y-194498307D01*
G37*
G36*
X135141379Y-193982558D02*
G01*
X135142145Y-193984406D01*
X135141105Y-193985909D01*
X135131558Y-193991012D01*
X135120498Y-194000089D01*
X135111421Y-194011149D01*
X135104676Y-194023768D01*
X135100521Y-194037464D01*
X135099119Y-194051700D01*
X135100521Y-194065937D01*
X135104676Y-194079632D01*
X135111421Y-194092251D01*
X135120498Y-194103311D01*
X135131558Y-194112388D01*
X135141105Y-194117491D01*
X135142161Y-194119190D01*
X135141218Y-194120953D01*
X135139397Y-194121103D01*
X135137451Y-194120297D01*
X135041508Y-194101212D01*
X134943692Y-194101212D01*
X134847749Y-194120297D01*
X134845803Y-194121103D01*
X134843821Y-194120842D01*
X134843055Y-194118994D01*
X134844095Y-194117491D01*
X134853642Y-194112388D01*
X134864702Y-194103311D01*
X134873779Y-194092251D01*
X134880524Y-194079632D01*
X134884679Y-194065936D01*
X134886081Y-194051700D01*
X134884679Y-194037463D01*
X134880524Y-194023768D01*
X134873779Y-194011149D01*
X134864702Y-194000089D01*
X134853642Y-193991012D01*
X134844095Y-193985909D01*
X134843039Y-193984210D01*
X134843982Y-193982447D01*
X134845803Y-193982297D01*
X134847749Y-193983103D01*
X134943692Y-194002188D01*
X135041508Y-194002188D01*
X135137451Y-193983103D01*
X135139397Y-193982297D01*
X135141379Y-193982558D01*
G37*
G36*
X134856149Y-192933303D02*
G01*
X134952092Y-192952388D01*
X135049908Y-192952388D01*
X135145851Y-192933303D01*
X135194776Y-192913038D01*
X135196759Y-192913299D01*
X135197524Y-192915147D01*
X135196484Y-192916650D01*
X135186938Y-192921752D01*
X135175878Y-192930829D01*
X135166802Y-192941889D01*
X135160057Y-192954509D01*
X135155902Y-192968204D01*
X135154500Y-192982440D01*
X135155902Y-192996677D01*
X135160057Y-193010372D01*
X135166802Y-193022992D01*
X135175879Y-193034052D01*
X135186939Y-193043128D01*
X135196481Y-193048228D01*
X135197537Y-193049926D01*
X135196594Y-193051690D01*
X135194773Y-193051840D01*
X135137451Y-193028097D01*
X135041508Y-193009012D01*
X134943692Y-193009012D01*
X134847749Y-193028097D01*
X134798824Y-193048362D01*
X134796841Y-193048101D01*
X134796076Y-193046253D01*
X134797116Y-193044750D01*
X134806662Y-193039648D01*
X134817722Y-193030571D01*
X134826798Y-193019511D01*
X134833543Y-193006891D01*
X134837698Y-192993196D01*
X134839100Y-192978960D01*
X134837698Y-192964723D01*
X134833543Y-192951028D01*
X134826798Y-192938408D01*
X134817721Y-192927348D01*
X134806661Y-192918272D01*
X134797119Y-192913172D01*
X134796063Y-192911474D01*
X134797006Y-192909710D01*
X134798827Y-192909560D01*
X134856149Y-192933303D01*
G37*
G36*
X134388627Y-192283480D02*
G01*
X134391768Y-192293835D01*
X134398513Y-192306455D01*
X134407589Y-192317515D01*
X134418649Y-192326592D01*
X134431269Y-192333337D01*
X134444964Y-192337493D01*
X134459200Y-192338895D01*
X134473438Y-192337492D01*
X134487131Y-192333340D01*
X134499752Y-192326594D01*
X134510812Y-192317518D01*
X134519889Y-192306458D01*
X134524993Y-192296909D01*
X134526692Y-192295853D01*
X134528455Y-192296796D01*
X134528605Y-192298617D01*
X134523497Y-192310949D01*
X134504412Y-192406892D01*
X134504412Y-192504708D01*
X134521249Y-192589349D01*
X134520606Y-192591243D01*
X134518644Y-192591633D01*
X134517373Y-192590320D01*
X134514232Y-192579965D01*
X134507487Y-192567345D01*
X134498411Y-192556285D01*
X134487351Y-192547208D01*
X134474731Y-192540463D01*
X134461036Y-192536307D01*
X134446800Y-192534905D01*
X134432562Y-192536308D01*
X134418869Y-192540460D01*
X134406248Y-192547206D01*
X134395188Y-192556282D01*
X134386111Y-192567342D01*
X134381007Y-192576891D01*
X134379308Y-192577947D01*
X134377545Y-192577004D01*
X134377395Y-192575183D01*
X134382503Y-192562851D01*
X134401588Y-192466908D01*
X134401588Y-192369092D01*
X134384751Y-192284451D01*
X134385394Y-192282557D01*
X134387356Y-192282167D01*
X134388627Y-192283480D01*
G37*
G36*
X68718287Y-178223858D02*
G01*
X68719052Y-178225706D01*
X68718012Y-178227209D01*
X68708464Y-178232312D01*
X68697404Y-178241389D01*
X68688328Y-178252449D01*
X68681583Y-178265069D01*
X68677428Y-178278764D01*
X68676026Y-178292999D01*
X68677428Y-178307237D01*
X68681582Y-178320931D01*
X68688328Y-178333552D01*
X68697405Y-178344612D01*
X68708465Y-178353689D01*
X68718011Y-178358791D01*
X68719067Y-178360490D01*
X68718124Y-178362253D01*
X68716303Y-178362403D01*
X68653022Y-178336191D01*
X68576306Y-178320931D01*
X68498094Y-178320931D01*
X68421378Y-178336191D01*
X68358096Y-178362403D01*
X68356113Y-178362142D01*
X68355348Y-178360294D01*
X68356388Y-178358791D01*
X68365936Y-178353688D01*
X68376996Y-178344611D01*
X68386072Y-178333551D01*
X68392817Y-178320931D01*
X68396972Y-178307236D01*
X68398374Y-178292999D01*
X68396972Y-178278763D01*
X68392817Y-178265067D01*
X68386072Y-178252448D01*
X68376995Y-178241388D01*
X68365935Y-178232311D01*
X68356389Y-178227209D01*
X68355333Y-178225510D01*
X68356276Y-178223747D01*
X68358097Y-178223597D01*
X68421378Y-178249809D01*
X68498094Y-178265069D01*
X68576306Y-178265069D01*
X68653022Y-178249809D01*
X68716304Y-178223597D01*
X68718287Y-178223858D01*
G37*
G36*
X70068287Y-178223858D02*
G01*
X70069052Y-178225706D01*
X70068012Y-178227209D01*
X70058464Y-178232312D01*
X70047404Y-178241389D01*
X70038328Y-178252449D01*
X70031583Y-178265069D01*
X70027428Y-178278764D01*
X70026026Y-178292999D01*
X70027428Y-178307237D01*
X70031582Y-178320931D01*
X70038328Y-178333552D01*
X70047405Y-178344612D01*
X70058465Y-178353689D01*
X70068011Y-178358791D01*
X70069067Y-178360490D01*
X70068124Y-178362253D01*
X70066303Y-178362403D01*
X70003022Y-178336191D01*
X69926306Y-178320931D01*
X69848094Y-178320931D01*
X69771378Y-178336191D01*
X69708096Y-178362403D01*
X69706113Y-178362142D01*
X69705348Y-178360294D01*
X69706388Y-178358791D01*
X69715936Y-178353688D01*
X69726996Y-178344611D01*
X69736072Y-178333551D01*
X69742817Y-178320931D01*
X69746972Y-178307236D01*
X69748374Y-178292999D01*
X69746972Y-178278763D01*
X69742817Y-178265067D01*
X69736072Y-178252448D01*
X69726995Y-178241388D01*
X69715935Y-178232311D01*
X69706389Y-178227209D01*
X69705333Y-178225510D01*
X69706276Y-178223747D01*
X69708097Y-178223597D01*
X69771378Y-178249809D01*
X69848094Y-178265069D01*
X69926306Y-178265069D01*
X70003022Y-178249809D01*
X70066304Y-178223597D01*
X70068287Y-178223858D01*
G37*
G36*
X68718287Y-177373858D02*
G01*
X68719052Y-177375706D01*
X68718012Y-177377209D01*
X68708464Y-177382312D01*
X68697404Y-177391389D01*
X68688328Y-177402449D01*
X68681583Y-177415069D01*
X68677428Y-177428764D01*
X68676026Y-177442999D01*
X68677428Y-177457237D01*
X68681582Y-177470931D01*
X68688328Y-177483552D01*
X68697405Y-177494612D01*
X68708465Y-177503689D01*
X68718011Y-177508791D01*
X68719067Y-177510490D01*
X68718124Y-177512253D01*
X68716303Y-177512403D01*
X68653022Y-177486191D01*
X68576306Y-177470931D01*
X68498094Y-177470931D01*
X68421378Y-177486191D01*
X68358096Y-177512403D01*
X68356113Y-177512142D01*
X68355348Y-177510294D01*
X68356388Y-177508791D01*
X68365936Y-177503688D01*
X68376996Y-177494611D01*
X68386072Y-177483551D01*
X68392817Y-177470931D01*
X68396972Y-177457236D01*
X68398374Y-177442999D01*
X68396972Y-177428763D01*
X68392817Y-177415067D01*
X68386072Y-177402448D01*
X68376995Y-177391388D01*
X68365935Y-177382311D01*
X68356389Y-177377209D01*
X68355333Y-177375510D01*
X68356276Y-177373747D01*
X68358097Y-177373597D01*
X68421378Y-177399809D01*
X68498094Y-177415069D01*
X68576306Y-177415069D01*
X68653022Y-177399809D01*
X68716304Y-177373597D01*
X68718287Y-177373858D01*
G37*
G36*
X70068287Y-177373858D02*
G01*
X70069052Y-177375706D01*
X70068012Y-177377209D01*
X70058464Y-177382312D01*
X70047404Y-177391389D01*
X70038328Y-177402449D01*
X70031583Y-177415069D01*
X70027428Y-177428764D01*
X70026026Y-177442999D01*
X70027428Y-177457237D01*
X70031582Y-177470931D01*
X70038328Y-177483552D01*
X70047405Y-177494612D01*
X70058465Y-177503689D01*
X70068011Y-177508791D01*
X70069067Y-177510490D01*
X70068124Y-177512253D01*
X70066303Y-177512403D01*
X70003022Y-177486191D01*
X69926306Y-177470931D01*
X69848094Y-177470931D01*
X69771378Y-177486191D01*
X69708096Y-177512403D01*
X69706113Y-177512142D01*
X69705348Y-177510294D01*
X69706388Y-177508791D01*
X69715936Y-177503688D01*
X69726996Y-177494611D01*
X69736072Y-177483551D01*
X69742817Y-177470931D01*
X69746972Y-177457236D01*
X69748374Y-177442999D01*
X69746972Y-177428763D01*
X69742817Y-177415067D01*
X69736072Y-177402448D01*
X69726995Y-177391388D01*
X69715935Y-177382311D01*
X69706389Y-177377209D01*
X69705333Y-177375510D01*
X69706276Y-177373747D01*
X69708097Y-177373597D01*
X69771378Y-177399809D01*
X69848094Y-177415069D01*
X69926306Y-177415069D01*
X70003022Y-177399809D01*
X70066304Y-177373597D01*
X70068287Y-177373858D01*
G37*
G36*
X68718287Y-176523858D02*
G01*
X68719052Y-176525706D01*
X68718012Y-176527209D01*
X68708464Y-176532312D01*
X68697404Y-176541389D01*
X68688328Y-176552449D01*
X68681583Y-176565069D01*
X68677428Y-176578764D01*
X68676026Y-176592999D01*
X68677428Y-176607237D01*
X68681582Y-176620931D01*
X68688328Y-176633552D01*
X68697405Y-176644612D01*
X68708465Y-176653689D01*
X68718011Y-176658791D01*
X68719067Y-176660490D01*
X68718124Y-176662253D01*
X68716303Y-176662403D01*
X68653022Y-176636191D01*
X68576306Y-176620931D01*
X68498094Y-176620931D01*
X68421378Y-176636191D01*
X68358096Y-176662403D01*
X68356113Y-176662142D01*
X68355348Y-176660294D01*
X68356388Y-176658791D01*
X68365936Y-176653688D01*
X68376996Y-176644611D01*
X68386072Y-176633551D01*
X68392817Y-176620931D01*
X68396972Y-176607236D01*
X68398374Y-176592999D01*
X68396972Y-176578763D01*
X68392817Y-176565067D01*
X68386072Y-176552448D01*
X68376995Y-176541388D01*
X68365935Y-176532311D01*
X68356389Y-176527209D01*
X68355333Y-176525510D01*
X68356276Y-176523747D01*
X68358097Y-176523597D01*
X68421378Y-176549809D01*
X68498094Y-176565069D01*
X68576306Y-176565069D01*
X68653022Y-176549809D01*
X68716304Y-176523597D01*
X68718287Y-176523858D01*
G37*
G36*
X70068287Y-176523858D02*
G01*
X70069052Y-176525706D01*
X70068012Y-176527209D01*
X70058464Y-176532312D01*
X70047404Y-176541389D01*
X70038328Y-176552449D01*
X70031583Y-176565069D01*
X70027428Y-176578764D01*
X70026026Y-176592999D01*
X70027428Y-176607237D01*
X70031582Y-176620931D01*
X70038328Y-176633552D01*
X70047405Y-176644612D01*
X70058465Y-176653689D01*
X70068011Y-176658791D01*
X70069067Y-176660490D01*
X70068124Y-176662253D01*
X70066303Y-176662403D01*
X70003022Y-176636191D01*
X69926306Y-176620931D01*
X69848094Y-176620931D01*
X69771378Y-176636191D01*
X69708096Y-176662403D01*
X69706113Y-176662142D01*
X69705348Y-176660294D01*
X69706388Y-176658791D01*
X69715936Y-176653688D01*
X69726996Y-176644611D01*
X69736072Y-176633551D01*
X69742817Y-176620931D01*
X69746972Y-176607236D01*
X69748374Y-176592999D01*
X69746972Y-176578763D01*
X69742817Y-176565067D01*
X69736072Y-176552448D01*
X69726995Y-176541388D01*
X69715935Y-176532311D01*
X69706389Y-176527209D01*
X69705333Y-176525510D01*
X69706276Y-176523747D01*
X69708097Y-176523597D01*
X69771378Y-176549809D01*
X69848094Y-176565069D01*
X69926306Y-176565069D01*
X70003022Y-176549809D01*
X70066304Y-176523597D01*
X70068287Y-176523858D01*
G37*
G36*
X68718287Y-175673858D02*
G01*
X68719052Y-175675706D01*
X68718012Y-175677209D01*
X68708464Y-175682312D01*
X68697404Y-175691389D01*
X68688328Y-175702449D01*
X68681583Y-175715069D01*
X68677428Y-175728764D01*
X68676026Y-175742999D01*
X68677428Y-175757237D01*
X68681582Y-175770931D01*
X68688328Y-175783552D01*
X68697405Y-175794612D01*
X68708465Y-175803689D01*
X68718011Y-175808791D01*
X68719067Y-175810490D01*
X68718124Y-175812253D01*
X68716303Y-175812403D01*
X68653022Y-175786191D01*
X68576306Y-175770931D01*
X68498094Y-175770931D01*
X68421378Y-175786191D01*
X68358096Y-175812403D01*
X68356113Y-175812142D01*
X68355348Y-175810294D01*
X68356388Y-175808791D01*
X68365936Y-175803688D01*
X68376996Y-175794611D01*
X68386072Y-175783551D01*
X68392817Y-175770931D01*
X68396972Y-175757236D01*
X68398374Y-175742999D01*
X68396972Y-175728763D01*
X68392817Y-175715067D01*
X68386072Y-175702448D01*
X68376995Y-175691388D01*
X68365935Y-175682311D01*
X68356389Y-175677209D01*
X68355333Y-175675510D01*
X68356276Y-175673747D01*
X68358097Y-175673597D01*
X68421378Y-175699809D01*
X68498094Y-175715069D01*
X68576306Y-175715069D01*
X68653022Y-175699809D01*
X68716304Y-175673597D01*
X68718287Y-175673858D01*
G37*
G36*
X70068287Y-175673858D02*
G01*
X70069052Y-175675706D01*
X70068012Y-175677209D01*
X70058464Y-175682312D01*
X70047404Y-175691389D01*
X70038328Y-175702449D01*
X70031583Y-175715069D01*
X70027428Y-175728764D01*
X70026026Y-175742999D01*
X70027428Y-175757237D01*
X70031582Y-175770931D01*
X70038328Y-175783552D01*
X70047405Y-175794612D01*
X70058465Y-175803689D01*
X70068011Y-175808791D01*
X70069067Y-175810490D01*
X70068124Y-175812253D01*
X70066303Y-175812403D01*
X70003022Y-175786191D01*
X69926306Y-175770931D01*
X69848094Y-175770931D01*
X69771378Y-175786191D01*
X69708096Y-175812403D01*
X69706113Y-175812142D01*
X69705348Y-175810294D01*
X69706388Y-175808791D01*
X69715936Y-175803688D01*
X69726996Y-175794611D01*
X69736072Y-175783551D01*
X69742817Y-175770931D01*
X69746972Y-175757236D01*
X69748374Y-175742999D01*
X69746972Y-175728763D01*
X69742817Y-175715067D01*
X69736072Y-175702448D01*
X69726995Y-175691388D01*
X69715935Y-175682311D01*
X69706389Y-175677209D01*
X69705333Y-175675510D01*
X69706276Y-175673747D01*
X69708097Y-175673597D01*
X69771378Y-175699809D01*
X69848094Y-175715069D01*
X69926306Y-175715069D01*
X70003022Y-175699809D01*
X70066304Y-175673597D01*
X70068287Y-175673858D01*
G37*
G36*
X68718287Y-174823858D02*
G01*
X68719052Y-174825706D01*
X68718012Y-174827209D01*
X68708464Y-174832312D01*
X68697404Y-174841389D01*
X68688328Y-174852449D01*
X68681583Y-174865069D01*
X68677428Y-174878764D01*
X68676026Y-174892999D01*
X68677428Y-174907237D01*
X68681582Y-174920931D01*
X68688328Y-174933552D01*
X68697405Y-174944612D01*
X68708465Y-174953689D01*
X68718011Y-174958791D01*
X68719067Y-174960490D01*
X68718124Y-174962253D01*
X68716303Y-174962403D01*
X68653022Y-174936191D01*
X68576306Y-174920931D01*
X68498094Y-174920931D01*
X68421378Y-174936191D01*
X68358096Y-174962403D01*
X68356113Y-174962142D01*
X68355348Y-174960294D01*
X68356388Y-174958791D01*
X68365936Y-174953688D01*
X68376996Y-174944611D01*
X68386072Y-174933551D01*
X68392817Y-174920931D01*
X68396972Y-174907236D01*
X68398374Y-174892999D01*
X68396972Y-174878763D01*
X68392817Y-174865067D01*
X68386072Y-174852448D01*
X68376995Y-174841388D01*
X68365935Y-174832311D01*
X68356389Y-174827209D01*
X68355333Y-174825510D01*
X68356276Y-174823747D01*
X68358097Y-174823597D01*
X68421378Y-174849809D01*
X68498094Y-174865069D01*
X68576306Y-174865069D01*
X68653022Y-174849809D01*
X68716304Y-174823597D01*
X68718287Y-174823858D01*
G37*
G36*
X70068287Y-174823858D02*
G01*
X70069052Y-174825706D01*
X70068012Y-174827209D01*
X70058464Y-174832312D01*
X70047404Y-174841389D01*
X70038328Y-174852449D01*
X70031583Y-174865069D01*
X70027428Y-174878764D01*
X70026026Y-174892999D01*
X70027428Y-174907237D01*
X70031582Y-174920931D01*
X70038328Y-174933552D01*
X70047405Y-174944612D01*
X70058465Y-174953689D01*
X70068011Y-174958791D01*
X70069067Y-174960490D01*
X70068124Y-174962253D01*
X70066303Y-174962403D01*
X70003022Y-174936191D01*
X69926306Y-174920931D01*
X69848094Y-174920931D01*
X69771378Y-174936191D01*
X69708096Y-174962403D01*
X69706113Y-174962142D01*
X69705348Y-174960294D01*
X69706388Y-174958791D01*
X69715936Y-174953688D01*
X69726996Y-174944611D01*
X69736072Y-174933551D01*
X69742817Y-174920931D01*
X69746972Y-174907236D01*
X69748374Y-174892999D01*
X69746972Y-174878763D01*
X69742817Y-174865067D01*
X69736072Y-174852448D01*
X69726995Y-174841388D01*
X69715935Y-174832311D01*
X69706389Y-174827209D01*
X69705333Y-174825510D01*
X69706276Y-174823747D01*
X69708097Y-174823597D01*
X69771378Y-174849809D01*
X69848094Y-174865069D01*
X69926306Y-174865069D01*
X70003022Y-174849809D01*
X70066304Y-174823597D01*
X70068287Y-174823858D01*
G37*
G36*
X70068287Y-173973858D02*
G01*
X70069052Y-173975706D01*
X70068012Y-173977209D01*
X70058464Y-173982312D01*
X70047404Y-173991389D01*
X70038328Y-174002449D01*
X70031583Y-174015069D01*
X70027428Y-174028764D01*
X70026026Y-174042999D01*
X70027428Y-174057237D01*
X70031582Y-174070931D01*
X70038328Y-174083552D01*
X70047405Y-174094612D01*
X70058465Y-174103689D01*
X70068011Y-174108791D01*
X70069067Y-174110490D01*
X70068124Y-174112253D01*
X70066303Y-174112403D01*
X70003022Y-174086191D01*
X69926306Y-174070931D01*
X69848094Y-174070931D01*
X69771378Y-174086191D01*
X69708096Y-174112403D01*
X69706113Y-174112142D01*
X69705348Y-174110294D01*
X69706388Y-174108791D01*
X69715936Y-174103688D01*
X69726996Y-174094611D01*
X69736072Y-174083551D01*
X69742817Y-174070931D01*
X69746972Y-174057236D01*
X69748374Y-174042999D01*
X69746972Y-174028763D01*
X69742817Y-174015067D01*
X69736072Y-174002448D01*
X69726995Y-173991388D01*
X69715935Y-173982311D01*
X69706389Y-173977209D01*
X69705333Y-173975510D01*
X69706276Y-173973747D01*
X69708097Y-173973597D01*
X69771378Y-173999809D01*
X69848094Y-174015069D01*
X69926306Y-174015069D01*
X70003022Y-173999809D01*
X70066304Y-173973597D01*
X70068287Y-173973858D01*
G37*
G36*
X68718287Y-173973858D02*
G01*
X68719052Y-173975706D01*
X68718012Y-173977209D01*
X68708464Y-173982312D01*
X68697404Y-173991389D01*
X68688328Y-174002449D01*
X68681583Y-174015069D01*
X68677428Y-174028764D01*
X68676026Y-174042999D01*
X68677428Y-174057237D01*
X68681582Y-174070931D01*
X68688328Y-174083552D01*
X68697405Y-174094612D01*
X68708465Y-174103689D01*
X68718011Y-174108791D01*
X68719067Y-174110490D01*
X68718124Y-174112253D01*
X68716303Y-174112403D01*
X68653022Y-174086191D01*
X68576306Y-174070931D01*
X68498094Y-174070931D01*
X68421378Y-174086191D01*
X68358096Y-174112403D01*
X68356113Y-174112142D01*
X68355348Y-174110294D01*
X68356388Y-174108791D01*
X68365936Y-174103688D01*
X68376996Y-174094611D01*
X68386072Y-174083551D01*
X68392817Y-174070931D01*
X68396972Y-174057236D01*
X68398374Y-174042999D01*
X68396972Y-174028763D01*
X68392817Y-174015067D01*
X68386072Y-174002448D01*
X68376995Y-173991388D01*
X68365935Y-173982311D01*
X68356389Y-173977209D01*
X68355333Y-173975510D01*
X68356276Y-173973747D01*
X68358097Y-173973597D01*
X68421378Y-173999809D01*
X68498094Y-174015069D01*
X68576306Y-174015069D01*
X68653022Y-173999809D01*
X68716304Y-173973597D01*
X68718287Y-173973858D01*
G37*
G36*
X68718287Y-173123858D02*
G01*
X68719052Y-173125706D01*
X68718012Y-173127209D01*
X68708464Y-173132312D01*
X68697404Y-173141389D01*
X68688328Y-173152449D01*
X68681583Y-173165069D01*
X68677428Y-173178764D01*
X68676026Y-173192999D01*
X68677428Y-173207237D01*
X68681582Y-173220931D01*
X68688328Y-173233552D01*
X68697405Y-173244612D01*
X68708465Y-173253689D01*
X68718011Y-173258791D01*
X68719067Y-173260490D01*
X68718124Y-173262253D01*
X68716303Y-173262403D01*
X68653022Y-173236191D01*
X68576306Y-173220931D01*
X68498094Y-173220931D01*
X68421378Y-173236191D01*
X68358096Y-173262403D01*
X68356113Y-173262142D01*
X68355348Y-173260294D01*
X68356388Y-173258791D01*
X68365936Y-173253688D01*
X68376996Y-173244611D01*
X68386072Y-173233551D01*
X68392817Y-173220931D01*
X68396972Y-173207236D01*
X68398374Y-173192999D01*
X68396972Y-173178763D01*
X68392817Y-173165067D01*
X68386072Y-173152448D01*
X68376995Y-173141388D01*
X68365935Y-173132311D01*
X68356389Y-173127209D01*
X68355333Y-173125510D01*
X68356276Y-173123747D01*
X68358097Y-173123597D01*
X68421378Y-173149809D01*
X68498094Y-173165069D01*
X68576306Y-173165069D01*
X68653022Y-173149809D01*
X68716304Y-173123597D01*
X68718287Y-173123858D01*
G37*
G36*
X70068287Y-173123858D02*
G01*
X70069052Y-173125706D01*
X70068012Y-173127209D01*
X70058464Y-173132312D01*
X70047404Y-173141389D01*
X70038328Y-173152449D01*
X70031583Y-173165069D01*
X70027428Y-173178764D01*
X70026026Y-173192999D01*
X70027428Y-173207237D01*
X70031582Y-173220931D01*
X70038328Y-173233552D01*
X70047405Y-173244612D01*
X70058465Y-173253689D01*
X70068011Y-173258791D01*
X70069067Y-173260490D01*
X70068124Y-173262253D01*
X70066303Y-173262403D01*
X70003022Y-173236191D01*
X69926306Y-173220931D01*
X69848094Y-173220931D01*
X69771378Y-173236191D01*
X69708096Y-173262403D01*
X69706113Y-173262142D01*
X69705348Y-173260294D01*
X69706388Y-173258791D01*
X69715936Y-173253688D01*
X69726996Y-173244611D01*
X69736072Y-173233551D01*
X69742817Y-173220931D01*
X69746972Y-173207236D01*
X69748374Y-173192999D01*
X69746972Y-173178763D01*
X69742817Y-173165067D01*
X69736072Y-173152448D01*
X69726995Y-173141388D01*
X69715935Y-173132311D01*
X69706389Y-173127209D01*
X69705333Y-173125510D01*
X69706276Y-173123747D01*
X69708097Y-173123597D01*
X69771378Y-173149809D01*
X69848094Y-173165069D01*
X69926306Y-173165069D01*
X70003022Y-173149809D01*
X70066304Y-173123597D01*
X70068287Y-173123858D01*
G37*
G36*
X138175200Y-172264297D02*
G01*
X138177731Y-172277022D01*
X138207663Y-172349283D01*
X138250543Y-172413459D01*
X138250674Y-172415455D01*
X138249011Y-172416566D01*
X138247611Y-172416116D01*
X138237352Y-172407696D01*
X138224733Y-172400951D01*
X138211038Y-172396796D01*
X138196801Y-172395394D01*
X138182564Y-172396796D01*
X138168869Y-172400951D01*
X138156250Y-172407696D01*
X138145190Y-172416773D01*
X138136113Y-172427833D01*
X138129368Y-172440452D01*
X138125213Y-172454147D01*
X138123811Y-172468384D01*
X138124872Y-172479157D01*
X138124047Y-172480979D01*
X138122057Y-172481175D01*
X138120920Y-172479743D01*
X138118389Y-172467018D01*
X138088457Y-172394757D01*
X138045577Y-172330581D01*
X138045446Y-172328585D01*
X138047109Y-172327474D01*
X138048509Y-172327924D01*
X138058768Y-172336344D01*
X138071387Y-172343089D01*
X138085082Y-172347244D01*
X138099319Y-172348646D01*
X138113556Y-172347244D01*
X138127251Y-172343089D01*
X138139870Y-172336344D01*
X138150930Y-172327267D01*
X138160007Y-172316207D01*
X138166752Y-172303588D01*
X138170907Y-172289893D01*
X138172309Y-172275656D01*
X138171248Y-172264883D01*
X138172073Y-172263061D01*
X138174063Y-172262865D01*
X138175200Y-172264297D01*
G37*
G36*
X140009162Y-160480606D02*
G01*
X140009927Y-160482454D01*
X140008887Y-160483957D01*
X139999337Y-160489061D01*
X139988277Y-160498138D01*
X139979200Y-160509198D01*
X139972455Y-160521817D01*
X139968300Y-160535513D01*
X139966898Y-160549749D01*
X139968300Y-160563986D01*
X139972455Y-160577681D01*
X139979200Y-160590300D01*
X139988277Y-160601360D01*
X139999337Y-160610437D01*
X140011956Y-160617182D01*
X140022315Y-160620324D01*
X140023682Y-160621784D01*
X140023101Y-160623698D01*
X140021344Y-160624200D01*
X139967706Y-160613531D01*
X139889494Y-160613531D01*
X139812778Y-160628791D01*
X139800020Y-160634075D01*
X139798037Y-160633814D01*
X139797272Y-160631966D01*
X139798312Y-160630463D01*
X139807862Y-160625359D01*
X139818922Y-160616282D01*
X139827999Y-160605222D01*
X139834744Y-160592603D01*
X139838899Y-160578907D01*
X139840301Y-160564671D01*
X139838899Y-160550434D01*
X139834744Y-160536739D01*
X139827999Y-160524120D01*
X139818922Y-160513060D01*
X139807862Y-160503983D01*
X139795243Y-160497238D01*
X139784884Y-160494096D01*
X139783517Y-160492636D01*
X139784098Y-160490722D01*
X139785855Y-160490220D01*
X139839493Y-160500889D01*
X139917705Y-160500889D01*
X139994421Y-160485629D01*
X140007179Y-160480345D01*
X140009162Y-160480606D01*
G37*
G36*
X145667766Y-136315659D02*
G01*
X145668268Y-136317416D01*
X145655471Y-136381754D01*
X145655471Y-136459966D01*
X145668774Y-136526844D01*
X145668131Y-136528738D01*
X145666169Y-136529128D01*
X145664898Y-136527814D01*
X145661758Y-136517460D01*
X145655012Y-136504839D01*
X145645936Y-136493779D01*
X145634876Y-136484702D01*
X145622257Y-136477957D01*
X145608561Y-136473801D01*
X145594325Y-136472399D01*
X145580087Y-136473802D01*
X145566394Y-136477954D01*
X145553773Y-136484700D01*
X145542713Y-136493776D01*
X145533636Y-136504836D01*
X145526891Y-136517455D01*
X145523748Y-136527815D01*
X145522288Y-136529182D01*
X145520374Y-136528601D01*
X145519872Y-136526844D01*
X145532669Y-136462506D01*
X145532669Y-136384294D01*
X145519366Y-136317416D01*
X145520009Y-136315522D01*
X145521971Y-136315132D01*
X145523242Y-136316446D01*
X145526382Y-136326800D01*
X145533128Y-136339421D01*
X145542204Y-136350481D01*
X145553264Y-136359558D01*
X145565883Y-136366303D01*
X145579579Y-136370459D01*
X145593815Y-136371861D01*
X145608053Y-136370458D01*
X145621746Y-136366306D01*
X145634367Y-136359560D01*
X145645427Y-136350484D01*
X145654504Y-136339424D01*
X145661249Y-136326805D01*
X145664392Y-136316445D01*
X145665852Y-136315078D01*
X145667766Y-136315659D01*
G37*
M02*
