%TF.GenerationSoftware,KiCad,Pcbnew,5.1.10-88a1d61d58~88~ubuntu20.04.1*%
%TF.CreationDate,2021-06-03T15:25:56+07:00*%
%TF.ProjectId,Schema_and_PCB,53636865-6d61-45f6-916e-645f5043422e,v0.1*%
%TF.SameCoordinates,Original*%
%TF.FileFunction,Soldermask,Bot*%
%TF.FilePolarity,Negative*%
%FSLAX46Y46*%
G04 Gerber Fmt 4.6, Leading zero omitted, Abs format (unit mm)*
G04 Created by KiCad (PCBNEW 5.1.10-88a1d61d58~88~ubuntu20.04.1) date 2021-06-03 15:25:56*
%MOMM*%
%LPD*%
G01*
G04 APERTURE LIST*
%ADD10O,2.400000X1.400000*%
%ADD11O,2.900000X1.400000*%
%ADD12C,0.800000*%
%ADD13O,2.100000X2.100000*%
%ADD14C,2.100000*%
%ADD15O,1.800000X1.800000*%
%ADD16C,1.855000*%
%ADD17C,2.350000*%
%ADD18C,1.600000*%
%ADD19C,1.900000*%
%ADD20O,2.300000X2.300000*%
%ADD21C,2.600000*%
%ADD22C,2.120000*%
%ADD23C,3.400000*%
%ADD24C,1.700000*%
%ADD25O,1.700000X1.700000*%
%ADD26O,2.600000X2.600000*%
%ADD27C,1.624000*%
%ADD28O,1.624000X2.624000*%
%ADD29C,2.300000*%
%ADD30C,1.000000*%
%ADD31C,0.700000*%
%ADD32C,0.900000*%
%ADD33C,0.100000*%
G04 APERTURE END LIST*
D10*
%TO.C,J1*%
X65527200Y-171418000D03*
X65527200Y-180068000D03*
D11*
X68907200Y-180068000D03*
X68907200Y-171418000D03*
D12*
X68537200Y-172768000D03*
X68537200Y-173618000D03*
X68537200Y-174468000D03*
X68537200Y-175318000D03*
X68537200Y-176168000D03*
X68537200Y-177018000D03*
X68537200Y-177868000D03*
X68537200Y-178718000D03*
X69887200Y-178718000D03*
X69887200Y-177868000D03*
X69887200Y-177018000D03*
X69887200Y-176168000D03*
X69887200Y-175318000D03*
X69887200Y-174468000D03*
X69887200Y-173618000D03*
X69887200Y-172768000D03*
%TD*%
%TO.C,D4*%
G36*
G01*
X353195600Y-163338000D02*
X353195600Y-165338000D01*
G75*
G02*
X353145600Y-165388000I-50000J0D01*
G01*
X351145600Y-165388000D01*
G75*
G02*
X351095600Y-165338000I0J50000D01*
G01*
X351095600Y-163338000D01*
G75*
G02*
X351145600Y-163288000I50000J0D01*
G01*
X353145600Y-163288000D01*
G75*
G02*
X353195600Y-163338000I0J-50000D01*
G01*
G37*
D13*
X347065600Y-159258000D03*
X352145600Y-159258000D03*
X347065600Y-164338000D03*
%TD*%
D14*
%TO.C,LS1*%
X220726000Y-86964200D03*
G36*
G01*
X221726000Y-95614200D02*
X219726000Y-95614200D01*
G75*
G02*
X219676000Y-95564200I0J50000D01*
G01*
X219676000Y-93564200D01*
G75*
G02*
X219726000Y-93514200I50000J0D01*
G01*
X221726000Y-93514200D01*
G75*
G02*
X221776000Y-93564200I0J-50000D01*
G01*
X221776000Y-95564200D01*
G75*
G02*
X221726000Y-95614200I-50000J0D01*
G01*
G37*
%TD*%
D15*
%TO.C,J13*%
X127381000Y-76873100D03*
X129921000Y-76873100D03*
G36*
G01*
X131611000Y-75973100D02*
X133311000Y-75973100D01*
G75*
G02*
X133361000Y-76023100I0J-50000D01*
G01*
X133361000Y-77723100D01*
G75*
G02*
X133311000Y-77773100I-50000J0D01*
G01*
X131611000Y-77773100D01*
G75*
G02*
X131561000Y-77723100I0J50000D01*
G01*
X131561000Y-76023100D01*
G75*
G02*
X131611000Y-75973100I50000J0D01*
G01*
G37*
%TD*%
D14*
%TO.C,SW7*%
X78295500Y-112341800D03*
X73795500Y-112341800D03*
X78295500Y-105841800D03*
X73795500Y-105841800D03*
%TD*%
%TO.C,R56*%
G36*
G01*
X307114832Y-91806000D02*
X308073168Y-91806000D01*
G75*
G02*
X308344000Y-92076832I0J-270832D01*
G01*
X308344000Y-92835168D01*
G75*
G02*
X308073168Y-93106000I-270832J0D01*
G01*
X307114832Y-93106000D01*
G75*
G02*
X306844000Y-92835168I0J270832D01*
G01*
X306844000Y-92076832D01*
G75*
G02*
X307114832Y-91806000I270832J0D01*
G01*
G37*
G36*
G01*
X307114832Y-89806000D02*
X308073168Y-89806000D01*
G75*
G02*
X308344000Y-90076832I0J-270832D01*
G01*
X308344000Y-90835168D01*
G75*
G02*
X308073168Y-91106000I-270832J0D01*
G01*
X307114832Y-91106000D01*
G75*
G02*
X306844000Y-90835168I0J270832D01*
G01*
X306844000Y-90076832D01*
G75*
G02*
X307114832Y-89806000I270832J0D01*
G01*
G37*
%TD*%
D16*
%TO.C,BT1*%
X87574100Y-104279700D03*
D17*
X107574100Y-104279700D03*
%TD*%
%TO.C,U4*%
G36*
G01*
X202318000Y-121437000D02*
X200818000Y-121437000D01*
G75*
G02*
X200768000Y-121387000I0J50000D01*
G01*
X200768000Y-119887000D01*
G75*
G02*
X200818000Y-119837000I50000J0D01*
G01*
X202318000Y-119837000D01*
G75*
G02*
X202368000Y-119887000I0J-50000D01*
G01*
X202368000Y-121387000D01*
G75*
G02*
X202318000Y-121437000I-50000J0D01*
G01*
G37*
D18*
X199028000Y-120637000D03*
X196488000Y-120637000D03*
X193948000Y-120637000D03*
X191408000Y-120637000D03*
X188868000Y-120637000D03*
X186328000Y-120637000D03*
X183788000Y-120637000D03*
X181248000Y-120637000D03*
X181248000Y-105397000D03*
X183788000Y-105397000D03*
X186328000Y-105397000D03*
X188868000Y-105397000D03*
X191408000Y-105397000D03*
X193948000Y-105397000D03*
X196488000Y-105397000D03*
X199028000Y-105397000D03*
X201568000Y-105397000D03*
X178708000Y-120637000D03*
X178708000Y-105397000D03*
X176168000Y-105397000D03*
X176168000Y-120637000D03*
X173628000Y-105397000D03*
X173628000Y-120637000D03*
X171088000Y-120637000D03*
X171088000Y-105397000D03*
X168548000Y-120637000D03*
X168548000Y-105397000D03*
%TD*%
%TO.C,U2*%
X187300000Y-149187000D03*
X184760000Y-149187000D03*
X182220000Y-149187000D03*
X179680000Y-149187000D03*
X177140000Y-149187000D03*
X174600000Y-149187000D03*
X174600000Y-164427000D03*
X177140000Y-164427000D03*
X179680000Y-164427000D03*
X182220000Y-164427000D03*
X184760000Y-164427000D03*
G36*
G01*
X188050000Y-165227000D02*
X186550000Y-165227000D01*
G75*
G02*
X186500000Y-165177000I0J50000D01*
G01*
X186500000Y-163677000D01*
G75*
G02*
X186550000Y-163627000I50000J0D01*
G01*
X188050000Y-163627000D01*
G75*
G02*
X188100000Y-163677000I0J-50000D01*
G01*
X188100000Y-165177000D01*
G75*
G02*
X188050000Y-165227000I-50000J0D01*
G01*
G37*
%TD*%
D15*
%TO.C,JP2*%
X105181400Y-192379600D03*
G36*
G01*
X106871400Y-191479600D02*
X108571400Y-191479600D01*
G75*
G02*
X108621400Y-191529600I0J-50000D01*
G01*
X108621400Y-193229600D01*
G75*
G02*
X108571400Y-193279600I-50000J0D01*
G01*
X106871400Y-193279600D01*
G75*
G02*
X106821400Y-193229600I0J50000D01*
G01*
X106821400Y-191529600D01*
G75*
G02*
X106871400Y-191479600I50000J0D01*
G01*
G37*
%TD*%
%TO.C,C61*%
G36*
G01*
X223722100Y-94826700D02*
X223722100Y-94301700D01*
G75*
G02*
X223984600Y-94039200I262500J0D01*
G01*
X224634600Y-94039200D01*
G75*
G02*
X224897100Y-94301700I0J-262500D01*
G01*
X224897100Y-94826700D01*
G75*
G02*
X224634600Y-95089200I-262500J0D01*
G01*
X223984600Y-95089200D01*
G75*
G02*
X223722100Y-94826700I0J262500D01*
G01*
G37*
G36*
G01*
X225447100Y-94826700D02*
X225447100Y-94301700D01*
G75*
G02*
X225709600Y-94039200I262500J0D01*
G01*
X226359600Y-94039200D01*
G75*
G02*
X226622100Y-94301700I0J-262500D01*
G01*
X226622100Y-94826700D01*
G75*
G02*
X226359600Y-95089200I-262500J0D01*
G01*
X225709600Y-95089200D01*
G75*
G02*
X225447100Y-94826700I0J262500D01*
G01*
G37*
%TD*%
%TO.C,C66*%
G36*
G01*
X307856500Y-95890500D02*
X307331500Y-95890500D01*
G75*
G02*
X307069000Y-95628000I0J262500D01*
G01*
X307069000Y-94978000D01*
G75*
G02*
X307331500Y-94715500I262500J0D01*
G01*
X307856500Y-94715500D01*
G75*
G02*
X308119000Y-94978000I0J-262500D01*
G01*
X308119000Y-95628000D01*
G75*
G02*
X307856500Y-95890500I-262500J0D01*
G01*
G37*
G36*
G01*
X307856500Y-97615500D02*
X307331500Y-97615500D01*
G75*
G02*
X307069000Y-97353000I0J262500D01*
G01*
X307069000Y-96703000D01*
G75*
G02*
X307331500Y-96440500I262500J0D01*
G01*
X307856500Y-96440500D01*
G75*
G02*
X308119000Y-96703000I0J-262500D01*
G01*
X308119000Y-97353000D01*
G75*
G02*
X307856500Y-97615500I-262500J0D01*
G01*
G37*
%TD*%
%TO.C,C74*%
G36*
G01*
X310506500Y-77987400D02*
X311031500Y-77987400D01*
G75*
G02*
X311294000Y-78249900I0J-262500D01*
G01*
X311294000Y-78899900D01*
G75*
G02*
X311031500Y-79162400I-262500J0D01*
G01*
X310506500Y-79162400D01*
G75*
G02*
X310244000Y-78899900I0J262500D01*
G01*
X310244000Y-78249900D01*
G75*
G02*
X310506500Y-77987400I262500J0D01*
G01*
G37*
G36*
G01*
X310506500Y-79712400D02*
X311031500Y-79712400D01*
G75*
G02*
X311294000Y-79974900I0J-262500D01*
G01*
X311294000Y-80624900D01*
G75*
G02*
X311031500Y-80887400I-262500J0D01*
G01*
X310506500Y-80887400D01*
G75*
G02*
X310244000Y-80624900I0J262500D01*
G01*
X310244000Y-79974900D01*
G75*
G02*
X310506500Y-79712400I262500J0D01*
G01*
G37*
%TD*%
%TO.C,C90*%
G36*
G01*
X79976100Y-149920000D02*
X80501100Y-149920000D01*
G75*
G02*
X80763600Y-150182500I0J-262500D01*
G01*
X80763600Y-150832500D01*
G75*
G02*
X80501100Y-151095000I-262500J0D01*
G01*
X79976100Y-151095000D01*
G75*
G02*
X79713600Y-150832500I0J262500D01*
G01*
X79713600Y-150182500D01*
G75*
G02*
X79976100Y-149920000I262500J0D01*
G01*
G37*
G36*
G01*
X79976100Y-148195000D02*
X80501100Y-148195000D01*
G75*
G02*
X80763600Y-148457500I0J-262500D01*
G01*
X80763600Y-149107500D01*
G75*
G02*
X80501100Y-149370000I-262500J0D01*
G01*
X79976100Y-149370000D01*
G75*
G02*
X79713600Y-149107500I0J262500D01*
G01*
X79713600Y-148457500D01*
G75*
G02*
X79976100Y-148195000I262500J0D01*
G01*
G37*
%TD*%
%TO.C,C91*%
G36*
G01*
X80475700Y-139815000D02*
X79950700Y-139815000D01*
G75*
G02*
X79688200Y-139552500I0J262500D01*
G01*
X79688200Y-138902500D01*
G75*
G02*
X79950700Y-138640000I262500J0D01*
G01*
X80475700Y-138640000D01*
G75*
G02*
X80738200Y-138902500I0J-262500D01*
G01*
X80738200Y-139552500D01*
G75*
G02*
X80475700Y-139815000I-262500J0D01*
G01*
G37*
G36*
G01*
X80475700Y-138090000D02*
X79950700Y-138090000D01*
G75*
G02*
X79688200Y-137827500I0J262500D01*
G01*
X79688200Y-137177500D01*
G75*
G02*
X79950700Y-136915000I262500J0D01*
G01*
X80475700Y-136915000D01*
G75*
G02*
X80738200Y-137177500I0J-262500D01*
G01*
X80738200Y-137827500D01*
G75*
G02*
X80475700Y-138090000I-262500J0D01*
G01*
G37*
%TD*%
%TO.C,D1*%
G36*
G01*
X198008000Y-185390000D02*
X198008000Y-183590000D01*
G75*
G02*
X198058000Y-183540000I50000J0D01*
G01*
X199858000Y-183540000D01*
G75*
G02*
X199908000Y-183590000I0J-50000D01*
G01*
X199908000Y-185390000D01*
G75*
G02*
X199858000Y-185440000I-50000J0D01*
G01*
X198058000Y-185440000D01*
G75*
G02*
X198008000Y-185390000I0J50000D01*
G01*
G37*
D19*
X201498000Y-184490000D03*
%TD*%
%TO.C,D2*%
X160490000Y-184464000D03*
G36*
G01*
X157000000Y-185364000D02*
X157000000Y-183564000D01*
G75*
G02*
X157050000Y-183514000I50000J0D01*
G01*
X158850000Y-183514000D01*
G75*
G02*
X158900000Y-183564000I0J-50000D01*
G01*
X158900000Y-185364000D01*
G75*
G02*
X158850000Y-185414000I-50000J0D01*
G01*
X157050000Y-185414000D01*
G75*
G02*
X157000000Y-185364000I0J50000D01*
G01*
G37*
%TD*%
%TO.C,D5*%
G36*
G01*
X353295600Y-148760000D02*
X353295600Y-150960000D01*
G75*
G02*
X353245600Y-151010000I-50000J0D01*
G01*
X351045600Y-151010000D01*
G75*
G02*
X350995600Y-150960000I0J50000D01*
G01*
X350995600Y-148760000D01*
G75*
G02*
X351045600Y-148710000I50000J0D01*
G01*
X353245600Y-148710000D01*
G75*
G02*
X353295600Y-148760000I0J-50000D01*
G01*
G37*
D20*
X341985600Y-149860000D03*
%TD*%
%TO.C,D8*%
G36*
G01*
X340886000Y-113422000D02*
X340886000Y-111622000D01*
G75*
G02*
X340936000Y-111572000I50000J0D01*
G01*
X344436000Y-111572000D01*
G75*
G02*
X344486000Y-111622000I0J-50000D01*
G01*
X344486000Y-113422000D01*
G75*
G02*
X344436000Y-113472000I-50000J0D01*
G01*
X340936000Y-113472000D01*
G75*
G02*
X340886000Y-113422000I0J50000D01*
G01*
G37*
G36*
G01*
X345886000Y-113422000D02*
X345886000Y-111622000D01*
G75*
G02*
X345936000Y-111572000I50000J0D01*
G01*
X349436000Y-111572000D01*
G75*
G02*
X349486000Y-111622000I0J-50000D01*
G01*
X349486000Y-113422000D01*
G75*
G02*
X349436000Y-113472000I-50000J0D01*
G01*
X345936000Y-113472000D01*
G75*
G02*
X345886000Y-113422000I0J50000D01*
G01*
G37*
%TD*%
%TO.C,D11*%
G36*
G01*
X329064000Y-96182000D02*
X329064000Y-98382000D01*
G75*
G02*
X329014000Y-98432000I-50000J0D01*
G01*
X326814000Y-98432000D01*
G75*
G02*
X326764000Y-98382000I0J50000D01*
G01*
X326764000Y-96182000D01*
G75*
G02*
X326814000Y-96132000I50000J0D01*
G01*
X329014000Y-96132000D01*
G75*
G02*
X329064000Y-96182000I0J-50000D01*
G01*
G37*
X317754000Y-97282000D03*
%TD*%
%TO.C,D12*%
X317754000Y-91694000D03*
G36*
G01*
X329064000Y-90594000D02*
X329064000Y-92794000D01*
G75*
G02*
X329014000Y-92844000I-50000J0D01*
G01*
X326814000Y-92844000D01*
G75*
G02*
X326764000Y-92794000I0J50000D01*
G01*
X326764000Y-90594000D01*
G75*
G02*
X326814000Y-90544000I50000J0D01*
G01*
X329014000Y-90544000D01*
G75*
G02*
X329064000Y-90594000I0J-50000D01*
G01*
G37*
%TD*%
%TO.C,J2*%
G36*
G01*
X131110000Y-209860000D02*
X131110000Y-207360000D01*
G75*
G02*
X131160000Y-207310000I50000J0D01*
G01*
X133660000Y-207310000D01*
G75*
G02*
X133710000Y-207360000I0J-50000D01*
G01*
X133710000Y-209860000D01*
G75*
G02*
X133660000Y-209910000I-50000J0D01*
G01*
X131160000Y-209910000D01*
G75*
G02*
X131110000Y-209860000I0J50000D01*
G01*
G37*
D21*
X137410000Y-208610000D03*
%TD*%
%TO.C,J5*%
G36*
G01*
X345765600Y-173716000D02*
X345765600Y-171216000D01*
G75*
G02*
X345815600Y-171166000I50000J0D01*
G01*
X348315600Y-171166000D01*
G75*
G02*
X348365600Y-171216000I0J-50000D01*
G01*
X348365600Y-173716000D01*
G75*
G02*
X348315600Y-173766000I-50000J0D01*
G01*
X345815600Y-173766000D01*
G75*
G02*
X345765600Y-173716000I0J50000D01*
G01*
G37*
X352065600Y-172466000D03*
%TD*%
%TO.C,J7*%
G36*
G01*
X339314000Y-140696000D02*
X339314000Y-138196000D01*
G75*
G02*
X339364000Y-138146000I50000J0D01*
G01*
X341864000Y-138146000D01*
G75*
G02*
X341914000Y-138196000I0J-50000D01*
G01*
X341914000Y-140696000D01*
G75*
G02*
X341864000Y-140746000I-50000J0D01*
G01*
X339364000Y-140746000D01*
G75*
G02*
X339314000Y-140696000I0J50000D01*
G01*
G37*
X345614000Y-139446000D03*
X350614000Y-139446000D03*
%TD*%
D22*
%TO.C,J9*%
X321564000Y-79756000D03*
X324104000Y-79756000D03*
X326644000Y-79756000D03*
%TD*%
D23*
%TO.C,J11*%
X71005400Y-149644000D03*
X71005400Y-138214000D03*
%TD*%
%TO.C,JP3*%
G36*
G01*
X87819600Y-85342300D02*
X86119600Y-85342300D01*
G75*
G02*
X86069600Y-85292300I0J50000D01*
G01*
X86069600Y-83592300D01*
G75*
G02*
X86119600Y-83542300I50000J0D01*
G01*
X87819600Y-83542300D01*
G75*
G02*
X87869600Y-83592300I0J-50000D01*
G01*
X87869600Y-85292300D01*
G75*
G02*
X87819600Y-85342300I-50000J0D01*
G01*
G37*
D15*
X89509600Y-84442300D03*
X92049600Y-84442300D03*
%TD*%
%TO.C,R3*%
G36*
G01*
X225246200Y-144326232D02*
X225246200Y-145284568D01*
G75*
G02*
X224975368Y-145555400I-270832J0D01*
G01*
X224217032Y-145555400D01*
G75*
G02*
X223946200Y-145284568I0J270832D01*
G01*
X223946200Y-144326232D01*
G75*
G02*
X224217032Y-144055400I270832J0D01*
G01*
X224975368Y-144055400D01*
G75*
G02*
X225246200Y-144326232I0J-270832D01*
G01*
G37*
G36*
G01*
X223246200Y-144326232D02*
X223246200Y-145284568D01*
G75*
G02*
X222975368Y-145555400I-270832J0D01*
G01*
X222217032Y-145555400D01*
G75*
G02*
X221946200Y-145284568I0J270832D01*
G01*
X221946200Y-144326232D01*
G75*
G02*
X222217032Y-144055400I270832J0D01*
G01*
X222975368Y-144055400D01*
G75*
G02*
X223246200Y-144326232I0J-270832D01*
G01*
G37*
%TD*%
%TO.C,R6*%
G36*
G01*
X217934600Y-144339032D02*
X217934600Y-145297368D01*
G75*
G02*
X217663768Y-145568200I-270832J0D01*
G01*
X216905432Y-145568200D01*
G75*
G02*
X216634600Y-145297368I0J270832D01*
G01*
X216634600Y-144339032D01*
G75*
G02*
X216905432Y-144068200I270832J0D01*
G01*
X217663768Y-144068200D01*
G75*
G02*
X217934600Y-144339032I0J-270832D01*
G01*
G37*
G36*
G01*
X219934600Y-144339032D02*
X219934600Y-145297368D01*
G75*
G02*
X219663768Y-145568200I-270832J0D01*
G01*
X218905432Y-145568200D01*
G75*
G02*
X218634600Y-145297368I0J270832D01*
G01*
X218634600Y-144339032D01*
G75*
G02*
X218905432Y-144068200I270832J0D01*
G01*
X219663768Y-144068200D01*
G75*
G02*
X219934600Y-144339032I0J-270832D01*
G01*
G37*
%TD*%
%TO.C,R7*%
G36*
G01*
X223858600Y-114074832D02*
X223858600Y-115033168D01*
G75*
G02*
X223587768Y-115304000I-270832J0D01*
G01*
X222829432Y-115304000D01*
G75*
G02*
X222558600Y-115033168I0J270832D01*
G01*
X222558600Y-114074832D01*
G75*
G02*
X222829432Y-113804000I270832J0D01*
G01*
X223587768Y-113804000D01*
G75*
G02*
X223858600Y-114074832I0J-270832D01*
G01*
G37*
G36*
G01*
X221858600Y-114074832D02*
X221858600Y-115033168D01*
G75*
G02*
X221587768Y-115304000I-270832J0D01*
G01*
X220829432Y-115304000D01*
G75*
G02*
X220558600Y-115033168I0J270832D01*
G01*
X220558600Y-114074832D01*
G75*
G02*
X220829432Y-113804000I270832J0D01*
G01*
X221587768Y-113804000D01*
G75*
G02*
X221858600Y-114074832I0J-270832D01*
G01*
G37*
%TD*%
%TO.C,R8*%
G36*
G01*
X216918400Y-114074832D02*
X216918400Y-115033168D01*
G75*
G02*
X216647568Y-115304000I-270832J0D01*
G01*
X215889232Y-115304000D01*
G75*
G02*
X215618400Y-115033168I0J270832D01*
G01*
X215618400Y-114074832D01*
G75*
G02*
X215889232Y-113804000I270832J0D01*
G01*
X216647568Y-113804000D01*
G75*
G02*
X216918400Y-114074832I0J-270832D01*
G01*
G37*
G36*
G01*
X218918400Y-114074832D02*
X218918400Y-115033168D01*
G75*
G02*
X218647568Y-115304000I-270832J0D01*
G01*
X217889232Y-115304000D01*
G75*
G02*
X217618400Y-115033168I0J270832D01*
G01*
X217618400Y-114074832D01*
G75*
G02*
X217889232Y-113804000I270832J0D01*
G01*
X218647568Y-113804000D01*
G75*
G02*
X218918400Y-114074832I0J-270832D01*
G01*
G37*
%TD*%
%TO.C,R14*%
G36*
G01*
X72467200Y-174304168D02*
X72467200Y-173345832D01*
G75*
G02*
X72738032Y-173075000I270832J0D01*
G01*
X73496368Y-173075000D01*
G75*
G02*
X73767200Y-173345832I0J-270832D01*
G01*
X73767200Y-174304168D01*
G75*
G02*
X73496368Y-174575000I-270832J0D01*
G01*
X72738032Y-174575000D01*
G75*
G02*
X72467200Y-174304168I0J270832D01*
G01*
G37*
G36*
G01*
X74467200Y-174304168D02*
X74467200Y-173345832D01*
G75*
G02*
X74738032Y-173075000I270832J0D01*
G01*
X75496368Y-173075000D01*
G75*
G02*
X75767200Y-173345832I0J-270832D01*
G01*
X75767200Y-174304168D01*
G75*
G02*
X75496368Y-174575000I-270832J0D01*
G01*
X74738032Y-174575000D01*
G75*
G02*
X74467200Y-174304168I0J270832D01*
G01*
G37*
%TD*%
%TO.C,R15*%
G36*
G01*
X65089800Y-177218832D02*
X65089800Y-178177168D01*
G75*
G02*
X64818968Y-178448000I-270832J0D01*
G01*
X64060632Y-178448000D01*
G75*
G02*
X63789800Y-178177168I0J270832D01*
G01*
X63789800Y-177218832D01*
G75*
G02*
X64060632Y-176948000I270832J0D01*
G01*
X64818968Y-176948000D01*
G75*
G02*
X65089800Y-177218832I0J-270832D01*
G01*
G37*
G36*
G01*
X67089800Y-177218832D02*
X67089800Y-178177168D01*
G75*
G02*
X66818968Y-178448000I-270832J0D01*
G01*
X66060632Y-178448000D01*
G75*
G02*
X65789800Y-178177168I0J270832D01*
G01*
X65789800Y-177218832D01*
G75*
G02*
X66060632Y-176948000I270832J0D01*
G01*
X66818968Y-176948000D01*
G75*
G02*
X67089800Y-177218832I0J-270832D01*
G01*
G37*
%TD*%
D24*
%TO.C,R23*%
X342239600Y-172466000D03*
D25*
X342239600Y-162306000D03*
%TD*%
%TO.C,R27*%
X341985600Y-153416000D03*
D24*
X352145600Y-153416000D03*
%TD*%
%TO.C,R57*%
X313436000Y-97028000D03*
D25*
X313436000Y-86868000D03*
%TD*%
%TO.C,R60*%
G36*
G01*
X307114832Y-79868000D02*
X308073168Y-79868000D01*
G75*
G02*
X308344000Y-80138832I0J-270832D01*
G01*
X308344000Y-80897168D01*
G75*
G02*
X308073168Y-81168000I-270832J0D01*
G01*
X307114832Y-81168000D01*
G75*
G02*
X306844000Y-80897168I0J270832D01*
G01*
X306844000Y-80138832D01*
G75*
G02*
X307114832Y-79868000I270832J0D01*
G01*
G37*
G36*
G01*
X307114832Y-77868000D02*
X308073168Y-77868000D01*
G75*
G02*
X308344000Y-78138832I0J-270832D01*
G01*
X308344000Y-78897168D01*
G75*
G02*
X308073168Y-79168000I-270832J0D01*
G01*
X307114832Y-79168000D01*
G75*
G02*
X306844000Y-78897168I0J270832D01*
G01*
X306844000Y-78138832D01*
G75*
G02*
X307114832Y-77868000I270832J0D01*
G01*
G37*
%TD*%
%TO.C,R61*%
X318008000Y-86614000D03*
D24*
X328168000Y-86614000D03*
%TD*%
%TO.C,R74*%
G36*
G01*
X166480868Y-178043600D02*
X165522532Y-178043600D01*
G75*
G02*
X165251700Y-177772768I0J270832D01*
G01*
X165251700Y-177014432D01*
G75*
G02*
X165522532Y-176743600I270832J0D01*
G01*
X166480868Y-176743600D01*
G75*
G02*
X166751700Y-177014432I0J-270832D01*
G01*
X166751700Y-177772768D01*
G75*
G02*
X166480868Y-178043600I-270832J0D01*
G01*
G37*
G36*
G01*
X166480868Y-176043600D02*
X165522532Y-176043600D01*
G75*
G02*
X165251700Y-175772768I0J270832D01*
G01*
X165251700Y-175014432D01*
G75*
G02*
X165522532Y-174743600I270832J0D01*
G01*
X166480868Y-174743600D01*
G75*
G02*
X166751700Y-175014432I0J-270832D01*
G01*
X166751700Y-175772768D01*
G75*
G02*
X166480868Y-176043600I-270832J0D01*
G01*
G37*
%TD*%
%TO.C,R75*%
G36*
G01*
X169536488Y-178043600D02*
X168578152Y-178043600D01*
G75*
G02*
X168307320Y-177772768I0J270832D01*
G01*
X168307320Y-177014432D01*
G75*
G02*
X168578152Y-176743600I270832J0D01*
G01*
X169536488Y-176743600D01*
G75*
G02*
X169807320Y-177014432I0J-270832D01*
G01*
X169807320Y-177772768D01*
G75*
G02*
X169536488Y-178043600I-270832J0D01*
G01*
G37*
G36*
G01*
X169536488Y-176043600D02*
X168578152Y-176043600D01*
G75*
G02*
X168307320Y-175772768I0J270832D01*
G01*
X168307320Y-175014432D01*
G75*
G02*
X168578152Y-174743600I270832J0D01*
G01*
X169536488Y-174743600D01*
G75*
G02*
X169807320Y-175014432I0J-270832D01*
G01*
X169807320Y-175772768D01*
G75*
G02*
X169536488Y-176043600I-270832J0D01*
G01*
G37*
%TD*%
%TO.C,R76*%
G36*
G01*
X181758968Y-176043600D02*
X180800632Y-176043600D01*
G75*
G02*
X180529800Y-175772768I0J270832D01*
G01*
X180529800Y-175014432D01*
G75*
G02*
X180800632Y-174743600I270832J0D01*
G01*
X181758968Y-174743600D01*
G75*
G02*
X182029800Y-175014432I0J-270832D01*
G01*
X182029800Y-175772768D01*
G75*
G02*
X181758968Y-176043600I-270832J0D01*
G01*
G37*
G36*
G01*
X181758968Y-178043600D02*
X180800632Y-178043600D01*
G75*
G02*
X180529800Y-177772768I0J270832D01*
G01*
X180529800Y-177014432D01*
G75*
G02*
X180800632Y-176743600I270832J0D01*
G01*
X181758968Y-176743600D01*
G75*
G02*
X182029800Y-177014432I0J-270832D01*
G01*
X182029800Y-177772768D01*
G75*
G02*
X181758968Y-178043600I-270832J0D01*
G01*
G37*
%TD*%
%TO.C,R77*%
G36*
G01*
X178703348Y-178043600D02*
X177745012Y-178043600D01*
G75*
G02*
X177474180Y-177772768I0J270832D01*
G01*
X177474180Y-177014432D01*
G75*
G02*
X177745012Y-176743600I270832J0D01*
G01*
X178703348Y-176743600D01*
G75*
G02*
X178974180Y-177014432I0J-270832D01*
G01*
X178974180Y-177772768D01*
G75*
G02*
X178703348Y-178043600I-270832J0D01*
G01*
G37*
G36*
G01*
X178703348Y-176043600D02*
X177745012Y-176043600D01*
G75*
G02*
X177474180Y-175772768I0J270832D01*
G01*
X177474180Y-175014432D01*
G75*
G02*
X177745012Y-174743600I270832J0D01*
G01*
X178703348Y-174743600D01*
G75*
G02*
X178974180Y-175014432I0J-270832D01*
G01*
X178974180Y-175772768D01*
G75*
G02*
X178703348Y-176043600I-270832J0D01*
G01*
G37*
%TD*%
%TO.C,R78*%
G36*
G01*
X175647728Y-176043600D02*
X174689392Y-176043600D01*
G75*
G02*
X174418560Y-175772768I0J270832D01*
G01*
X174418560Y-175014432D01*
G75*
G02*
X174689392Y-174743600I270832J0D01*
G01*
X175647728Y-174743600D01*
G75*
G02*
X175918560Y-175014432I0J-270832D01*
G01*
X175918560Y-175772768D01*
G75*
G02*
X175647728Y-176043600I-270832J0D01*
G01*
G37*
G36*
G01*
X175647728Y-178043600D02*
X174689392Y-178043600D01*
G75*
G02*
X174418560Y-177772768I0J270832D01*
G01*
X174418560Y-177014432D01*
G75*
G02*
X174689392Y-176743600I270832J0D01*
G01*
X175647728Y-176743600D01*
G75*
G02*
X175918560Y-177014432I0J-270832D01*
G01*
X175918560Y-177772768D01*
G75*
G02*
X175647728Y-178043600I-270832J0D01*
G01*
G37*
%TD*%
%TO.C,R79*%
G36*
G01*
X172592108Y-178043600D02*
X171633772Y-178043600D01*
G75*
G02*
X171362940Y-177772768I0J270832D01*
G01*
X171362940Y-177014432D01*
G75*
G02*
X171633772Y-176743600I270832J0D01*
G01*
X172592108Y-176743600D01*
G75*
G02*
X172862940Y-177014432I0J-270832D01*
G01*
X172862940Y-177772768D01*
G75*
G02*
X172592108Y-178043600I-270832J0D01*
G01*
G37*
G36*
G01*
X172592108Y-176043600D02*
X171633772Y-176043600D01*
G75*
G02*
X171362940Y-175772768I0J270832D01*
G01*
X171362940Y-175014432D01*
G75*
G02*
X171633772Y-174743600I270832J0D01*
G01*
X172592108Y-174743600D01*
G75*
G02*
X172862940Y-175014432I0J-270832D01*
G01*
X172862940Y-175772768D01*
G75*
G02*
X172592108Y-176043600I-270832J0D01*
G01*
G37*
%TD*%
%TO.C,RL1*%
G36*
G01*
X340203000Y-107295000D02*
X340203000Y-104795000D01*
G75*
G02*
X340253000Y-104745000I50000J0D01*
G01*
X342753000Y-104745000D01*
G75*
G02*
X342803000Y-104795000I0J-50000D01*
G01*
X342803000Y-107295000D01*
G75*
G02*
X342753000Y-107345000I-50000J0D01*
G01*
X340253000Y-107345000D01*
G75*
G02*
X340203000Y-107295000I0J50000D01*
G01*
G37*
D26*
X341503000Y-121045000D03*
X341503000Y-126045000D03*
X341503000Y-131045000D03*
X349003000Y-131045000D03*
X349003000Y-126045000D03*
X349003000Y-121045000D03*
X349003000Y-106045000D03*
%TD*%
D27*
%TO.C,SW1*%
X332207000Y-175115000D03*
X329667000Y-175095000D03*
%TD*%
%TO.C,SW2*%
X310172000Y-175115000D03*
X307632000Y-175095000D03*
%TD*%
%TO.C,SW3*%
X287947000Y-175115000D03*
X285407000Y-175095000D03*
%TD*%
%TO.C,SW4*%
X265874000Y-175115000D03*
X263334000Y-175095000D03*
%TD*%
%TO.C,SW5*%
X241262000Y-175095000D03*
X243802000Y-175115000D03*
%TD*%
%TO.C,SW6*%
X219253000Y-175095000D03*
X221793000Y-175115000D03*
%TD*%
%TO.C,U1*%
G36*
G01*
X268009000Y-165163000D02*
X266509000Y-165163000D01*
G75*
G02*
X266459000Y-165113000I0J50000D01*
G01*
X266459000Y-163613000D01*
G75*
G02*
X266509000Y-163563000I50000J0D01*
G01*
X268009000Y-163563000D01*
G75*
G02*
X268059000Y-163613000I0J-50000D01*
G01*
X268059000Y-165113000D01*
G75*
G02*
X268009000Y-165163000I-50000J0D01*
G01*
G37*
D18*
X264719000Y-164363000D03*
X262179000Y-164363000D03*
X259639000Y-164363000D03*
X257099000Y-164363000D03*
X254559000Y-164363000D03*
X254559000Y-149123000D03*
X257099000Y-149123000D03*
X259639000Y-149123000D03*
X262179000Y-149123000D03*
X264719000Y-149123000D03*
X267259000Y-149123000D03*
%TD*%
D28*
%TO.C,U5*%
X247637000Y-105600000D03*
X245097000Y-105600000D03*
X242557000Y-105600000D03*
X240017000Y-105600000D03*
X237477000Y-105600000D03*
X237477000Y-120840000D03*
X240017000Y-120840000D03*
X242557000Y-120840000D03*
X245097000Y-120840000D03*
G36*
G01*
X248449000Y-119578000D02*
X248449000Y-122102000D01*
G75*
G02*
X248399000Y-122152000I-50000J0D01*
G01*
X246875000Y-122152000D01*
G75*
G02*
X246825000Y-122102000I0J50000D01*
G01*
X246825000Y-119578000D01*
G75*
G02*
X246875000Y-119528000I50000J0D01*
G01*
X248399000Y-119528000D01*
G75*
G02*
X248449000Y-119578000I0J-50000D01*
G01*
G37*
%TD*%
%TO.C,U7*%
G36*
G01*
X292629000Y-121742000D02*
X291129000Y-121742000D01*
G75*
G02*
X291079000Y-121692000I0J50000D01*
G01*
X291079000Y-120192000D01*
G75*
G02*
X291129000Y-120142000I50000J0D01*
G01*
X292629000Y-120142000D01*
G75*
G02*
X292679000Y-120192000I0J-50000D01*
G01*
X292679000Y-121692000D01*
G75*
G02*
X292629000Y-121742000I-50000J0D01*
G01*
G37*
D18*
X289339000Y-120942000D03*
X286799000Y-120942000D03*
X284259000Y-120942000D03*
X281719000Y-120942000D03*
X279179000Y-120942000D03*
X279179000Y-105702000D03*
X281719000Y-105702000D03*
X284259000Y-105702000D03*
X286799000Y-105702000D03*
X289339000Y-105702000D03*
X291879000Y-105702000D03*
%TD*%
%TO.C,C50*%
G36*
G01*
X134982800Y-138375000D02*
X134982800Y-137850000D01*
G75*
G02*
X135245300Y-137587500I262500J0D01*
G01*
X135895300Y-137587500D01*
G75*
G02*
X136157800Y-137850000I0J-262500D01*
G01*
X136157800Y-138375000D01*
G75*
G02*
X135895300Y-138637500I-262500J0D01*
G01*
X135245300Y-138637500D01*
G75*
G02*
X134982800Y-138375000I0J262500D01*
G01*
G37*
G36*
G01*
X133257800Y-138375000D02*
X133257800Y-137850000D01*
G75*
G02*
X133520300Y-137587500I262500J0D01*
G01*
X134170300Y-137587500D01*
G75*
G02*
X134432800Y-137850000I0J-262500D01*
G01*
X134432800Y-138375000D01*
G75*
G02*
X134170300Y-138637500I-262500J0D01*
G01*
X133520300Y-138637500D01*
G75*
G02*
X133257800Y-138375000I0J262500D01*
G01*
G37*
%TD*%
D29*
%TO.C,J3*%
X96494600Y-195910200D03*
X96494600Y-193370200D03*
X93954600Y-195910200D03*
X93954600Y-193370200D03*
X91414600Y-195910200D03*
X91414600Y-193370200D03*
X88874600Y-195910200D03*
X88874600Y-193370200D03*
X86334600Y-195910200D03*
X86334600Y-193370200D03*
%TD*%
%TO.C,J12*%
G36*
G01*
X67095800Y-158140000D02*
X67095800Y-156440000D01*
G75*
G02*
X67145800Y-156390000I50000J0D01*
G01*
X68845800Y-156390000D01*
G75*
G02*
X68895800Y-156440000I0J-50000D01*
G01*
X68895800Y-158140000D01*
G75*
G02*
X68845800Y-158190000I-50000J0D01*
G01*
X67145800Y-158190000D01*
G75*
G02*
X67095800Y-158140000I0J50000D01*
G01*
G37*
%TD*%
D15*
%TO.C,J14*%
X148196300Y-176695100D03*
X148196300Y-179235100D03*
G36*
G01*
X149096300Y-180925100D02*
X149096300Y-182625100D01*
G75*
G02*
X149046300Y-182675100I-50000J0D01*
G01*
X147346300Y-182675100D01*
G75*
G02*
X147296300Y-182625100I0J50000D01*
G01*
X147296300Y-180925100D01*
G75*
G02*
X147346300Y-180875100I50000J0D01*
G01*
X149046300Y-180875100D01*
G75*
G02*
X149096300Y-180925100I0J-50000D01*
G01*
G37*
%TD*%
%TO.C,J15*%
G36*
G01*
X123216300Y-184507300D02*
X124916300Y-184507300D01*
G75*
G02*
X124966300Y-184557300I0J-50000D01*
G01*
X124966300Y-186257300D01*
G75*
G02*
X124916300Y-186307300I-50000J0D01*
G01*
X123216300Y-186307300D01*
G75*
G02*
X123166300Y-186257300I0J50000D01*
G01*
X123166300Y-184557300D01*
G75*
G02*
X123216300Y-184507300I50000J0D01*
G01*
G37*
X121526300Y-185407300D03*
X118986300Y-185407300D03*
%TD*%
%TO.C,J16*%
X128625600Y-185394600D03*
X131165600Y-185394600D03*
X133705600Y-185394600D03*
G36*
G01*
X135395600Y-184494600D02*
X137095600Y-184494600D01*
G75*
G02*
X137145600Y-184544600I0J-50000D01*
G01*
X137145600Y-186244600D01*
G75*
G02*
X137095600Y-186294600I-50000J0D01*
G01*
X135395600Y-186294600D01*
G75*
G02*
X135345600Y-186244600I0J50000D01*
G01*
X135345600Y-184544600D01*
G75*
G02*
X135395600Y-184494600I50000J0D01*
G01*
G37*
%TD*%
%TO.C,J17*%
G36*
G01*
X145022200Y-75960400D02*
X146722200Y-75960400D01*
G75*
G02*
X146772200Y-76010400I0J-50000D01*
G01*
X146772200Y-77710400D01*
G75*
G02*
X146722200Y-77760400I-50000J0D01*
G01*
X145022200Y-77760400D01*
G75*
G02*
X144972200Y-77710400I0J50000D01*
G01*
X144972200Y-76010400D01*
G75*
G02*
X145022200Y-75960400I50000J0D01*
G01*
G37*
X143332200Y-76860400D03*
X140792200Y-76860400D03*
X138252200Y-76860400D03*
%TD*%
D30*
X127609600Y-193852800D03*
D31*
X98107500Y-143471900D03*
X99707500Y-143471900D03*
X98107500Y-145071900D03*
X99707500Y-145071900D03*
X87680800Y-145199100D03*
D32*
X90220800Y-134378700D03*
X102158800Y-156248100D03*
D31*
X99364800Y-151650700D03*
D32*
X103428800Y-152006300D03*
X111252000Y-143548100D03*
D31*
X89585800Y-157556200D03*
D32*
X80238600Y-152222200D03*
X80187800Y-136017000D03*
D31*
X80822800Y-129819400D03*
X80848200Y-132918200D03*
D30*
X97205800Y-179781200D03*
X98069400Y-170789600D03*
X96774000Y-164033200D03*
D32*
X96012000Y-127939800D03*
X96088200Y-134366000D03*
X96240600Y-152044400D03*
X147320000Y-154000200D03*
X141554200Y-129641600D03*
D30*
X133832600Y-116967000D03*
X138988800Y-116967000D03*
D32*
X155117800Y-146608800D03*
X155092400Y-135102600D03*
X148910000Y-160957300D03*
X139928600Y-161010600D03*
D30*
X121920000Y-156921200D03*
X121767600Y-153593800D03*
D32*
X121767600Y-148996400D03*
D30*
X121843800Y-143967200D03*
D31*
X121894600Y-141605000D03*
D30*
X121894600Y-146532600D03*
D31*
X187198000Y-207594200D03*
X183057800Y-207594200D03*
X176834800Y-204673200D03*
X174040800Y-201904600D03*
D30*
X168503600Y-185877200D03*
X165023800Y-183032400D03*
X166700200Y-192887600D03*
X157556200Y-200634600D03*
D31*
X173964600Y-194665600D03*
X162077400Y-199059800D03*
D30*
X162077400Y-201828400D03*
X167436800Y-198475600D03*
X172897800Y-180797200D03*
X151434800Y-202057000D03*
X133477000Y-194691000D03*
X129286000Y-196672200D03*
X125501400Y-201422000D03*
X99110800Y-205790800D03*
X121640600Y-195072000D03*
X140335000Y-194411600D03*
D32*
X126873000Y-131165600D03*
X127076200Y-127558800D03*
X134645400Y-128092200D03*
D30*
X137185400Y-115925600D03*
D32*
X143535400Y-95834200D03*
D30*
X130581400Y-97256600D03*
X130657300Y-107696300D03*
X153365200Y-127609600D03*
D31*
X153365200Y-130860800D03*
X156895800Y-175387000D03*
X216357200Y-172618400D03*
X238810800Y-172618400D03*
X260350000Y-172516800D03*
X305054000Y-172466000D03*
X326999600Y-172516800D03*
X282651200Y-172567600D03*
D32*
X330504800Y-113487200D03*
X296621200Y-84480400D03*
X293624000Y-84480400D03*
X293624000Y-96469200D03*
X297027600Y-96469200D03*
X320192400Y-123190000D03*
X323646800Y-154381200D03*
X327202800Y-154381200D03*
X217779600Y-137236200D03*
X224180400Y-137261600D03*
X220218000Y-151866600D03*
X187655200Y-190677800D03*
X227863400Y-94564200D03*
X207645000Y-93903800D03*
X222885000Y-106527600D03*
X216535000Y-106527600D03*
X217297000Y-122453400D03*
D30*
X154609800Y-121589800D03*
X154609800Y-118364000D03*
D31*
X137096500Y-138099800D03*
X140347700Y-136512300D03*
D32*
X155117800Y-141630400D03*
X147688300Y-143484600D03*
X130898900Y-129425700D03*
X120281700Y-134239000D03*
X159943800Y-143484600D03*
D31*
X86296500Y-152323800D03*
X167652700Y-204508100D03*
X194716400Y-159804100D03*
X168211500Y-133997700D03*
X181356000Y-140944600D03*
X194665600Y-164541200D03*
X178244500Y-159702500D03*
X192709800Y-102539800D03*
X185254900Y-102539800D03*
X177863500Y-102666800D03*
X172427900Y-102476300D03*
X169862500Y-103416100D03*
X174294800Y-102463600D03*
X221665800Y-102641400D03*
X169875200Y-118922800D03*
X172466000Y-118922800D03*
X177558700Y-119519700D03*
X179578000Y-118960900D03*
X182537100Y-121869200D03*
X180416200Y-122072400D03*
X183794400Y-118960900D03*
X187998100Y-118960900D03*
X192697100Y-118986300D03*
X262712200Y-120916700D03*
X230555800Y-121666000D03*
X233057700Y-119900700D03*
X284175200Y-123634500D03*
X281851100Y-123634500D03*
X136436100Y-121551700D03*
X139395200Y-126746000D03*
X135559800Y-127076200D03*
X137109200Y-111023400D03*
X239788700Y-159943800D03*
X239763300Y-151396700D03*
X198653400Y-148945600D03*
X198628000Y-145529300D03*
X206019400Y-139928600D03*
X185661300Y-146304000D03*
X256743200Y-145796000D03*
X239788700Y-165061900D03*
X239801400Y-163398200D03*
D30*
X128778200Y-208610000D03*
X123507700Y-208610000D03*
X121564600Y-208610000D03*
X119583400Y-208610000D03*
X112852400Y-208610000D03*
X114947900Y-208610000D03*
X117322800Y-208610000D03*
X110668000Y-210172100D03*
X110668000Y-208559200D03*
D31*
X137706100Y-151638000D03*
D30*
X145288000Y-122199400D03*
D31*
X95631000Y-190474600D03*
X98107500Y-190474600D03*
X91567000Y-190474600D03*
X131191000Y-137020300D03*
X145008600Y-148272500D03*
X144564100Y-154330400D03*
X96443800Y-139534900D03*
X102057200Y-147459700D03*
X102171500Y-141655800D03*
X159880300Y-203962000D03*
X197802500Y-181229000D03*
D30*
X125387300Y-208610000D03*
X127190700Y-208610000D03*
X128993700Y-193853000D03*
X146176800Y-190932000D03*
D12*
X157378400Y-196342000D03*
D30*
X133845300Y-159397700D03*
X125145800Y-135966200D03*
D31*
X221615000Y-146278600D03*
D32*
X221945200Y-151866600D03*
X190958601Y-179068599D03*
X190958601Y-180465599D03*
X190960010Y-177720990D03*
D31*
X220878400Y-116281200D03*
D32*
X221970600Y-121691400D03*
D30*
X104521000Y-170459400D03*
D32*
X92405200Y-127914400D03*
D30*
X106349600Y-204267000D03*
X108584800Y-204267000D03*
X107467200Y-204267000D03*
X102235000Y-205486000D03*
X102209600Y-202920600D03*
X104368000Y-207695200D03*
X104368000Y-200889200D03*
D32*
X112179100Y-144665700D03*
D31*
X110921800Y-148691600D03*
D32*
X108991400Y-134213600D03*
X139852400Y-129616200D03*
X153365200Y-146608800D03*
X153390600Y-135102600D03*
X148907500Y-159207200D03*
D30*
X126060200Y-156921200D03*
X124968000Y-150317200D03*
D32*
X124993400Y-145338800D03*
D30*
X161696400Y-206298800D03*
X154101800Y-205105000D03*
X151409400Y-200355200D03*
X122631200Y-188849000D03*
X123850400Y-190093600D03*
X123850400Y-194665600D03*
X133905000Y-192418000D03*
X134992600Y-193505600D03*
X136110200Y-194623200D03*
X134992600Y-194597800D03*
D32*
X128701800Y-123926600D03*
D30*
X138582400Y-112699800D03*
X143535400Y-94107000D03*
X128854200Y-97231200D03*
X128930400Y-107670600D03*
D32*
X142544800Y-159308800D03*
D31*
X151257000Y-133197600D03*
X169062400Y-179298600D03*
X181317900Y-179171600D03*
D32*
X153390600Y-141605000D03*
D31*
X136740000Y-157949900D03*
D30*
X122631200Y-195859400D03*
X135001000Y-192455800D03*
D12*
X157581600Y-195389500D03*
D30*
X125755400Y-138722100D03*
X148564600Y-118338600D03*
X148564600Y-121666000D03*
D12*
X134475759Y-132474239D03*
D31*
X305396900Y-78524100D03*
X165989000Y-173113700D03*
X137224293Y-159586204D03*
X137426700Y-172643800D03*
X169056200Y-172523300D03*
X137740000Y-160197800D03*
X138294097Y-172513699D03*
X181270690Y-170323290D03*
X139962990Y-159067500D03*
X141111401Y-169710100D03*
X139962990Y-159943800D03*
X178234601Y-170723299D03*
X141111401Y-170677304D03*
X138628599Y-161899600D03*
X175171100Y-171323300D03*
X138628599Y-170218100D03*
X138240000Y-161124900D03*
X172119700Y-171923300D03*
X138628599Y-171373800D03*
X95529400Y-145770600D03*
X90932000Y-142875000D03*
X86512400Y-144564100D03*
X90982800Y-145592800D03*
X90957400Y-148767800D03*
X93065600Y-142367000D03*
X95580200Y-144957800D03*
X171043600Y-195630800D03*
X162077400Y-195630800D03*
X161340800Y-197510400D03*
X170967400Y-197510400D03*
X165328600Y-196773800D03*
X171043600Y-198602600D03*
X162102800Y-200837800D03*
X171069000Y-200837800D03*
D12*
X98082600Y-148158200D03*
X86207600Y-137629900D03*
D31*
X142151100Y-132575300D03*
X142951200Y-132054600D03*
X144094200Y-157657800D03*
X144765000Y-158407100D03*
X134828598Y-151006736D03*
X135528598Y-150596600D03*
X136128598Y-168554400D03*
X142660285Y-142774585D03*
X143814800Y-136271000D03*
X145723015Y-136515515D03*
X146540062Y-136546997D03*
X149098000Y-132943600D03*
X157353000Y-133197600D03*
X157353000Y-83302400D03*
X158127700Y-173723300D03*
X151231600Y-134289800D03*
X149936200Y-134277100D03*
X157302200Y-174434500D03*
X220345000Y-146278600D03*
X219075000Y-116281200D03*
X165506400Y-82702400D03*
X165506400Y-139496800D03*
X139573000Y-132562600D03*
D12*
X132943600Y-116255800D03*
X131902200Y-117017800D03*
D31*
X135423200Y-136131300D03*
X305587400Y-92036900D03*
X305562000Y-80505300D03*
X103016300Y-138982700D03*
X128244600Y-133426200D03*
X127000000Y-132435600D03*
X121767600Y-132435600D03*
X226771200Y-134150100D03*
X227495100Y-137248900D03*
X208991200Y-109556400D03*
X210667600Y-139776200D03*
X208991200Y-136969500D03*
X211683600Y-121361200D03*
X211963000Y-148920200D03*
X211983599Y-135986799D03*
X229438200Y-111658400D03*
X229440000Y-148998200D03*
X224155000Y-151434800D03*
X224183801Y-165713001D03*
X264719000Y-164363000D03*
X228067003Y-151395203D03*
X228071511Y-166413011D03*
X225425000Y-151460200D03*
X225431421Y-167113021D03*
X223418400Y-153162000D03*
X223418400Y-155181300D03*
X218465400Y-152095200D03*
X222783100Y-165113000D03*
X230225600Y-164363400D03*
X230225600Y-142163800D03*
X217805000Y-152679400D03*
X250825000Y-154508200D03*
X217062050Y-153765250D03*
X226695000Y-141605000D03*
X226695000Y-155943300D03*
X199034400Y-117602000D03*
X245084600Y-124679000D03*
X193954400Y-116992400D03*
X223824800Y-120675400D03*
X222377000Y-116281200D03*
X239966500Y-125353412D03*
X237477300Y-125984000D03*
X191389000Y-100177600D03*
X237490000Y-100177600D03*
X213969600Y-120243600D03*
X213233000Y-100171399D03*
X193176600Y-100777600D03*
X239963399Y-100777601D03*
X213995000Y-116281199D03*
X213934601Y-100777600D03*
X212979000Y-120243600D03*
X212991700Y-124153411D03*
X249732800Y-119240300D03*
X245103799Y-101377601D03*
X214909400Y-116281199D03*
X214595000Y-101377601D03*
X224180400Y-111379000D03*
X228727000Y-124079000D03*
X217805000Y-99577600D03*
X217805000Y-106527600D03*
X224134467Y-103281267D03*
X215265000Y-106527600D03*
X116027200Y-147370800D03*
X98501200Y-140589000D03*
X151952400Y-154081564D03*
D12*
X154406600Y-195168001D03*
D31*
X148209000Y-152958800D03*
D12*
X151733464Y-189388536D03*
D31*
X151726900Y-152501600D03*
D12*
X152488900Y-189979300D03*
X156946600Y-191338200D03*
D31*
X152952410Y-152266610D03*
X147701000Y-139801600D03*
X142783000Y-110680500D03*
X146507200Y-139776200D03*
D12*
X153578634Y-196839766D03*
D31*
X101830035Y-139320435D03*
X130070034Y-139620434D03*
X97536000Y-140944600D03*
X128371600Y-155346400D03*
X96443800Y-140944600D03*
X128574800Y-157530800D03*
D12*
X153898600Y-193497200D03*
D31*
X142849600Y-160705800D03*
X143440000Y-158216600D03*
D12*
X153152400Y-191643000D03*
X159283400Y-192316100D03*
X154559000Y-151320500D03*
X160324800Y-191770000D03*
X155409900Y-150520400D03*
X158541559Y-191326239D03*
D31*
X153111200Y-138900000D03*
X142011400Y-157861000D03*
X161544000Y-194233800D03*
D12*
X157353000Y-194106800D03*
D31*
X162077400Y-193065400D03*
X143027400Y-154457400D03*
X132562600Y-143522700D03*
X131279900Y-144843500D03*
X133883400Y-136601200D03*
X127838200Y-158902400D03*
X128403887Y-159502400D03*
X293544700Y-109550200D03*
X326466200Y-109651800D03*
X158553001Y-133197600D03*
X158546800Y-81902300D03*
X291782500Y-100545900D03*
X295046400Y-97015300D03*
X295046400Y-85064600D03*
X290855400Y-89585800D03*
X129028102Y-160102400D03*
D30*
X163918900Y-186982100D03*
D32*
X312940700Y-123190000D03*
X321919600Y-150507700D03*
D30*
X76758800Y-173786800D03*
X77038200Y-170586400D03*
X74091800Y-175260000D03*
X74066400Y-180213000D03*
X83134200Y-171856400D03*
X83134200Y-179476400D03*
D32*
X80975200Y-147243800D03*
X80975200Y-140741400D03*
D31*
X89535000Y-151968200D03*
X92354400Y-151968200D03*
D12*
X96558100Y-147751399D03*
D31*
X305574700Y-90474800D03*
D32*
X304952400Y-93319600D03*
X312407300Y-80302100D03*
X305003200Y-81686400D03*
X307594000Y-98755200D03*
D33*
G36*
X106982349Y-204159909D02*
G01*
X106982851Y-204161666D01*
X106971608Y-204218190D01*
X106971608Y-204315810D01*
X106982851Y-204372334D01*
X106982208Y-204374228D01*
X106980246Y-204374618D01*
X106978975Y-204373305D01*
X106975833Y-204362946D01*
X106969089Y-204350327D01*
X106960012Y-204339267D01*
X106948951Y-204330190D01*
X106936332Y-204323445D01*
X106922637Y-204319290D01*
X106908400Y-204317888D01*
X106894164Y-204319290D01*
X106880468Y-204323445D01*
X106867849Y-204330189D01*
X106856789Y-204339266D01*
X106847712Y-204350327D01*
X106840967Y-204362946D01*
X106837825Y-204373305D01*
X106836365Y-204374672D01*
X106834451Y-204374091D01*
X106833949Y-204372334D01*
X106845192Y-204315810D01*
X106845192Y-204218190D01*
X106833949Y-204161666D01*
X106834592Y-204159772D01*
X106836554Y-204159382D01*
X106837825Y-204160695D01*
X106840967Y-204171054D01*
X106847711Y-204183673D01*
X106856788Y-204194733D01*
X106867849Y-204203810D01*
X106880468Y-204210555D01*
X106894163Y-204214710D01*
X106908400Y-204216112D01*
X106922636Y-204214710D01*
X106936332Y-204210555D01*
X106948951Y-204203811D01*
X106960011Y-204194734D01*
X106969088Y-204183673D01*
X106975833Y-204171054D01*
X106978975Y-204160695D01*
X106980435Y-204159328D01*
X106982349Y-204159909D01*
G37*
G36*
X108099949Y-204159909D02*
G01*
X108100451Y-204161666D01*
X108089208Y-204218190D01*
X108089208Y-204315810D01*
X108100451Y-204372334D01*
X108099808Y-204374228D01*
X108097846Y-204374618D01*
X108096575Y-204373305D01*
X108093433Y-204362946D01*
X108086689Y-204350327D01*
X108077612Y-204339267D01*
X108066551Y-204330190D01*
X108053932Y-204323445D01*
X108040237Y-204319290D01*
X108026000Y-204317888D01*
X108011764Y-204319290D01*
X107998068Y-204323445D01*
X107985449Y-204330189D01*
X107974389Y-204339266D01*
X107965312Y-204350327D01*
X107958567Y-204362946D01*
X107955425Y-204373305D01*
X107953965Y-204374672D01*
X107952051Y-204374091D01*
X107951549Y-204372334D01*
X107962792Y-204315810D01*
X107962792Y-204218190D01*
X107951549Y-204161666D01*
X107952192Y-204159772D01*
X107954154Y-204159382D01*
X107955425Y-204160695D01*
X107958567Y-204171054D01*
X107965311Y-204183673D01*
X107974388Y-204194733D01*
X107985449Y-204203810D01*
X107998068Y-204210555D01*
X108011763Y-204214710D01*
X108026000Y-204216112D01*
X108040236Y-204214710D01*
X108053932Y-204210555D01*
X108066551Y-204203811D01*
X108077611Y-204194734D01*
X108086688Y-204183673D01*
X108093433Y-204171054D01*
X108096575Y-204160695D01*
X108098035Y-204159328D01*
X108099949Y-204159909D01*
G37*
G36*
X135627875Y-194503410D02*
G01*
X135628377Y-194505167D01*
X135614608Y-194574390D01*
X135614608Y-194672010D01*
X135623325Y-194715833D01*
X135622682Y-194717727D01*
X135620720Y-194718117D01*
X135619449Y-194716804D01*
X135616307Y-194706447D01*
X135609562Y-194693827D01*
X135600486Y-194682767D01*
X135589426Y-194673690D01*
X135576806Y-194666945D01*
X135563111Y-194662790D01*
X135548874Y-194661388D01*
X135534638Y-194662790D01*
X135520943Y-194666945D01*
X135508323Y-194673690D01*
X135497263Y-194682766D01*
X135488186Y-194693826D01*
X135481441Y-194706446D01*
X135478299Y-194716804D01*
X135476839Y-194718171D01*
X135474925Y-194717590D01*
X135474423Y-194715833D01*
X135488192Y-194646610D01*
X135488192Y-194548990D01*
X135479475Y-194505167D01*
X135480118Y-194503273D01*
X135482080Y-194502883D01*
X135483351Y-194504196D01*
X135486493Y-194514553D01*
X135493238Y-194527173D01*
X135502314Y-194538233D01*
X135513374Y-194547310D01*
X135525994Y-194554055D01*
X135539689Y-194558210D01*
X135553926Y-194559612D01*
X135568162Y-194558210D01*
X135581857Y-194554055D01*
X135594477Y-194547310D01*
X135605537Y-194538234D01*
X135614614Y-194527174D01*
X135621359Y-194514554D01*
X135624501Y-194504196D01*
X135625961Y-194502829D01*
X135627875Y-194503410D01*
G37*
G36*
X135139182Y-193982764D02*
G01*
X135139572Y-193984726D01*
X135138621Y-193985847D01*
X135128957Y-193991012D01*
X135117897Y-194000089D01*
X135108820Y-194011149D01*
X135102075Y-194023768D01*
X135097920Y-194037463D01*
X135096518Y-194051700D01*
X135097920Y-194065936D01*
X135102075Y-194079632D01*
X135108820Y-194092251D01*
X135117897Y-194103311D01*
X135128957Y-194112388D01*
X135138621Y-194117553D01*
X135139677Y-194119252D01*
X135138734Y-194121015D01*
X135137288Y-194121279D01*
X135041410Y-194102208D01*
X134943790Y-194102208D01*
X134847912Y-194121279D01*
X134846018Y-194120636D01*
X134845628Y-194118674D01*
X134846579Y-194117553D01*
X134856243Y-194112388D01*
X134867303Y-194103311D01*
X134876380Y-194092251D01*
X134883125Y-194079632D01*
X134887280Y-194065937D01*
X134888682Y-194051700D01*
X134887280Y-194037464D01*
X134883125Y-194023768D01*
X134876380Y-194011149D01*
X134867303Y-194000089D01*
X134856243Y-193991012D01*
X134846579Y-193985847D01*
X134845523Y-193984148D01*
X134846466Y-193982385D01*
X134847912Y-193982121D01*
X134943790Y-194001192D01*
X135041410Y-194001192D01*
X135137288Y-193982121D01*
X135139182Y-193982764D01*
G37*
G36*
X134856440Y-192932346D02*
G01*
X134952190Y-192951392D01*
X135049810Y-192951392D01*
X135145560Y-192932346D01*
X135192178Y-192913037D01*
X135194161Y-192913298D01*
X135194926Y-192915146D01*
X135193886Y-192916649D01*
X135184338Y-192921752D01*
X135173278Y-192930829D01*
X135164201Y-192941889D01*
X135157456Y-192954508D01*
X135153301Y-192968203D01*
X135151899Y-192982440D01*
X135153301Y-192996677D01*
X135157456Y-193010372D01*
X135164201Y-193022991D01*
X135173278Y-193034051D01*
X135184338Y-193043128D01*
X135193884Y-193048230D01*
X135194940Y-193049929D01*
X135193997Y-193051692D01*
X135192176Y-193051842D01*
X135137160Y-193029054D01*
X135041410Y-193010008D01*
X134943790Y-193010008D01*
X134848040Y-193029054D01*
X134801422Y-193048363D01*
X134799439Y-193048102D01*
X134798674Y-193046254D01*
X134799714Y-193044751D01*
X134809262Y-193039648D01*
X134820322Y-193030571D01*
X134829399Y-193019511D01*
X134836144Y-193006892D01*
X134840299Y-192993197D01*
X134841701Y-192978960D01*
X134840299Y-192964723D01*
X134836144Y-192951028D01*
X134829399Y-192938409D01*
X134820322Y-192927349D01*
X134809262Y-192918272D01*
X134799716Y-192913170D01*
X134798660Y-192911471D01*
X134799603Y-192909708D01*
X134801424Y-192909558D01*
X134856440Y-192932346D01*
G37*
G36*
X134388291Y-192286890D02*
G01*
X134391433Y-192297248D01*
X134398178Y-192309868D01*
X134407254Y-192320928D01*
X134418314Y-192330005D01*
X134430933Y-192336750D01*
X134444629Y-192340905D01*
X134458865Y-192342307D01*
X134473102Y-192340905D01*
X134486797Y-192336750D01*
X134499417Y-192330005D01*
X134510477Y-192320929D01*
X134519554Y-192309869D01*
X134524657Y-192300320D01*
X134526355Y-192299264D01*
X134528119Y-192300207D01*
X134528269Y-192302028D01*
X134524454Y-192311240D01*
X134505408Y-192406990D01*
X134505408Y-192504610D01*
X134521585Y-192585939D01*
X134520942Y-192587833D01*
X134518980Y-192588223D01*
X134517709Y-192586910D01*
X134514567Y-192576552D01*
X134507822Y-192563932D01*
X134498746Y-192552872D01*
X134487686Y-192543795D01*
X134475067Y-192537050D01*
X134461371Y-192532895D01*
X134447135Y-192531493D01*
X134432898Y-192532895D01*
X134419203Y-192537050D01*
X134406583Y-192543795D01*
X134395523Y-192552871D01*
X134386446Y-192563931D01*
X134381343Y-192573480D01*
X134379645Y-192574536D01*
X134377881Y-192573593D01*
X134377731Y-192571772D01*
X134381546Y-192562560D01*
X134400592Y-192466810D01*
X134400592Y-192369190D01*
X134384415Y-192287861D01*
X134385058Y-192285967D01*
X134387020Y-192285577D01*
X134388291Y-192286890D01*
G37*
G36*
X68715682Y-178223860D02*
G01*
X68716447Y-178225708D01*
X68715407Y-178227211D01*
X68705864Y-178232311D01*
X68694804Y-178241388D01*
X68685727Y-178252448D01*
X68678982Y-178265068D01*
X68674827Y-178278763D01*
X68673425Y-178293000D01*
X68674827Y-178307236D01*
X68678982Y-178320931D01*
X68685727Y-178333551D01*
X68694803Y-178344611D01*
X68705863Y-178353688D01*
X68715408Y-178358789D01*
X68716464Y-178360488D01*
X68715521Y-178362251D01*
X68713700Y-178362401D01*
X68652732Y-178337148D01*
X68576208Y-178321926D01*
X68498192Y-178321926D01*
X68421668Y-178337148D01*
X68360701Y-178362401D01*
X68358718Y-178362140D01*
X68357953Y-178360292D01*
X68358993Y-178358789D01*
X68368536Y-178353689D01*
X68379596Y-178344612D01*
X68388673Y-178333552D01*
X68395418Y-178320932D01*
X68399573Y-178307237D01*
X68400975Y-178293000D01*
X68399573Y-178278764D01*
X68395418Y-178265069D01*
X68388673Y-178252449D01*
X68379597Y-178241389D01*
X68368537Y-178232312D01*
X68358992Y-178227211D01*
X68357936Y-178225512D01*
X68358879Y-178223749D01*
X68360700Y-178223599D01*
X68421668Y-178248852D01*
X68498192Y-178264074D01*
X68576208Y-178264074D01*
X68652732Y-178248852D01*
X68713699Y-178223599D01*
X68715682Y-178223860D01*
G37*
G36*
X70065682Y-178223860D02*
G01*
X70066447Y-178225708D01*
X70065407Y-178227211D01*
X70055864Y-178232311D01*
X70044804Y-178241388D01*
X70035727Y-178252448D01*
X70028982Y-178265068D01*
X70024827Y-178278763D01*
X70023425Y-178293000D01*
X70024827Y-178307236D01*
X70028982Y-178320931D01*
X70035727Y-178333551D01*
X70044803Y-178344611D01*
X70055863Y-178353688D01*
X70065408Y-178358789D01*
X70066464Y-178360488D01*
X70065521Y-178362251D01*
X70063700Y-178362401D01*
X70002732Y-178337148D01*
X69926208Y-178321926D01*
X69848192Y-178321926D01*
X69771668Y-178337148D01*
X69710701Y-178362401D01*
X69708718Y-178362140D01*
X69707953Y-178360292D01*
X69708993Y-178358789D01*
X69718536Y-178353689D01*
X69729596Y-178344612D01*
X69738673Y-178333552D01*
X69745418Y-178320932D01*
X69749573Y-178307237D01*
X69750975Y-178293000D01*
X69749573Y-178278764D01*
X69745418Y-178265069D01*
X69738673Y-178252449D01*
X69729597Y-178241389D01*
X69718537Y-178232312D01*
X69708992Y-178227211D01*
X69707936Y-178225512D01*
X69708879Y-178223749D01*
X69710700Y-178223599D01*
X69771668Y-178248852D01*
X69848192Y-178264074D01*
X69926208Y-178264074D01*
X70002732Y-178248852D01*
X70063699Y-178223599D01*
X70065682Y-178223860D01*
G37*
G36*
X68715682Y-177373860D02*
G01*
X68716447Y-177375708D01*
X68715407Y-177377211D01*
X68705864Y-177382311D01*
X68694804Y-177391388D01*
X68685727Y-177402448D01*
X68678982Y-177415068D01*
X68674827Y-177428763D01*
X68673425Y-177443000D01*
X68674827Y-177457236D01*
X68678982Y-177470931D01*
X68685727Y-177483551D01*
X68694803Y-177494611D01*
X68705863Y-177503688D01*
X68715408Y-177508789D01*
X68716464Y-177510488D01*
X68715521Y-177512251D01*
X68713700Y-177512401D01*
X68652732Y-177487148D01*
X68576208Y-177471926D01*
X68498192Y-177471926D01*
X68421668Y-177487148D01*
X68360701Y-177512401D01*
X68358718Y-177512140D01*
X68357953Y-177510292D01*
X68358993Y-177508789D01*
X68368536Y-177503689D01*
X68379596Y-177494612D01*
X68388673Y-177483552D01*
X68395418Y-177470932D01*
X68399573Y-177457237D01*
X68400975Y-177443000D01*
X68399573Y-177428764D01*
X68395418Y-177415069D01*
X68388673Y-177402449D01*
X68379597Y-177391389D01*
X68368537Y-177382312D01*
X68358992Y-177377211D01*
X68357936Y-177375512D01*
X68358879Y-177373749D01*
X68360700Y-177373599D01*
X68421668Y-177398852D01*
X68498192Y-177414074D01*
X68576208Y-177414074D01*
X68652732Y-177398852D01*
X68713699Y-177373599D01*
X68715682Y-177373860D01*
G37*
G36*
X70065682Y-177373860D02*
G01*
X70066447Y-177375708D01*
X70065407Y-177377211D01*
X70055864Y-177382311D01*
X70044804Y-177391388D01*
X70035727Y-177402448D01*
X70028982Y-177415068D01*
X70024827Y-177428763D01*
X70023425Y-177443000D01*
X70024827Y-177457236D01*
X70028982Y-177470931D01*
X70035727Y-177483551D01*
X70044803Y-177494611D01*
X70055863Y-177503688D01*
X70065408Y-177508789D01*
X70066464Y-177510488D01*
X70065521Y-177512251D01*
X70063700Y-177512401D01*
X70002732Y-177487148D01*
X69926208Y-177471926D01*
X69848192Y-177471926D01*
X69771668Y-177487148D01*
X69710701Y-177512401D01*
X69708718Y-177512140D01*
X69707953Y-177510292D01*
X69708993Y-177508789D01*
X69718536Y-177503689D01*
X69729596Y-177494612D01*
X69738673Y-177483552D01*
X69745418Y-177470932D01*
X69749573Y-177457237D01*
X69750975Y-177443000D01*
X69749573Y-177428764D01*
X69745418Y-177415069D01*
X69738673Y-177402449D01*
X69729597Y-177391389D01*
X69718537Y-177382312D01*
X69708992Y-177377211D01*
X69707936Y-177375512D01*
X69708879Y-177373749D01*
X69710700Y-177373599D01*
X69771668Y-177398852D01*
X69848192Y-177414074D01*
X69926208Y-177414074D01*
X70002732Y-177398852D01*
X70063699Y-177373599D01*
X70065682Y-177373860D01*
G37*
G36*
X70065682Y-176523860D02*
G01*
X70066447Y-176525708D01*
X70065407Y-176527211D01*
X70055864Y-176532311D01*
X70044804Y-176541388D01*
X70035727Y-176552448D01*
X70028982Y-176565068D01*
X70024827Y-176578763D01*
X70023425Y-176593000D01*
X70024827Y-176607236D01*
X70028982Y-176620931D01*
X70035727Y-176633551D01*
X70044803Y-176644611D01*
X70055863Y-176653688D01*
X70065408Y-176658789D01*
X70066464Y-176660488D01*
X70065521Y-176662251D01*
X70063700Y-176662401D01*
X70002732Y-176637148D01*
X69926208Y-176621926D01*
X69848192Y-176621926D01*
X69771668Y-176637148D01*
X69710701Y-176662401D01*
X69708718Y-176662140D01*
X69707953Y-176660292D01*
X69708993Y-176658789D01*
X69718536Y-176653689D01*
X69729596Y-176644612D01*
X69738673Y-176633552D01*
X69745418Y-176620932D01*
X69749573Y-176607237D01*
X69750975Y-176593000D01*
X69749573Y-176578764D01*
X69745418Y-176565069D01*
X69738673Y-176552449D01*
X69729597Y-176541389D01*
X69718537Y-176532312D01*
X69708992Y-176527211D01*
X69707936Y-176525512D01*
X69708879Y-176523749D01*
X69710700Y-176523599D01*
X69771668Y-176548852D01*
X69848192Y-176564074D01*
X69926208Y-176564074D01*
X70002732Y-176548852D01*
X70063699Y-176523599D01*
X70065682Y-176523860D01*
G37*
G36*
X68715682Y-176523860D02*
G01*
X68716447Y-176525708D01*
X68715407Y-176527211D01*
X68705864Y-176532311D01*
X68694804Y-176541388D01*
X68685727Y-176552448D01*
X68678982Y-176565068D01*
X68674827Y-176578763D01*
X68673425Y-176593000D01*
X68674827Y-176607236D01*
X68678982Y-176620931D01*
X68685727Y-176633551D01*
X68694803Y-176644611D01*
X68705863Y-176653688D01*
X68715408Y-176658789D01*
X68716464Y-176660488D01*
X68715521Y-176662251D01*
X68713700Y-176662401D01*
X68652732Y-176637148D01*
X68576208Y-176621926D01*
X68498192Y-176621926D01*
X68421668Y-176637148D01*
X68360701Y-176662401D01*
X68358718Y-176662140D01*
X68357953Y-176660292D01*
X68358993Y-176658789D01*
X68368536Y-176653689D01*
X68379596Y-176644612D01*
X68388673Y-176633552D01*
X68395418Y-176620932D01*
X68399573Y-176607237D01*
X68400975Y-176593000D01*
X68399573Y-176578764D01*
X68395418Y-176565069D01*
X68388673Y-176552449D01*
X68379597Y-176541389D01*
X68368537Y-176532312D01*
X68358992Y-176527211D01*
X68357936Y-176525512D01*
X68358879Y-176523749D01*
X68360700Y-176523599D01*
X68421668Y-176548852D01*
X68498192Y-176564074D01*
X68576208Y-176564074D01*
X68652732Y-176548852D01*
X68713699Y-176523599D01*
X68715682Y-176523860D01*
G37*
G36*
X70065682Y-175673860D02*
G01*
X70066447Y-175675708D01*
X70065407Y-175677211D01*
X70055864Y-175682311D01*
X70044804Y-175691388D01*
X70035727Y-175702448D01*
X70028982Y-175715068D01*
X70024827Y-175728763D01*
X70023425Y-175743000D01*
X70024827Y-175757236D01*
X70028982Y-175770931D01*
X70035727Y-175783551D01*
X70044803Y-175794611D01*
X70055863Y-175803688D01*
X70065408Y-175808789D01*
X70066464Y-175810488D01*
X70065521Y-175812251D01*
X70063700Y-175812401D01*
X70002732Y-175787148D01*
X69926208Y-175771926D01*
X69848192Y-175771926D01*
X69771668Y-175787148D01*
X69710701Y-175812401D01*
X69708718Y-175812140D01*
X69707953Y-175810292D01*
X69708993Y-175808789D01*
X69718536Y-175803689D01*
X69729596Y-175794612D01*
X69738673Y-175783552D01*
X69745418Y-175770932D01*
X69749573Y-175757237D01*
X69750975Y-175743000D01*
X69749573Y-175728764D01*
X69745418Y-175715069D01*
X69738673Y-175702449D01*
X69729597Y-175691389D01*
X69718537Y-175682312D01*
X69708992Y-175677211D01*
X69707936Y-175675512D01*
X69708879Y-175673749D01*
X69710700Y-175673599D01*
X69771668Y-175698852D01*
X69848192Y-175714074D01*
X69926208Y-175714074D01*
X70002732Y-175698852D01*
X70063699Y-175673599D01*
X70065682Y-175673860D01*
G37*
G36*
X68715682Y-175673860D02*
G01*
X68716447Y-175675708D01*
X68715407Y-175677211D01*
X68705864Y-175682311D01*
X68694804Y-175691388D01*
X68685727Y-175702448D01*
X68678982Y-175715068D01*
X68674827Y-175728763D01*
X68673425Y-175743000D01*
X68674827Y-175757236D01*
X68678982Y-175770931D01*
X68685727Y-175783551D01*
X68694803Y-175794611D01*
X68705863Y-175803688D01*
X68715408Y-175808789D01*
X68716464Y-175810488D01*
X68715521Y-175812251D01*
X68713700Y-175812401D01*
X68652732Y-175787148D01*
X68576208Y-175771926D01*
X68498192Y-175771926D01*
X68421668Y-175787148D01*
X68360701Y-175812401D01*
X68358718Y-175812140D01*
X68357953Y-175810292D01*
X68358993Y-175808789D01*
X68368536Y-175803689D01*
X68379596Y-175794612D01*
X68388673Y-175783552D01*
X68395418Y-175770932D01*
X68399573Y-175757237D01*
X68400975Y-175743000D01*
X68399573Y-175728764D01*
X68395418Y-175715069D01*
X68388673Y-175702449D01*
X68379597Y-175691389D01*
X68368537Y-175682312D01*
X68358992Y-175677211D01*
X68357936Y-175675512D01*
X68358879Y-175673749D01*
X68360700Y-175673599D01*
X68421668Y-175698852D01*
X68498192Y-175714074D01*
X68576208Y-175714074D01*
X68652732Y-175698852D01*
X68713699Y-175673599D01*
X68715682Y-175673860D01*
G37*
G36*
X68715682Y-174823860D02*
G01*
X68716447Y-174825708D01*
X68715407Y-174827211D01*
X68705864Y-174832311D01*
X68694804Y-174841388D01*
X68685727Y-174852448D01*
X68678982Y-174865068D01*
X68674827Y-174878763D01*
X68673425Y-174893000D01*
X68674827Y-174907236D01*
X68678982Y-174920931D01*
X68685727Y-174933551D01*
X68694803Y-174944611D01*
X68705863Y-174953688D01*
X68715408Y-174958789D01*
X68716464Y-174960488D01*
X68715521Y-174962251D01*
X68713700Y-174962401D01*
X68652732Y-174937148D01*
X68576208Y-174921926D01*
X68498192Y-174921926D01*
X68421668Y-174937148D01*
X68360701Y-174962401D01*
X68358718Y-174962140D01*
X68357953Y-174960292D01*
X68358993Y-174958789D01*
X68368536Y-174953689D01*
X68379596Y-174944612D01*
X68388673Y-174933552D01*
X68395418Y-174920932D01*
X68399573Y-174907237D01*
X68400975Y-174893000D01*
X68399573Y-174878764D01*
X68395418Y-174865069D01*
X68388673Y-174852449D01*
X68379597Y-174841389D01*
X68368537Y-174832312D01*
X68358992Y-174827211D01*
X68357936Y-174825512D01*
X68358879Y-174823749D01*
X68360700Y-174823599D01*
X68421668Y-174848852D01*
X68498192Y-174864074D01*
X68576208Y-174864074D01*
X68652732Y-174848852D01*
X68713699Y-174823599D01*
X68715682Y-174823860D01*
G37*
G36*
X70065682Y-174823860D02*
G01*
X70066447Y-174825708D01*
X70065407Y-174827211D01*
X70055864Y-174832311D01*
X70044804Y-174841388D01*
X70035727Y-174852448D01*
X70028982Y-174865068D01*
X70024827Y-174878763D01*
X70023425Y-174893000D01*
X70024827Y-174907236D01*
X70028982Y-174920931D01*
X70035727Y-174933551D01*
X70044803Y-174944611D01*
X70055863Y-174953688D01*
X70065408Y-174958789D01*
X70066464Y-174960488D01*
X70065521Y-174962251D01*
X70063700Y-174962401D01*
X70002732Y-174937148D01*
X69926208Y-174921926D01*
X69848192Y-174921926D01*
X69771668Y-174937148D01*
X69710701Y-174962401D01*
X69708718Y-174962140D01*
X69707953Y-174960292D01*
X69708993Y-174958789D01*
X69718536Y-174953689D01*
X69729596Y-174944612D01*
X69738673Y-174933552D01*
X69745418Y-174920932D01*
X69749573Y-174907237D01*
X69750975Y-174893000D01*
X69749573Y-174878764D01*
X69745418Y-174865069D01*
X69738673Y-174852449D01*
X69729597Y-174841389D01*
X69718537Y-174832312D01*
X69708992Y-174827211D01*
X69707936Y-174825512D01*
X69708879Y-174823749D01*
X69710700Y-174823599D01*
X69771668Y-174848852D01*
X69848192Y-174864074D01*
X69926208Y-174864074D01*
X70002732Y-174848852D01*
X70063699Y-174823599D01*
X70065682Y-174823860D01*
G37*
G36*
X68715682Y-173973860D02*
G01*
X68716447Y-173975708D01*
X68715407Y-173977211D01*
X68705864Y-173982311D01*
X68694804Y-173991388D01*
X68685727Y-174002448D01*
X68678982Y-174015068D01*
X68674827Y-174028763D01*
X68673425Y-174043000D01*
X68674827Y-174057236D01*
X68678982Y-174070931D01*
X68685727Y-174083551D01*
X68694803Y-174094611D01*
X68705863Y-174103688D01*
X68715408Y-174108789D01*
X68716464Y-174110488D01*
X68715521Y-174112251D01*
X68713700Y-174112401D01*
X68652732Y-174087148D01*
X68576208Y-174071926D01*
X68498192Y-174071926D01*
X68421668Y-174087148D01*
X68360701Y-174112401D01*
X68358718Y-174112140D01*
X68357953Y-174110292D01*
X68358993Y-174108789D01*
X68368536Y-174103689D01*
X68379596Y-174094612D01*
X68388673Y-174083552D01*
X68395418Y-174070932D01*
X68399573Y-174057237D01*
X68400975Y-174043000D01*
X68399573Y-174028764D01*
X68395418Y-174015069D01*
X68388673Y-174002449D01*
X68379597Y-173991389D01*
X68368537Y-173982312D01*
X68358992Y-173977211D01*
X68357936Y-173975512D01*
X68358879Y-173973749D01*
X68360700Y-173973599D01*
X68421668Y-173998852D01*
X68498192Y-174014074D01*
X68576208Y-174014074D01*
X68652732Y-173998852D01*
X68713699Y-173973599D01*
X68715682Y-173973860D01*
G37*
G36*
X70065682Y-173973860D02*
G01*
X70066447Y-173975708D01*
X70065407Y-173977211D01*
X70055864Y-173982311D01*
X70044804Y-173991388D01*
X70035727Y-174002448D01*
X70028982Y-174015068D01*
X70024827Y-174028763D01*
X70023425Y-174043000D01*
X70024827Y-174057236D01*
X70028982Y-174070931D01*
X70035727Y-174083551D01*
X70044803Y-174094611D01*
X70055863Y-174103688D01*
X70065408Y-174108789D01*
X70066464Y-174110488D01*
X70065521Y-174112251D01*
X70063700Y-174112401D01*
X70002732Y-174087148D01*
X69926208Y-174071926D01*
X69848192Y-174071926D01*
X69771668Y-174087148D01*
X69710701Y-174112401D01*
X69708718Y-174112140D01*
X69707953Y-174110292D01*
X69708993Y-174108789D01*
X69718536Y-174103689D01*
X69729596Y-174094612D01*
X69738673Y-174083552D01*
X69745418Y-174070932D01*
X69749573Y-174057237D01*
X69750975Y-174043000D01*
X69749573Y-174028764D01*
X69745418Y-174015069D01*
X69738673Y-174002449D01*
X69729597Y-173991389D01*
X69718537Y-173982312D01*
X69708992Y-173977211D01*
X69707936Y-173975512D01*
X69708879Y-173973749D01*
X69710700Y-173973599D01*
X69771668Y-173998852D01*
X69848192Y-174014074D01*
X69926208Y-174014074D01*
X70002732Y-173998852D01*
X70063699Y-173973599D01*
X70065682Y-173973860D01*
G37*
G36*
X70065682Y-173123860D02*
G01*
X70066447Y-173125708D01*
X70065407Y-173127211D01*
X70055864Y-173132311D01*
X70044804Y-173141388D01*
X70035727Y-173152448D01*
X70028982Y-173165068D01*
X70024827Y-173178763D01*
X70023425Y-173193000D01*
X70024827Y-173207236D01*
X70028982Y-173220931D01*
X70035727Y-173233551D01*
X70044803Y-173244611D01*
X70055863Y-173253688D01*
X70065408Y-173258789D01*
X70066464Y-173260488D01*
X70065521Y-173262251D01*
X70063700Y-173262401D01*
X70002732Y-173237148D01*
X69926208Y-173221926D01*
X69848192Y-173221926D01*
X69771668Y-173237148D01*
X69710701Y-173262401D01*
X69708718Y-173262140D01*
X69707953Y-173260292D01*
X69708993Y-173258789D01*
X69718536Y-173253689D01*
X69729596Y-173244612D01*
X69738673Y-173233552D01*
X69745418Y-173220932D01*
X69749573Y-173207237D01*
X69750975Y-173193000D01*
X69749573Y-173178764D01*
X69745418Y-173165069D01*
X69738673Y-173152449D01*
X69729597Y-173141389D01*
X69718537Y-173132312D01*
X69708992Y-173127211D01*
X69707936Y-173125512D01*
X69708879Y-173123749D01*
X69710700Y-173123599D01*
X69771668Y-173148852D01*
X69848192Y-173164074D01*
X69926208Y-173164074D01*
X70002732Y-173148852D01*
X70063699Y-173123599D01*
X70065682Y-173123860D01*
G37*
G36*
X68715682Y-173123860D02*
G01*
X68716447Y-173125708D01*
X68715407Y-173127211D01*
X68705864Y-173132311D01*
X68694804Y-173141388D01*
X68685727Y-173152448D01*
X68678982Y-173165068D01*
X68674827Y-173178763D01*
X68673425Y-173193000D01*
X68674827Y-173207236D01*
X68678982Y-173220931D01*
X68685727Y-173233551D01*
X68694803Y-173244611D01*
X68705863Y-173253688D01*
X68715408Y-173258789D01*
X68716464Y-173260488D01*
X68715521Y-173262251D01*
X68713700Y-173262401D01*
X68652732Y-173237148D01*
X68576208Y-173221926D01*
X68498192Y-173221926D01*
X68421668Y-173237148D01*
X68360701Y-173262401D01*
X68358718Y-173262140D01*
X68357953Y-173260292D01*
X68358993Y-173258789D01*
X68368536Y-173253689D01*
X68379596Y-173244612D01*
X68388673Y-173233552D01*
X68395418Y-173220932D01*
X68399573Y-173207237D01*
X68400975Y-173193000D01*
X68399573Y-173178764D01*
X68395418Y-173165069D01*
X68388673Y-173152449D01*
X68379597Y-173141389D01*
X68368537Y-173132312D01*
X68358992Y-173127211D01*
X68357936Y-173125512D01*
X68358879Y-173123749D01*
X68360700Y-173123599D01*
X68421668Y-173148852D01*
X68498192Y-173164074D01*
X68576208Y-173164074D01*
X68652732Y-173148852D01*
X68713699Y-173123599D01*
X68715682Y-173123860D01*
G37*
G36*
X137525898Y-159763569D02*
G01*
X137525868Y-159765397D01*
X137520764Y-159774946D01*
X137516609Y-159788641D01*
X137515207Y-159802878D01*
X137516609Y-159817115D01*
X137520764Y-159830810D01*
X137527509Y-159843429D01*
X137536586Y-159854489D01*
X137547646Y-159863566D01*
X137560265Y-159870311D01*
X137573960Y-159874466D01*
X137588197Y-159875868D01*
X137602434Y-159874466D01*
X137612795Y-159871322D01*
X137614743Y-159871776D01*
X137615324Y-159873690D01*
X137614141Y-159875084D01*
X137575958Y-159890901D01*
X137519236Y-159928800D01*
X137471000Y-159977036D01*
X137441852Y-160020661D01*
X137440058Y-160021546D01*
X137438395Y-160020435D01*
X137438425Y-160018607D01*
X137443529Y-160009058D01*
X137447684Y-159995363D01*
X137449086Y-159981126D01*
X137447684Y-159966889D01*
X137443529Y-159953194D01*
X137436784Y-159940575D01*
X137427707Y-159929515D01*
X137416647Y-159920438D01*
X137404028Y-159913693D01*
X137390333Y-159909538D01*
X137376096Y-159908136D01*
X137361859Y-159909538D01*
X137351498Y-159912682D01*
X137349550Y-159912228D01*
X137348969Y-159910314D01*
X137350152Y-159908920D01*
X137388335Y-159893103D01*
X137445057Y-159855204D01*
X137493293Y-159806968D01*
X137522441Y-159763343D01*
X137524235Y-159762458D01*
X137525898Y-159763569D01*
G37*
G36*
X135193291Y-150686047D02*
G01*
X135195593Y-150697618D01*
X135221699Y-150760642D01*
X135259598Y-150817364D01*
X135291388Y-150849154D01*
X135291906Y-150851086D01*
X135290492Y-150852500D01*
X135288705Y-150852114D01*
X135280337Y-150845246D01*
X135267718Y-150838501D01*
X135254023Y-150834346D01*
X135239786Y-150832944D01*
X135225549Y-150834346D01*
X135211854Y-150838501D01*
X135199235Y-150845246D01*
X135188175Y-150854323D01*
X135179098Y-150865383D01*
X135172353Y-150878002D01*
X135168198Y-150891697D01*
X135166796Y-150905934D01*
X135167857Y-150916703D01*
X135167032Y-150918525D01*
X135165042Y-150918721D01*
X135163905Y-150917289D01*
X135161603Y-150905718D01*
X135135497Y-150842694D01*
X135097598Y-150785972D01*
X135065808Y-150754182D01*
X135065290Y-150752250D01*
X135066704Y-150750836D01*
X135068491Y-150751222D01*
X135076859Y-150758090D01*
X135089478Y-150764835D01*
X135103173Y-150768990D01*
X135117410Y-150770392D01*
X135131647Y-150768990D01*
X135145342Y-150764835D01*
X135157961Y-150758090D01*
X135169021Y-150749013D01*
X135178098Y-150737953D01*
X135184843Y-150725334D01*
X135188998Y-150711639D01*
X135190400Y-150697402D01*
X135189339Y-150686633D01*
X135190164Y-150684811D01*
X135192154Y-150684615D01*
X135193291Y-150686047D01*
G37*
G36*
X95479182Y-145290805D02*
G01*
X95546093Y-145304115D01*
X95614307Y-145304115D01*
X95651682Y-145296680D01*
X95653576Y-145297323D01*
X95653966Y-145299285D01*
X95652653Y-145300556D01*
X95642294Y-145303699D01*
X95629675Y-145310444D01*
X95618615Y-145319521D01*
X95609539Y-145330582D01*
X95602794Y-145343201D01*
X95598639Y-145356896D01*
X95597237Y-145371133D01*
X95598639Y-145385370D01*
X95602794Y-145399065D01*
X95609539Y-145411684D01*
X95618616Y-145422744D01*
X95629677Y-145431821D01*
X95639219Y-145436921D01*
X95640275Y-145438620D01*
X95639332Y-145440383D01*
X95637511Y-145440533D01*
X95630418Y-145437595D01*
X95563507Y-145424285D01*
X95495293Y-145424285D01*
X95457918Y-145431720D01*
X95456024Y-145431077D01*
X95455634Y-145429115D01*
X95456947Y-145427844D01*
X95467306Y-145424701D01*
X95479925Y-145417956D01*
X95490985Y-145408879D01*
X95500061Y-145397818D01*
X95506806Y-145385199D01*
X95510961Y-145371504D01*
X95512363Y-145357267D01*
X95510961Y-145343030D01*
X95506806Y-145329335D01*
X95500061Y-145316716D01*
X95490984Y-145305656D01*
X95479923Y-145296579D01*
X95470381Y-145291479D01*
X95469325Y-145289780D01*
X95470268Y-145288017D01*
X95472089Y-145287867D01*
X95479182Y-145290805D01*
G37*
G36*
X146064554Y-136436940D02*
G01*
X146067695Y-136447295D01*
X146074440Y-136459914D01*
X146083516Y-136470975D01*
X146094576Y-136480052D01*
X146107195Y-136486797D01*
X146120890Y-136490952D01*
X146135127Y-136492354D01*
X146149364Y-136490952D01*
X146163059Y-136486797D01*
X146175678Y-136480052D01*
X146186739Y-136470976D01*
X146195816Y-136459916D01*
X146202611Y-136447202D01*
X146202926Y-136446443D01*
X146204513Y-136445226D01*
X146206360Y-136445992D01*
X146206735Y-136447599D01*
X146193747Y-136512890D01*
X146193747Y-136581104D01*
X146202399Y-136624601D01*
X146201756Y-136626495D01*
X146199794Y-136626885D01*
X146198523Y-136625572D01*
X146195382Y-136615217D01*
X146188637Y-136602598D01*
X146179561Y-136591537D01*
X146168501Y-136582460D01*
X146155882Y-136575715D01*
X146142187Y-136571560D01*
X146127950Y-136570158D01*
X146113713Y-136571560D01*
X146100018Y-136575715D01*
X146087399Y-136582460D01*
X146076338Y-136591536D01*
X146067261Y-136602596D01*
X146060466Y-136615310D01*
X146060151Y-136616069D01*
X146058564Y-136617286D01*
X146056717Y-136616520D01*
X146056342Y-136614913D01*
X146069330Y-136549622D01*
X146069330Y-136481408D01*
X146060678Y-136437911D01*
X146061321Y-136436017D01*
X146063283Y-136435627D01*
X146064554Y-136436940D01*
G37*
M02*
