%TF.GenerationSoftware,KiCad,Pcbnew,5.1.10-88a1d61d58~88~ubuntu20.04.1*%
%TF.CreationDate,2021-06-03T12:29:12+07:00*%
%TF.ProjectId,Schema_and_PCB,53636865-6d61-45f6-916e-645f5043422e,v0.1*%
%TF.SameCoordinates,Original*%
%TF.FileFunction,Legend,Bot*%
%TF.FilePolarity,Positive*%
%FSLAX46Y46*%
G04 Gerber Fmt 4.6, Leading zero omitted, Abs format (unit mm)*
G04 Created by KiCad (PCBNEW 5.1.10-88a1d61d58~88~ubuntu20.04.1) date 2021-06-03 12:29:12*
%MOMM*%
%LPD*%
G01*
G04 APERTURE LIST*
%ADD10C,0.150000*%
%ADD11C,0.500000*%
%ADD12C,0.120000*%
G04 APERTURE END LIST*
D10*
X137647419Y-82114828D02*
X138647419Y-82114828D01*
X137933133Y-81781495D01*
X138647419Y-81448161D01*
X137647419Y-81448161D01*
X138647419Y-80781495D02*
X138647419Y-80591019D01*
X138599800Y-80495780D01*
X138504561Y-80400542D01*
X138314085Y-80352923D01*
X137980752Y-80352923D01*
X137790276Y-80400542D01*
X137695038Y-80495780D01*
X137647419Y-80591019D01*
X137647419Y-80781495D01*
X137695038Y-80876733D01*
X137790276Y-80971971D01*
X137980752Y-81019590D01*
X138314085Y-81019590D01*
X138504561Y-80971971D01*
X138599800Y-80876733D01*
X138647419Y-80781495D01*
X137695038Y-79971971D02*
X137647419Y-79829114D01*
X137647419Y-79591019D01*
X137695038Y-79495780D01*
X137742657Y-79448161D01*
X137837895Y-79400542D01*
X137933133Y-79400542D01*
X138028371Y-79448161D01*
X138075990Y-79495780D01*
X138123609Y-79591019D01*
X138171228Y-79781495D01*
X138218847Y-79876733D01*
X138266466Y-79924352D01*
X138361704Y-79971971D01*
X138456942Y-79971971D01*
X138552180Y-79924352D01*
X138599800Y-79876733D01*
X138647419Y-79781495D01*
X138647419Y-79543400D01*
X138599800Y-79400542D01*
X137647419Y-78971971D02*
X138647419Y-78971971D01*
X140225519Y-82114828D02*
X141225519Y-82114828D01*
X140511233Y-81781495D01*
X141225519Y-81448161D01*
X140225519Y-81448161D01*
X140225519Y-80971971D02*
X141225519Y-80971971D01*
X140273138Y-80543400D02*
X140225519Y-80400542D01*
X140225519Y-80162447D01*
X140273138Y-80067209D01*
X140320757Y-80019590D01*
X140415995Y-79971971D01*
X140511233Y-79971971D01*
X140606471Y-80019590D01*
X140654090Y-80067209D01*
X140701709Y-80162447D01*
X140749328Y-80352923D01*
X140796947Y-80448161D01*
X140844566Y-80495780D01*
X140939804Y-80543400D01*
X141035042Y-80543400D01*
X141130280Y-80495780D01*
X141177900Y-80448161D01*
X141225519Y-80352923D01*
X141225519Y-80114828D01*
X141177900Y-79971971D01*
X141225519Y-79352923D02*
X141225519Y-79162447D01*
X141177900Y-79067209D01*
X141082661Y-78971971D01*
X140892185Y-78924352D01*
X140558852Y-78924352D01*
X140368376Y-78971971D01*
X140273138Y-79067209D01*
X140225519Y-79162447D01*
X140225519Y-79352923D01*
X140273138Y-79448161D01*
X140368376Y-79543400D01*
X140558852Y-79591019D01*
X140892185Y-79591019D01*
X141082661Y-79543400D01*
X141177900Y-79448161D01*
X141225519Y-79352923D01*
X142765519Y-81527495D02*
X143765519Y-81527495D01*
X142765519Y-80956066D01*
X143765519Y-80956066D01*
X142813138Y-80527495D02*
X142765519Y-80384638D01*
X142765519Y-80146542D01*
X142813138Y-80051304D01*
X142860757Y-80003685D01*
X142955995Y-79956066D01*
X143051233Y-79956066D01*
X143146471Y-80003685D01*
X143194090Y-80051304D01*
X143241709Y-80146542D01*
X143289328Y-80337019D01*
X143336947Y-80432257D01*
X143384566Y-80479876D01*
X143479804Y-80527495D01*
X143575042Y-80527495D01*
X143670280Y-80479876D01*
X143717900Y-80432257D01*
X143765519Y-80337019D01*
X143765519Y-80098923D01*
X143717900Y-79956066D01*
X142813138Y-79575114D02*
X142765519Y-79432257D01*
X142765519Y-79194161D01*
X142813138Y-79098923D01*
X142860757Y-79051304D01*
X142955995Y-79003685D01*
X143051233Y-79003685D01*
X143146471Y-79051304D01*
X143194090Y-79098923D01*
X143241709Y-79194161D01*
X143289328Y-79384638D01*
X143336947Y-79479876D01*
X143384566Y-79527495D01*
X143479804Y-79575114D01*
X143575042Y-79575114D01*
X143670280Y-79527495D01*
X143717900Y-79479876D01*
X143765519Y-79384638D01*
X143765519Y-79146542D01*
X143717900Y-79003685D01*
X145416638Y-81587814D02*
X145369019Y-81444957D01*
X145369019Y-81206861D01*
X145416638Y-81111623D01*
X145464257Y-81064004D01*
X145559495Y-81016385D01*
X145654733Y-81016385D01*
X145749971Y-81064004D01*
X145797590Y-81111623D01*
X145845209Y-81206861D01*
X145892828Y-81397338D01*
X145940447Y-81492576D01*
X145988066Y-81540195D01*
X146083304Y-81587814D01*
X146178542Y-81587814D01*
X146273780Y-81540195D01*
X146321400Y-81492576D01*
X146369019Y-81397338D01*
X146369019Y-81159242D01*
X146321400Y-81016385D01*
X145464257Y-80016385D02*
X145416638Y-80064004D01*
X145369019Y-80206861D01*
X145369019Y-80302100D01*
X145416638Y-80444957D01*
X145511876Y-80540195D01*
X145607114Y-80587814D01*
X145797590Y-80635433D01*
X145940447Y-80635433D01*
X146130923Y-80587814D01*
X146226161Y-80540195D01*
X146321400Y-80444957D01*
X146369019Y-80302100D01*
X146369019Y-80206861D01*
X146321400Y-80064004D01*
X146273780Y-80016385D01*
X145369019Y-79587814D02*
X146369019Y-79587814D01*
X145369019Y-79016385D02*
X145940447Y-79444957D01*
X146369019Y-79016385D02*
X145797590Y-79587814D01*
X131929238Y-81833885D02*
X131881619Y-81691028D01*
X131881619Y-81452933D01*
X131929238Y-81357695D01*
X131976857Y-81310076D01*
X132072095Y-81262457D01*
X132167333Y-81262457D01*
X132262571Y-81310076D01*
X132310190Y-81357695D01*
X132357809Y-81452933D01*
X132405428Y-81643409D01*
X132453047Y-81738647D01*
X132500666Y-81786266D01*
X132595904Y-81833885D01*
X132691142Y-81833885D01*
X132786380Y-81786266D01*
X132834000Y-81738647D01*
X132881619Y-81643409D01*
X132881619Y-81405314D01*
X132834000Y-81262457D01*
X131881619Y-80833885D02*
X132881619Y-80833885D01*
X132881619Y-80595790D01*
X132834000Y-80452933D01*
X132738761Y-80357695D01*
X132643523Y-80310076D01*
X132453047Y-80262457D01*
X132310190Y-80262457D01*
X132119714Y-80310076D01*
X132024476Y-80357695D01*
X131929238Y-80452933D01*
X131881619Y-80595790D01*
X131881619Y-80833885D01*
X132167333Y-79881504D02*
X132167333Y-79405314D01*
X131881619Y-79976742D02*
X132881619Y-79643409D01*
X131881619Y-79310076D01*
X129401938Y-81708476D02*
X129354319Y-81565619D01*
X129354319Y-81327523D01*
X129401938Y-81232285D01*
X129449557Y-81184666D01*
X129544795Y-81137047D01*
X129640033Y-81137047D01*
X129735271Y-81184666D01*
X129782890Y-81232285D01*
X129830509Y-81327523D01*
X129878128Y-81518000D01*
X129925747Y-81613238D01*
X129973366Y-81660857D01*
X130068604Y-81708476D01*
X130163842Y-81708476D01*
X130259080Y-81660857D01*
X130306700Y-81613238D01*
X130354319Y-81518000D01*
X130354319Y-81279904D01*
X130306700Y-81137047D01*
X129449557Y-80137047D02*
X129401938Y-80184666D01*
X129354319Y-80327523D01*
X129354319Y-80422761D01*
X129401938Y-80565619D01*
X129497176Y-80660857D01*
X129592414Y-80708476D01*
X129782890Y-80756095D01*
X129925747Y-80756095D01*
X130116223Y-80708476D01*
X130211461Y-80660857D01*
X130306700Y-80565619D01*
X130354319Y-80422761D01*
X130354319Y-80327523D01*
X130306700Y-80184666D01*
X130259080Y-80137047D01*
X129354319Y-79232285D02*
X129354319Y-79708476D01*
X130354319Y-79708476D01*
X127792100Y-81318004D02*
X127839719Y-81413242D01*
X127839719Y-81556100D01*
X127792100Y-81698957D01*
X127696861Y-81794195D01*
X127601623Y-81841814D01*
X127411147Y-81889433D01*
X127268290Y-81889433D01*
X127077814Y-81841814D01*
X126982576Y-81794195D01*
X126887338Y-81698957D01*
X126839719Y-81556100D01*
X126839719Y-81460861D01*
X126887338Y-81318004D01*
X126934957Y-81270385D01*
X127268290Y-81270385D01*
X127268290Y-81460861D01*
X126839719Y-80841814D02*
X127839719Y-80841814D01*
X126839719Y-80270385D01*
X127839719Y-80270385D01*
X126839719Y-79794195D02*
X127839719Y-79794195D01*
X127839719Y-79556100D01*
X127792100Y-79413242D01*
X127696861Y-79318004D01*
X127601623Y-79270385D01*
X127411147Y-79222766D01*
X127268290Y-79222766D01*
X127077814Y-79270385D01*
X126982576Y-79318004D01*
X126887338Y-79413242D01*
X126839719Y-79556100D01*
X126839719Y-79794195D01*
X142793909Y-74750561D02*
X142651052Y-74798180D01*
X142412957Y-74798180D01*
X142317719Y-74750561D01*
X142270100Y-74702942D01*
X142222480Y-74607704D01*
X142222480Y-74512466D01*
X142270100Y-74417228D01*
X142317719Y-74369609D01*
X142412957Y-74321990D01*
X142603433Y-74274371D01*
X142698671Y-74226752D01*
X142746290Y-74179133D01*
X142793909Y-74083895D01*
X142793909Y-73988657D01*
X142746290Y-73893419D01*
X142698671Y-73845800D01*
X142603433Y-73798180D01*
X142365338Y-73798180D01*
X142222480Y-73845800D01*
X141793909Y-74798180D02*
X141793909Y-73798180D01*
X141412957Y-73798180D01*
X141317719Y-73845800D01*
X141270100Y-73893419D01*
X141222480Y-73988657D01*
X141222480Y-74131514D01*
X141270100Y-74226752D01*
X141317719Y-74274371D01*
X141412957Y-74321990D01*
X141793909Y-74321990D01*
X140793909Y-74798180D02*
X140793909Y-73798180D01*
X131024190Y-74823580D02*
X131024190Y-73823580D01*
X130595619Y-73918819D02*
X130548000Y-73871200D01*
X130452761Y-73823580D01*
X130214666Y-73823580D01*
X130119428Y-73871200D01*
X130071809Y-73918819D01*
X130024190Y-74014057D01*
X130024190Y-74109295D01*
X130071809Y-74252152D01*
X130643238Y-74823580D01*
X130024190Y-74823580D01*
X129024190Y-74728342D02*
X129071809Y-74775961D01*
X129214666Y-74823580D01*
X129309904Y-74823580D01*
X129452761Y-74775961D01*
X129548000Y-74680723D01*
X129595619Y-74585485D01*
X129643238Y-74395009D01*
X129643238Y-74252152D01*
X129595619Y-74061676D01*
X129548000Y-73966438D01*
X129452761Y-73871200D01*
X129309904Y-73823580D01*
X129214666Y-73823580D01*
X129071809Y-73871200D01*
X129024190Y-73918819D01*
X145913076Y-176674471D02*
X145770219Y-176722090D01*
X145722600Y-176769709D01*
X145674980Y-176864947D01*
X145674980Y-177007804D01*
X145722600Y-177103042D01*
X145770219Y-177150661D01*
X145865457Y-177198280D01*
X146246409Y-177198280D01*
X146246409Y-176198280D01*
X145913076Y-176198280D01*
X145817838Y-176245900D01*
X145770219Y-176293519D01*
X145722600Y-176388757D01*
X145722600Y-176483995D01*
X145770219Y-176579233D01*
X145817838Y-176626852D01*
X145913076Y-176674471D01*
X146246409Y-176674471D01*
X145055933Y-176198280D02*
X144865457Y-176198280D01*
X144770219Y-176245900D01*
X144674980Y-176341138D01*
X144627361Y-176531614D01*
X144627361Y-176864947D01*
X144674980Y-177055423D01*
X144770219Y-177150661D01*
X144865457Y-177198280D01*
X145055933Y-177198280D01*
X145151171Y-177150661D01*
X145246409Y-177055423D01*
X145294028Y-176864947D01*
X145294028Y-176531614D01*
X145246409Y-176341138D01*
X145151171Y-176245900D01*
X145055933Y-176198280D01*
X144008314Y-176198280D02*
X143817838Y-176198280D01*
X143722600Y-176245900D01*
X143627361Y-176341138D01*
X143579742Y-176531614D01*
X143579742Y-176864947D01*
X143627361Y-177055423D01*
X143722600Y-177150661D01*
X143817838Y-177198280D01*
X144008314Y-177198280D01*
X144103552Y-177150661D01*
X144198790Y-177055423D01*
X144246409Y-176864947D01*
X144246409Y-176531614D01*
X144198790Y-176341138D01*
X144103552Y-176245900D01*
X144008314Y-176198280D01*
X143294028Y-176198280D02*
X142722600Y-176198280D01*
X143008314Y-177198280D02*
X143008314Y-176198280D01*
X142198790Y-176198280D02*
X142103552Y-176198280D01*
X142008314Y-176245900D01*
X141960695Y-176293519D01*
X141913076Y-176388757D01*
X141865457Y-176579233D01*
X141865457Y-176817328D01*
X141913076Y-177007804D01*
X141960695Y-177103042D01*
X142008314Y-177150661D01*
X142103552Y-177198280D01*
X142198790Y-177198280D01*
X142294028Y-177150661D01*
X142341647Y-177103042D01*
X142389266Y-177007804D01*
X142436885Y-176817328D01*
X142436885Y-176579233D01*
X142389266Y-176388757D01*
X142341647Y-176293519D01*
X142294028Y-176245900D01*
X142198790Y-176198280D01*
X141674980Y-177293519D02*
X140913076Y-177293519D01*
X140103552Y-177198280D02*
X140436885Y-176722090D01*
X140674980Y-177198280D02*
X140674980Y-176198280D01*
X140294028Y-176198280D01*
X140198790Y-176245900D01*
X140151171Y-176293519D01*
X140103552Y-176388757D01*
X140103552Y-176531614D01*
X140151171Y-176626852D01*
X140198790Y-176674471D01*
X140294028Y-176722090D01*
X140674980Y-176722090D01*
X139770219Y-176198280D02*
X139103552Y-177198280D01*
X139103552Y-176198280D02*
X139770219Y-177198280D01*
X145794028Y-179227171D02*
X145651171Y-179274790D01*
X145603552Y-179322409D01*
X145555933Y-179417647D01*
X145555933Y-179560504D01*
X145603552Y-179655742D01*
X145651171Y-179703361D01*
X145746409Y-179750980D01*
X146127361Y-179750980D01*
X146127361Y-178750980D01*
X145794028Y-178750980D01*
X145698790Y-178798600D01*
X145651171Y-178846219D01*
X145603552Y-178941457D01*
X145603552Y-179036695D01*
X145651171Y-179131933D01*
X145698790Y-179179552D01*
X145794028Y-179227171D01*
X146127361Y-179227171D01*
X144936885Y-178750980D02*
X144746409Y-178750980D01*
X144651171Y-178798600D01*
X144555933Y-178893838D01*
X144508314Y-179084314D01*
X144508314Y-179417647D01*
X144555933Y-179608123D01*
X144651171Y-179703361D01*
X144746409Y-179750980D01*
X144936885Y-179750980D01*
X145032123Y-179703361D01*
X145127361Y-179608123D01*
X145174980Y-179417647D01*
X145174980Y-179084314D01*
X145127361Y-178893838D01*
X145032123Y-178798600D01*
X144936885Y-178750980D01*
X143889266Y-178750980D02*
X143698790Y-178750980D01*
X143603552Y-178798600D01*
X143508314Y-178893838D01*
X143460695Y-179084314D01*
X143460695Y-179417647D01*
X143508314Y-179608123D01*
X143603552Y-179703361D01*
X143698790Y-179750980D01*
X143889266Y-179750980D01*
X143984504Y-179703361D01*
X144079742Y-179608123D01*
X144127361Y-179417647D01*
X144127361Y-179084314D01*
X144079742Y-178893838D01*
X143984504Y-178798600D01*
X143889266Y-178750980D01*
X143174980Y-178750980D02*
X142603552Y-178750980D01*
X142889266Y-179750980D02*
X142889266Y-178750980D01*
X142079742Y-178750980D02*
X141984504Y-178750980D01*
X141889266Y-178798600D01*
X141841647Y-178846219D01*
X141794028Y-178941457D01*
X141746409Y-179131933D01*
X141746409Y-179370028D01*
X141794028Y-179560504D01*
X141841647Y-179655742D01*
X141889266Y-179703361D01*
X141984504Y-179750980D01*
X142079742Y-179750980D01*
X142174980Y-179703361D01*
X142222600Y-179655742D01*
X142270219Y-179560504D01*
X142317838Y-179370028D01*
X142317838Y-179131933D01*
X142270219Y-178941457D01*
X142222600Y-178846219D01*
X142174980Y-178798600D01*
X142079742Y-178750980D01*
X141555933Y-179846219D02*
X140794028Y-179846219D01*
X140698790Y-178750980D02*
X140127361Y-178750980D01*
X140413076Y-179750980D02*
X140413076Y-178750980D01*
X139889266Y-178750980D02*
X139222600Y-179750980D01*
X139222600Y-178750980D02*
X139889266Y-179750980D01*
X145491104Y-181376700D02*
X145586342Y-181329080D01*
X145729200Y-181329080D01*
X145872057Y-181376700D01*
X145967295Y-181471938D01*
X146014914Y-181567176D01*
X146062533Y-181757652D01*
X146062533Y-181900509D01*
X146014914Y-182090985D01*
X145967295Y-182186223D01*
X145872057Y-182281461D01*
X145729200Y-182329080D01*
X145633961Y-182329080D01*
X145491104Y-182281461D01*
X145443485Y-182233842D01*
X145443485Y-181900509D01*
X145633961Y-181900509D01*
X145014914Y-182329080D02*
X145014914Y-181329080D01*
X144443485Y-182329080D01*
X144443485Y-181329080D01*
X143967295Y-182329080D02*
X143967295Y-181329080D01*
X143729200Y-181329080D01*
X143586342Y-181376700D01*
X143491104Y-181471938D01*
X143443485Y-181567176D01*
X143395866Y-181757652D01*
X143395866Y-181900509D01*
X143443485Y-182090985D01*
X143491104Y-182186223D01*
X143586342Y-182281461D01*
X143729200Y-182329080D01*
X143967295Y-182329080D01*
X118610119Y-182741866D02*
X119086309Y-183075200D01*
X118610119Y-183313295D02*
X119610119Y-183313295D01*
X119610119Y-182932342D01*
X119562500Y-182837104D01*
X119514880Y-182789485D01*
X119419642Y-182741866D01*
X119276785Y-182741866D01*
X119181547Y-182789485D01*
X119133928Y-182837104D01*
X119086309Y-182932342D01*
X119086309Y-183313295D01*
X119610119Y-182408533D02*
X118610119Y-181741866D01*
X119610119Y-181741866D02*
X118610119Y-182408533D01*
X122162819Y-183337104D02*
X122162819Y-182765676D01*
X121162819Y-183051390D02*
X122162819Y-183051390D01*
X122162819Y-182527580D02*
X121162819Y-181860914D01*
X122162819Y-181860914D02*
X121162819Y-182527580D01*
X124515500Y-182752904D02*
X124563119Y-182848142D01*
X124563119Y-182991000D01*
X124515500Y-183133857D01*
X124420261Y-183229095D01*
X124325023Y-183276714D01*
X124134547Y-183324333D01*
X123991690Y-183324333D01*
X123801214Y-183276714D01*
X123705976Y-183229095D01*
X123610738Y-183133857D01*
X123563119Y-182991000D01*
X123563119Y-182895761D01*
X123610738Y-182752904D01*
X123658357Y-182705285D01*
X123991690Y-182705285D01*
X123991690Y-182895761D01*
X123563119Y-182276714D02*
X124563119Y-182276714D01*
X123563119Y-181705285D01*
X124563119Y-181705285D01*
X123563119Y-181229095D02*
X124563119Y-181229095D01*
X124563119Y-180991000D01*
X124515500Y-180848142D01*
X124420261Y-180752904D01*
X124325023Y-180705285D01*
X124134547Y-180657666D01*
X123991690Y-180657666D01*
X123801214Y-180705285D01*
X123705976Y-180752904D01*
X123610738Y-180848142D01*
X123563119Y-180991000D01*
X123563119Y-181229095D01*
X123864428Y-187450480D02*
X123864428Y-188260004D01*
X123816809Y-188355242D01*
X123769190Y-188402861D01*
X123673952Y-188450480D01*
X123483476Y-188450480D01*
X123388238Y-188402861D01*
X123340619Y-188355242D01*
X123293000Y-188260004D01*
X123293000Y-187450480D01*
X122864428Y-188164766D02*
X122388238Y-188164766D01*
X122959666Y-188450480D02*
X122626333Y-187450480D01*
X122293000Y-188450480D01*
X121388238Y-188450480D02*
X121721571Y-187974290D01*
X121959666Y-188450480D02*
X121959666Y-187450480D01*
X121578714Y-187450480D01*
X121483476Y-187498100D01*
X121435857Y-187545719D01*
X121388238Y-187640957D01*
X121388238Y-187783814D01*
X121435857Y-187879052D01*
X121483476Y-187926671D01*
X121578714Y-187974290D01*
X121959666Y-187974290D01*
X121102523Y-187450480D02*
X120531095Y-187450480D01*
X120816809Y-188450480D02*
X120816809Y-187450480D01*
X120245380Y-187545719D02*
X120197761Y-187498100D01*
X120102523Y-187450480D01*
X119864428Y-187450480D01*
X119769190Y-187498100D01*
X119721571Y-187545719D01*
X119673952Y-187640957D01*
X119673952Y-187736195D01*
X119721571Y-187879052D01*
X120293000Y-188450480D01*
X119673952Y-188450480D01*
X133043442Y-188466361D02*
X132900585Y-188513980D01*
X132662490Y-188513980D01*
X132567252Y-188466361D01*
X132519633Y-188418742D01*
X132472014Y-188323504D01*
X132472014Y-188228266D01*
X132519633Y-188133028D01*
X132567252Y-188085409D01*
X132662490Y-188037790D01*
X132852966Y-187990171D01*
X132948204Y-187942552D01*
X132995823Y-187894933D01*
X133043442Y-187799695D01*
X133043442Y-187704457D01*
X132995823Y-187609219D01*
X132948204Y-187561600D01*
X132852966Y-187513980D01*
X132614871Y-187513980D01*
X132472014Y-187561600D01*
X132138680Y-187513980D02*
X131900585Y-188513980D01*
X131710109Y-187799695D01*
X131519633Y-188513980D01*
X131281538Y-187513980D01*
X130900585Y-188513980D02*
X130900585Y-187513980D01*
X130662490Y-187513980D01*
X130519633Y-187561600D01*
X130424395Y-187656838D01*
X130376776Y-187752076D01*
X130329157Y-187942552D01*
X130329157Y-188085409D01*
X130376776Y-188275885D01*
X130424395Y-188371123D01*
X130519633Y-188466361D01*
X130662490Y-188513980D01*
X130900585Y-188513980D01*
X128131938Y-183194152D02*
X128084319Y-183051295D01*
X128084319Y-182813200D01*
X128131938Y-182717961D01*
X128179557Y-182670342D01*
X128274795Y-182622723D01*
X128370033Y-182622723D01*
X128465271Y-182670342D01*
X128512890Y-182717961D01*
X128560509Y-182813200D01*
X128608128Y-183003676D01*
X128655747Y-183098914D01*
X128703366Y-183146533D01*
X128798604Y-183194152D01*
X128893842Y-183194152D01*
X128989080Y-183146533D01*
X129036700Y-183098914D01*
X129084319Y-183003676D01*
X129084319Y-182765580D01*
X129036700Y-182622723D01*
X129084319Y-182289390D02*
X128084319Y-182051295D01*
X128798604Y-181860819D01*
X128084319Y-181670342D01*
X129084319Y-181432247D01*
X129084319Y-180860819D02*
X129084319Y-180670342D01*
X129036700Y-180575104D01*
X128941461Y-180479866D01*
X128750985Y-180432247D01*
X128417652Y-180432247D01*
X128227176Y-180479866D01*
X128131938Y-180575104D01*
X128084319Y-180670342D01*
X128084319Y-180860819D01*
X128131938Y-180956057D01*
X128227176Y-181051295D01*
X128417652Y-181098914D01*
X128750985Y-181098914D01*
X128941461Y-181051295D01*
X129036700Y-180956057D01*
X129084319Y-180860819D01*
X130671938Y-183297247D02*
X130624319Y-183154390D01*
X130624319Y-182916295D01*
X130671938Y-182821057D01*
X130719557Y-182773438D01*
X130814795Y-182725819D01*
X130910033Y-182725819D01*
X131005271Y-182773438D01*
X131052890Y-182821057D01*
X131100509Y-182916295D01*
X131148128Y-183106771D01*
X131195747Y-183202009D01*
X131243366Y-183249628D01*
X131338604Y-183297247D01*
X131433842Y-183297247D01*
X131529080Y-183249628D01*
X131576700Y-183202009D01*
X131624319Y-183106771D01*
X131624319Y-182868676D01*
X131576700Y-182725819D01*
X131624319Y-182392485D02*
X130624319Y-182154390D01*
X131338604Y-181963914D01*
X130624319Y-181773438D01*
X131624319Y-181535342D01*
X130624319Y-181154390D02*
X131624319Y-181154390D01*
X131624319Y-180916295D01*
X131576700Y-180773438D01*
X131481461Y-180678200D01*
X131386223Y-180630580D01*
X131195747Y-180582961D01*
X131052890Y-180582961D01*
X130862414Y-180630580D01*
X130767176Y-180678200D01*
X130671938Y-180773438D01*
X130624319Y-180916295D01*
X130624319Y-181154390D01*
X130624319Y-180154390D02*
X131624319Y-180154390D01*
X131624319Y-179487723D02*
X131624319Y-179297247D01*
X131576700Y-179202009D01*
X131481461Y-179106771D01*
X131290985Y-179059152D01*
X130957652Y-179059152D01*
X130767176Y-179106771D01*
X130671938Y-179202009D01*
X130624319Y-179297247D01*
X130624319Y-179487723D01*
X130671938Y-179582961D01*
X130767176Y-179678200D01*
X130957652Y-179725819D01*
X131290985Y-179725819D01*
X131481461Y-179678200D01*
X131576700Y-179582961D01*
X131624319Y-179487723D01*
X133199238Y-183301995D02*
X133151619Y-183159138D01*
X133151619Y-182921042D01*
X133199238Y-182825804D01*
X133246857Y-182778185D01*
X133342095Y-182730566D01*
X133437333Y-182730566D01*
X133532571Y-182778185D01*
X133580190Y-182825804D01*
X133627809Y-182921042D01*
X133675428Y-183111519D01*
X133723047Y-183206757D01*
X133770666Y-183254376D01*
X133865904Y-183301995D01*
X133961142Y-183301995D01*
X134056380Y-183254376D01*
X134104000Y-183206757D01*
X134151619Y-183111519D01*
X134151619Y-182873423D01*
X134104000Y-182730566D01*
X134151619Y-182397233D02*
X133151619Y-182159138D01*
X133865904Y-181968661D01*
X133151619Y-181778185D01*
X134151619Y-181540090D01*
X133199238Y-181206757D02*
X133151619Y-181063900D01*
X133151619Y-180825804D01*
X133199238Y-180730566D01*
X133246857Y-180682947D01*
X133342095Y-180635328D01*
X133437333Y-180635328D01*
X133532571Y-180682947D01*
X133580190Y-180730566D01*
X133627809Y-180825804D01*
X133675428Y-181016280D01*
X133723047Y-181111519D01*
X133770666Y-181159138D01*
X133865904Y-181206757D01*
X133961142Y-181206757D01*
X134056380Y-181159138D01*
X134104000Y-181111519D01*
X134151619Y-181016280D01*
X134151619Y-180778185D01*
X134104000Y-180635328D01*
X133151619Y-179730566D02*
X133151619Y-180206757D01*
X134151619Y-180206757D01*
X133151619Y-179397233D02*
X134151619Y-179397233D01*
X133151619Y-178825804D02*
X133723047Y-179254376D01*
X134151619Y-178825804D02*
X133580190Y-179397233D01*
X136682100Y-182689404D02*
X136729719Y-182784642D01*
X136729719Y-182927500D01*
X136682100Y-183070357D01*
X136586861Y-183165595D01*
X136491623Y-183213214D01*
X136301147Y-183260833D01*
X136158290Y-183260833D01*
X135967814Y-183213214D01*
X135872576Y-183165595D01*
X135777338Y-183070357D01*
X135729719Y-182927500D01*
X135729719Y-182832261D01*
X135777338Y-182689404D01*
X135824957Y-182641785D01*
X136158290Y-182641785D01*
X136158290Y-182832261D01*
X135729719Y-182213214D02*
X136729719Y-182213214D01*
X135729719Y-181641785D01*
X136729719Y-181641785D01*
X135729719Y-181165595D02*
X136729719Y-181165595D01*
X136729719Y-180927500D01*
X136682100Y-180784642D01*
X136586861Y-180689404D01*
X136491623Y-180641785D01*
X136301147Y-180594166D01*
X136158290Y-180594166D01*
X135967814Y-180641785D01*
X135872576Y-180689404D01*
X135777338Y-180784642D01*
X135729719Y-180927500D01*
X135729719Y-181165595D01*
X156414766Y-184932580D02*
X156414766Y-183932580D01*
X156319528Y-184551628D02*
X156033814Y-184932580D01*
X156033814Y-184265914D02*
X156414766Y-184646866D01*
X197143666Y-185123080D02*
X197143666Y-184123080D01*
X197048428Y-184742128D02*
X196762714Y-185123080D01*
X196762714Y-184456414D02*
X197143666Y-184837366D01*
D11*
X290587128Y-100664709D02*
X289872842Y-100902804D01*
X288682366Y-100902804D01*
X288206176Y-100664709D01*
X287968080Y-100426614D01*
X287729985Y-99950423D01*
X287729985Y-99474233D01*
X287968080Y-98998042D01*
X288206176Y-98759947D01*
X288682366Y-98521852D01*
X289634747Y-98283757D01*
X290110938Y-98045661D01*
X290349033Y-97807566D01*
X290587128Y-97331376D01*
X290587128Y-96855185D01*
X290349033Y-96378995D01*
X290110938Y-96140900D01*
X289634747Y-95902804D01*
X288444271Y-95902804D01*
X287729985Y-96140900D01*
X283444271Y-100664709D02*
X283920461Y-100902804D01*
X284872842Y-100902804D01*
X285349033Y-100664709D01*
X285587128Y-100426614D01*
X285825223Y-99950423D01*
X285825223Y-98521852D01*
X285587128Y-98045661D01*
X285349033Y-97807566D01*
X284872842Y-97569471D01*
X283920461Y-97569471D01*
X283444271Y-97807566D01*
X281301414Y-100902804D02*
X281301414Y-95902804D01*
X279158557Y-100902804D02*
X279158557Y-98283757D01*
X279396652Y-97807566D01*
X279872842Y-97569471D01*
X280587128Y-97569471D01*
X281063319Y-97807566D01*
X281301414Y-98045661D01*
X274872842Y-100664709D02*
X275349033Y-100902804D01*
X276301414Y-100902804D01*
X276777604Y-100664709D01*
X277015700Y-100188519D01*
X277015700Y-98283757D01*
X276777604Y-97807566D01*
X276301414Y-97569471D01*
X275349033Y-97569471D01*
X274872842Y-97807566D01*
X274634747Y-98283757D01*
X274634747Y-98759947D01*
X277015700Y-99236138D01*
X272491890Y-100902804D02*
X272491890Y-97569471D01*
X272491890Y-98045661D02*
X272253795Y-97807566D01*
X271777604Y-97569471D01*
X271063319Y-97569471D01*
X270587128Y-97807566D01*
X270349033Y-98283757D01*
X270349033Y-100902804D01*
X270349033Y-98283757D02*
X270110938Y-97807566D01*
X269634747Y-97569471D01*
X268920461Y-97569471D01*
X268444271Y-97807566D01*
X268206176Y-98283757D01*
X268206176Y-100902804D01*
X263682366Y-100902804D02*
X263682366Y-98283757D01*
X263920461Y-97807566D01*
X264396652Y-97569471D01*
X265349033Y-97569471D01*
X265825223Y-97807566D01*
X263682366Y-100664709D02*
X264158557Y-100902804D01*
X265349033Y-100902804D01*
X265825223Y-100664709D01*
X266063319Y-100188519D01*
X266063319Y-99712328D01*
X265825223Y-99236138D01*
X265349033Y-98998042D01*
X264158557Y-98998042D01*
X263682366Y-98759947D01*
X255349033Y-100902804D02*
X255349033Y-98283757D01*
X255587128Y-97807566D01*
X256063319Y-97569471D01*
X257015700Y-97569471D01*
X257491890Y-97807566D01*
X255349033Y-100664709D02*
X255825223Y-100902804D01*
X257015700Y-100902804D01*
X257491890Y-100664709D01*
X257729985Y-100188519D01*
X257729985Y-99712328D01*
X257491890Y-99236138D01*
X257015700Y-98998042D01*
X255825223Y-98998042D01*
X255349033Y-98759947D01*
X252968080Y-97569471D02*
X252968080Y-100902804D01*
X252968080Y-98045661D02*
X252729985Y-97807566D01*
X252253795Y-97569471D01*
X251539509Y-97569471D01*
X251063319Y-97807566D01*
X250825223Y-98283757D01*
X250825223Y-100902804D01*
X246301414Y-100902804D02*
X246301414Y-95902804D01*
X246301414Y-100664709D02*
X246777604Y-100902804D01*
X247729985Y-100902804D01*
X248206176Y-100664709D01*
X248444271Y-100426614D01*
X248682366Y-99950423D01*
X248682366Y-98521852D01*
X248444271Y-98045661D01*
X248206176Y-97807566D01*
X247729985Y-97569471D01*
X246777604Y-97569471D01*
X246301414Y-97807566D01*
X240110938Y-100902804D02*
X240110938Y-95902804D01*
X238206176Y-95902804D01*
X237729985Y-96140900D01*
X237491890Y-96378995D01*
X237253795Y-96855185D01*
X237253795Y-97569471D01*
X237491890Y-98045661D01*
X237729985Y-98283757D01*
X238206176Y-98521852D01*
X240110938Y-98521852D01*
X232253795Y-100426614D02*
X232491890Y-100664709D01*
X233206176Y-100902804D01*
X233682366Y-100902804D01*
X234396652Y-100664709D01*
X234872842Y-100188519D01*
X235110938Y-99712328D01*
X235349033Y-98759947D01*
X235349033Y-98045661D01*
X235110938Y-97093280D01*
X234872842Y-96617090D01*
X234396652Y-96140900D01*
X233682366Y-95902804D01*
X233206176Y-95902804D01*
X232491890Y-96140900D01*
X232253795Y-96378995D01*
X228444271Y-98283757D02*
X227729985Y-98521852D01*
X227491890Y-98759947D01*
X227253795Y-99236138D01*
X227253795Y-99950423D01*
X227491890Y-100426614D01*
X227729985Y-100664709D01*
X228206176Y-100902804D01*
X230110938Y-100902804D01*
X230110938Y-95902804D01*
X228444271Y-95902804D01*
X227968080Y-96140900D01*
X227729985Y-96378995D01*
X227491890Y-96855185D01*
X227491890Y-97331376D01*
X227729985Y-97807566D01*
X227968080Y-98045661D01*
X228444271Y-98283757D01*
X230110938Y-98283757D01*
X219158557Y-100902804D02*
X219158557Y-95902804D01*
X219158557Y-100664709D02*
X219634747Y-100902804D01*
X220587128Y-100902804D01*
X221063319Y-100664709D01*
X221301414Y-100426614D01*
X221539509Y-99950423D01*
X221539509Y-98521852D01*
X221301414Y-98045661D01*
X221063319Y-97807566D01*
X220587128Y-97569471D01*
X219634747Y-97569471D01*
X219158557Y-97807566D01*
X214872842Y-100664709D02*
X215349033Y-100902804D01*
X216301414Y-100902804D01*
X216777604Y-100664709D01*
X217015700Y-100188519D01*
X217015700Y-98283757D01*
X216777604Y-97807566D01*
X216301414Y-97569471D01*
X215349033Y-97569471D01*
X214872842Y-97807566D01*
X214634747Y-98283757D01*
X214634747Y-98759947D01*
X217015700Y-99236138D01*
X212729985Y-100664709D02*
X212253795Y-100902804D01*
X211301414Y-100902804D01*
X210825223Y-100664709D01*
X210587128Y-100188519D01*
X210587128Y-99950423D01*
X210825223Y-99474233D01*
X211301414Y-99236138D01*
X212015700Y-99236138D01*
X212491890Y-98998042D01*
X212729985Y-98521852D01*
X212729985Y-98283757D01*
X212491890Y-97807566D01*
X212015700Y-97569471D01*
X211301414Y-97569471D01*
X210825223Y-97807566D01*
X208444271Y-100902804D02*
X208444271Y-97569471D01*
X208444271Y-95902804D02*
X208682366Y-96140900D01*
X208444271Y-96378995D01*
X208206176Y-96140900D01*
X208444271Y-95902804D01*
X208444271Y-96378995D01*
X203920461Y-97569471D02*
X203920461Y-101617090D01*
X204158557Y-102093280D01*
X204396652Y-102331376D01*
X204872842Y-102569471D01*
X205587128Y-102569471D01*
X206063319Y-102331376D01*
X203920461Y-100664709D02*
X204396652Y-100902804D01*
X205349033Y-100902804D01*
X205825223Y-100664709D01*
X206063319Y-100426614D01*
X206301414Y-99950423D01*
X206301414Y-98521852D01*
X206063319Y-98045661D01*
X205825223Y-97807566D01*
X205349033Y-97569471D01*
X204396652Y-97569471D01*
X203920461Y-97807566D01*
X201539509Y-97569471D02*
X201539509Y-100902804D01*
X201539509Y-98045661D02*
X201301414Y-97807566D01*
X200825223Y-97569471D01*
X200110938Y-97569471D01*
X199634747Y-97807566D01*
X199396652Y-98283757D01*
X199396652Y-100902804D01*
X195110938Y-100664709D02*
X195587128Y-100902804D01*
X196539509Y-100902804D01*
X197015700Y-100664709D01*
X197253795Y-100188519D01*
X197253795Y-98283757D01*
X197015700Y-97807566D01*
X196539509Y-97569471D01*
X195587128Y-97569471D01*
X195110938Y-97807566D01*
X194872842Y-98283757D01*
X194872842Y-98759947D01*
X197253795Y-99236138D01*
X190587128Y-100902804D02*
X190587128Y-95902804D01*
X190587128Y-100664709D02*
X191063319Y-100902804D01*
X192015700Y-100902804D01*
X192491890Y-100664709D01*
X192729985Y-100426614D01*
X192968080Y-99950423D01*
X192968080Y-98521852D01*
X192729985Y-98045661D01*
X192491890Y-97807566D01*
X192015700Y-97569471D01*
X191063319Y-97569471D01*
X190587128Y-97807566D01*
X184396652Y-100902804D02*
X184396652Y-95902804D01*
X184396652Y-97807566D02*
X183920461Y-97569471D01*
X182968080Y-97569471D01*
X182491890Y-97807566D01*
X182253795Y-98045661D01*
X182015700Y-98521852D01*
X182015700Y-99950423D01*
X182253795Y-100426614D01*
X182491890Y-100664709D01*
X182968080Y-100902804D01*
X183920461Y-100902804D01*
X184396652Y-100664709D01*
X180349033Y-97569471D02*
X179158557Y-100902804D01*
X177968080Y-97569471D02*
X179158557Y-100902804D01*
X179634747Y-102093280D01*
X179872842Y-102331376D01*
X180349033Y-102569471D01*
X172491890Y-100664709D02*
X171777604Y-100902804D01*
X170587128Y-100902804D01*
X170110938Y-100664709D01*
X169872842Y-100426614D01*
X169634747Y-99950423D01*
X169634747Y-99474233D01*
X169872842Y-98998042D01*
X170110938Y-98759947D01*
X170587128Y-98521852D01*
X171539509Y-98283757D01*
X172015700Y-98045661D01*
X172253795Y-97807566D01*
X172491890Y-97331376D01*
X172491890Y-96855185D01*
X172253795Y-96378995D01*
X172015700Y-96140900D01*
X171539509Y-95902804D01*
X170349033Y-95902804D01*
X169634747Y-96140900D01*
X168206176Y-95902804D02*
X166539509Y-100902804D01*
X164872842Y-95902804D01*
X163206176Y-100902804D02*
X163206176Y-95902804D01*
X160825223Y-98283757D02*
X159158557Y-98283757D01*
X158444271Y-100902804D02*
X160825223Y-100902804D01*
X160825223Y-95902804D01*
X158444271Y-95902804D01*
X153920461Y-100902804D02*
X156301414Y-100902804D01*
X156301414Y-95902804D01*
X149396652Y-100426614D02*
X149634747Y-100664709D01*
X150349033Y-100902804D01*
X150825223Y-100902804D01*
X151539509Y-100664709D01*
X152015700Y-100188519D01*
X152253795Y-99712328D01*
X152491890Y-98759947D01*
X152491890Y-98045661D01*
X152253795Y-97093280D01*
X152015700Y-96617090D01*
X151539509Y-96140900D01*
X150825223Y-95902804D01*
X150349033Y-95902804D01*
X149634747Y-96140900D01*
X149396652Y-96378995D01*
X146301414Y-95902804D02*
X145349033Y-95902804D01*
X144872842Y-96140900D01*
X144396652Y-96617090D01*
X144158557Y-97569471D01*
X144158557Y-99236138D01*
X144396652Y-100188519D01*
X144872842Y-100664709D01*
X145349033Y-100902804D01*
X146301414Y-100902804D01*
X146777604Y-100664709D01*
X147253795Y-100188519D01*
X147491890Y-99236138D01*
X147491890Y-97569471D01*
X147253795Y-96617090D01*
X146777604Y-96140900D01*
X146301414Y-95902804D01*
X142015700Y-100902804D02*
X142015700Y-95902804D01*
X140349033Y-99474233D01*
X138682366Y-95902804D01*
X138682366Y-100902804D01*
D10*
X133476857Y-205091600D02*
X133619714Y-205020171D01*
X133834000Y-205020171D01*
X134048285Y-205091600D01*
X134191142Y-205234457D01*
X134262571Y-205377314D01*
X134334000Y-205663028D01*
X134334000Y-205877314D01*
X134262571Y-206163028D01*
X134191142Y-206305885D01*
X134048285Y-206448742D01*
X133834000Y-206520171D01*
X133691142Y-206520171D01*
X133476857Y-206448742D01*
X133405428Y-206377314D01*
X133405428Y-205877314D01*
X133691142Y-205877314D01*
X132762571Y-206520171D02*
X132762571Y-205020171D01*
X131905428Y-206520171D01*
X131905428Y-205020171D01*
X131191142Y-206520171D02*
X131191142Y-205020171D01*
X130834000Y-205020171D01*
X130619714Y-205091600D01*
X130476857Y-205234457D01*
X130405428Y-205377314D01*
X130334000Y-205663028D01*
X130334000Y-205877314D01*
X130405428Y-206163028D01*
X130476857Y-206305885D01*
X130619714Y-206448742D01*
X130834000Y-206520171D01*
X131191142Y-206520171D01*
X139558471Y-205923342D02*
X138415614Y-205923342D01*
X138987042Y-206494771D02*
X138987042Y-205351914D01*
X136987042Y-204994771D02*
X137701328Y-204994771D01*
X137772757Y-205709057D01*
X137701328Y-205637628D01*
X137558471Y-205566200D01*
X137201328Y-205566200D01*
X137058471Y-205637628D01*
X136987042Y-205709057D01*
X136915614Y-205851914D01*
X136915614Y-206209057D01*
X136987042Y-206351914D01*
X137058471Y-206423342D01*
X137201328Y-206494771D01*
X137558471Y-206494771D01*
X137701328Y-206423342D01*
X137772757Y-206351914D01*
X136487042Y-204994771D02*
X135987042Y-206494771D01*
X135487042Y-204994771D01*
X96864466Y-186583961D02*
X96864466Y-187060152D01*
X97150180Y-186488723D02*
X96150180Y-186822057D01*
X97150180Y-187155390D01*
X97150180Y-187488723D02*
X96150180Y-187488723D01*
X96150180Y-187726819D01*
X96197800Y-187869676D01*
X96293038Y-187964914D01*
X96388276Y-188012533D01*
X96578752Y-188060152D01*
X96721609Y-188060152D01*
X96912085Y-188012533D01*
X97007323Y-187964914D01*
X97102561Y-187869676D01*
X97150180Y-187726819D01*
X97150180Y-187488723D01*
X97054942Y-189060152D02*
X97102561Y-189012533D01*
X97150180Y-188869676D01*
X97150180Y-188774438D01*
X97102561Y-188631580D01*
X97007323Y-188536342D01*
X96912085Y-188488723D01*
X96721609Y-188441104D01*
X96578752Y-188441104D01*
X96388276Y-188488723D01*
X96293038Y-188536342D01*
X96197800Y-188631580D01*
X96150180Y-188774438D01*
X96150180Y-188869676D01*
X96197800Y-189012533D01*
X96245419Y-189060152D01*
X97150180Y-190012533D02*
X97150180Y-189441104D01*
X97150180Y-189726819D02*
X96150180Y-189726819D01*
X96293038Y-189631580D01*
X96388276Y-189536342D01*
X96435895Y-189441104D01*
X97245419Y-190203009D02*
X97245419Y-190964914D01*
X97150180Y-191203009D02*
X96150180Y-191203009D01*
X96150180Y-191583961D01*
X96197800Y-191679200D01*
X96245419Y-191726819D01*
X96340657Y-191774438D01*
X96483514Y-191774438D01*
X96578752Y-191726819D01*
X96626371Y-191679200D01*
X96673990Y-191583961D01*
X96673990Y-191203009D01*
X94260966Y-186558561D02*
X94260966Y-187034752D01*
X94546680Y-186463323D02*
X93546680Y-186796657D01*
X94546680Y-187129990D01*
X94546680Y-187463323D02*
X93546680Y-187463323D01*
X93546680Y-187701419D01*
X93594300Y-187844276D01*
X93689538Y-187939514D01*
X93784776Y-187987133D01*
X93975252Y-188034752D01*
X94118109Y-188034752D01*
X94308585Y-187987133D01*
X94403823Y-187939514D01*
X94499061Y-187844276D01*
X94546680Y-187701419D01*
X94546680Y-187463323D01*
X94451442Y-189034752D02*
X94499061Y-188987133D01*
X94546680Y-188844276D01*
X94546680Y-188749038D01*
X94499061Y-188606180D01*
X94403823Y-188510942D01*
X94308585Y-188463323D01*
X94118109Y-188415704D01*
X93975252Y-188415704D01*
X93784776Y-188463323D01*
X93689538Y-188510942D01*
X93594300Y-188606180D01*
X93546680Y-188749038D01*
X93546680Y-188844276D01*
X93594300Y-188987133D01*
X93641919Y-189034752D01*
X93641919Y-189415704D02*
X93594300Y-189463323D01*
X93546680Y-189558561D01*
X93546680Y-189796657D01*
X93594300Y-189891895D01*
X93641919Y-189939514D01*
X93737157Y-189987133D01*
X93832395Y-189987133D01*
X93975252Y-189939514D01*
X94546680Y-189368085D01*
X94546680Y-189987133D01*
X94641919Y-190177609D02*
X94641919Y-190939514D01*
X94546680Y-191177609D02*
X93546680Y-191177609D01*
X93546680Y-191558561D01*
X93594300Y-191653800D01*
X93641919Y-191701419D01*
X93737157Y-191749038D01*
X93880014Y-191749038D01*
X93975252Y-191701419D01*
X94022871Y-191653800D01*
X94070490Y-191558561D01*
X94070490Y-191177609D01*
X91733666Y-186558561D02*
X91733666Y-187034752D01*
X92019380Y-186463323D02*
X91019380Y-186796657D01*
X92019380Y-187129990D01*
X92019380Y-187463323D02*
X91019380Y-187463323D01*
X91019380Y-187701419D01*
X91067000Y-187844276D01*
X91162238Y-187939514D01*
X91257476Y-187987133D01*
X91447952Y-188034752D01*
X91590809Y-188034752D01*
X91781285Y-187987133D01*
X91876523Y-187939514D01*
X91971761Y-187844276D01*
X92019380Y-187701419D01*
X92019380Y-187463323D01*
X91924142Y-189034752D02*
X91971761Y-188987133D01*
X92019380Y-188844276D01*
X92019380Y-188749038D01*
X91971761Y-188606180D01*
X91876523Y-188510942D01*
X91781285Y-188463323D01*
X91590809Y-188415704D01*
X91447952Y-188415704D01*
X91257476Y-188463323D01*
X91162238Y-188510942D01*
X91067000Y-188606180D01*
X91019380Y-188749038D01*
X91019380Y-188844276D01*
X91067000Y-188987133D01*
X91114619Y-189034752D01*
X91019380Y-189368085D02*
X91019380Y-189987133D01*
X91400333Y-189653800D01*
X91400333Y-189796657D01*
X91447952Y-189891895D01*
X91495571Y-189939514D01*
X91590809Y-189987133D01*
X91828904Y-189987133D01*
X91924142Y-189939514D01*
X91971761Y-189891895D01*
X92019380Y-189796657D01*
X92019380Y-189510942D01*
X91971761Y-189415704D01*
X91924142Y-189368085D01*
X92114619Y-190177609D02*
X92114619Y-190939514D01*
X92019380Y-191177609D02*
X91019380Y-191177609D01*
X91019380Y-191558561D01*
X91067000Y-191653800D01*
X91114619Y-191701419D01*
X91209857Y-191749038D01*
X91352714Y-191749038D01*
X91447952Y-191701419D01*
X91495571Y-191653800D01*
X91543190Y-191558561D01*
X91543190Y-191177609D01*
X89130166Y-182023333D02*
X89130166Y-182499523D01*
X89415880Y-181928095D02*
X88415880Y-182261428D01*
X89415880Y-182594761D01*
X89511119Y-182690000D02*
X89511119Y-183451904D01*
X89320642Y-184261428D02*
X89368261Y-184213809D01*
X89415880Y-184070952D01*
X89415880Y-183975714D01*
X89368261Y-183832857D01*
X89273023Y-183737619D01*
X89177785Y-183690000D01*
X88987309Y-183642380D01*
X88844452Y-183642380D01*
X88653976Y-183690000D01*
X88558738Y-183737619D01*
X88463500Y-183832857D01*
X88415880Y-183975714D01*
X88415880Y-184070952D01*
X88463500Y-184213809D01*
X88511119Y-184261428D01*
X89415880Y-184690000D02*
X88415880Y-184690000D01*
X88892071Y-184690000D02*
X88892071Y-185261428D01*
X89415880Y-185261428D02*
X88415880Y-185261428D01*
X89415880Y-186261428D02*
X89415880Y-185690000D01*
X89415880Y-185975714D02*
X88415880Y-185975714D01*
X88558738Y-185880476D01*
X88653976Y-185785238D01*
X88701595Y-185690000D01*
X89511119Y-186451904D02*
X89511119Y-187213809D01*
X88892071Y-187785238D02*
X88892071Y-187451904D01*
X89415880Y-187451904D02*
X88415880Y-187451904D01*
X88415880Y-187928095D01*
X89130166Y-188261428D02*
X89130166Y-188737619D01*
X89415880Y-188166190D02*
X88415880Y-188499523D01*
X89415880Y-188832857D01*
X88415880Y-189166190D02*
X89225404Y-189166190D01*
X89320642Y-189213809D01*
X89368261Y-189261428D01*
X89415880Y-189356666D01*
X89415880Y-189547142D01*
X89368261Y-189642380D01*
X89320642Y-189690000D01*
X89225404Y-189737619D01*
X88415880Y-189737619D01*
X89415880Y-190690000D02*
X89415880Y-190213809D01*
X88415880Y-190213809D01*
X88415880Y-190880476D02*
X88415880Y-191451904D01*
X89415880Y-191166190D02*
X88415880Y-191166190D01*
X84867166Y-193549566D02*
X84390976Y-193549566D01*
X84962404Y-193835280D02*
X84629071Y-192835280D01*
X84295738Y-193835280D01*
X84200500Y-193930519D02*
X83438595Y-193930519D01*
X82629071Y-193740042D02*
X82676690Y-193787661D01*
X82819547Y-193835280D01*
X82914785Y-193835280D01*
X83057642Y-193787661D01*
X83152880Y-193692423D01*
X83200500Y-193597185D01*
X83248119Y-193406709D01*
X83248119Y-193263852D01*
X83200500Y-193073376D01*
X83152880Y-192978138D01*
X83057642Y-192882900D01*
X82914785Y-192835280D01*
X82819547Y-192835280D01*
X82676690Y-192882900D01*
X82629071Y-192930519D01*
X82200500Y-193835280D02*
X82200500Y-192835280D01*
X82200500Y-193311471D02*
X81629071Y-193311471D01*
X81629071Y-193835280D02*
X81629071Y-192835280D01*
X81248119Y-192835280D02*
X80629071Y-192835280D01*
X80962404Y-193216233D01*
X80819547Y-193216233D01*
X80724309Y-193263852D01*
X80676690Y-193311471D01*
X80629071Y-193406709D01*
X80629071Y-193644804D01*
X80676690Y-193740042D01*
X80724309Y-193787661D01*
X80819547Y-193835280D01*
X81105261Y-193835280D01*
X81200500Y-193787661D01*
X81248119Y-193740042D01*
X80438595Y-193930519D02*
X79676690Y-193930519D01*
X79105261Y-193311471D02*
X79438595Y-193311471D01*
X79438595Y-193835280D02*
X79438595Y-192835280D01*
X78962404Y-192835280D01*
X78629071Y-193549566D02*
X78152880Y-193549566D01*
X78724309Y-193835280D02*
X78390976Y-192835280D01*
X78057642Y-193835280D01*
X77724309Y-192835280D02*
X77724309Y-193644804D01*
X77676690Y-193740042D01*
X77629071Y-193787661D01*
X77533833Y-193835280D01*
X77343357Y-193835280D01*
X77248119Y-193787661D01*
X77200500Y-193740042D01*
X77152880Y-193644804D01*
X77152880Y-192835280D01*
X76200500Y-193835280D02*
X76676690Y-193835280D01*
X76676690Y-192835280D01*
X76010023Y-192835280D02*
X75438595Y-192835280D01*
X75724309Y-193835280D02*
X75724309Y-192835280D01*
X84702066Y-196051466D02*
X84225876Y-196051466D01*
X84797304Y-196337180D02*
X84463971Y-195337180D01*
X84130638Y-196337180D01*
X84035400Y-196432419D02*
X83273495Y-196432419D01*
X82463971Y-196241942D02*
X82511590Y-196289561D01*
X82654447Y-196337180D01*
X82749685Y-196337180D01*
X82892542Y-196289561D01*
X82987780Y-196194323D01*
X83035400Y-196099085D01*
X83083019Y-195908609D01*
X83083019Y-195765752D01*
X83035400Y-195575276D01*
X82987780Y-195480038D01*
X82892542Y-195384800D01*
X82749685Y-195337180D01*
X82654447Y-195337180D01*
X82511590Y-195384800D01*
X82463971Y-195432419D01*
X82035400Y-196337180D02*
X82035400Y-195337180D01*
X82035400Y-195813371D02*
X81463971Y-195813371D01*
X81463971Y-196337180D02*
X81463971Y-195337180D01*
X81035400Y-195432419D02*
X80987780Y-195384800D01*
X80892542Y-195337180D01*
X80654447Y-195337180D01*
X80559209Y-195384800D01*
X80511590Y-195432419D01*
X80463971Y-195527657D01*
X80463971Y-195622895D01*
X80511590Y-195765752D01*
X81083019Y-196337180D01*
X80463971Y-196337180D01*
X80273495Y-196432419D02*
X79511590Y-196432419D01*
X78940161Y-195813371D02*
X79273495Y-195813371D01*
X79273495Y-196337180D02*
X79273495Y-195337180D01*
X78797304Y-195337180D01*
X78463971Y-196051466D02*
X77987780Y-196051466D01*
X78559209Y-196337180D02*
X78225876Y-195337180D01*
X77892542Y-196337180D01*
X77559209Y-195337180D02*
X77559209Y-196146704D01*
X77511590Y-196241942D01*
X77463971Y-196289561D01*
X77368733Y-196337180D01*
X77178257Y-196337180D01*
X77083019Y-196289561D01*
X77035400Y-196241942D01*
X76987780Y-196146704D01*
X76987780Y-195337180D01*
X76035400Y-196337180D02*
X76511590Y-196337180D01*
X76511590Y-195337180D01*
X75844923Y-195337180D02*
X75273495Y-195337180D01*
X75559209Y-196337180D02*
X75559209Y-195337180D01*
D12*
%TO.C,R56*%
X308329000Y-91228936D02*
X308329000Y-91683064D01*
X306859000Y-91228936D02*
X306859000Y-91683064D01*
%TO.C,U4*%
X166084200Y-122669000D02*
X204028000Y-122662000D01*
X166084200Y-103379000D02*
X166084200Y-122669000D01*
X204028000Y-103372000D02*
X166084200Y-103379000D01*
X204028000Y-122662000D02*
X204028000Y-103372000D01*
X204278000Y-122917000D02*
X201568000Y-122917000D01*
X204278000Y-122917000D02*
X204278000Y-120637000D01*
%TO.C,U2*%
X188300000Y-166807000D02*
X186300000Y-166807000D01*
X155680000Y-147187000D02*
X206220000Y-147187000D01*
X155680000Y-166427000D02*
X155680000Y-147187000D01*
X206220000Y-166427000D02*
X155680000Y-166427000D01*
X206220000Y-166427000D02*
X206220000Y-147187000D01*
%TO.C,C61*%
X225025833Y-95074200D02*
X225318367Y-95074200D01*
X225025833Y-94054200D02*
X225318367Y-94054200D01*
%TO.C,C66*%
X307084000Y-96311767D02*
X307084000Y-96019233D01*
X308104000Y-96311767D02*
X308104000Y-96019233D01*
%TO.C,C74*%
X310259000Y-79291133D02*
X310259000Y-79583667D01*
X311279000Y-79291133D02*
X311279000Y-79583667D01*
%TO.C,C90*%
X80748600Y-149498733D02*
X80748600Y-149791267D01*
X79728600Y-149498733D02*
X79728600Y-149791267D01*
%TO.C,C91*%
X80723200Y-138511267D02*
X80723200Y-138218733D01*
X79703200Y-138511267D02*
X79703200Y-138218733D01*
%TO.C,D1*%
X198668000Y-185726000D02*
X198668000Y-185570000D01*
X198668000Y-183410000D02*
X198668000Y-183254000D01*
X201900335Y-185568608D02*
G75*
G02*
X198668000Y-185725516I-1672335J1078608D01*
G01*
X201900335Y-183411392D02*
G75*
G03*
X198668000Y-183254484I-1672335J-1078608D01*
G01*
X201269130Y-185569837D02*
G75*
G02*
X199187039Y-185570000I-1041130J1079837D01*
G01*
X201269130Y-183410163D02*
G75*
G03*
X199187039Y-183410000I-1041130J-1079837D01*
G01*
%TO.C,D2*%
X157660000Y-183384000D02*
X157660000Y-183228000D01*
X157660000Y-185700000D02*
X157660000Y-185544000D01*
X160261130Y-183384163D02*
G75*
G03*
X158179039Y-183384000I-1041130J-1079837D01*
G01*
X160261130Y-185543837D02*
G75*
G02*
X158179039Y-185544000I-1041130J1079837D01*
G01*
X160892335Y-183385392D02*
G75*
G03*
X157660000Y-183228484I-1672335J-1078608D01*
G01*
X160892335Y-185542608D02*
G75*
G02*
X157660000Y-185699516I-1672335J1078608D01*
G01*
%TO.C,D8*%
X340786000Y-114172000D02*
X340786000Y-110872000D01*
X340786000Y-110872000D02*
X347686000Y-110872000D01*
X340786000Y-114172000D02*
X347686000Y-114172000D01*
%TO.C,R3*%
X223823264Y-144070400D02*
X223369136Y-144070400D01*
X223823264Y-145540400D02*
X223369136Y-145540400D01*
%TO.C,R6*%
X218511664Y-145553200D02*
X218057536Y-145553200D01*
X218511664Y-144083200D02*
X218057536Y-144083200D01*
%TO.C,R7*%
X222435664Y-113819000D02*
X221981536Y-113819000D01*
X222435664Y-115289000D02*
X221981536Y-115289000D01*
%TO.C,R8*%
X217495464Y-115289000D02*
X217041336Y-115289000D01*
X217495464Y-113819000D02*
X217041336Y-113819000D01*
%TO.C,R14*%
X73890136Y-174560000D02*
X74344264Y-174560000D01*
X73890136Y-173090000D02*
X74344264Y-173090000D01*
%TO.C,R15*%
X65666864Y-178433000D02*
X65212736Y-178433000D01*
X65666864Y-176963000D02*
X65212736Y-176963000D01*
%TO.C,R60*%
X308329000Y-79290936D02*
X308329000Y-79745064D01*
X306859000Y-79290936D02*
X306859000Y-79745064D01*
%TO.C,R74*%
X166736700Y-176620664D02*
X166736700Y-176166536D01*
X165266700Y-176620664D02*
X165266700Y-176166536D01*
%TO.C,R75*%
X169792320Y-176620664D02*
X169792320Y-176166536D01*
X168322320Y-176620664D02*
X168322320Y-176166536D01*
%TO.C,R76*%
X180544800Y-176620664D02*
X180544800Y-176166536D01*
X182014800Y-176620664D02*
X182014800Y-176166536D01*
%TO.C,R77*%
X178959180Y-176620664D02*
X178959180Y-176166536D01*
X177489180Y-176620664D02*
X177489180Y-176166536D01*
%TO.C,R78*%
X174433560Y-176620664D02*
X174433560Y-176166536D01*
X175903560Y-176620664D02*
X175903560Y-176166536D01*
%TO.C,R79*%
X172847940Y-176620664D02*
X172847940Y-176166536D01*
X171377940Y-176620664D02*
X171377940Y-176166536D01*
%TO.C,U1*%
X286179000Y-166363000D02*
X286179000Y-147123000D01*
X286179000Y-166363000D02*
X235639000Y-166363000D01*
X235639000Y-166363000D02*
X235639000Y-147123000D01*
X235639000Y-147123000D02*
X286179000Y-147123000D01*
X268259000Y-166743000D02*
X266259000Y-166743000D01*
%TO.C,U5*%
X239004214Y-118220000D02*
G75*
G03*
X239004214Y-118220000I-447214J0D01*
G01*
X245557000Y-108220000D02*
X238557000Y-108220000D01*
X239557000Y-113220000D02*
X246557000Y-113220000D01*
X238557000Y-108220000D02*
X239557000Y-113220000D01*
X240557000Y-118220000D02*
X239557000Y-113220000D01*
X247557000Y-118220000D02*
X240557000Y-118220000D01*
X246557000Y-113220000D02*
X247557000Y-118220000D01*
X245557000Y-108220000D02*
X246557000Y-113220000D01*
X236257000Y-103585000D02*
X248857000Y-103585000D01*
X247857000Y-122855000D02*
X236257000Y-122855000D01*
X236147000Y-118935000D02*
X236147000Y-107505000D01*
X248967000Y-118935000D02*
X248967000Y-107505000D01*
%TO.C,U7*%
X310799000Y-122942000D02*
X310799000Y-103702000D01*
X310799000Y-122942000D02*
X260259000Y-122942000D01*
X260259000Y-122942000D02*
X260259000Y-103702000D01*
X260259000Y-103702000D02*
X310799000Y-103702000D01*
X292879000Y-123322000D02*
X290879000Y-123322000D01*
%TO.C,C50*%
X134561533Y-137602500D02*
X134854067Y-137602500D01*
X134561533Y-138622500D02*
X134854067Y-138622500D01*
%TO.C,R56*%
D10*
X306242980Y-90752942D02*
X305766790Y-90419609D01*
X306242980Y-90181514D02*
X305242980Y-90181514D01*
X305242980Y-90562466D01*
X305290600Y-90657704D01*
X305338219Y-90705323D01*
X305433457Y-90752942D01*
X305576314Y-90752942D01*
X305671552Y-90705323D01*
X305719171Y-90657704D01*
X305766790Y-90562466D01*
X305766790Y-90181514D01*
X305242980Y-91657704D02*
X305242980Y-91181514D01*
X305719171Y-91133895D01*
X305671552Y-91181514D01*
X305623933Y-91276752D01*
X305623933Y-91514847D01*
X305671552Y-91610085D01*
X305719171Y-91657704D01*
X305814409Y-91705323D01*
X306052504Y-91705323D01*
X306147742Y-91657704D01*
X306195361Y-91610085D01*
X306242980Y-91514847D01*
X306242980Y-91276752D01*
X306195361Y-91181514D01*
X306147742Y-91133895D01*
X305242980Y-92562466D02*
X305242980Y-92371990D01*
X305290600Y-92276752D01*
X305338219Y-92229133D01*
X305481076Y-92133895D01*
X305671552Y-92086276D01*
X306052504Y-92086276D01*
X306147742Y-92133895D01*
X306195361Y-92181514D01*
X306242980Y-92276752D01*
X306242980Y-92467228D01*
X306195361Y-92562466D01*
X306147742Y-92610085D01*
X306052504Y-92657704D01*
X305814409Y-92657704D01*
X305719171Y-92610085D01*
X305671552Y-92562466D01*
X305623933Y-92467228D01*
X305623933Y-92276752D01*
X305671552Y-92181514D01*
X305719171Y-92133895D01*
X305814409Y-92086276D01*
%TO.C,U4*%
X181787704Y-123455180D02*
X181787704Y-124264704D01*
X181740085Y-124359942D01*
X181692466Y-124407561D01*
X181597228Y-124455180D01*
X181406752Y-124455180D01*
X181311514Y-124407561D01*
X181263895Y-124359942D01*
X181216276Y-124264704D01*
X181216276Y-123455180D01*
X180311514Y-123788514D02*
X180311514Y-124455180D01*
X180549609Y-123407561D02*
X180787704Y-124121847D01*
X180168657Y-124121847D01*
X164641171Y-107547219D02*
X164688790Y-107690076D01*
X164736409Y-107737695D01*
X164831647Y-107785314D01*
X164974504Y-107785314D01*
X165069742Y-107737695D01*
X165117361Y-107690076D01*
X165164980Y-107594838D01*
X165164980Y-107213885D01*
X164164980Y-107213885D01*
X164164980Y-107547219D01*
X164212600Y-107642457D01*
X164260219Y-107690076D01*
X164355457Y-107737695D01*
X164450695Y-107737695D01*
X164545933Y-107690076D01*
X164593552Y-107642457D01*
X164641171Y-107547219D01*
X164641171Y-107213885D01*
X165069742Y-108785314D02*
X165117361Y-108737695D01*
X165164980Y-108594838D01*
X165164980Y-108499600D01*
X165117361Y-108356742D01*
X165022123Y-108261504D01*
X164926885Y-108213885D01*
X164736409Y-108166266D01*
X164593552Y-108166266D01*
X164403076Y-108213885D01*
X164307838Y-108261504D01*
X164212600Y-108356742D01*
X164164980Y-108499600D01*
X164164980Y-108594838D01*
X164212600Y-108737695D01*
X164260219Y-108785314D01*
X164164980Y-109690076D02*
X164164980Y-109213885D01*
X164641171Y-109166266D01*
X164593552Y-109213885D01*
X164545933Y-109309123D01*
X164545933Y-109547219D01*
X164593552Y-109642457D01*
X164641171Y-109690076D01*
X164736409Y-109737695D01*
X164974504Y-109737695D01*
X165069742Y-109690076D01*
X165117361Y-109642457D01*
X165164980Y-109547219D01*
X165164980Y-109309123D01*
X165117361Y-109213885D01*
X165069742Y-109166266D01*
X164164980Y-110594838D02*
X164164980Y-110404361D01*
X164212600Y-110309123D01*
X164260219Y-110261504D01*
X164403076Y-110166266D01*
X164593552Y-110118647D01*
X164974504Y-110118647D01*
X165069742Y-110166266D01*
X165117361Y-110213885D01*
X165164980Y-110309123D01*
X165164980Y-110499600D01*
X165117361Y-110594838D01*
X165069742Y-110642457D01*
X164974504Y-110690076D01*
X164736409Y-110690076D01*
X164641171Y-110642457D01*
X164593552Y-110594838D01*
X164545933Y-110499600D01*
X164545933Y-110309123D01*
X164593552Y-110213885D01*
X164641171Y-110166266D01*
X164736409Y-110118647D01*
X164784028Y-111118647D02*
X164784028Y-111880552D01*
X165164980Y-112880552D02*
X165164980Y-112309123D01*
X165164980Y-112594838D02*
X164164980Y-112594838D01*
X164307838Y-112499600D01*
X164403076Y-112404361D01*
X164450695Y-112309123D01*
X164260219Y-113261504D02*
X164212600Y-113309123D01*
X164164980Y-113404361D01*
X164164980Y-113642457D01*
X164212600Y-113737695D01*
X164260219Y-113785314D01*
X164355457Y-113832933D01*
X164450695Y-113832933D01*
X164593552Y-113785314D01*
X165164980Y-113213885D01*
X165164980Y-113832933D01*
X165117361Y-114213885D02*
X165164980Y-114356742D01*
X165164980Y-114594838D01*
X165117361Y-114690076D01*
X165069742Y-114737695D01*
X164974504Y-114785314D01*
X164879266Y-114785314D01*
X164784028Y-114737695D01*
X164736409Y-114690076D01*
X164688790Y-114594838D01*
X164641171Y-114404361D01*
X164593552Y-114309123D01*
X164545933Y-114261504D01*
X164450695Y-114213885D01*
X164355457Y-114213885D01*
X164260219Y-114261504D01*
X164212600Y-114309123D01*
X164164980Y-114404361D01*
X164164980Y-114642457D01*
X164212600Y-114785314D01*
X164164980Y-115213885D02*
X164974504Y-115213885D01*
X165069742Y-115261504D01*
X165117361Y-115309123D01*
X165164980Y-115404361D01*
X165164980Y-115594838D01*
X165117361Y-115690076D01*
X165069742Y-115737695D01*
X164974504Y-115785314D01*
X164164980Y-115785314D01*
X165164980Y-116832933D02*
X164688790Y-116499600D01*
X165164980Y-116261504D02*
X164164980Y-116261504D01*
X164164980Y-116642457D01*
X164212600Y-116737695D01*
X164260219Y-116785314D01*
X164355457Y-116832933D01*
X164498314Y-116832933D01*
X164593552Y-116785314D01*
X164641171Y-116737695D01*
X164688790Y-116642457D01*
X164688790Y-116261504D01*
X165164980Y-117261504D02*
X164164980Y-117261504D01*
X165164980Y-117832933D02*
X164593552Y-117404361D01*
X164164980Y-117832933D02*
X164736409Y-117261504D01*
X164164980Y-118166266D02*
X165164980Y-118404361D01*
X164450695Y-118594838D01*
X165164980Y-118785314D01*
X164164980Y-119023409D01*
X164879266Y-119356742D02*
X164879266Y-119832933D01*
X165164980Y-119261504D02*
X164164980Y-119594838D01*
X165164980Y-119928171D01*
X186634309Y-123404380D02*
X186634309Y-124404380D01*
X187205738Y-123404380D02*
X187205738Y-124404380D01*
X186539071Y-124404380D01*
X186539071Y-124642476D01*
X186158119Y-123737714D02*
X186158119Y-124404380D01*
X185681928Y-123737714D01*
X185681928Y-124404380D01*
X185205738Y-123737714D02*
X185205738Y-124404380D01*
X185110500Y-124023428D02*
X184824785Y-124404380D01*
X184824785Y-123737714D02*
X185205738Y-124118666D01*
X184015261Y-124404380D02*
X184015261Y-123737714D01*
X184158119Y-123737714D01*
X184253357Y-123785333D01*
X184300976Y-123880571D01*
X184348595Y-124261523D01*
X184396214Y-124356761D01*
X184491452Y-124404380D01*
%TO.C,U2*%
X184137604Y-145121480D02*
X184137604Y-145931004D01*
X184089985Y-146026242D01*
X184042366Y-146073861D01*
X183947128Y-146121480D01*
X183756652Y-146121480D01*
X183661414Y-146073861D01*
X183613795Y-146026242D01*
X183566176Y-145931004D01*
X183566176Y-145121480D01*
X183137604Y-145216719D02*
X183089985Y-145169100D01*
X182994747Y-145121480D01*
X182756652Y-145121480D01*
X182661414Y-145169100D01*
X182613795Y-145216719D01*
X182566176Y-145311957D01*
X182566176Y-145407195D01*
X182613795Y-145550052D01*
X183185223Y-146121480D01*
X182566176Y-146121480D01*
X154857142Y-154312714D02*
X154904761Y-154265095D01*
X154952380Y-154122238D01*
X154952380Y-154027000D01*
X154904761Y-153884142D01*
X154809523Y-153788904D01*
X154714285Y-153741285D01*
X154523809Y-153693666D01*
X154380952Y-153693666D01*
X154190476Y-153741285D01*
X154095238Y-153788904D01*
X154000000Y-153884142D01*
X153952380Y-154027000D01*
X153952380Y-154122238D01*
X154000000Y-154265095D01*
X154047619Y-154312714D01*
X154857142Y-155312714D02*
X154904761Y-155265095D01*
X154952380Y-155122238D01*
X154952380Y-155027000D01*
X154904761Y-154884142D01*
X154809523Y-154788904D01*
X154714285Y-154741285D01*
X154523809Y-154693666D01*
X154380952Y-154693666D01*
X154190476Y-154741285D01*
X154095238Y-154788904D01*
X154000000Y-154884142D01*
X153952380Y-155027000D01*
X153952380Y-155122238D01*
X154000000Y-155265095D01*
X154047619Y-155312714D01*
X153952380Y-156217476D02*
X153952380Y-155741285D01*
X154428571Y-155693666D01*
X154380952Y-155741285D01*
X154333333Y-155836523D01*
X154333333Y-156074619D01*
X154380952Y-156169857D01*
X154428571Y-156217476D01*
X154523809Y-156265095D01*
X154761904Y-156265095D01*
X154857142Y-156217476D01*
X154904761Y-156169857D01*
X154952380Y-156074619D01*
X154952380Y-155836523D01*
X154904761Y-155741285D01*
X154857142Y-155693666D01*
X153952380Y-157122238D02*
X153952380Y-156931761D01*
X154000000Y-156836523D01*
X154047619Y-156788904D01*
X154190476Y-156693666D01*
X154380952Y-156646047D01*
X154761904Y-156646047D01*
X154857142Y-156693666D01*
X154904761Y-156741285D01*
X154952380Y-156836523D01*
X154952380Y-157027000D01*
X154904761Y-157122238D01*
X154857142Y-157169857D01*
X154761904Y-157217476D01*
X154523809Y-157217476D01*
X154428571Y-157169857D01*
X154380952Y-157122238D01*
X154333333Y-157027000D01*
X154333333Y-156836523D01*
X154380952Y-156741285D01*
X154428571Y-156693666D01*
X154523809Y-156646047D01*
X154571428Y-157646047D02*
X154571428Y-158407952D01*
X154952380Y-159407952D02*
X154952380Y-158836523D01*
X154952380Y-159122238D02*
X153952380Y-159122238D01*
X154095238Y-159027000D01*
X154190476Y-158931761D01*
X154238095Y-158836523D01*
X154047619Y-159788904D02*
X154000000Y-159836523D01*
X153952380Y-159931761D01*
X153952380Y-160169857D01*
X154000000Y-160265095D01*
X154047619Y-160312714D01*
X154142857Y-160360333D01*
X154238095Y-160360333D01*
X154380952Y-160312714D01*
X154952380Y-159741285D01*
X154952380Y-160360333D01*
X154904761Y-160741285D02*
X154952380Y-160884142D01*
X154952380Y-161122238D01*
X154904761Y-161217476D01*
X154857142Y-161265095D01*
X154761904Y-161312714D01*
X154666666Y-161312714D01*
X154571428Y-161265095D01*
X154523809Y-161217476D01*
X154476190Y-161122238D01*
X154428571Y-160931761D01*
X154380952Y-160836523D01*
X154333333Y-160788904D01*
X154238095Y-160741285D01*
X154142857Y-160741285D01*
X154047619Y-160788904D01*
X154000000Y-160836523D01*
X153952380Y-160931761D01*
X153952380Y-161169857D01*
X154000000Y-161312714D01*
X153952380Y-161741285D02*
X154761904Y-161741285D01*
X154857142Y-161788904D01*
X154904761Y-161836523D01*
X154952380Y-161931761D01*
X154952380Y-162122238D01*
X154904761Y-162217476D01*
X154857142Y-162265095D01*
X154761904Y-162312714D01*
X153952380Y-162312714D01*
X154952380Y-163360333D02*
X154476190Y-163027000D01*
X154952380Y-162788904D02*
X153952380Y-162788904D01*
X153952380Y-163169857D01*
X154000000Y-163265095D01*
X154047619Y-163312714D01*
X154142857Y-163360333D01*
X154285714Y-163360333D01*
X154380952Y-163312714D01*
X154428571Y-163265095D01*
X154476190Y-163169857D01*
X154476190Y-162788904D01*
X154952380Y-163788904D02*
X153952380Y-163788904D01*
X154952380Y-164360333D02*
X154380952Y-163931761D01*
X153952380Y-164360333D02*
X154523809Y-163788904D01*
X153952380Y-164693666D02*
X154952380Y-164931761D01*
X154238095Y-165122238D01*
X154952380Y-165312714D01*
X153952380Y-165550809D01*
X154666666Y-165884142D02*
X154666666Y-166360333D01*
X154952380Y-165788904D02*
X153952380Y-166122238D01*
X154952380Y-166455571D01*
X188517514Y-145597671D02*
X188374657Y-145645290D01*
X188327038Y-145692909D01*
X188279419Y-145788147D01*
X188279419Y-145931004D01*
X188327038Y-146026242D01*
X188374657Y-146073861D01*
X188469895Y-146121480D01*
X188850847Y-146121480D01*
X188850847Y-145121480D01*
X188517514Y-145121480D01*
X188422276Y-145169100D01*
X188374657Y-145216719D01*
X188327038Y-145311957D01*
X188327038Y-145407195D01*
X188374657Y-145502433D01*
X188422276Y-145550052D01*
X188517514Y-145597671D01*
X188850847Y-145597671D01*
X187469895Y-146073861D02*
X187565133Y-146121480D01*
X187755609Y-146121480D01*
X187850847Y-146073861D01*
X187898466Y-145978623D01*
X187898466Y-145597671D01*
X187850847Y-145502433D01*
X187755609Y-145454814D01*
X187565133Y-145454814D01*
X187469895Y-145502433D01*
X187422276Y-145597671D01*
X187422276Y-145692909D01*
X187898466Y-145788147D01*
X186565133Y-146073861D02*
X186660371Y-146121480D01*
X186850847Y-146121480D01*
X186946085Y-146073861D01*
X186993704Y-146026242D01*
X187041323Y-145931004D01*
X187041323Y-145645290D01*
X186993704Y-145550052D01*
X186946085Y-145502433D01*
X186850847Y-145454814D01*
X186660371Y-145454814D01*
X186565133Y-145502433D01*
%TO.C,C61*%
X225814957Y-96351342D02*
X225862576Y-96398961D01*
X226005433Y-96446580D01*
X226100671Y-96446580D01*
X226243528Y-96398961D01*
X226338766Y-96303723D01*
X226386385Y-96208485D01*
X226434004Y-96018009D01*
X226434004Y-95875152D01*
X226386385Y-95684676D01*
X226338766Y-95589438D01*
X226243528Y-95494200D01*
X226100671Y-95446580D01*
X226005433Y-95446580D01*
X225862576Y-95494200D01*
X225814957Y-95541819D01*
X224957814Y-95446580D02*
X225148290Y-95446580D01*
X225243528Y-95494200D01*
X225291147Y-95541819D01*
X225386385Y-95684676D01*
X225434004Y-95875152D01*
X225434004Y-96256104D01*
X225386385Y-96351342D01*
X225338766Y-96398961D01*
X225243528Y-96446580D01*
X225053052Y-96446580D01*
X224957814Y-96398961D01*
X224910195Y-96351342D01*
X224862576Y-96256104D01*
X224862576Y-96018009D01*
X224910195Y-95922771D01*
X224957814Y-95875152D01*
X225053052Y-95827533D01*
X225243528Y-95827533D01*
X225338766Y-95875152D01*
X225386385Y-95922771D01*
X225434004Y-96018009D01*
X223910195Y-96446580D02*
X224481623Y-96446580D01*
X224195909Y-96446580D02*
X224195909Y-95446580D01*
X224291147Y-95589438D01*
X224386385Y-95684676D01*
X224481623Y-95732295D01*
%TO.C,C66*%
X309564042Y-95661242D02*
X309611661Y-95613623D01*
X309659280Y-95470766D01*
X309659280Y-95375528D01*
X309611661Y-95232671D01*
X309516423Y-95137433D01*
X309421185Y-95089814D01*
X309230709Y-95042195D01*
X309087852Y-95042195D01*
X308897376Y-95089814D01*
X308802138Y-95137433D01*
X308706900Y-95232671D01*
X308659280Y-95375528D01*
X308659280Y-95470766D01*
X308706900Y-95613623D01*
X308754519Y-95661242D01*
X308659280Y-96518385D02*
X308659280Y-96327909D01*
X308706900Y-96232671D01*
X308754519Y-96185052D01*
X308897376Y-96089814D01*
X309087852Y-96042195D01*
X309468804Y-96042195D01*
X309564042Y-96089814D01*
X309611661Y-96137433D01*
X309659280Y-96232671D01*
X309659280Y-96423147D01*
X309611661Y-96518385D01*
X309564042Y-96566004D01*
X309468804Y-96613623D01*
X309230709Y-96613623D01*
X309135471Y-96566004D01*
X309087852Y-96518385D01*
X309040233Y-96423147D01*
X309040233Y-96232671D01*
X309087852Y-96137433D01*
X309135471Y-96089814D01*
X309230709Y-96042195D01*
X308659280Y-97470766D02*
X308659280Y-97280290D01*
X308706900Y-97185052D01*
X308754519Y-97137433D01*
X308897376Y-97042195D01*
X309087852Y-96994576D01*
X309468804Y-96994576D01*
X309564042Y-97042195D01*
X309611661Y-97089814D01*
X309659280Y-97185052D01*
X309659280Y-97375528D01*
X309611661Y-97470766D01*
X309564042Y-97518385D01*
X309468804Y-97566004D01*
X309230709Y-97566004D01*
X309135471Y-97518385D01*
X309087852Y-97470766D01*
X309040233Y-97375528D01*
X309040233Y-97185052D01*
X309087852Y-97089814D01*
X309135471Y-97042195D01*
X309230709Y-96994576D01*
%TO.C,C74*%
X311138842Y-82146242D02*
X311186461Y-82098623D01*
X311234080Y-81955766D01*
X311234080Y-81860528D01*
X311186461Y-81717671D01*
X311091223Y-81622433D01*
X310995985Y-81574814D01*
X310805509Y-81527195D01*
X310662652Y-81527195D01*
X310472176Y-81574814D01*
X310376938Y-81622433D01*
X310281700Y-81717671D01*
X310234080Y-81860528D01*
X310234080Y-81955766D01*
X310281700Y-82098623D01*
X310329319Y-82146242D01*
X310234080Y-82479576D02*
X310234080Y-83146242D01*
X311234080Y-82717671D01*
X310567414Y-83955766D02*
X311234080Y-83955766D01*
X310186461Y-83717671D02*
X310900747Y-83479576D01*
X310900747Y-84098623D01*
%TO.C,C90*%
X79165742Y-149002142D02*
X79213361Y-148954523D01*
X79260980Y-148811666D01*
X79260980Y-148716428D01*
X79213361Y-148573571D01*
X79118123Y-148478333D01*
X79022885Y-148430714D01*
X78832409Y-148383095D01*
X78689552Y-148383095D01*
X78499076Y-148430714D01*
X78403838Y-148478333D01*
X78308600Y-148573571D01*
X78260980Y-148716428D01*
X78260980Y-148811666D01*
X78308600Y-148954523D01*
X78356219Y-149002142D01*
X79260980Y-149478333D02*
X79260980Y-149668809D01*
X79213361Y-149764047D01*
X79165742Y-149811666D01*
X79022885Y-149906904D01*
X78832409Y-149954523D01*
X78451457Y-149954523D01*
X78356219Y-149906904D01*
X78308600Y-149859285D01*
X78260980Y-149764047D01*
X78260980Y-149573571D01*
X78308600Y-149478333D01*
X78356219Y-149430714D01*
X78451457Y-149383095D01*
X78689552Y-149383095D01*
X78784790Y-149430714D01*
X78832409Y-149478333D01*
X78880028Y-149573571D01*
X78880028Y-149764047D01*
X78832409Y-149859285D01*
X78784790Y-149906904D01*
X78689552Y-149954523D01*
X78260980Y-150573571D02*
X78260980Y-150668809D01*
X78308600Y-150764047D01*
X78356219Y-150811666D01*
X78451457Y-150859285D01*
X78641933Y-150906904D01*
X78880028Y-150906904D01*
X79070504Y-150859285D01*
X79165742Y-150811666D01*
X79213361Y-150764047D01*
X79260980Y-150668809D01*
X79260980Y-150573571D01*
X79213361Y-150478333D01*
X79165742Y-150430714D01*
X79070504Y-150383095D01*
X78880028Y-150335476D01*
X78641933Y-150335476D01*
X78451457Y-150383095D01*
X78356219Y-150430714D01*
X78308600Y-150478333D01*
X78260980Y-150573571D01*
%TO.C,C91*%
X82000342Y-137722142D02*
X82047961Y-137674523D01*
X82095580Y-137531666D01*
X82095580Y-137436428D01*
X82047961Y-137293571D01*
X81952723Y-137198333D01*
X81857485Y-137150714D01*
X81667009Y-137103095D01*
X81524152Y-137103095D01*
X81333676Y-137150714D01*
X81238438Y-137198333D01*
X81143200Y-137293571D01*
X81095580Y-137436428D01*
X81095580Y-137531666D01*
X81143200Y-137674523D01*
X81190819Y-137722142D01*
X82095580Y-138198333D02*
X82095580Y-138388809D01*
X82047961Y-138484047D01*
X82000342Y-138531666D01*
X81857485Y-138626904D01*
X81667009Y-138674523D01*
X81286057Y-138674523D01*
X81190819Y-138626904D01*
X81143200Y-138579285D01*
X81095580Y-138484047D01*
X81095580Y-138293571D01*
X81143200Y-138198333D01*
X81190819Y-138150714D01*
X81286057Y-138103095D01*
X81524152Y-138103095D01*
X81619390Y-138150714D01*
X81667009Y-138198333D01*
X81714628Y-138293571D01*
X81714628Y-138484047D01*
X81667009Y-138579285D01*
X81619390Y-138626904D01*
X81524152Y-138674523D01*
X82095580Y-139626904D02*
X82095580Y-139055476D01*
X82095580Y-139341190D02*
X81095580Y-139341190D01*
X81238438Y-139245952D01*
X81333676Y-139150714D01*
X81381295Y-139055476D01*
%TO.C,D1*%
X199445595Y-188053480D02*
X199445595Y-187053480D01*
X199207500Y-187053480D01*
X199064642Y-187101100D01*
X198969404Y-187196338D01*
X198921785Y-187291576D01*
X198874166Y-187482052D01*
X198874166Y-187624909D01*
X198921785Y-187815385D01*
X198969404Y-187910623D01*
X199064642Y-188005861D01*
X199207500Y-188053480D01*
X199445595Y-188053480D01*
X197921785Y-188053480D02*
X198493214Y-188053480D01*
X198207500Y-188053480D02*
X198207500Y-187053480D01*
X198302738Y-187196338D01*
X198397976Y-187291576D01*
X198493214Y-187339195D01*
X202537523Y-181021380D02*
X202537523Y-181211857D01*
X202156571Y-181021380D02*
X202156571Y-181211857D01*
X201728000Y-181497571D02*
X201394666Y-181497571D01*
X201251809Y-182021380D02*
X201728000Y-182021380D01*
X201728000Y-181021380D01*
X201251809Y-181021380D01*
X200870857Y-181735666D02*
X200394666Y-181735666D01*
X200966095Y-182021380D02*
X200632761Y-181021380D01*
X200299428Y-182021380D01*
X200013714Y-181973761D02*
X199870857Y-182021380D01*
X199632761Y-182021380D01*
X199537523Y-181973761D01*
X199489904Y-181926142D01*
X199442285Y-181830904D01*
X199442285Y-181735666D01*
X199489904Y-181640428D01*
X199537523Y-181592809D01*
X199632761Y-181545190D01*
X199823238Y-181497571D01*
X199918476Y-181449952D01*
X199966095Y-181402333D01*
X200013714Y-181307095D01*
X200013714Y-181211857D01*
X199966095Y-181116619D01*
X199918476Y-181069000D01*
X199823238Y-181021380D01*
X199585142Y-181021380D01*
X199442285Y-181069000D01*
X199156571Y-181021380D02*
X198585142Y-181021380D01*
X198870857Y-182021380D02*
X198870857Y-181021380D01*
X198299428Y-181021380D02*
X198299428Y-181211857D01*
X197918476Y-181021380D02*
X197918476Y-181211857D01*
%TO.C,D2*%
X159958095Y-187876380D02*
X159958095Y-186876380D01*
X159720000Y-186876380D01*
X159577142Y-186924000D01*
X159481904Y-187019238D01*
X159434285Y-187114476D01*
X159386666Y-187304952D01*
X159386666Y-187447809D01*
X159434285Y-187638285D01*
X159481904Y-187733523D01*
X159577142Y-187828761D01*
X159720000Y-187876380D01*
X159958095Y-187876380D01*
X159005714Y-186971619D02*
X158958095Y-186924000D01*
X158862857Y-186876380D01*
X158624761Y-186876380D01*
X158529523Y-186924000D01*
X158481904Y-186971619D01*
X158434285Y-187066857D01*
X158434285Y-187162095D01*
X158481904Y-187304952D01*
X159053333Y-187876380D01*
X158434285Y-187876380D01*
X161799380Y-181096980D02*
X161799380Y-181287457D01*
X161418428Y-181096980D02*
X161418428Y-181287457D01*
X161085095Y-181096980D02*
X160847000Y-182096980D01*
X160656523Y-181382695D01*
X160466047Y-182096980D01*
X160227952Y-181096980D01*
X159847000Y-181573171D02*
X159513666Y-181573171D01*
X159370809Y-182096980D02*
X159847000Y-182096980D01*
X159847000Y-181096980D01*
X159370809Y-181096980D01*
X158989857Y-182049361D02*
X158847000Y-182096980D01*
X158608904Y-182096980D01*
X158513666Y-182049361D01*
X158466047Y-182001742D01*
X158418428Y-181906504D01*
X158418428Y-181811266D01*
X158466047Y-181716028D01*
X158513666Y-181668409D01*
X158608904Y-181620790D01*
X158799380Y-181573171D01*
X158894619Y-181525552D01*
X158942238Y-181477933D01*
X158989857Y-181382695D01*
X158989857Y-181287457D01*
X158942238Y-181192219D01*
X158894619Y-181144600D01*
X158799380Y-181096980D01*
X158561285Y-181096980D01*
X158418428Y-181144600D01*
X158132714Y-181096980D02*
X157561285Y-181096980D01*
X157847000Y-182096980D02*
X157847000Y-181096980D01*
X157275571Y-181096980D02*
X157275571Y-181287457D01*
X156894619Y-181096980D02*
X156894619Y-181287457D01*
%TO.C,D8*%
X345924095Y-115474380D02*
X345924095Y-114474380D01*
X345686000Y-114474380D01*
X345543142Y-114522000D01*
X345447904Y-114617238D01*
X345400285Y-114712476D01*
X345352666Y-114902952D01*
X345352666Y-115045809D01*
X345400285Y-115236285D01*
X345447904Y-115331523D01*
X345543142Y-115426761D01*
X345686000Y-115474380D01*
X345924095Y-115474380D01*
X344781238Y-114902952D02*
X344876476Y-114855333D01*
X344924095Y-114807714D01*
X344971714Y-114712476D01*
X344971714Y-114664857D01*
X344924095Y-114569619D01*
X344876476Y-114522000D01*
X344781238Y-114474380D01*
X344590761Y-114474380D01*
X344495523Y-114522000D01*
X344447904Y-114569619D01*
X344400285Y-114664857D01*
X344400285Y-114712476D01*
X344447904Y-114807714D01*
X344495523Y-114855333D01*
X344590761Y-114902952D01*
X344781238Y-114902952D01*
X344876476Y-114950571D01*
X344924095Y-114998190D01*
X344971714Y-115093428D01*
X344971714Y-115283904D01*
X344924095Y-115379142D01*
X344876476Y-115426761D01*
X344781238Y-115474380D01*
X344590761Y-115474380D01*
X344495523Y-115426761D01*
X344447904Y-115379142D01*
X344400285Y-115283904D01*
X344400285Y-115093428D01*
X344447904Y-114998190D01*
X344495523Y-114950571D01*
X344590761Y-114902952D01*
%TO.C,R3*%
X223762866Y-143607780D02*
X224096200Y-143131590D01*
X224334295Y-143607780D02*
X224334295Y-142607780D01*
X223953342Y-142607780D01*
X223858104Y-142655400D01*
X223810485Y-142703019D01*
X223762866Y-142798257D01*
X223762866Y-142941114D01*
X223810485Y-143036352D01*
X223858104Y-143083971D01*
X223953342Y-143131590D01*
X224334295Y-143131590D01*
X223429533Y-142607780D02*
X222810485Y-142607780D01*
X223143819Y-142988733D01*
X223000961Y-142988733D01*
X222905723Y-143036352D01*
X222858104Y-143083971D01*
X222810485Y-143179209D01*
X222810485Y-143417304D01*
X222858104Y-143512542D01*
X222905723Y-143560161D01*
X223000961Y-143607780D01*
X223286676Y-143607780D01*
X223381914Y-143560161D01*
X223429533Y-143512542D01*
%TO.C,R6*%
X218451266Y-143620580D02*
X218784600Y-143144390D01*
X219022695Y-143620580D02*
X219022695Y-142620580D01*
X218641742Y-142620580D01*
X218546504Y-142668200D01*
X218498885Y-142715819D01*
X218451266Y-142811057D01*
X218451266Y-142953914D01*
X218498885Y-143049152D01*
X218546504Y-143096771D01*
X218641742Y-143144390D01*
X219022695Y-143144390D01*
X217594123Y-142620580D02*
X217784600Y-142620580D01*
X217879838Y-142668200D01*
X217927457Y-142715819D01*
X218022695Y-142858676D01*
X218070314Y-143049152D01*
X218070314Y-143430104D01*
X218022695Y-143525342D01*
X217975076Y-143572961D01*
X217879838Y-143620580D01*
X217689361Y-143620580D01*
X217594123Y-143572961D01*
X217546504Y-143525342D01*
X217498885Y-143430104D01*
X217498885Y-143192009D01*
X217546504Y-143096771D01*
X217594123Y-143049152D01*
X217689361Y-143001533D01*
X217879838Y-143001533D01*
X217975076Y-143049152D01*
X218022695Y-143096771D01*
X218070314Y-143192009D01*
%TO.C,R7*%
X222375266Y-113356380D02*
X222708600Y-112880190D01*
X222946695Y-113356380D02*
X222946695Y-112356380D01*
X222565742Y-112356380D01*
X222470504Y-112404000D01*
X222422885Y-112451619D01*
X222375266Y-112546857D01*
X222375266Y-112689714D01*
X222422885Y-112784952D01*
X222470504Y-112832571D01*
X222565742Y-112880190D01*
X222946695Y-112880190D01*
X222041933Y-112356380D02*
X221375266Y-112356380D01*
X221803838Y-113356380D01*
%TO.C,R8*%
X217435066Y-113356380D02*
X217768400Y-112880190D01*
X218006495Y-113356380D02*
X218006495Y-112356380D01*
X217625542Y-112356380D01*
X217530304Y-112404000D01*
X217482685Y-112451619D01*
X217435066Y-112546857D01*
X217435066Y-112689714D01*
X217482685Y-112784952D01*
X217530304Y-112832571D01*
X217625542Y-112880190D01*
X218006495Y-112880190D01*
X216863638Y-112784952D02*
X216958876Y-112737333D01*
X217006495Y-112689714D01*
X217054114Y-112594476D01*
X217054114Y-112546857D01*
X217006495Y-112451619D01*
X216958876Y-112404000D01*
X216863638Y-112356380D01*
X216673161Y-112356380D01*
X216577923Y-112404000D01*
X216530304Y-112451619D01*
X216482685Y-112546857D01*
X216482685Y-112594476D01*
X216530304Y-112689714D01*
X216577923Y-112737333D01*
X216673161Y-112784952D01*
X216863638Y-112784952D01*
X216958876Y-112832571D01*
X217006495Y-112880190D01*
X217054114Y-112975428D01*
X217054114Y-113165904D01*
X217006495Y-113261142D01*
X216958876Y-113308761D01*
X216863638Y-113356380D01*
X216673161Y-113356380D01*
X216577923Y-113308761D01*
X216530304Y-113261142D01*
X216482685Y-113165904D01*
X216482685Y-112975428D01*
X216530304Y-112880190D01*
X216577923Y-112832571D01*
X216673161Y-112784952D01*
%TO.C,R14*%
X74798157Y-172664480D02*
X75131490Y-172188290D01*
X75369585Y-172664480D02*
X75369585Y-171664480D01*
X74988633Y-171664480D01*
X74893395Y-171712100D01*
X74845776Y-171759719D01*
X74798157Y-171854957D01*
X74798157Y-171997814D01*
X74845776Y-172093052D01*
X74893395Y-172140671D01*
X74988633Y-172188290D01*
X75369585Y-172188290D01*
X73845776Y-172664480D02*
X74417204Y-172664480D01*
X74131490Y-172664480D02*
X74131490Y-171664480D01*
X74226728Y-171807338D01*
X74321966Y-171902576D01*
X74417204Y-171950195D01*
X72988633Y-171997814D02*
X72988633Y-172664480D01*
X73226728Y-171616861D02*
X73464823Y-172331147D01*
X72845776Y-172331147D01*
%TO.C,R15*%
X66082657Y-176500380D02*
X66415990Y-176024190D01*
X66654085Y-176500380D02*
X66654085Y-175500380D01*
X66273133Y-175500380D01*
X66177895Y-175548000D01*
X66130276Y-175595619D01*
X66082657Y-175690857D01*
X66082657Y-175833714D01*
X66130276Y-175928952D01*
X66177895Y-175976571D01*
X66273133Y-176024190D01*
X66654085Y-176024190D01*
X65130276Y-176500380D02*
X65701704Y-176500380D01*
X65415990Y-176500380D02*
X65415990Y-175500380D01*
X65511228Y-175643238D01*
X65606466Y-175738476D01*
X65701704Y-175786095D01*
X64225514Y-175500380D02*
X64701704Y-175500380D01*
X64749323Y-175976571D01*
X64701704Y-175928952D01*
X64606466Y-175881333D01*
X64368371Y-175881333D01*
X64273133Y-175928952D01*
X64225514Y-175976571D01*
X64177895Y-176071809D01*
X64177895Y-176309904D01*
X64225514Y-176405142D01*
X64273133Y-176452761D01*
X64368371Y-176500380D01*
X64606466Y-176500380D01*
X64701704Y-176452761D01*
X64749323Y-176405142D01*
%TO.C,R60*%
X308084480Y-82313542D02*
X307608290Y-81980209D01*
X308084480Y-81742114D02*
X307084480Y-81742114D01*
X307084480Y-82123066D01*
X307132100Y-82218304D01*
X307179719Y-82265923D01*
X307274957Y-82313542D01*
X307417814Y-82313542D01*
X307513052Y-82265923D01*
X307560671Y-82218304D01*
X307608290Y-82123066D01*
X307608290Y-81742114D01*
X307084480Y-83170685D02*
X307084480Y-82980209D01*
X307132100Y-82884971D01*
X307179719Y-82837352D01*
X307322576Y-82742114D01*
X307513052Y-82694495D01*
X307894004Y-82694495D01*
X307989242Y-82742114D01*
X308036861Y-82789733D01*
X308084480Y-82884971D01*
X308084480Y-83075447D01*
X308036861Y-83170685D01*
X307989242Y-83218304D01*
X307894004Y-83265923D01*
X307655909Y-83265923D01*
X307560671Y-83218304D01*
X307513052Y-83170685D01*
X307465433Y-83075447D01*
X307465433Y-82884971D01*
X307513052Y-82789733D01*
X307560671Y-82742114D01*
X307655909Y-82694495D01*
X307084480Y-83884971D02*
X307084480Y-83980209D01*
X307132100Y-84075447D01*
X307179719Y-84123066D01*
X307274957Y-84170685D01*
X307465433Y-84218304D01*
X307703528Y-84218304D01*
X307894004Y-84170685D01*
X307989242Y-84123066D01*
X308036861Y-84075447D01*
X308084480Y-83980209D01*
X308084480Y-83884971D01*
X308036861Y-83789733D01*
X307989242Y-83742114D01*
X307894004Y-83694495D01*
X307703528Y-83646876D01*
X307465433Y-83646876D01*
X307274957Y-83694495D01*
X307179719Y-83742114D01*
X307132100Y-83789733D01*
X307084480Y-83884971D01*
%TO.C,R74*%
X166542980Y-179125642D02*
X166066790Y-178792309D01*
X166542980Y-178554214D02*
X165542980Y-178554214D01*
X165542980Y-178935166D01*
X165590600Y-179030404D01*
X165638219Y-179078023D01*
X165733457Y-179125642D01*
X165876314Y-179125642D01*
X165971552Y-179078023D01*
X166019171Y-179030404D01*
X166066790Y-178935166D01*
X166066790Y-178554214D01*
X165542980Y-179458976D02*
X165542980Y-180125642D01*
X166542980Y-179697071D01*
X165876314Y-180935166D02*
X166542980Y-180935166D01*
X165495361Y-180697071D02*
X166209647Y-180458976D01*
X166209647Y-181078023D01*
%TO.C,R75*%
X169578280Y-179125642D02*
X169102090Y-178792309D01*
X169578280Y-178554214D02*
X168578280Y-178554214D01*
X168578280Y-178935166D01*
X168625900Y-179030404D01*
X168673519Y-179078023D01*
X168768757Y-179125642D01*
X168911614Y-179125642D01*
X169006852Y-179078023D01*
X169054471Y-179030404D01*
X169102090Y-178935166D01*
X169102090Y-178554214D01*
X168578280Y-179458976D02*
X168578280Y-180125642D01*
X169578280Y-179697071D01*
X168578280Y-180982785D02*
X168578280Y-180506595D01*
X169054471Y-180458976D01*
X169006852Y-180506595D01*
X168959233Y-180601833D01*
X168959233Y-180839928D01*
X169006852Y-180935166D01*
X169054471Y-180982785D01*
X169149709Y-181030404D01*
X169387804Y-181030404D01*
X169483042Y-180982785D01*
X169530661Y-180935166D01*
X169578280Y-180839928D01*
X169578280Y-180601833D01*
X169530661Y-180506595D01*
X169483042Y-180458976D01*
%TO.C,R76*%
X181655980Y-179112942D02*
X181179790Y-178779609D01*
X181655980Y-178541514D02*
X180655980Y-178541514D01*
X180655980Y-178922466D01*
X180703600Y-179017704D01*
X180751219Y-179065323D01*
X180846457Y-179112942D01*
X180989314Y-179112942D01*
X181084552Y-179065323D01*
X181132171Y-179017704D01*
X181179790Y-178922466D01*
X181179790Y-178541514D01*
X180655980Y-179446276D02*
X180655980Y-180112942D01*
X181655980Y-179684371D01*
X180655980Y-180922466D02*
X180655980Y-180731990D01*
X180703600Y-180636752D01*
X180751219Y-180589133D01*
X180894076Y-180493895D01*
X181084552Y-180446276D01*
X181465504Y-180446276D01*
X181560742Y-180493895D01*
X181608361Y-180541514D01*
X181655980Y-180636752D01*
X181655980Y-180827228D01*
X181608361Y-180922466D01*
X181560742Y-180970085D01*
X181465504Y-181017704D01*
X181227409Y-181017704D01*
X181132171Y-180970085D01*
X181084552Y-180922466D01*
X181036933Y-180827228D01*
X181036933Y-180636752D01*
X181084552Y-180541514D01*
X181132171Y-180493895D01*
X181227409Y-180446276D01*
%TO.C,R77*%
X178709580Y-179227242D02*
X178233390Y-178893909D01*
X178709580Y-178655814D02*
X177709580Y-178655814D01*
X177709580Y-179036766D01*
X177757200Y-179132004D01*
X177804819Y-179179623D01*
X177900057Y-179227242D01*
X178042914Y-179227242D01*
X178138152Y-179179623D01*
X178185771Y-179132004D01*
X178233390Y-179036766D01*
X178233390Y-178655814D01*
X177709580Y-179560576D02*
X177709580Y-180227242D01*
X178709580Y-179798671D01*
X177709580Y-180512957D02*
X177709580Y-181179623D01*
X178709580Y-180751052D01*
%TO.C,R78*%
X175725080Y-179151042D02*
X175248890Y-178817709D01*
X175725080Y-178579614D02*
X174725080Y-178579614D01*
X174725080Y-178960566D01*
X174772700Y-179055804D01*
X174820319Y-179103423D01*
X174915557Y-179151042D01*
X175058414Y-179151042D01*
X175153652Y-179103423D01*
X175201271Y-179055804D01*
X175248890Y-178960566D01*
X175248890Y-178579614D01*
X174725080Y-179484376D02*
X174725080Y-180151042D01*
X175725080Y-179722471D01*
X175153652Y-180674852D02*
X175106033Y-180579614D01*
X175058414Y-180531995D01*
X174963176Y-180484376D01*
X174915557Y-180484376D01*
X174820319Y-180531995D01*
X174772700Y-180579614D01*
X174725080Y-180674852D01*
X174725080Y-180865328D01*
X174772700Y-180960566D01*
X174820319Y-181008185D01*
X174915557Y-181055804D01*
X174963176Y-181055804D01*
X175058414Y-181008185D01*
X175106033Y-180960566D01*
X175153652Y-180865328D01*
X175153652Y-180674852D01*
X175201271Y-180579614D01*
X175248890Y-180531995D01*
X175344128Y-180484376D01*
X175534604Y-180484376D01*
X175629842Y-180531995D01*
X175677461Y-180579614D01*
X175725080Y-180674852D01*
X175725080Y-180865328D01*
X175677461Y-180960566D01*
X175629842Y-181008185D01*
X175534604Y-181055804D01*
X175344128Y-181055804D01*
X175248890Y-181008185D01*
X175201271Y-180960566D01*
X175153652Y-180865328D01*
%TO.C,R79*%
X172372280Y-179125642D02*
X171896090Y-178792309D01*
X172372280Y-178554214D02*
X171372280Y-178554214D01*
X171372280Y-178935166D01*
X171419900Y-179030404D01*
X171467519Y-179078023D01*
X171562757Y-179125642D01*
X171705614Y-179125642D01*
X171800852Y-179078023D01*
X171848471Y-179030404D01*
X171896090Y-178935166D01*
X171896090Y-178554214D01*
X171372280Y-179458976D02*
X171372280Y-180125642D01*
X172372280Y-179697071D01*
X172372280Y-180554214D02*
X172372280Y-180744690D01*
X172324661Y-180839928D01*
X172277042Y-180887547D01*
X172134185Y-180982785D01*
X171943709Y-181030404D01*
X171562757Y-181030404D01*
X171467519Y-180982785D01*
X171419900Y-180935166D01*
X171372280Y-180839928D01*
X171372280Y-180649452D01*
X171419900Y-180554214D01*
X171467519Y-180506595D01*
X171562757Y-180458976D01*
X171800852Y-180458976D01*
X171896090Y-180506595D01*
X171943709Y-180554214D01*
X171991328Y-180649452D01*
X171991328Y-180839928D01*
X171943709Y-180935166D01*
X171896090Y-180982785D01*
X171800852Y-181030404D01*
%TO.C,U1*%
X259486504Y-145159080D02*
X259486504Y-145968604D01*
X259438885Y-146063842D01*
X259391266Y-146111461D01*
X259296028Y-146159080D01*
X259105552Y-146159080D01*
X259010314Y-146111461D01*
X258962695Y-146063842D01*
X258915076Y-145968604D01*
X258915076Y-145159080D01*
X257915076Y-146159080D02*
X258486504Y-146159080D01*
X258200790Y-146159080D02*
X258200790Y-145159080D01*
X258296028Y-145301938D01*
X258391266Y-145397176D01*
X258486504Y-145444795D01*
X234816142Y-154248714D02*
X234863761Y-154201095D01*
X234911380Y-154058238D01*
X234911380Y-153963000D01*
X234863761Y-153820142D01*
X234768523Y-153724904D01*
X234673285Y-153677285D01*
X234482809Y-153629666D01*
X234339952Y-153629666D01*
X234149476Y-153677285D01*
X234054238Y-153724904D01*
X233959000Y-153820142D01*
X233911380Y-153963000D01*
X233911380Y-154058238D01*
X233959000Y-154201095D01*
X234006619Y-154248714D01*
X234816142Y-155248714D02*
X234863761Y-155201095D01*
X234911380Y-155058238D01*
X234911380Y-154963000D01*
X234863761Y-154820142D01*
X234768523Y-154724904D01*
X234673285Y-154677285D01*
X234482809Y-154629666D01*
X234339952Y-154629666D01*
X234149476Y-154677285D01*
X234054238Y-154724904D01*
X233959000Y-154820142D01*
X233911380Y-154963000D01*
X233911380Y-155058238D01*
X233959000Y-155201095D01*
X234006619Y-155248714D01*
X233911380Y-156153476D02*
X233911380Y-155677285D01*
X234387571Y-155629666D01*
X234339952Y-155677285D01*
X234292333Y-155772523D01*
X234292333Y-156010619D01*
X234339952Y-156105857D01*
X234387571Y-156153476D01*
X234482809Y-156201095D01*
X234720904Y-156201095D01*
X234816142Y-156153476D01*
X234863761Y-156105857D01*
X234911380Y-156010619D01*
X234911380Y-155772523D01*
X234863761Y-155677285D01*
X234816142Y-155629666D01*
X233911380Y-157058238D02*
X233911380Y-156867761D01*
X233959000Y-156772523D01*
X234006619Y-156724904D01*
X234149476Y-156629666D01*
X234339952Y-156582047D01*
X234720904Y-156582047D01*
X234816142Y-156629666D01*
X234863761Y-156677285D01*
X234911380Y-156772523D01*
X234911380Y-156963000D01*
X234863761Y-157058238D01*
X234816142Y-157105857D01*
X234720904Y-157153476D01*
X234482809Y-157153476D01*
X234387571Y-157105857D01*
X234339952Y-157058238D01*
X234292333Y-156963000D01*
X234292333Y-156772523D01*
X234339952Y-156677285D01*
X234387571Y-156629666D01*
X234482809Y-156582047D01*
X234530428Y-157582047D02*
X234530428Y-158343952D01*
X234911380Y-159343952D02*
X234911380Y-158772523D01*
X234911380Y-159058238D02*
X233911380Y-159058238D01*
X234054238Y-158963000D01*
X234149476Y-158867761D01*
X234197095Y-158772523D01*
X234006619Y-159724904D02*
X233959000Y-159772523D01*
X233911380Y-159867761D01*
X233911380Y-160105857D01*
X233959000Y-160201095D01*
X234006619Y-160248714D01*
X234101857Y-160296333D01*
X234197095Y-160296333D01*
X234339952Y-160248714D01*
X234911380Y-159677285D01*
X234911380Y-160296333D01*
X234863761Y-160677285D02*
X234911380Y-160820142D01*
X234911380Y-161058238D01*
X234863761Y-161153476D01*
X234816142Y-161201095D01*
X234720904Y-161248714D01*
X234625666Y-161248714D01*
X234530428Y-161201095D01*
X234482809Y-161153476D01*
X234435190Y-161058238D01*
X234387571Y-160867761D01*
X234339952Y-160772523D01*
X234292333Y-160724904D01*
X234197095Y-160677285D01*
X234101857Y-160677285D01*
X234006619Y-160724904D01*
X233959000Y-160772523D01*
X233911380Y-160867761D01*
X233911380Y-161105857D01*
X233959000Y-161248714D01*
X233911380Y-161677285D02*
X234720904Y-161677285D01*
X234816142Y-161724904D01*
X234863761Y-161772523D01*
X234911380Y-161867761D01*
X234911380Y-162058238D01*
X234863761Y-162153476D01*
X234816142Y-162201095D01*
X234720904Y-162248714D01*
X233911380Y-162248714D01*
X234911380Y-163296333D02*
X234435190Y-162963000D01*
X234911380Y-162724904D02*
X233911380Y-162724904D01*
X233911380Y-163105857D01*
X233959000Y-163201095D01*
X234006619Y-163248714D01*
X234101857Y-163296333D01*
X234244714Y-163296333D01*
X234339952Y-163248714D01*
X234387571Y-163201095D01*
X234435190Y-163105857D01*
X234435190Y-162724904D01*
X234911380Y-163724904D02*
X233911380Y-163724904D01*
X234911380Y-164296333D02*
X234339952Y-163867761D01*
X233911380Y-164296333D02*
X234482809Y-163724904D01*
X233911380Y-164629666D02*
X234911380Y-164867761D01*
X234197095Y-165058238D01*
X234911380Y-165248714D01*
X233911380Y-165486809D01*
X234625666Y-165820142D02*
X234625666Y-166296333D01*
X234911380Y-165724904D02*
X233911380Y-166058238D01*
X234911380Y-166391571D01*
X269135204Y-145571771D02*
X268992347Y-145619390D01*
X268944728Y-145667009D01*
X268897109Y-145762247D01*
X268897109Y-145905104D01*
X268944728Y-146000342D01*
X268992347Y-146047961D01*
X269087585Y-146095580D01*
X269468538Y-146095580D01*
X269468538Y-145095580D01*
X269135204Y-145095580D01*
X269039966Y-145143200D01*
X268992347Y-145190819D01*
X268944728Y-145286057D01*
X268944728Y-145381295D01*
X268992347Y-145476533D01*
X269039966Y-145524152D01*
X269135204Y-145571771D01*
X269468538Y-145571771D01*
X268468538Y-145428914D02*
X268468538Y-146428914D01*
X268468538Y-145476533D02*
X268373300Y-145428914D01*
X268182823Y-145428914D01*
X268087585Y-145476533D01*
X268039966Y-145524152D01*
X267992347Y-145619390D01*
X267992347Y-145905104D01*
X268039966Y-146000342D01*
X268087585Y-146047961D01*
X268182823Y-146095580D01*
X268373300Y-146095580D01*
X268468538Y-146047961D01*
X267182823Y-146047961D02*
X267278061Y-146095580D01*
X267468538Y-146095580D01*
X267563776Y-146047961D01*
X267611395Y-145952723D01*
X267611395Y-145571771D01*
X267563776Y-145476533D01*
X267468538Y-145428914D01*
X267278061Y-145428914D01*
X267182823Y-145476533D01*
X267135204Y-145571771D01*
X267135204Y-145667009D01*
X267611395Y-145762247D01*
X266706633Y-146095580D02*
X266706633Y-145428914D01*
X266420919Y-145952723D01*
X266135204Y-145428914D01*
X266135204Y-146095580D01*
X265468538Y-145809866D02*
X265706633Y-146095580D01*
X265278061Y-146095580D02*
X265278061Y-145428914D01*
X265563776Y-145428914D01*
X265659014Y-145476533D01*
X265706633Y-145571771D01*
X265706633Y-145667009D01*
X265659014Y-145762247D01*
X265563776Y-145809866D01*
X265278061Y-145809866D01*
%TO.C,U5*%
X248691304Y-123747280D02*
X248691304Y-124556804D01*
X248643685Y-124652042D01*
X248596066Y-124699661D01*
X248500828Y-124747280D01*
X248310352Y-124747280D01*
X248215114Y-124699661D01*
X248167495Y-124652042D01*
X248119876Y-124556804D01*
X248119876Y-123747280D01*
X247167495Y-123747280D02*
X247643685Y-123747280D01*
X247691304Y-124223471D01*
X247643685Y-124175852D01*
X247548447Y-124128233D01*
X247310352Y-124128233D01*
X247215114Y-124175852D01*
X247167495Y-124223471D01*
X247119876Y-124318709D01*
X247119876Y-124556804D01*
X247167495Y-124652042D01*
X247215114Y-124699661D01*
X247310352Y-124747280D01*
X247548447Y-124747280D01*
X247643685Y-124699661D01*
X247691304Y-124652042D01*
X235461761Y-107934285D02*
X235509380Y-108077142D01*
X235509380Y-108315238D01*
X235461761Y-108410476D01*
X235414142Y-108458095D01*
X235318904Y-108505714D01*
X235223666Y-108505714D01*
X235128428Y-108458095D01*
X235080809Y-108410476D01*
X235033190Y-108315238D01*
X234985571Y-108124761D01*
X234937952Y-108029523D01*
X234890333Y-107981904D01*
X234795095Y-107934285D01*
X234699857Y-107934285D01*
X234604619Y-107981904D01*
X234557000Y-108029523D01*
X234509380Y-108124761D01*
X234509380Y-108362857D01*
X234557000Y-108505714D01*
X235414142Y-109505714D02*
X235461761Y-109458095D01*
X235509380Y-109315238D01*
X235509380Y-109220000D01*
X235461761Y-109077142D01*
X235366523Y-108981904D01*
X235271285Y-108934285D01*
X235080809Y-108886666D01*
X234937952Y-108886666D01*
X234747476Y-108934285D01*
X234652238Y-108981904D01*
X234557000Y-109077142D01*
X234509380Y-109220000D01*
X234509380Y-109315238D01*
X234557000Y-109458095D01*
X234604619Y-109505714D01*
X234509380Y-110410476D02*
X234509380Y-109934285D01*
X234985571Y-109886666D01*
X234937952Y-109934285D01*
X234890333Y-110029523D01*
X234890333Y-110267619D01*
X234937952Y-110362857D01*
X234985571Y-110410476D01*
X235080809Y-110458095D01*
X235318904Y-110458095D01*
X235414142Y-110410476D01*
X235461761Y-110362857D01*
X235509380Y-110267619D01*
X235509380Y-110029523D01*
X235461761Y-109934285D01*
X235414142Y-109886666D01*
X234509380Y-111315238D02*
X234509380Y-111124761D01*
X234557000Y-111029523D01*
X234604619Y-110981904D01*
X234747476Y-110886666D01*
X234937952Y-110839047D01*
X235318904Y-110839047D01*
X235414142Y-110886666D01*
X235461761Y-110934285D01*
X235509380Y-111029523D01*
X235509380Y-111220000D01*
X235461761Y-111315238D01*
X235414142Y-111362857D01*
X235318904Y-111410476D01*
X235080809Y-111410476D01*
X234985571Y-111362857D01*
X234937952Y-111315238D01*
X234890333Y-111220000D01*
X234890333Y-111029523D01*
X234937952Y-110934285D01*
X234985571Y-110886666D01*
X235080809Y-110839047D01*
X235128428Y-111839047D02*
X235128428Y-112600952D01*
X235509380Y-113600952D02*
X235509380Y-113029523D01*
X235509380Y-113315238D02*
X234509380Y-113315238D01*
X234652238Y-113220000D01*
X234747476Y-113124761D01*
X234795095Y-113029523D01*
X235509380Y-114553333D02*
X235509380Y-113981904D01*
X235509380Y-114267619D02*
X234509380Y-114267619D01*
X234652238Y-114172380D01*
X234747476Y-114077142D01*
X234795095Y-113981904D01*
X235461761Y-114934285D02*
X235509380Y-115077142D01*
X235509380Y-115315238D01*
X235461761Y-115410476D01*
X235414142Y-115458095D01*
X235318904Y-115505714D01*
X235223666Y-115505714D01*
X235128428Y-115458095D01*
X235080809Y-115410476D01*
X235033190Y-115315238D01*
X234985571Y-115124761D01*
X234937952Y-115029523D01*
X234890333Y-114981904D01*
X234795095Y-114934285D01*
X234699857Y-114934285D01*
X234604619Y-114981904D01*
X234557000Y-115029523D01*
X234509380Y-115124761D01*
X234509380Y-115362857D01*
X234557000Y-115505714D01*
X235509380Y-116505714D02*
X235033190Y-116172380D01*
X235509380Y-115934285D02*
X234509380Y-115934285D01*
X234509380Y-116315238D01*
X234557000Y-116410476D01*
X234604619Y-116458095D01*
X234699857Y-116505714D01*
X234842714Y-116505714D01*
X234937952Y-116458095D01*
X234985571Y-116410476D01*
X235033190Y-116315238D01*
X235033190Y-115934285D01*
X234509380Y-116839047D02*
X235509380Y-117077142D01*
X234795095Y-117267619D01*
X235509380Y-117458095D01*
X234509380Y-117696190D01*
X235223666Y-118029523D02*
X235223666Y-118505714D01*
X235509380Y-117934285D02*
X234509380Y-118267619D01*
X235509380Y-118600952D01*
X242415819Y-124652042D02*
X242463438Y-124699661D01*
X242606295Y-124747280D01*
X242701533Y-124747280D01*
X242844390Y-124699661D01*
X242939628Y-124604423D01*
X242987247Y-124509185D01*
X243034866Y-124318709D01*
X243034866Y-124175852D01*
X242987247Y-123985376D01*
X242939628Y-123890138D01*
X242844390Y-123794900D01*
X242701533Y-123747280D01*
X242606295Y-123747280D01*
X242463438Y-123794900D01*
X242415819Y-123842519D01*
X241987247Y-124747280D02*
X241987247Y-124080614D01*
X241701533Y-124604423D01*
X241415819Y-124080614D01*
X241415819Y-124747280D01*
X240558676Y-124699661D02*
X240653914Y-124747280D01*
X240844390Y-124747280D01*
X240939628Y-124699661D01*
X240987247Y-124604423D01*
X240987247Y-124223471D01*
X240939628Y-124128233D01*
X240844390Y-124080614D01*
X240653914Y-124080614D01*
X240558676Y-124128233D01*
X240511057Y-124223471D01*
X240511057Y-124318709D01*
X240987247Y-124413947D01*
X240082485Y-124413947D02*
X239653914Y-124413947D01*
X240082485Y-124080614D02*
X240082485Y-124747280D01*
X239653914Y-124080614D02*
X239653914Y-124747280D01*
X238749152Y-124747280D02*
X238749152Y-124223471D01*
X238796771Y-124128233D01*
X238892009Y-124080614D01*
X239082485Y-124080614D01*
X239177723Y-124128233D01*
X238749152Y-124699661D02*
X238844390Y-124747280D01*
X239082485Y-124747280D01*
X239177723Y-124699661D01*
X239225342Y-124604423D01*
X239225342Y-124509185D01*
X239177723Y-124413947D01*
X239082485Y-124366328D01*
X238844390Y-124366328D01*
X238749152Y-124318709D01*
%TO.C,U7*%
X278371204Y-124090180D02*
X278371204Y-124899704D01*
X278323585Y-124994942D01*
X278275966Y-125042561D01*
X278180728Y-125090180D01*
X277990252Y-125090180D01*
X277895014Y-125042561D01*
X277847395Y-124994942D01*
X277799776Y-124899704D01*
X277799776Y-124090180D01*
X277418823Y-124090180D02*
X276752157Y-124090180D01*
X277180728Y-125090180D01*
X259436142Y-110827714D02*
X259483761Y-110780095D01*
X259531380Y-110637238D01*
X259531380Y-110542000D01*
X259483761Y-110399142D01*
X259388523Y-110303904D01*
X259293285Y-110256285D01*
X259102809Y-110208666D01*
X258959952Y-110208666D01*
X258769476Y-110256285D01*
X258674238Y-110303904D01*
X258579000Y-110399142D01*
X258531380Y-110542000D01*
X258531380Y-110637238D01*
X258579000Y-110780095D01*
X258626619Y-110827714D01*
X259436142Y-111827714D02*
X259483761Y-111780095D01*
X259531380Y-111637238D01*
X259531380Y-111542000D01*
X259483761Y-111399142D01*
X259388523Y-111303904D01*
X259293285Y-111256285D01*
X259102809Y-111208666D01*
X258959952Y-111208666D01*
X258769476Y-111256285D01*
X258674238Y-111303904D01*
X258579000Y-111399142D01*
X258531380Y-111542000D01*
X258531380Y-111637238D01*
X258579000Y-111780095D01*
X258626619Y-111827714D01*
X258531380Y-112732476D02*
X258531380Y-112256285D01*
X259007571Y-112208666D01*
X258959952Y-112256285D01*
X258912333Y-112351523D01*
X258912333Y-112589619D01*
X258959952Y-112684857D01*
X259007571Y-112732476D01*
X259102809Y-112780095D01*
X259340904Y-112780095D01*
X259436142Y-112732476D01*
X259483761Y-112684857D01*
X259531380Y-112589619D01*
X259531380Y-112351523D01*
X259483761Y-112256285D01*
X259436142Y-112208666D01*
X258531380Y-113637238D02*
X258531380Y-113446761D01*
X258579000Y-113351523D01*
X258626619Y-113303904D01*
X258769476Y-113208666D01*
X258959952Y-113161047D01*
X259340904Y-113161047D01*
X259436142Y-113208666D01*
X259483761Y-113256285D01*
X259531380Y-113351523D01*
X259531380Y-113542000D01*
X259483761Y-113637238D01*
X259436142Y-113684857D01*
X259340904Y-113732476D01*
X259102809Y-113732476D01*
X259007571Y-113684857D01*
X258959952Y-113637238D01*
X258912333Y-113542000D01*
X258912333Y-113351523D01*
X258959952Y-113256285D01*
X259007571Y-113208666D01*
X259102809Y-113161047D01*
X259150428Y-114161047D02*
X259150428Y-114922952D01*
X259531380Y-115922952D02*
X259531380Y-115351523D01*
X259531380Y-115637238D02*
X258531380Y-115637238D01*
X258674238Y-115542000D01*
X258769476Y-115446761D01*
X258817095Y-115351523D01*
X258626619Y-116303904D02*
X258579000Y-116351523D01*
X258531380Y-116446761D01*
X258531380Y-116684857D01*
X258579000Y-116780095D01*
X258626619Y-116827714D01*
X258721857Y-116875333D01*
X258817095Y-116875333D01*
X258959952Y-116827714D01*
X259531380Y-116256285D01*
X259531380Y-116875333D01*
X259483761Y-117256285D02*
X259531380Y-117399142D01*
X259531380Y-117637238D01*
X259483761Y-117732476D01*
X259436142Y-117780095D01*
X259340904Y-117827714D01*
X259245666Y-117827714D01*
X259150428Y-117780095D01*
X259102809Y-117732476D01*
X259055190Y-117637238D01*
X259007571Y-117446761D01*
X258959952Y-117351523D01*
X258912333Y-117303904D01*
X258817095Y-117256285D01*
X258721857Y-117256285D01*
X258626619Y-117303904D01*
X258579000Y-117351523D01*
X258531380Y-117446761D01*
X258531380Y-117684857D01*
X258579000Y-117827714D01*
X258531380Y-118256285D02*
X259340904Y-118256285D01*
X259436142Y-118303904D01*
X259483761Y-118351523D01*
X259531380Y-118446761D01*
X259531380Y-118637238D01*
X259483761Y-118732476D01*
X259436142Y-118780095D01*
X259340904Y-118827714D01*
X258531380Y-118827714D01*
X259531380Y-119875333D02*
X259055190Y-119542000D01*
X259531380Y-119303904D02*
X258531380Y-119303904D01*
X258531380Y-119684857D01*
X258579000Y-119780095D01*
X258626619Y-119827714D01*
X258721857Y-119875333D01*
X258864714Y-119875333D01*
X258959952Y-119827714D01*
X259007571Y-119780095D01*
X259055190Y-119684857D01*
X259055190Y-119303904D01*
X259531380Y-120303904D02*
X258531380Y-120303904D01*
X259531380Y-120875333D02*
X258959952Y-120446761D01*
X258531380Y-120875333D02*
X259102809Y-120303904D01*
X258531380Y-121208666D02*
X259531380Y-121446761D01*
X258817095Y-121637238D01*
X259531380Y-121827714D01*
X258531380Y-122065809D01*
X259245666Y-122399142D02*
X259245666Y-122875333D01*
X259531380Y-122303904D02*
X258531380Y-122637238D01*
X259531380Y-122970571D01*
X288502623Y-125366376D02*
X288502623Y-125128280D01*
X289359766Y-125128280D01*
X289359766Y-125366376D01*
X288693100Y-125128280D02*
X288693100Y-124128280D01*
X288931195Y-124128280D01*
X289026433Y-124175900D01*
X289074052Y-124223519D01*
X289121671Y-124318757D01*
X289216909Y-125128280D01*
X287693100Y-125128280D02*
X287693100Y-124604471D01*
X287740719Y-124509233D01*
X287835957Y-124461614D01*
X288026433Y-124461614D01*
X288121671Y-124509233D01*
X287693100Y-125080661D02*
X287788338Y-125128280D01*
X288026433Y-125128280D01*
X288121671Y-125080661D01*
X288169290Y-124985423D01*
X288169290Y-124890185D01*
X288121671Y-124794947D01*
X288026433Y-124747328D01*
X287788338Y-124747328D01*
X287693100Y-124699709D01*
X287359766Y-124461614D02*
X286883576Y-124461614D01*
X287121671Y-124461614D02*
X287121671Y-125128280D01*
X286121671Y-125128280D02*
X286121671Y-124604471D01*
X286169290Y-124509233D01*
X286264528Y-124461614D01*
X286455004Y-124461614D01*
X286550242Y-124509233D01*
X286121671Y-125080661D02*
X286216909Y-125128280D01*
X286455004Y-125128280D01*
X286550242Y-125080661D01*
X286597861Y-124985423D01*
X286597861Y-124890185D01*
X286550242Y-124794947D01*
X286455004Y-124747328D01*
X286216909Y-124747328D01*
X286121671Y-124699709D01*
%TO.C,C50*%
X132072957Y-138469642D02*
X132120576Y-138517261D01*
X132263433Y-138564880D01*
X132358671Y-138564880D01*
X132501528Y-138517261D01*
X132596766Y-138422023D01*
X132644385Y-138326785D01*
X132692004Y-138136309D01*
X132692004Y-137993452D01*
X132644385Y-137802976D01*
X132596766Y-137707738D01*
X132501528Y-137612500D01*
X132358671Y-137564880D01*
X132263433Y-137564880D01*
X132120576Y-137612500D01*
X132072957Y-137660119D01*
X131168195Y-137564880D02*
X131644385Y-137564880D01*
X131692004Y-138041071D01*
X131644385Y-137993452D01*
X131549147Y-137945833D01*
X131311052Y-137945833D01*
X131215814Y-137993452D01*
X131168195Y-138041071D01*
X131120576Y-138136309D01*
X131120576Y-138374404D01*
X131168195Y-138469642D01*
X131215814Y-138517261D01*
X131311052Y-138564880D01*
X131549147Y-138564880D01*
X131644385Y-138517261D01*
X131692004Y-138469642D01*
X130501528Y-137564880D02*
X130406290Y-137564880D01*
X130311052Y-137612500D01*
X130263433Y-137660119D01*
X130215814Y-137755357D01*
X130168195Y-137945833D01*
X130168195Y-138183928D01*
X130215814Y-138374404D01*
X130263433Y-138469642D01*
X130311052Y-138517261D01*
X130406290Y-138564880D01*
X130501528Y-138564880D01*
X130596766Y-138517261D01*
X130644385Y-138469642D01*
X130692004Y-138374404D01*
X130739623Y-138183928D01*
X130739623Y-137945833D01*
X130692004Y-137755357D01*
X130644385Y-137660119D01*
X130596766Y-137612500D01*
X130501528Y-137564880D01*
%TD*%
M02*
